solid OpenSCAD_Model
  facet normal 1 0 0
    outer loop
      vertex 372.6 3.7 209.647
      vertex 372.6 21.7 209.647
      vertex 372.6 21.7 209.667
    endloop
  endfacet
  facet normal 1 0 0
    outer loop
      vertex 372.6 21.7 209.647
      vertex 372.6 7.2 191.667
      vertex 372.6 18.2 191.667
    endloop
  endfacet
  facet normal 1 0 0
    outer loop
      vertex 372.6 3.7 209.647
      vertex 372.6 21.7 209.667
      vertex 372.6 3.7 209.667
    endloop
  endfacet
  facet normal 1 0 0
    outer loop
      vertex 372.6 21.7 209.647
      vertex 372.6 3.7 209.647
      vertex 372.6 7.2 191.667
    endloop
  endfacet
  facet normal 1 -0 0
    outer loop
      vertex 372.6 18.2 191.667
      vertex 372.6 25.4 25.4
      vertex 372.6 25.4 191.667
    endloop
  endfacet
  facet normal 1 -0 0
    outer loop
      vertex 372.6 7.2 191.667
      vertex 372.6 25.4 25.4
      vertex 372.6 18.2 191.667
    endloop
  endfacet
  facet normal 1 0 0
    outer loop
      vertex 372.6 0 25.4
      vertex 372.6 7.2 191.667
      vertex 372.6 0 191.667
    endloop
  endfacet
  facet normal 1 0 0
    outer loop
      vertex 372.6 7.2 191.667
      vertex 372.6 0 25.4
      vertex 372.6 25.4 25.4
    endloop
  endfacet
  facet normal 0 1 -0
    outer loop
      vertex 372.6 25.4 25.4
      vertex 365.673 25.4 191.667
      vertex 372.6 25.4 191.667
    endloop
  endfacet
  facet normal 0 1 0
    outer loop
      vertex 365.673 25.4 191.667
      vertex 372.6 25.4 25.4
      vertex 365.673 25.4 25.4
    endloop
  endfacet
  facet normal 0 1 -0
    outer loop
      vertex 354.127 25.4 25.4
      vertex 186.3 25.4 191.667
      vertex 354.127 25.4 191.667
    endloop
  endfacet
  facet normal 0 1 0
    outer loop
      vertex 186.3 25.4 191.667
      vertex 354.127 25.4 25.4
      vertex 186.3 25.4 25.4
    endloop
  endfacet
  facet normal 0 0 -0
    outer loop
      vertex 354.127 25.4 191.667
      vertex 186.3 25.4 191.667
      vertex 372.6 25.4 191.667
    endloop
  endfacet
  facet normal 0 0 0
    outer loop
      vertex 372.6 25.4 191.667
      vertex 365.673 25.4 191.667
      vertex 354.127 25.4 191.667
    endloop
  endfacet
  facet normal 0 -1 0
    outer loop
      vertex 186.3 0 25.4
      vertex 372.6 0 191.667
      vertex 186.3 0 191.667
    endloop
  endfacet
  facet normal 0 -1 -0
    outer loop
      vertex 372.6 0 191.667
      vertex 186.3 0 25.4
      vertex 372.6 0 25.4
    endloop
  endfacet
  facet normal -1 0 0
    outer loop
      vertex 186.3 18.55 25.4
      vertex 186.3 25.4 191.667
      vertex 186.3 25.4 25.4
    endloop
  endfacet
  facet normal -1 -0 0
    outer loop
      vertex 186.3 25.4 191.667
      vertex 186.3 18.55 25.4
      vertex 186.3 18.55 191.667
    endloop
  endfacet
  facet normal -1 0 0
    outer loop
      vertex 186.3 0 25.4
      vertex 186.3 6.85 191.667
      vertex 186.3 6.85 25.4
    endloop
  endfacet
  facet normal -1 -0 0
    outer loop
      vertex 186.3 6.85 191.667
      vertex 186.3 0 25.4
      vertex 186.3 0 191.667
    endloop
  endfacet
  facet normal -1 0 0
    outer loop
      vertex 186.3 7.13187 192.017
      vertex 186.3 21.7 209.647
      vertex 186.3 18.2681 192.017
    endloop
  endfacet
  facet normal -1 0 0
    outer loop
      vertex 186.3 3.7 209.647
      vertex 186.3 21.7 209.647
      vertex 186.3 7.13187 192.017
    endloop
  endfacet
  facet normal -1 0 0
    outer loop
      vertex 186.3 21.7 209.647
      vertex 186.3 3.7 209.647
      vertex 186.3 21.7 209.667
    endloop
  endfacet
  facet normal -1 -0 0
    outer loop
      vertex 186.3 21.7 209.667
      vertex 186.3 3.7 209.647
      vertex 186.3 3.7 209.667
    endloop
  endfacet
  facet normal 0 0 1
    outer loop
      vertex 372.6 25.4 191.667
      vertex 204.65 22.05 191.667
      vertex 372.6 18.2 191.667
    endloop
  endfacet
  facet normal -0 0 1
    outer loop
      vertex 186.3 25.4 191.667
      vertex 204.65 22.05 191.667
      vertex 372.6 25.4 191.667
    endloop
  endfacet
  facet normal 0 0 1
    outer loop
      vertex 204.65 22.05 191.667
      vertex 186.3 25.4 191.667
      vertex 204.63 22.05 191.667
    endloop
  endfacet
  facet normal 0 0 1
    outer loop
      vertex 204.63 22.05 191.667
      vertex 186.3 25.4 191.667
      vertex 186.3 18.55 191.667
    endloop
  endfacet
  facet normal 0 0 1
    outer loop
      vertex 372.6 18.2 191.667
      vertex 204.65 22.05 191.667
      vertex 204.65 18.2 191.667
    endloop
  endfacet
  facet normal 0 0 1
    outer loop
      vertex 204.65 3.35 191.667
      vertex 372.6 7.2 191.667
      vertex 204.65 7.2 191.667
    endloop
  endfacet
  facet normal 0 0 1
    outer loop
      vertex 372.6 7.2 191.667
      vertex 204.65 3.35 191.667
      vertex 372.6 0 191.667
    endloop
  endfacet
  facet normal 0 0 1
    outer loop
      vertex 186.3 0 191.667
      vertex 204.65 3.35 191.667
      vertex 204.63 3.35 191.667
    endloop
  endfacet
  facet normal 0 0 1
    outer loop
      vertex 204.65 3.35 191.667
      vertex 186.3 0 191.667
      vertex 372.6 0 191.667
    endloop
  endfacet
  facet normal 0 0 1
    outer loop
      vertex 186.3 0 191.667
      vertex 204.63 3.35 191.667
      vertex 186.3 6.85 191.667
    endloop
  endfacet
  facet normal 0 0 -1
    outer loop
      vertex 365.4 24.2 25.4
      vertex 372.6 25.4 25.4
      vertex 372.6 0 25.4
    endloop
  endfacet
  facet normal -0 0 -1
    outer loop
      vertex 372.6 25.4 25.4
      vertex 365.4 24.2 25.4
      vertex 365.673 25.4 25.4
    endloop
  endfacet
  facet normal 0 0 -1
    outer loop
      vertex 372.6 0 25.4
      vertex 354.4 24.2 25.4
      vertex 365.4 24.2 25.4
    endloop
  endfacet
  facet normal -0 0 -1
    outer loop
      vertex 354.4 24.2 25.4
      vertex 204.65 3.35 25.4
      vertex 354.127 25.4 25.4
    endloop
  endfacet
  facet normal 0 0 -1
    outer loop
      vertex 372.6 0 25.4
      vertex 204.65 3.35 25.4
      vertex 354.4 24.2 25.4
    endloop
  endfacet
  facet normal 0 0 -1
    outer loop
      vertex 186.3 0 25.4
      vertex 204.65 3.35 25.4
      vertex 372.6 0 25.4
    endloop
  endfacet
  facet normal -0 0 -1
    outer loop
      vertex 204.65 3.35 25.4
      vertex 186.3 0 25.4
      vertex 204.63 3.35 25.4
    endloop
  endfacet
  facet normal -0 0 -1
    outer loop
      vertex 204.63 3.35 25.4
      vertex 186.3 0 25.4
      vertex 186.3 6.85 25.4
    endloop
  endfacet
  facet normal 0 0 -1
    outer loop
      vertex 204.65 22.05 25.4
      vertex 354.127 25.4 25.4
      vertex 204.65 3.35 25.4
    endloop
  endfacet
  facet normal 0 0 -1
    outer loop
      vertex 186.3 25.4 25.4
      vertex 204.65 22.05 25.4
      vertex 204.63 22.05 25.4
    endloop
  endfacet
  facet normal 0 0 -1
    outer loop
      vertex 204.65 22.05 25.4
      vertex 186.3 25.4 25.4
      vertex 354.127 25.4 25.4
    endloop
  endfacet
  facet normal 0 0 -1
    outer loop
      vertex 186.3 25.4 25.4
      vertex 204.63 22.05 25.4
      vertex 186.3 18.55 25.4
    endloop
  endfacet
  facet normal 0 0.981575 -0.191076
    outer loop
      vertex 372.6 21.7 209.647
      vertex 204.65 18.2681 192.017
      vertex 186.3 21.7 209.647
    endloop
  endfacet
  facet normal -1.8268e-07 0.981576 -0.191074
    outer loop
      vertex 372.6 18.2 191.667
      vertex 204.65 18.2681 192.017
      vertex 372.6 21.7 209.647
    endloop
  endfacet
  facet normal 0 0.981592 -0.19099
    outer loop
      vertex 204.65 18.2681 192.017
      vertex 372.6 18.2 191.667
      vertex 204.65 18.2 191.667
    endloop
  endfacet
  facet normal 0 0.981575 -0.191076
    outer loop
      vertex 186.3 21.7 209.647
      vertex 204.65 18.2681 192.017
      vertex 186.3 18.2681 192.017
    endloop
  endfacet
  facet normal -0 0 1
    outer loop
      vertex 186.3 21.7 209.667
      vertex 372.6 3.7 209.667
      vertex 372.6 21.7 209.667
    endloop
  endfacet
  facet normal 0 0 1
    outer loop
      vertex 372.6 3.7 209.667
      vertex 186.3 21.7 209.667
      vertex 186.3 3.7 209.667
    endloop
  endfacet
  facet normal 0 1 -0
    outer loop
      vertex 372.6 21.7 209.647
      vertex 186.3 21.7 209.667
      vertex 372.6 21.7 209.667
    endloop
  endfacet
  facet normal 0 1 0
    outer loop
      vertex 186.3 21.7 209.667
      vertex 372.6 21.7 209.647
      vertex 186.3 21.7 209.647
    endloop
  endfacet
  facet normal -0 -0.981576 -0.191074
    outer loop
      vertex 204.65 7.13187 192.017
      vertex 186.3 3.7 209.647
      vertex 186.3 7.13187 192.017
    endloop
  endfacet
  facet normal 0 -0.981576 -0.191074
    outer loop
      vertex 186.3 3.7 209.647
      vertex 204.65 7.13187 192.017
      vertex 372.6 3.7 209.647
    endloop
  endfacet
  facet normal -0 -0.981576 -0.191071
    outer loop
      vertex 372.6 7.2 191.667
      vertex 204.65 7.13187 192.017
      vertex 204.65 7.2 191.667
    endloop
  endfacet
  facet normal -7.3462e-09 -0.981576 -0.191074
    outer loop
      vertex 204.65 7.13187 192.017
      vertex 372.6 7.2 191.667
      vertex 372.6 3.7 209.647
    endloop
  endfacet
  facet normal 0 -1 0
    outer loop
      vertex 186.3 3.7 209.647
      vertex 372.6 3.7 209.667
      vertex 186.3 3.7 209.667
    endloop
  endfacet
  facet normal 0 -1 -0
    outer loop
      vertex 372.6 3.7 209.667
      vertex 186.3 3.7 209.647
      vertex 372.6 3.7 209.647
    endloop
  endfacet
  facet normal -1 0 0
    outer loop
      vertex 204.65 22.05 25.4
      vertex 204.65 18.2 191.667
      vertex 204.65 22.05 191.667
    endloop
  endfacet
  facet normal -1 0 0
    outer loop
      vertex 204.65 22.05 25.4
      vertex 204.65 7.2 191.667
      vertex 204.65 18.2 191.667
    endloop
  endfacet
  facet normal -1 0 0
    outer loop
      vertex 204.65 3.35 25.4
      vertex 204.65 7.2 191.667
      vertex 204.65 22.05 25.4
    endloop
  endfacet
  facet normal -1 -0 0
    outer loop
      vertex 204.65 7.2 191.667
      vertex 204.65 3.35 25.4
      vertex 204.65 3.35 191.667
    endloop
  endfacet
  facet normal -1 0 0
    outer loop
      vertex 204.65 7.2 191.667
      vertex 204.65 18.2681 192.017
      vertex 204.65 18.2 191.667
    endloop
  endfacet
  facet normal -1 -0 0
    outer loop
      vertex 204.65 18.2681 192.017
      vertex 204.65 7.2 191.667
      vertex 204.65 7.13187 192.017
    endloop
  endfacet
  facet normal 0.187555 0.982254 -0
    outer loop
      vertex 204.63 3.35 25.4
      vertex 186.3 6.85 191.667
      vertex 204.63 3.35 191.667
    endloop
  endfacet
  facet normal 0.187555 0.982254 0
    outer loop
      vertex 186.3 6.85 191.667
      vertex 204.63 3.35 25.4
      vertex 186.3 6.85 25.4
    endloop
  endfacet
  facet normal 0 1 -0
    outer loop
      vertex 204.65 3.35 25.4
      vertex 204.63 3.35 191.667
      vertex 204.65 3.35 191.667
    endloop
  endfacet
  facet normal 0 1 0
    outer loop
      vertex 204.63 3.35 191.667
      vertex 204.65 3.35 25.4
      vertex 204.63 3.35 25.4
    endloop
  endfacet
  facet normal 0.187555 -0.982254 0
    outer loop
      vertex 186.3 18.55 25.4
      vertex 204.63 22.05 191.667
      vertex 186.3 18.55 191.667
    endloop
  endfacet
  facet normal 0.187555 -0.982254 0
    outer loop
      vertex 204.63 22.05 191.667
      vertex 186.3 18.55 25.4
      vertex 204.63 22.05 25.4
    endloop
  endfacet
  facet normal 0 0 -1
    outer loop
      vertex 186.3 7.13187 192.017
      vertex 204.65 18.2681 192.017
      vertex 204.65 7.13187 192.017
    endloop
  endfacet
  facet normal -0 0 -1
    outer loop
      vertex 204.65 18.2681 192.017
      vertex 186.3 7.13187 192.017
      vertex 186.3 18.2681 192.017
    endloop
  endfacet
  facet normal 0 -1 0
    outer loop
      vertex 204.63 22.05 25.4
      vertex 204.65 22.05 191.667
      vertex 204.63 22.05 191.667
    endloop
  endfacet
  facet normal 0 -1 -0
    outer loop
      vertex 204.65 22.05 191.667
      vertex 204.63 22.05 25.4
      vertex 204.65 22.05 25.4
    endloop
  endfacet
  facet normal 0 0 -1
    outer loop
      vertex 354.4 24.2 25.4
      vertex 368.4 37.38 25.4
      vertex 365.4 24.2 25.4
    endloop
  endfacet
  facet normal 0 0 -1
    outer loop
      vertex 351.4 37.38 25.4
      vertex 368.4 37.38 25.4
      vertex 354.4 24.2 25.4
    endloop
  endfacet
  facet normal 0 0 -1
    outer loop
      vertex 368.4 37.38 25.4
      vertex 351.4 37.38 25.4
      vertex 368.4 37.4 25.4
    endloop
  endfacet
  facet normal -0 0 -1
    outer loop
      vertex 368.4 37.4 25.4
      vertex 351.4 37.38 25.4
      vertex 351.4 37.4 25.4
    endloop
  endfacet
  facet normal 0 1 -0
    outer loop
      vertex 368.4 37.4 25.4
      vertex 351.4 37.4 191.667
      vertex 368.4 37.4 191.667
    endloop
  endfacet
  facet normal 0 1 0
    outer loop
      vertex 351.4 37.4 191.667
      vertex 368.4 37.4 25.4
      vertex 351.4 37.4 25.4
    endloop
  endfacet
  facet normal 1 -0 0
    outer loop
      vertex 368.4 37.38 191.667
      vertex 368.4 37.4 25.4
      vertex 368.4 37.4 191.667
    endloop
  endfacet
  facet normal 1 0 0
    outer loop
      vertex 368.4 37.4 25.4
      vertex 368.4 37.38 191.667
      vertex 368.4 37.38 25.4
    endloop
  endfacet
  facet normal 0.975058 -0.221952 0
    outer loop
      vertex 365.673 25.4 191.667
      vertex 368.4 37.38 25.4
      vertex 368.4 37.38 191.667
    endloop
  endfacet
  facet normal 0.975058 -0.221952 0
    outer loop
      vertex 368.4 37.38 25.4
      vertex 365.673 25.4 191.667
      vertex 365.673 25.4 25.4
    endloop
  endfacet
  facet normal -0 0 1
    outer loop
      vertex 365.673 25.4 25.4
      vertex 365.4 24.2 25.4
      vertex 368.4 37.38 25.4
    endloop
  endfacet
  facet normal -1 0 0
    outer loop
      vertex 351.4 37.38 25.4
      vertex 351.4 37.4 191.667
      vertex 351.4 37.4 25.4
    endloop
  endfacet
  facet normal -1 -0 0
    outer loop
      vertex 351.4 37.4 191.667
      vertex 351.4 37.38 25.4
      vertex 351.4 37.38 191.667
    endloop
  endfacet
  facet normal -0.975058 -0.221952 0
    outer loop
      vertex 354.127 25.4 25.4
      vertex 351.4 37.38 191.667
      vertex 351.4 37.38 25.4
    endloop
  endfacet
  facet normal -0.975058 -0.221952 0
    outer loop
      vertex 351.4 37.38 191.667
      vertex 354.127 25.4 25.4
      vertex 354.127 25.4 191.667
    endloop
  endfacet
  facet normal 0 0 1
    outer loop
      vertex 354.127 25.4 25.4
      vertex 351.4 37.38 25.4
      vertex 354.4 24.2 25.4
    endloop
  endfacet
  facet normal 0 0 1
    outer loop
      vertex 351.4 37.38 191.667
      vertex 368.4 37.38 191.667
      vertex 368.4 37.4 191.667
    endloop
  endfacet
  facet normal 0 0 1
    outer loop
      vertex 368.4 37.38 191.667
      vertex 354.127 25.4 191.667
      vertex 365.673 25.4 191.667
    endloop
  endfacet
  facet normal 0 0 1
    outer loop
      vertex 351.4 37.38 191.667
      vertex 368.4 37.4 191.667
      vertex 351.4 37.4 191.667
    endloop
  endfacet
  facet normal 0 0 1
    outer loop
      vertex 368.4 37.38 191.667
      vertex 351.4 37.38 191.667
      vertex 354.127 25.4 191.667
    endloop
  endfacet
endsolid OpenSCAD_Model
