solid OpenSCAD_Model
  facet normal 1 0 0
    outer loop
      vertex 180.9 20 518.8
      vertex 180.9 17.35 366.883
      vertex 180.9 20 352.533
    endloop
  endfacet
  facet normal 1 -0 0
    outer loop
      vertex 180.9 14 518.8
      vertex 180.9 17.35 366.883
      vertex 180.9 20 518.8
    endloop
  endfacet
  facet normal 1 0 0
    outer loop
      vertex 180.9 17.35 366.883
      vertex 180.9 14 518.8
      vertex 180.9 14 366.883
    endloop
  endfacet
  facet normal 1 -0 0
    outer loop
      vertex 180.9 17.35 366.863
      vertex 180.9 20 352.533
      vertex 180.9 17.35 366.883
    endloop
  endfacet
  facet normal 1 0 0
    outer loop
      vertex 180.9 20 352.533
      vertex 180.9 17.35 366.863
      vertex 180.9 14.35 352.533
    endloop
  endfacet
  facet normal 1 0 0
    outer loop
      vertex 180.9 6 518.8
      vertex 180.9 2.65 366.883
      vertex 180.9 6 366.883
    endloop
  endfacet
  facet normal 1 0 0
    outer loop
      vertex 180.9 0 352.533
      vertex 180.9 2.65 366.883
      vertex 180.9 0 518.8
    endloop
  endfacet
  facet normal 1 -0 0
    outer loop
      vertex 180.9 0 518.8
      vertex 180.9 2.65 366.883
      vertex 180.9 6 518.8
    endloop
  endfacet
  facet normal 1 0 0
    outer loop
      vertex 180.9 2.65 366.863
      vertex 180.9 0 352.533
      vertex 180.9 5.65 352.533
    endloop
  endfacet
  facet normal 1 0 0
    outer loop
      vertex 180.9 2.65 366.883
      vertex 180.9 0 352.533
      vertex 180.9 2.65 366.863
    endloop
  endfacet
  facet normal 0 1 -0
    outer loop
      vertex 5.1 20 352.533
      vertex 0 20 518.8
      vertex 5.1 20 518.8
    endloop
  endfacet
  facet normal 0 1 0
    outer loop
      vertex 0 20 518.8
      vertex 5.1 20 352.533
      vertex 0 20 352.533
    endloop
  endfacet
  facet normal 0 1 -0
    outer loop
      vertex 180.9 20 352.533
      vertex 14.9 20 518.8
      vertex 180.9 20 518.8
    endloop
  endfacet
  facet normal 0 1 0
    outer loop
      vertex 14.9 20 518.8
      vertex 180.9 20 352.533
      vertex 14.9 20 352.533
    endloop
  endfacet
  facet normal 0 -1 0
    outer loop
      vertex 0 0 352.533
      vertex 180.9 0 518.8
      vertex 0 0 518.8
    endloop
  endfacet
  facet normal 0 -1 -0
    outer loop
      vertex 180.9 0 518.8
      vertex 0 0 352.533
      vertex 180.9 0 352.533
    endloop
  endfacet
  facet normal -1 -0 0
    outer loop
      vertex 0 2.65 366.863
      vertex 0 0 352.533
      vertex 0 2.65 366.883
    endloop
  endfacet
  facet normal -1 0 0
    outer loop
      vertex 0 0 352.533
      vertex 0 2.65 366.863
      vertex 0 5.65 352.533
    endloop
  endfacet
  facet normal -1 0 0
    outer loop
      vertex 0 17.35 366.883
      vertex 0 20 352.533
      vertex 0 17.35 366.863
    endloop
  endfacet
  facet normal -1 0 -0
    outer loop
      vertex 0 17.35 366.863
      vertex 0 20 352.533
      vertex 0 14.35 352.533
    endloop
  endfacet
  facet normal -1 0 0
    outer loop
      vertex 0 20 352.533
      vertex 0 17.35 366.883
      vertex 0 20 518.8
    endloop
  endfacet
  facet normal -1 0 0
    outer loop
      vertex 0 2.65 366.883
      vertex 0 20 518.8
      vertex 0 17.35 366.883
    endloop
  endfacet
  facet normal -1 0 0
    outer loop
      vertex 0 0 518.8
      vertex 0 2.65 366.883
      vertex 0 0 352.533
    endloop
  endfacet
  facet normal -1 0 0
    outer loop
      vertex 0 2.65 366.883
      vertex 0 0 518.8
      vertex 0 20 518.8
    endloop
  endfacet
  facet normal 0 0 1
    outer loop
      vertex 0 0 518.8
      vertex 2.6 8.62 518.8
      vertex 0 20 518.8
    endloop
  endfacet
  facet normal -0 0 1
    outer loop
      vertex 0 20 518.8
      vertex 2.6 8.62 518.8
      vertex 5.1 20 518.8
    endloop
  endfacet
  facet normal 0 0 1
    outer loop
      vertex 17.4 8.62 518.8
      vertex 180.9 14 518.8
      vertex 180.9 20 518.8
    endloop
  endfacet
  facet normal 0 0 1
    outer loop
      vertex 180.9 14 518.8
      vertex 17.4 8.62 518.8
      vertex 180.9 6 518.8
    endloop
  endfacet
  facet normal -0 0 1
    outer loop
      vertex 17.4 8.6 518.8
      vertex 180.9 6 518.8
      vertex 17.4 8.62 518.8
    endloop
  endfacet
  facet normal 0 -0 1
    outer loop
      vertex 17.4 8.62 518.8
      vertex 180.9 20 518.8
      vertex 14.9 20 518.8
    endloop
  endfacet
  facet normal -0 0 1
    outer loop
      vertex 194.88 17 518.8
      vertex 194.9 3 518.8
      vertex 194.9 17 518.8
    endloop
  endfacet
  facet normal 0 0 1
    outer loop
      vertex 194.88 17 518.8
      vertex 194.88 3 518.8
      vertex 194.9 3 518.8
    endloop
  endfacet
  facet normal -0 0 1
    outer loop
      vertex 180.9 14 518.8
      vertex 194.88 3 518.8
      vertex 194.88 17 518.8
    endloop
  endfacet
  facet normal 0 0 1
    outer loop
      vertex 194.88 3 518.8
      vertex 180.9 14 518.8
      vertex 180.9 6 518.8
    endloop
  endfacet
  facet normal 0 0 1
    outer loop
      vertex 180.9 6 518.8
      vertex 17.4 8.6 518.8
      vertex 180.9 0 518.8
    endloop
  endfacet
  facet normal 0 0 1
    outer loop
      vertex 0 0 518.8
      vertex 17.4 8.6 518.8
      vertex 2.6 8.6 518.8
    endloop
  endfacet
  facet normal 0 0 1
    outer loop
      vertex 17.4 8.6 518.8
      vertex 0 0 518.8
      vertex 180.9 0 518.8
    endloop
  endfacet
  facet normal 0 0 1
    outer loop
      vertex 2.6 8.62 518.8
      vertex 0 0 518.8
      vertex 2.6 8.6 518.8
    endloop
  endfacet
  facet normal 0 0 -1
    outer loop
      vertex 0 20 352.533
      vertex 3.85879 14.35 352.533
      vertex 0 14.35 352.533
    endloop
  endfacet
  facet normal 0 0 -1
    outer loop
      vertex 3.85879 14.35 352.533
      vertex 0 20 352.533
      vertex 5.1 20 352.533
    endloop
  endfacet
  facet normal 0 0 -1
    outer loop
      vertex 16.1412 14.35 352.533
      vertex 180.9 20 352.533
      vertex 180.9 14.35 352.533
    endloop
  endfacet
  facet normal -0 0 -1
    outer loop
      vertex 180.9 20 352.533
      vertex 16.1412 14.35 352.533
      vertex 14.9 20 352.533
    endloop
  endfacet
  facet normal 0 0 -1
    outer loop
      vertex 0 0 352.533
      vertex 180.9 5.65 352.533
      vertex 180.9 0 352.533
    endloop
  endfacet
  facet normal -0 0 -1
    outer loop
      vertex 180.9 5.65 352.533
      vertex 0 0 352.533
      vertex 0 5.65 352.533
    endloop
  endfacet
  facet normal 0 0 -1
    outer loop
      vertex 194.88 3 352.533
      vertex 194.9 17 352.533
      vertex 194.9 3 352.533
    endloop
  endfacet
  facet normal 0 0 -1
    outer loop
      vertex 194.88 3 352.533
      vertex 194.88 17 352.533
      vertex 194.9 17 352.533
    endloop
  endfacet
  facet normal 0 0 -1
    outer loop
      vertex 181.25 5.92489 352.533
      vertex 194.88 17 352.533
      vertex 194.88 3 352.533
    endloop
  endfacet
  facet normal 0 0 -1
    outer loop
      vertex 194.88 17 352.533
      vertex 181.25 5.92489 352.533
      vertex 181.25 14.0751 352.533
    endloop
  endfacet
  facet normal 1 -0 0
    outer loop
      vertex 194.9 3 518.8
      vertex 194.9 17 352.533
      vertex 194.9 17 518.8
    endloop
  endfacet
  facet normal 1 0 0
    outer loop
      vertex 194.9 17 352.533
      vertex 194.9 3 518.8
      vertex 194.9 3 352.533
    endloop
  endfacet
  facet normal -0.209823 -0.977739 0
    outer loop
      vertex 181.25 5.92489 366.883
      vertex 180.9 6 518.8
      vertex 180.9 6 366.883
    endloop
  endfacet
  facet normal -0.209816 -0.977741 1.74021e-08
    outer loop
      vertex 180.9 6 518.8
      vertex 181.25 5.92489 366.883
      vertex 194.88 3 518.8
    endloop
  endfacet
  facet normal -0.209815 -0.977741 0
    outer loop
      vertex 194.88 3 352.533
      vertex 181.25 5.92489 366.883
      vertex 181.25 5.92489 352.533
    endloop
  endfacet
  facet normal -0.209815 -0.977741 0
    outer loop
      vertex 181.25 5.92489 366.883
      vertex 194.88 3 352.533
      vertex 194.88 3 518.8
    endloop
  endfacet
  facet normal 0 -1 0
    outer loop
      vertex 194.88 3 352.533
      vertex 194.9 3 518.8
      vertex 194.88 3 518.8
    endloop
  endfacet
  facet normal 0 -1 -0
    outer loop
      vertex 194.9 3 518.8
      vertex 194.88 3 352.533
      vertex 194.9 3 352.533
    endloop
  endfacet
  facet normal -0.209816 0.977741 -4.69581e-08
    outer loop
      vertex 194.88 17 518.8
      vertex 181.25 14.0751 366.883
      vertex 180.9 14 518.8
    endloop
  endfacet
  facet normal -0.209816 0.977741 0
    outer loop
      vertex 194.88 17 352.533
      vertex 181.25 14.0751 366.883
      vertex 194.88 17 518.8
    endloop
  endfacet
  facet normal -0.209816 0.977741 0
    outer loop
      vertex 181.25 14.0751 366.883
      vertex 194.88 17 352.533
      vertex 181.25 14.0751 352.533
    endloop
  endfacet
  facet normal -0.209796 0.977745 0
    outer loop
      vertex 180.9 14 518.8
      vertex 181.25 14.0751 366.883
      vertex 180.9 14 366.883
    endloop
  endfacet
  facet normal 0 1 -0
    outer loop
      vertex 194.9 17 352.533
      vertex 194.88 17 518.8
      vertex 194.9 17 518.8
    endloop
  endfacet
  facet normal 0 1 0
    outer loop
      vertex 194.88 17 518.8
      vertex 194.9 17 352.533
      vertex 194.88 17 352.533
    endloop
  endfacet
  facet normal -1 0 0
    outer loop
      vertex 181.25 5.92489 352.533
      vertex 181.25 14.0751 366.883
      vertex 181.25 14.0751 352.533
    endloop
  endfacet
  facet normal -1 -0 0
    outer loop
      vertex 181.25 14.0751 366.883
      vertex 181.25 5.92489 352.533
      vertex 181.25 5.92489 366.883
    endloop
  endfacet
  facet normal 0 -0.978781 0.204909
    outer loop
      vertex 3.85879 14.35 352.533
      vertex 0 17.35 366.863
      vertex 0 14.35 352.533
    endloop
  endfacet
  facet normal 0 -0.978781 0.204909
    outer loop
      vertex 0 17.35 366.863
      vertex 3.85879 14.35 352.533
      vertex 4.51784 17.35 366.863
    endloop
  endfacet
  facet normal 0 -0.978781 0.204909
    outer loop
      vertex 16.1412 14.35 352.533
      vertex 180.9 17.35 366.863
      vertex 15.4822 17.35 366.863
    endloop
  endfacet
  facet normal 0 -0.978781 0.204909
    outer loop
      vertex 180.9 17.35 366.863
      vertex 16.1412 14.35 352.533
      vertex 180.9 14.35 352.533
    endloop
  endfacet
  facet normal 0 0 -1
    outer loop
      vertex 17.4 8.6 366.883
      vertex 180.9 6 366.883
      vertex 180.9 2.65 366.883
    endloop
  endfacet
  facet normal 0 0 -1
    outer loop
      vertex 180.9 6 366.883
      vertex 17.4 8.62 366.883
      vertex 180.9 14 366.883
    endloop
  endfacet
  facet normal 0 0 -1
    outer loop
      vertex 180.9 6 366.883
      vertex 17.4 8.6 366.883
      vertex 17.4 8.62 366.883
    endloop
  endfacet
  facet normal 0 0 -1
    outer loop
      vertex 0 2.65 366.883
      vertex 17.4 8.6 366.883
      vertex 180.9 2.65 366.883
    endloop
  endfacet
  facet normal -0 0 -1
    outer loop
      vertex 2.6 8.6 366.883
      vertex 0 2.65 366.883
      vertex 2.6 8.62 366.883
    endloop
  endfacet
  facet normal -0 0 -1
    outer loop
      vertex 17.4 8.6 366.883
      vertex 0 2.65 366.883
      vertex 2.6 8.6 366.883
    endloop
  endfacet
  facet normal 0 0 -1
    outer loop
      vertex 180.9 6 366.883
      vertex 181.25 14.0751 366.883
      vertex 181.25 5.92489 366.883
    endloop
  endfacet
  facet normal 0 0 -1
    outer loop
      vertex 181.25 14.0751 366.883
      vertex 180.9 6 366.883
      vertex 180.9 14 366.883
    endloop
  endfacet
  facet normal -0 0 -1
    outer loop
      vertex 180.9 14 366.883
      vertex 17.4 8.62 366.883
      vertex 180.9 17.35 366.883
    endloop
  endfacet
  facet normal -0 0 -1
    outer loop
      vertex 180.9 17.35 366.883
      vertex 17.4 8.62 366.883
      vertex 15.4822 17.35 366.883
    endloop
  endfacet
  facet normal 0 0 -1
    outer loop
      vertex 0 17.35 366.883
      vertex 2.6 8.62 366.883
      vertex 0 2.65 366.883
    endloop
  endfacet
  facet normal 0 0 -1
    outer loop
      vertex 2.6 8.62 366.883
      vertex 0 17.35 366.883
      vertex 4.51784 17.35 366.883
    endloop
  endfacet
  facet normal 0 -1 0
    outer loop
      vertex 0 17.35 366.863
      vertex 4.51784 17.35 366.883
      vertex 0 17.35 366.883
    endloop
  endfacet
  facet normal 0 -1 -0
    outer loop
      vertex 4.51784 17.35 366.883
      vertex 0 17.35 366.863
      vertex 4.51784 17.35 366.863
    endloop
  endfacet
  facet normal 0 -1 0
    outer loop
      vertex 15.4822 17.35 366.863
      vertex 180.9 17.35 366.883
      vertex 15.4822 17.35 366.883
    endloop
  endfacet
  facet normal 0 -1 -0
    outer loop
      vertex 180.9 17.35 366.883
      vertex 15.4822 17.35 366.863
      vertex 180.9 17.35 366.863
    endloop
  endfacet
  facet normal 0 0.978781 0.204909
    outer loop
      vertex 180.9 5.65 352.533
      vertex 0 2.65 366.863
      vertex 180.9 2.65 366.863
    endloop
  endfacet
  facet normal 0 0.978781 0.204909
    outer loop
      vertex 0 2.65 366.863
      vertex 180.9 5.65 352.533
      vertex 0 5.65 352.533
    endloop
  endfacet
  facet normal 0 1 -0
    outer loop
      vertex 180.9 2.65 366.863
      vertex 0 2.65 366.883
      vertex 180.9 2.65 366.883
    endloop
  endfacet
  facet normal 0 1 0
    outer loop
      vertex 0 2.65 366.883
      vertex 180.9 2.65 366.863
      vertex 0 2.65 366.863
    endloop
  endfacet
  facet normal -0.976706 -0.214581 -0
    outer loop
      vertex 15.4822 17.35 366.883
      vertex 14.9 20 352.533
      vertex 15.4822 17.35 366.863
    endloop
  endfacet
  facet normal -0.97671 -0.214565 3.01586e-06
    outer loop
      vertex 15.4822 17.35 366.863
      vertex 14.9 20 352.533
      vertex 16.1412 14.35 352.533
    endloop
  endfacet
  facet normal -0.976706 -0.214581 0
    outer loop
      vertex 14.9 20 352.533
      vertex 15.4822 17.35 366.883
      vertex 14.9 20 518.8
    endloop
  endfacet
  facet normal -0.97671 -0.214563 -0
    outer loop
      vertex 17.4 8.62 518.8
      vertex 15.4822 17.35 366.883
      vertex 17.4 8.62 366.883
    endloop
  endfacet
  facet normal -0.976709 -0.214567 -2.46322e-07
    outer loop
      vertex 15.4822 17.35 366.883
      vertex 17.4 8.62 518.8
      vertex 14.9 20 518.8
    endloop
  endfacet
  facet normal 1 -0 0
    outer loop
      vertex 2.6 8.6 518.8
      vertex 2.6 8.62 366.883
      vertex 2.6 8.62 518.8
    endloop
  endfacet
  facet normal 1 0 0
    outer loop
      vertex 2.6 8.62 366.883
      vertex 2.6 8.6 518.8
      vertex 2.6 8.6 366.883
    endloop
  endfacet
  facet normal 0 1 -0
    outer loop
      vertex 17.4 8.6 366.883
      vertex 2.6 8.6 518.8
      vertex 17.4 8.6 518.8
    endloop
  endfacet
  facet normal 0 1 0
    outer loop
      vertex 2.6 8.6 518.8
      vertex 17.4 8.6 366.883
      vertex 2.6 8.6 366.883
    endloop
  endfacet
  facet normal -1 0 0
    outer loop
      vertex 17.4 8.6 366.883
      vertex 17.4 8.62 518.8
      vertex 17.4 8.62 366.883
    endloop
  endfacet
  facet normal -1 -0 0
    outer loop
      vertex 17.4 8.62 518.8
      vertex 17.4 8.6 366.883
      vertex 17.4 8.6 518.8
    endloop
  endfacet
  facet normal 0.976709 -0.214566 0
    outer loop
      vertex 5.1 20 518.8
      vertex 4.51784 17.35 366.883
      vertex 5.1 20 352.533
    endloop
  endfacet
  facet normal 0.976709 -0.214567 1.08472e-08
    outer loop
      vertex 2.6 8.62 518.8
      vertex 4.51784 17.35 366.883
      vertex 5.1 20 518.8
    endloop
  endfacet
  facet normal 0.976709 -0.214567 0
    outer loop
      vertex 4.51784 17.35 366.883
      vertex 2.6 8.62 518.8
      vertex 2.6 8.62 366.883
    endloop
  endfacet
  facet normal 0.976709 -0.214566 0
    outer loop
      vertex 4.51784 17.35 366.863
      vertex 5.1 20 352.533
      vertex 4.51784 17.35 366.883
    endloop
  endfacet
  facet normal 0.976709 -0.214567 -3.01586e-08
    outer loop
      vertex 5.1 20 352.533
      vertex 4.51784 17.35 366.863
      vertex 3.85879 14.35 352.533
    endloop
  endfacet
endsolid OpenSCAD_Model
