solid OpenSCAD_Model
  facet normal 1 -0 0
    outer loop
      vertex 186.3 18.2 191.667
      vertex 186.3 25.4 25.4
      vertex 186.3 25.4 191.667
    endloop
  endfacet
  facet normal 1 0 0
    outer loop
      vertex 186.3 25.4 25.4
      vertex 186.3 18.2 191.667
      vertex 186.3 18.2 25.4
    endloop
  endfacet
  facet normal 1 -0 0
    outer loop
      vertex 186.3 0 191.667
      vertex 186.3 7.2 25.4
      vertex 186.3 7.2 191.667
    endloop
  endfacet
  facet normal 1 0 0
    outer loop
      vertex 186.3 7.2 25.4
      vertex 186.3 0 191.667
      vertex 186.3 0 25.4
    endloop
  endfacet
  facet normal 0 1 -0
    outer loop
      vertex 186.3 25.4 25.4
      vertex 18.4731 25.4 191.667
      vertex 186.3 25.4 191.667
    endloop
  endfacet
  facet normal 0 1 0
    outer loop
      vertex 18.4731 25.4 191.667
      vertex 186.3 25.4 25.4
      vertex 18.4731 25.4 25.4
    endloop
  endfacet
  facet normal 0 1 -0
    outer loop
      vertex 6.92686 25.4 25.4
      vertex 0 25.4 191.667
      vertex 6.92686 25.4 191.667
    endloop
  endfacet
  facet normal 0 1 0
    outer loop
      vertex 0 25.4 191.667
      vertex 6.92686 25.4 25.4
      vertex 0 25.4 25.4
    endloop
  endfacet
  facet normal 0 0 -0
    outer loop
      vertex 6.92686 25.4 191.667
      vertex 0 25.4 191.667
      vertex 186.3 25.4 191.667
    endloop
  endfacet
  facet normal 0 0 0
    outer loop
      vertex 186.3 25.4 191.667
      vertex 18.4731 25.4 191.667
      vertex 6.92686 25.4 191.667
    endloop
  endfacet
  facet normal 0 -1 0
    outer loop
      vertex 0 0 25.4
      vertex 186.3 0 191.667
      vertex 0 0 191.667
    endloop
  endfacet
  facet normal 0 -1 -0
    outer loop
      vertex 186.3 0 191.667
      vertex 0 0 25.4
      vertex 186.3 0 25.4
    endloop
  endfacet
  facet normal -1 0 0
    outer loop
      vertex 0 25.4 25.4
      vertex 0 18.2 191.667
      vertex 0 25.4 191.667
    endloop
  endfacet
  facet normal -1 0 0
    outer loop
      vertex 0 25.4 25.4
      vertex 0 7.2 191.667
      vertex 0 18.2 191.667
    endloop
  endfacet
  facet normal -1 0 0
    outer loop
      vertex 0 0 25.4
      vertex 0 7.2 191.667
      vertex 0 25.4 25.4
    endloop
  endfacet
  facet normal -1 -0 0
    outer loop
      vertex 0 7.2 191.667
      vertex 0 0 25.4
      vertex 0 0 191.667
    endloop
  endfacet
  facet normal -1 0 0
    outer loop
      vertex 0 7.2 191.667
      vertex 0 21.7 209.647
      vertex 0 18.2 191.667
    endloop
  endfacet
  facet normal -1 0 0
    outer loop
      vertex 0 3.7 209.647
      vertex 0 21.7 209.647
      vertex 0 7.2 191.667
    endloop
  endfacet
  facet normal -1 0 0
    outer loop
      vertex 0 21.7 209.647
      vertex 0 3.7 209.647
      vertex 0 21.7 209.667
    endloop
  endfacet
  facet normal -1 -0 0
    outer loop
      vertex 0 21.7 209.667
      vertex 0 3.7 209.647
      vertex 0 3.7 209.667
    endloop
  endfacet
  facet normal -0 0 1
    outer loop
      vertex 0 25.4 191.667
      vertex 186.3 18.2 191.667
      vertex 186.3 25.4 191.667
    endloop
  endfacet
  facet normal 0 0 1
    outer loop
      vertex 186.3 18.2 191.667
      vertex 0 25.4 191.667
      vertex 0 18.2 191.667
    endloop
  endfacet
  facet normal -0 0 1
    outer loop
      vertex 204.28 21.7 191.667
      vertex 204.3 3.7 191.667
      vertex 204.3 21.7 191.667
    endloop
  endfacet
  facet normal 0 0 1
    outer loop
      vertex 204.28 21.7 191.667
      vertex 204.28 3.7 191.667
      vertex 204.3 3.7 191.667
    endloop
  endfacet
  facet normal -0 0 1
    outer loop
      vertex 186.3 18.2 191.667
      vertex 204.28 3.7 191.667
      vertex 204.28 21.7 191.667
    endloop
  endfacet
  facet normal 0 0 1
    outer loop
      vertex 204.28 3.7 191.667
      vertex 186.3 18.2 191.667
      vertex 186.3 7.2 191.667
    endloop
  endfacet
  facet normal -0 0 1
    outer loop
      vertex 0 7.2 191.667
      vertex 186.3 0 191.667
      vertex 186.3 7.2 191.667
    endloop
  endfacet
  facet normal 0 0 1
    outer loop
      vertex 186.3 0 191.667
      vertex 0 7.2 191.667
      vertex 0 0 191.667
    endloop
  endfacet
  facet normal 0 0 -1
    outer loop
      vertex 18.2 24.2 25.4
      vertex 186.3 7.2 25.4
      vertex 186.3 0 25.4
    endloop
  endfacet
  facet normal 0 0 -1
    outer loop
      vertex 186.3 7.2 25.4
      vertex 18.4731 25.4 25.4
      vertex 186.3 18.2 25.4
    endloop
  endfacet
  facet normal 0 0 -1
    outer loop
      vertex 186.3 18.2 25.4
      vertex 18.4731 25.4 25.4
      vertex 186.3 25.4 25.4
    endloop
  endfacet
  facet normal 0 0 -1
    outer loop
      vertex 186.3 7.2 25.4
      vertex 18.2 24.2 25.4
      vertex 18.4731 25.4 25.4
    endloop
  endfacet
  facet normal 0 0 -1
    outer loop
      vertex 0 0 25.4
      vertex 18.2 24.2 25.4
      vertex 186.3 0 25.4
    endloop
  endfacet
  facet normal -0 0 -1
    outer loop
      vertex 18.2 24.2 25.4
      vertex 0 0 25.4
      vertex 7.2 24.2 25.4
    endloop
  endfacet
  facet normal 0 0 -1
    outer loop
      vertex 0 25.4 25.4
      vertex 7.2 24.2 25.4
      vertex 0 0 25.4
    endloop
  endfacet
  facet normal 0 0 -1
    outer loop
      vertex 7.2 24.2 25.4
      vertex 0 25.4 25.4
      vertex 6.92686 25.4 25.4
    endloop
  endfacet
  facet normal 0 0 -1
    outer loop
      vertex 204.28 3.7 25.4
      vertex 204.3 21.7 25.4
      vertex 204.3 3.7 25.4
    endloop
  endfacet
  facet normal 0 0 -1
    outer loop
      vertex 204.28 3.7 25.4
      vertex 204.28 21.7 25.4
      vertex 204.3 21.7 25.4
    endloop
  endfacet
  facet normal 0 0 -1
    outer loop
      vertex 186.3 7.2 25.4
      vertex 204.28 21.7 25.4
      vertex 204.28 3.7 25.4
    endloop
  endfacet
  facet normal 0 0 -1
    outer loop
      vertex 204.28 21.7 25.4
      vertex 186.3 7.2 25.4
      vertex 186.3 18.2 25.4
    endloop
  endfacet
  facet normal 1 -0 0
    outer loop
      vertex 204.3 3.7 191.667
      vertex 204.3 21.7 25.4
      vertex 204.3 21.7 191.667
    endloop
  endfacet
  facet normal 1 0 0
    outer loop
      vertex 204.3 21.7 25.4
      vertex 204.3 3.7 191.667
      vertex 204.3 3.7 25.4
    endloop
  endfacet
  facet normal -0.191074 -0.981576 0
    outer loop
      vertex 186.3 7.2 25.4
      vertex 204.28 3.7 191.667
      vertex 186.3 7.2 191.667
    endloop
  endfacet
  facet normal -0.191074 -0.981576 -0
    outer loop
      vertex 204.28 3.7 191.667
      vertex 186.3 7.2 25.4
      vertex 204.28 3.7 25.4
    endloop
  endfacet
  facet normal 0 -1 0
    outer loop
      vertex 204.28 3.7 25.4
      vertex 204.3 3.7 191.667
      vertex 204.28 3.7 191.667
    endloop
  endfacet
  facet normal 0 -1 -0
    outer loop
      vertex 204.3 3.7 191.667
      vertex 204.28 3.7 25.4
      vertex 204.3 3.7 25.4
    endloop
  endfacet
  facet normal -0.191074 0.981576 0
    outer loop
      vertex 204.28 21.7 25.4
      vertex 186.3 18.2 191.667
      vertex 204.28 21.7 191.667
    endloop
  endfacet
  facet normal -0.191074 0.981576 0
    outer loop
      vertex 186.3 18.2 191.667
      vertex 204.28 21.7 25.4
      vertex 186.3 18.2 25.4
    endloop
  endfacet
  facet normal 0 1 -0
    outer loop
      vertex 204.3 21.7 25.4
      vertex 204.28 21.7 191.667
      vertex 204.3 21.7 191.667
    endloop
  endfacet
  facet normal 0 1 0
    outer loop
      vertex 204.28 21.7 191.667
      vertex 204.3 21.7 25.4
      vertex 204.28 21.7 25.4
    endloop
  endfacet
  facet normal 1 0 0
    outer loop
      vertex 186.3 3.7 209.647
      vertex 186.3 21.7 209.647
      vertex 186.3 21.7 209.667
    endloop
  endfacet
  facet normal 1 0 0
    outer loop
      vertex 186.3 21.7 209.647
      vertex 186.3 7.2 191.667
      vertex 186.3 18.2 191.667
    endloop
  endfacet
  facet normal 1 0 0
    outer loop
      vertex 186.3 3.7 209.647
      vertex 186.3 21.7 209.667
      vertex 186.3 3.7 209.667
    endloop
  endfacet
  facet normal 1 0 0
    outer loop
      vertex 186.3 21.7 209.647
      vertex 186.3 3.7 209.647
      vertex 186.3 7.2 191.667
    endloop
  endfacet
  facet normal 0 -1 0
    outer loop
      vertex 0 3.7 209.647
      vertex 186.3 3.7 209.667
      vertex 0 3.7 209.667
    endloop
  endfacet
  facet normal 0 -1 -0
    outer loop
      vertex 186.3 3.7 209.667
      vertex 0 3.7 209.647
      vertex 186.3 3.7 209.647
    endloop
  endfacet
  facet normal -0 0 1
    outer loop
      vertex 0 21.7 209.667
      vertex 186.3 3.7 209.667
      vertex 186.3 21.7 209.667
    endloop
  endfacet
  facet normal 0 0 1
    outer loop
      vertex 186.3 3.7 209.667
      vertex 0 21.7 209.667
      vertex 0 3.7 209.667
    endloop
  endfacet
  facet normal 0 1 -0
    outer loop
      vertex 186.3 21.7 209.647
      vertex 0 21.7 209.667
      vertex 186.3 21.7 209.667
    endloop
  endfacet
  facet normal 0 1 0
    outer loop
      vertex 0 21.7 209.667
      vertex 186.3 21.7 209.647
      vertex 0 21.7 209.647
    endloop
  endfacet
  facet normal 0 -0.981576 -0.191074
    outer loop
      vertex 0 7.2 191.667
      vertex 186.3 3.7 209.647
      vertex 0 3.7 209.647
    endloop
  endfacet
  facet normal 0 -0.981576 -0.191074
    outer loop
      vertex 186.3 3.7 209.647
      vertex 0 7.2 191.667
      vertex 186.3 7.2 191.667
    endloop
  endfacet
  facet normal 0 0.981576 -0.191074
    outer loop
      vertex 186.3 18.2 191.667
      vertex 0 21.7 209.647
      vertex 186.3 21.7 209.647
    endloop
  endfacet
  facet normal 0 0.981576 -0.191074
    outer loop
      vertex 0 21.7 209.647
      vertex 186.3 18.2 191.667
      vertex 0 18.2 191.667
    endloop
  endfacet
  facet normal 0 0 -1
    outer loop
      vertex 7.2 24.2 25.4
      vertex 21.2 37.38 25.4
      vertex 18.2 24.2 25.4
    endloop
  endfacet
  facet normal 0 0 -1
    outer loop
      vertex 4.2 37.38 25.4
      vertex 21.2 37.38 25.4
      vertex 7.2 24.2 25.4
    endloop
  endfacet
  facet normal 0 0 -1
    outer loop
      vertex 21.2 37.38 25.4
      vertex 4.2 37.38 25.4
      vertex 21.2 37.4 25.4
    endloop
  endfacet
  facet normal -0 0 -1
    outer loop
      vertex 21.2 37.4 25.4
      vertex 4.2 37.38 25.4
      vertex 4.2 37.4 25.4
    endloop
  endfacet
  facet normal 0 1 -0
    outer loop
      vertex 21.2 37.4 25.4
      vertex 4.2 37.4 191.667
      vertex 21.2 37.4 191.667
    endloop
  endfacet
  facet normal 0 1 0
    outer loop
      vertex 4.2 37.4 191.667
      vertex 21.2 37.4 25.4
      vertex 4.2 37.4 25.4
    endloop
  endfacet
  facet normal 1 -0 0
    outer loop
      vertex 21.2 37.38 191.667
      vertex 21.2 37.4 25.4
      vertex 21.2 37.4 191.667
    endloop
  endfacet
  facet normal 1 0 0
    outer loop
      vertex 21.2 37.4 25.4
      vertex 21.2 37.38 191.667
      vertex 21.2 37.38 25.4
    endloop
  endfacet
  facet normal 0.975059 -0.221944 0
    outer loop
      vertex 18.4731 25.4 191.667
      vertex 21.2 37.38 25.4
      vertex 21.2 37.38 191.667
    endloop
  endfacet
  facet normal 0.975059 -0.221944 0
    outer loop
      vertex 21.2 37.38 25.4
      vertex 18.4731 25.4 191.667
      vertex 18.4731 25.4 25.4
    endloop
  endfacet
  facet normal -0 0 1
    outer loop
      vertex 18.4731 25.4 25.4
      vertex 18.2 24.2 25.4
      vertex 21.2 37.38 25.4
    endloop
  endfacet
  facet normal -1 0 0
    outer loop
      vertex 4.2 37.38 25.4
      vertex 4.2 37.4 191.667
      vertex 4.2 37.4 25.4
    endloop
  endfacet
  facet normal -1 -0 0
    outer loop
      vertex 4.2 37.4 191.667
      vertex 4.2 37.38 25.4
      vertex 4.2 37.38 191.667
    endloop
  endfacet
  facet normal -0.97506 -0.221941 0
    outer loop
      vertex 6.92686 25.4 25.4
      vertex 4.2 37.38 191.667
      vertex 4.2 37.38 25.4
    endloop
  endfacet
  facet normal -0.97506 -0.221941 0
    outer loop
      vertex 4.2 37.38 191.667
      vertex 6.92686 25.4 25.4
      vertex 6.92686 25.4 191.667
    endloop
  endfacet
  facet normal 0 0 1
    outer loop
      vertex 6.92686 25.4 25.4
      vertex 4.2 37.38 25.4
      vertex 7.2 24.2 25.4
    endloop
  endfacet
  facet normal 0 0 1
    outer loop
      vertex 4.2 37.38 191.667
      vertex 21.2 37.38 191.667
      vertex 21.2 37.4 191.667
    endloop
  endfacet
  facet normal 0 0 1
    outer loop
      vertex 21.2 37.38 191.667
      vertex 6.92686 25.4 191.667
      vertex 18.4731 25.4 191.667
    endloop
  endfacet
  facet normal 0 0 1
    outer loop
      vertex 4.2 37.38 191.667
      vertex 21.2 37.4 191.667
      vertex 4.2 37.4 191.667
    endloop
  endfacet
  facet normal 0 0 1
    outer loop
      vertex 21.2 37.38 191.667
      vertex 4.2 37.38 191.667
      vertex 6.92686 25.4 191.667
    endloop
  endfacet
endsolid OpenSCAD_Model
