solid OpenSCAD_Model
  facet normal 1 -0 0
    outer loop
      vertex 180.9 0 6
      vertex 180.9 154.267 0
      vertex 180.9 154.267 6
    endloop
  endfacet
  facet normal 1 0 0
    outer loop
      vertex 180.9 154.267 0
      vertex 180.9 0 6
      vertex 180.9 0 0
    endloop
  endfacet
  facet normal 1 -0 0
    outer loop
      vertex 180.9 0 20
      vertex 180.9 154.267 14
      vertex 180.9 154.267 20
    endloop
  endfacet
  facet normal 1 0 0
    outer loop
      vertex 180.9 154.267 14
      vertex 180.9 0 20
      vertex 180.9 0 14
    endloop
  endfacet
  facet normal -0 0 1
    outer loop
      vertex 0 154.267 20
      vertex 5.1 0 20
      vertex 5.1 154.267 20
    endloop
  endfacet
  facet normal 0 0 1
    outer loop
      vertex 5.1 0 20
      vertex 0 154.267 20
      vertex 0 0 20
    endloop
  endfacet
  facet normal -0 0 1
    outer loop
      vertex 14.9 154.267 20
      vertex 180.9 0 20
      vertex 180.9 154.267 20
    endloop
  endfacet
  facet normal 0 0 1
    outer loop
      vertex 180.9 0 20
      vertex 14.9 154.267 20
      vertex 14.9 0 20
    endloop
  endfacet
  facet normal 0 0 -1
    outer loop
      vertex 0 0 0
      vertex 180.9 154.267 0
      vertex 180.9 0 0
    endloop
  endfacet
  facet normal -0 0 -1
    outer loop
      vertex 180.9 154.267 0
      vertex 0 0 0
      vertex 0 154.267 0
    endloop
  endfacet
  facet normal -1 0 0
    outer loop
      vertex 0 0 0
      vertex 0 154.267 6
      vertex 0 154.267 0
    endloop
  endfacet
  facet normal -1 -0 0
    outer loop
      vertex 0 154.267 6
      vertex 0 0 0
      vertex 0 154.267 14
    endloop
  endfacet
  facet normal -1 0 0
    outer loop
      vertex 0 0 20
      vertex 0 154.267 14
      vertex 0 0 0
    endloop
  endfacet
  facet normal -1 0 0
    outer loop
      vertex 0 154.267 14
      vertex 0 0 20
      vertex 0 154.267 20
    endloop
  endfacet
  facet normal -1 0 0
    outer loop
      vertex 0 168.247 3
      vertex 0 168.267 17
      vertex 0 168.267 3
    endloop
  endfacet
  facet normal -1 0 0
    outer loop
      vertex 0 168.247 3
      vertex 0 168.247 17
      vertex 0 168.267 17
    endloop
  endfacet
  facet normal -1 0 0
    outer loop
      vertex 0 154.267 6
      vertex 0 168.247 17
      vertex 0 168.247 3
    endloop
  endfacet
  facet normal -1 0 0
    outer loop
      vertex 0 168.247 17
      vertex 0 154.267 6
      vertex 0 154.267 14
    endloop
  endfacet
  facet normal 0 1 -0
    outer loop
      vertex 180.9 154.267 0
      vertex 0 154.267 6
      vertex 180.9 154.267 6
    endloop
  endfacet
  facet normal 0 1 0
    outer loop
      vertex 0 154.267 6
      vertex 180.9 154.267 0
      vertex 0 154.267 0
    endloop
  endfacet
  facet normal 0 1 -0
    outer loop
      vertex 3.7819 154.267 14
      vertex 0 154.267 20
      vertex 5.1 154.267 20
    endloop
  endfacet
  facet normal 0 1 0
    outer loop
      vertex 0 154.267 20
      vertex 3.7819 154.267 14
      vertex 0 154.267 14
    endloop
  endfacet
  facet normal 0 1 0
    outer loop
      vertex 16.2181 154.267 14
      vertex 180.9 154.267 20
      vertex 180.9 154.267 14
    endloop
  endfacet
  facet normal 0 1 0
    outer loop
      vertex 180.9 154.267 20
      vertex 16.2181 154.267 14
      vertex 14.9 154.267 20
    endloop
  endfacet
  facet normal 0 1 0
    outer loop
      vertex 194.88 154.267 3
      vertex 194.88 154.267 17
      vertex 194.9 154.267 17
    endloop
  endfacet
  facet normal 0 1 0
    outer loop
      vertex 194.88 154.267 17
      vertex 180.9 154.267 6
      vertex 180.9 154.267 14
    endloop
  endfacet
  facet normal 0 1 0
    outer loop
      vertex 194.88 154.267 3
      vertex 194.9 154.267 17
      vertex 194.9 154.267 3
    endloop
  endfacet
  facet normal 0 1 0
    outer loop
      vertex 194.88 154.267 17
      vertex 194.88 154.267 3
      vertex 180.9 154.267 6
    endloop
  endfacet
  facet normal 0 -1 0
    outer loop
      vertex 17.4 0 8.62
      vertex 180.9 0 20
      vertex 14.9 0 20
    endloop
  endfacet
  facet normal 0 -1 -0
    outer loop
      vertex 180.9 0 20
      vertex 17.4 0 8.62
      vertex 180.9 0 14
    endloop
  endfacet
  facet normal 0 -1 0
    outer loop
      vertex 180.9 0 6
      vertex 194.88 0 17
      vertex 180.9 0 14
    endloop
  endfacet
  facet normal 0 -1 0
    outer loop
      vertex 180.9 0 6
      vertex 17.4 0 8.62
      vertex 17.4 0 8.6
    endloop
  endfacet
  facet normal 0 -1 0
    outer loop
      vertex 17.4 0 8.62
      vertex 180.9 0 6
      vertex 180.9 0 14
    endloop
  endfacet
  facet normal 0 -1 0
    outer loop
      vertex 194.88 0 3
      vertex 194.88 0 17
      vertex 180.9 0 6
    endloop
  endfacet
  facet normal 0 -1 0
    outer loop
      vertex 194.88 0 17
      vertex 194.88 0 3
      vertex 194.9 0 17
    endloop
  endfacet
  facet normal 0 -1 -0
    outer loop
      vertex 194.9 0 17
      vertex 194.88 0 3
      vertex 194.9 0 3
    endloop
  endfacet
  facet normal 0 -1 0
    outer loop
      vertex 0 0 20
      vertex 2.6 0 8.62
      vertex 5.1 0 20
    endloop
  endfacet
  facet normal 0 -1 0
    outer loop
      vertex 0 0 0
      vertex 2.6 0 8.62
      vertex 0 0 20
    endloop
  endfacet
  facet normal 0 -1 0
    outer loop
      vertex 0 0 0
      vertex 17.4 0 8.6
      vertex 2.6 0 8.6
    endloop
  endfacet
  facet normal 0 -1 -0
    outer loop
      vertex 2.6 0 8.62
      vertex 0 0 0
      vertex 2.6 0 8.6
    endloop
  endfacet
  facet normal 0 -1 -0
    outer loop
      vertex 17.4 0 8.6
      vertex 0 0 0
      vertex 180.9 0 0
    endloop
  endfacet
  facet normal 0 -1 0
    outer loop
      vertex 17.4 0 8.6
      vertex 180.9 0 0
      vertex 180.9 0 6
    endloop
  endfacet
  facet normal 1 -0 0
    outer loop
      vertex 194.9 0 17
      vertex 194.9 154.267 3
      vertex 194.9 154.267 17
    endloop
  endfacet
  facet normal 1 0 0
    outer loop
      vertex 194.9 154.267 3
      vertex 194.9 0 17
      vertex 194.9 0 3
    endloop
  endfacet
  facet normal -0.209816 0 -0.977741
    outer loop
      vertex 180.9 0 6
      vertex 194.88 154.267 3
      vertex 194.88 0 3
    endloop
  endfacet
  facet normal -0.209816 0 -0.977741
    outer loop
      vertex 194.88 154.267 3
      vertex 180.9 0 6
      vertex 180.9 154.267 6
    endloop
  endfacet
  facet normal 0 0 -1
    outer loop
      vertex 194.88 0 3
      vertex 194.9 154.267 3
      vertex 194.9 0 3
    endloop
  endfacet
  facet normal -0 0 -1
    outer loop
      vertex 194.9 154.267 3
      vertex 194.88 0 3
      vertex 194.88 154.267 3
    endloop
  endfacet
  facet normal -0.209816 0 0.977741
    outer loop
      vertex 180.9 154.267 14
      vertex 194.88 0 17
      vertex 194.88 154.267 17
    endloop
  endfacet
  facet normal -0.209816 0 0.977741
    outer loop
      vertex 194.88 0 17
      vertex 180.9 154.267 14
      vertex 180.9 0 14
    endloop
  endfacet
  facet normal -0 0 1
    outer loop
      vertex 194.88 154.267 17
      vertex 194.9 0 17
      vertex 194.9 154.267 17
    endloop
  endfacet
  facet normal 0 0 1
    outer loop
      vertex 194.9 0 17
      vertex 194.88 154.267 17
      vertex 194.88 0 17
    endloop
  endfacet
  facet normal 1 -0 0
    outer loop
      vertex 180.9 168.247 17
      vertex 180.9 168.267 3
      vertex 180.9 168.267 17
    endloop
  endfacet
  facet normal 1 0 0
    outer loop
      vertex 180.9 168.247 17
      vertex 180.9 168.247 3
      vertex 180.9 168.267 3
    endloop
  endfacet
  facet normal 1 -0 0
    outer loop
      vertex 180.9 154.267 14
      vertex 180.9 168.247 3
      vertex 180.9 168.247 17
    endloop
  endfacet
  facet normal 1 0 0
    outer loop
      vertex 180.9 168.247 3
      vertex 180.9 154.267 14
      vertex 180.9 154.267 6
    endloop
  endfacet
  facet normal 0 -0.209816 0.977741
    outer loop
      vertex 180.9 168.247 17
      vertex 16.2181 154.267 14
      vertex 180.9 154.267 14
    endloop
  endfacet
  facet normal 0 -0.209816 0.977741
    outer loop
      vertex 16.2181 154.267 14
      vertex 180.9 168.247 17
      vertex 15.5591 168.247 17
    endloop
  endfacet
  facet normal 0 -0.209816 0.977741
    outer loop
      vertex 0 168.247 17
      vertex 3.7819 154.267 14
      vertex 4.44095 168.247 17
    endloop
  endfacet
  facet normal 0 -0.209816 0.977741
    outer loop
      vertex 3.7819 154.267 14
      vertex 0 168.247 17
      vertex 0 154.267 14
    endloop
  endfacet
  facet normal 0 0 -1
    outer loop
      vertex 0 168.247 3
      vertex 180.9 168.267 3
      vertex 180.9 168.247 3
    endloop
  endfacet
  facet normal -0 0 -1
    outer loop
      vertex 180.9 168.267 3
      vertex 0 168.247 3
      vertex 0 168.267 3
    endloop
  endfacet
  facet normal 0 1 0
    outer loop
      vertex 180.9 168.267 17
      vertex 17.4 168.267 8.62
      vertex 15.5591 168.267 17
    endloop
  endfacet
  facet normal 0 1 -0
    outer loop
      vertex 180.9 168.267 3
      vertex 17.4 168.267 8.62
      vertex 180.9 168.267 17
    endloop
  endfacet
  facet normal 0 1 0
    outer loop
      vertex 0 168.267 3
      vertex 17.4 168.267 8.6
      vertex 180.9 168.267 3
    endloop
  endfacet
  facet normal 0 1 0
    outer loop
      vertex 17.4 168.267 8.62
      vertex 180.9 168.267 3
      vertex 17.4 168.267 8.6
    endloop
  endfacet
  facet normal 0 1 -0
    outer loop
      vertex 2.6 168.267 8.62
      vertex 0 168.267 17
      vertex 4.44095 168.267 17
    endloop
  endfacet
  facet normal 0 1 0
    outer loop
      vertex 0 168.267 3
      vertex 2.6 168.267 8.62
      vertex 2.6 168.267 8.6
    endloop
  endfacet
  facet normal 0 1 0
    outer loop
      vertex 2.6 168.267 8.62
      vertex 0 168.267 3
      vertex 0 168.267 17
    endloop
  endfacet
  facet normal 0 1 0
    outer loop
      vertex 17.4 168.267 8.6
      vertex 0 168.267 3
      vertex 2.6 168.267 8.6
    endloop
  endfacet
  facet normal -0 0 1
    outer loop
      vertex 15.5591 168.267 17
      vertex 180.9 168.247 17
      vertex 180.9 168.267 17
    endloop
  endfacet
  facet normal 0 0 1
    outer loop
      vertex 180.9 168.247 17
      vertex 15.5591 168.267 17
      vertex 15.5591 168.247 17
    endloop
  endfacet
  facet normal -0 0 1
    outer loop
      vertex 0 168.267 17
      vertex 4.44095 168.247 17
      vertex 4.44095 168.267 17
    endloop
  endfacet
  facet normal 0 0 1
    outer loop
      vertex 4.44095 168.247 17
      vertex 0 168.267 17
      vertex 0 168.247 17
    endloop
  endfacet
  facet normal 0 -0.209816 -0.977741
    outer loop
      vertex 0 154.267 6
      vertex 180.9 168.247 3
      vertex 180.9 154.267 6
    endloop
  endfacet
  facet normal -0 -0.209816 -0.977741
    outer loop
      vertex 180.9 168.247 3
      vertex 0 154.267 6
      vertex 0 168.247 3
    endloop
  endfacet
  facet normal -0 0 1
    outer loop
      vertex 2.6 168.267 8.6
      vertex 17.4 0 8.6
      vertex 17.4 168.267 8.6
    endloop
  endfacet
  facet normal 0 0 1
    outer loop
      vertex 17.4 0 8.6
      vertex 2.6 168.267 8.6
      vertex 2.6 0 8.6
    endloop
  endfacet
  facet normal 0.976709 0 -0.214567
    outer loop
      vertex 5.1 154.267 20
      vertex 5.1 0 20
      vertex 3.7819 154.267 14
    endloop
  endfacet
  facet normal 0.976709 0 -0.214567
    outer loop
      vertex 4.44095 168.247 17
      vertex 2.6 168.267 8.62
      vertex 4.44095 168.267 17
    endloop
  endfacet
  facet normal 0.976709 9.1661e-08 -0.214567
    outer loop
      vertex 3.7819 154.267 14
      vertex 2.6 168.267 8.62
      vertex 4.44095 168.247 17
    endloop
  endfacet
  facet normal 0.976709 -1.22398e-08 -0.214567
    outer loop
      vertex 2.6 0 8.62
      vertex 3.7819 154.267 14
      vertex 5.1 0 20
    endloop
  endfacet
  facet normal 0.976709 0 -0.214567
    outer loop
      vertex 3.7819 154.267 14
      vertex 2.6 0 8.62
      vertex 2.6 168.267 8.62
    endloop
  endfacet
  facet normal -1 0 0
    outer loop
      vertex 17.4 0 8.6
      vertex 17.4 168.267 8.62
      vertex 17.4 168.267 8.6
    endloop
  endfacet
  facet normal -1 -0 0
    outer loop
      vertex 17.4 168.267 8.62
      vertex 17.4 0 8.6
      vertex 17.4 0 8.62
    endloop
  endfacet
  facet normal 1 -0 0
    outer loop
      vertex 2.6 0 8.62
      vertex 2.6 168.267 8.6
      vertex 2.6 168.267 8.62
    endloop
  endfacet
  facet normal 1 0 0
    outer loop
      vertex 2.6 168.267 8.6
      vertex 2.6 0 8.62
      vertex 2.6 0 8.6
    endloop
  endfacet
  facet normal -0.97671 0 -0.214562
    outer loop
      vertex 17.4 168.267 8.62
      vertex 15.5591 168.247 17
      vertex 15.5591 168.267 17
    endloop
  endfacet
  facet normal -0.97671 2.33319e-06 -0.214562
    outer loop
      vertex 17.4 168.267 8.62
      vertex 16.2181 154.267 14
      vertex 15.5591 168.247 17
    endloop
  endfacet
  facet normal -0.976709 0 -0.214567
    outer loop
      vertex 17.4 0 8.62
      vertex 16.2181 154.267 14
      vertex 17.4 168.267 8.62
    endloop
  endfacet
  facet normal -0.976709 -1.22398e-08 -0.214567
    outer loop
      vertex 14.9 0 20
      vertex 16.2181 154.267 14
      vertex 17.4 0 8.62
    endloop
  endfacet
  facet normal -0.976709 0 -0.214567
    outer loop
      vertex 16.2181 154.267 14
      vertex 14.9 0 20
      vertex 14.9 154.267 20
    endloop
  endfacet
endsolid OpenSCAD_Model
