solid OpenSCAD_Model
  facet normal 0 1 0
    outer loop
      vertex 3.35 320.6 210.017
      vertex 7.2 320.6 357.933
      vertex 7.2 320.6 210.017
    endloop
  endfacet
  facet normal 0 1 0
    outer loop
      vertex 7.2 320.6 357.933
      vertex 3.35 320.6 210.017
      vertex 0 320.6 357.933
    endloop
  endfacet
  facet normal 0 1 0
    outer loop
      vertex 0 320.6 191.667
      vertex 3.35 320.6 210.017
      vertex 3.35 320.6 209.997
    endloop
  endfacet
  facet normal 0 1 0
    outer loop
      vertex 3.35 320.6 210.017
      vertex 0 320.6 191.667
      vertex 0 320.6 357.933
    endloop
  endfacet
  facet normal 0 1 0
    outer loop
      vertex 0 320.6 191.667
      vertex 3.35 320.6 209.997
      vertex 6.85 320.6 191.667
    endloop
  endfacet
  facet normal 0 1 0
    outer loop
      vertex 25.4 320.6 357.933
      vertex 22.05 320.6 210.017
      vertex 18.2 320.6 357.933
    endloop
  endfacet
  facet normal 0 1 -0
    outer loop
      vertex 25.4 320.6 191.667
      vertex 22.05 320.6 210.017
      vertex 25.4 320.6 357.933
    endloop
  endfacet
  facet normal 0 1 0
    outer loop
      vertex 22.05 320.6 210.017
      vertex 25.4 320.6 191.667
      vertex 22.05 320.6 209.997
    endloop
  endfacet
  facet normal 0 1 0
    outer loop
      vertex 22.05 320.6 209.997
      vertex 25.4 320.6 191.667
      vertex 18.55 320.6 191.667
    endloop
  endfacet
  facet normal 0 1 0
    outer loop
      vertex 18.2 320.6 357.933
      vertex 22.05 320.6 210.017
      vertex 18.2 320.6 210.017
    endloop
  endfacet
  facet normal 1 -0 0
    outer loop
      vertex 25.4 173 357.933
      vertex 25.4 320.6 191.667
      vertex 25.4 320.6 357.933
    endloop
  endfacet
  facet normal 1 0 0
    outer loop
      vertex 25.4 320.6 191.667
      vertex 25.4 173 357.933
      vertex 25.4 173 191.667
    endloop
  endfacet
  facet normal -1 0 0
    outer loop
      vertex 0 173 191.667
      vertex 0 320.6 357.933
      vertex 0 320.6 191.667
    endloop
  endfacet
  facet normal -1 -0 0
    outer loop
      vertex 0 320.6 357.933
      vertex 0 173 191.667
      vertex 0 173 357.933
    endloop
  endfacet
  facet normal 0 -1 0
    outer loop
      vertex 3.7 173 375.913
      vertex 21.7 173 375.933
      vertex 3.7 173 375.933
    endloop
  endfacet
  facet normal 0 -1 0
    outer loop
      vertex 3.7 173 375.913
      vertex 21.7 173 375.913
      vertex 21.7 173 375.933
    endloop
  endfacet
  facet normal 0 -1 0
    outer loop
      vertex 7.13187 173 358.283
      vertex 21.7 173 375.913
      vertex 3.7 173 375.913
    endloop
  endfacet
  facet normal 0 -1 0
    outer loop
      vertex 21.7 173 375.913
      vertex 7.13187 173 358.283
      vertex 18.2681 173 358.283
    endloop
  endfacet
  facet normal 0 -1 0
    outer loop
      vertex 22.05 173 210.017
      vertex 18.55 173 357.933
      vertex 18.55 173 210.017
    endloop
  endfacet
  facet normal 0 -1 0
    outer loop
      vertex 18.55 173 357.933
      vertex 22.05 173 210.017
      vertex 25.4 173 357.933
    endloop
  endfacet
  facet normal 0 -1 0
    outer loop
      vertex 25.4 173 191.667
      vertex 22.05 173 210.017
      vertex 22.05 173 209.997
    endloop
  endfacet
  facet normal 0 -1 0
    outer loop
      vertex 22.05 173 210.017
      vertex 25.4 173 191.667
      vertex 25.4 173 357.933
    endloop
  endfacet
  facet normal 0 -1 0
    outer loop
      vertex 25.4 173 191.667
      vertex 22.05 173 209.997
      vertex 18.55 173 191.667
    endloop
  endfacet
  facet normal 0 -1 0
    outer loop
      vertex 0 173 357.933
      vertex 3.35 173 210.017
      vertex 6.85 173 357.933
    endloop
  endfacet
  facet normal 0 -1 0
    outer loop
      vertex 0 173 191.667
      vertex 3.35 173 210.017
      vertex 0 173 357.933
    endloop
  endfacet
  facet normal 0 -1 -0
    outer loop
      vertex 3.35 173 210.017
      vertex 0 173 191.667
      vertex 3.35 173 209.997
    endloop
  endfacet
  facet normal 0 -1 -0
    outer loop
      vertex 3.35 173 209.997
      vertex 0 173 191.667
      vertex 6.85 173 191.667
    endloop
  endfacet
  facet normal 0 -1 -0
    outer loop
      vertex 6.85 173 357.933
      vertex 3.35 173 210.017
      vertex 6.85 173 210.017
    endloop
  endfacet
  facet normal 0 0 1
    outer loop
      vertex 3.7 338.58 357.933
      vertex 21.7 338.58 357.933
      vertex 21.7 338.6 357.933
    endloop
  endfacet
  facet normal 0 0 1
    outer loop
      vertex 21.7 338.58 357.933
      vertex 7.2 320.6 357.933
      vertex 18.2 320.6 357.933
    endloop
  endfacet
  facet normal 0 0 1
    outer loop
      vertex 3.7 338.58 357.933
      vertex 21.7 338.6 357.933
      vertex 3.7 338.6 357.933
    endloop
  endfacet
  facet normal 0 0 1
    outer loop
      vertex 21.7 338.58 357.933
      vertex 3.7 338.58 357.933
      vertex 7.2 320.6 357.933
    endloop
  endfacet
  facet normal 0 0 1
    outer loop
      vertex 7.2 320.6 357.933
      vertex 3.35 191.35 357.933
      vertex 7.2 191.35 357.933
    endloop
  endfacet
  facet normal 0 0 1
    outer loop
      vertex 0 173 357.933
      vertex 3.35 191.35 357.933
      vertex 0 320.6 357.933
    endloop
  endfacet
  facet normal -0 0 1
    outer loop
      vertex 0 320.6 357.933
      vertex 3.35 191.35 357.933
      vertex 7.2 320.6 357.933
    endloop
  endfacet
  facet normal 0 0 1
    outer loop
      vertex 3.35 191.33 357.933
      vertex 0 173 357.933
      vertex 6.85 173 357.933
    endloop
  endfacet
  facet normal 0 0 1
    outer loop
      vertex 3.35 191.35 357.933
      vertex 0 173 357.933
      vertex 3.35 191.33 357.933
    endloop
  endfacet
  facet normal 0 0 1
    outer loop
      vertex 25.4 320.6 357.933
      vertex 22.05 191.35 357.933
      vertex 25.4 173 357.933
    endloop
  endfacet
  facet normal -0 0 1
    outer loop
      vertex 18.2 320.6 357.933
      vertex 22.05 191.35 357.933
      vertex 25.4 320.6 357.933
    endloop
  endfacet
  facet normal 0 0 1
    outer loop
      vertex 22.05 191.35 357.933
      vertex 18.2 320.6 357.933
      vertex 18.2 191.35 357.933
    endloop
  endfacet
  facet normal -0 0 1
    outer loop
      vertex 22.05 191.33 357.933
      vertex 25.4 173 357.933
      vertex 22.05 191.35 357.933
    endloop
  endfacet
  facet normal 0 0 1
    outer loop
      vertex 25.4 173 357.933
      vertex 22.05 191.33 357.933
      vertex 18.55 173 357.933
    endloop
  endfacet
  facet normal 0 0 -1
    outer loop
      vertex 22.05 191.35 191.667
      vertex 25.4 173 191.667
      vertex 22.05 191.33 191.667
    endloop
  endfacet
  facet normal 0 -0 -1
    outer loop
      vertex 22.05 191.33 191.667
      vertex 25.4 173 191.667
      vertex 18.55 173 191.667
    endloop
  endfacet
  facet normal 0 0 -1
    outer loop
      vertex 25.4 173 191.667
      vertex 22.05 191.35 191.667
      vertex 25.4 320.6 191.667
    endloop
  endfacet
  facet normal 0 0 -1
    outer loop
      vertex 18.55 320.6 191.667
      vertex 22.05 191.35 191.667
      vertex 18.55 191.35 191.667
    endloop
  endfacet
  facet normal 0 0 -1
    outer loop
      vertex 22.05 191.35 191.667
      vertex 18.55 320.6 191.667
      vertex 25.4 320.6 191.667
    endloop
  endfacet
  facet normal -0 0 -1
    outer loop
      vertex 3.35 191.33 191.667
      vertex 0 173 191.667
      vertex 3.35 191.35 191.667
    endloop
  endfacet
  facet normal 0 0 -1
    outer loop
      vertex 0 173 191.667
      vertex 3.35 191.33 191.667
      vertex 6.85 173 191.667
    endloop
  endfacet
  facet normal 0 0 -1
    outer loop
      vertex 3.35 191.35 191.667
      vertex 6.85 320.6 191.667
      vertex 6.85 191.35 191.667
    endloop
  endfacet
  facet normal 0 0 -1
    outer loop
      vertex 0 320.6 191.667
      vertex 3.35 191.35 191.667
      vertex 0 173 191.667
    endloop
  endfacet
  facet normal 0 0 -1
    outer loop
      vertex 3.35 191.35 191.667
      vertex 0 320.6 191.667
      vertex 6.85 320.6 191.667
    endloop
  endfacet
  facet normal 0 0 -1
    outer loop
      vertex 7.13187 320.95 191.667
      vertex 21.7 338.58 191.667
      vertex 18.2681 320.95 191.667
    endloop
  endfacet
  facet normal 0 0 -1
    outer loop
      vertex 3.7 338.58 191.667
      vertex 21.7 338.58 191.667
      vertex 7.13187 320.95 191.667
    endloop
  endfacet
  facet normal 0 0 -1
    outer loop
      vertex 21.7 338.58 191.667
      vertex 3.7 338.58 191.667
      vertex 21.7 338.6 191.667
    endloop
  endfacet
  facet normal -0 0 -1
    outer loop
      vertex 21.7 338.6 191.667
      vertex 3.7 338.58 191.667
      vertex 3.7 338.6 191.667
    endloop
  endfacet
  facet normal 0 1 -0
    outer loop
      vertex 21.7 338.6 191.667
      vertex 3.7 338.6 357.933
      vertex 21.7 338.6 357.933
    endloop
  endfacet
  facet normal 0 1 0
    outer loop
      vertex 3.7 338.6 357.933
      vertex 21.7 338.6 191.667
      vertex 3.7 338.6 191.667
    endloop
  endfacet
  facet normal -0.981576 -0.191074 -0
    outer loop
      vertex 7.13187 320.95 210.017
      vertex 3.7 338.58 191.667
      vertex 7.13187 320.95 191.667
    endloop
  endfacet
  facet normal -0.981576 -0.191074 0
    outer loop
      vertex 3.7 338.58 191.667
      vertex 7.13187 320.95 210.017
      vertex 3.7 338.58 357.933
    endloop
  endfacet
  facet normal -0.981576 -0.191071 -0
    outer loop
      vertex 7.2 320.6 357.933
      vertex 7.13187 320.95 210.017
      vertex 7.2 320.6 210.017
    endloop
  endfacet
  facet normal -0.981576 -0.191074 -8.34118e-09
    outer loop
      vertex 7.13187 320.95 210.017
      vertex 7.2 320.6 357.933
      vertex 3.7 338.58 357.933
    endloop
  endfacet
  facet normal -1 0 0
    outer loop
      vertex 3.7 338.58 191.667
      vertex 3.7 338.6 357.933
      vertex 3.7 338.6 191.667
    endloop
  endfacet
  facet normal -1 -0 0
    outer loop
      vertex 3.7 338.6 357.933
      vertex 3.7 338.58 191.667
      vertex 3.7 338.58 357.933
    endloop
  endfacet
  facet normal 0.981575 -0.191076 0
    outer loop
      vertex 21.7 338.58 357.933
      vertex 18.2681 320.95 210.017
      vertex 21.7 338.58 191.667
    endloop
  endfacet
  facet normal 0.981576 -0.191074 -2.07422e-07
    outer loop
      vertex 18.2 320.6 357.933
      vertex 18.2681 320.95 210.017
      vertex 21.7 338.58 357.933
    endloop
  endfacet
  facet normal 0.981592 -0.19099 0
    outer loop
      vertex 18.2681 320.95 210.017
      vertex 18.2 320.6 357.933
      vertex 18.2 320.6 210.017
    endloop
  endfacet
  facet normal 0.981575 -0.191076 0
    outer loop
      vertex 21.7 338.58 191.667
      vertex 18.2681 320.95 210.017
      vertex 18.2681 320.95 191.667
    endloop
  endfacet
  facet normal 1 -0 0
    outer loop
      vertex 21.7 338.58 357.933
      vertex 21.7 338.6 191.667
      vertex 21.7 338.6 357.933
    endloop
  endfacet
  facet normal 1 0 0
    outer loop
      vertex 21.7 338.6 191.667
      vertex 21.7 338.58 357.933
      vertex 21.7 338.58 191.667
    endloop
  endfacet
  facet normal 0 1 -0
    outer loop
      vertex 21.7 320.6 375.913
      vertex 3.7 320.6 375.933
      vertex 21.7 320.6 375.933
    endloop
  endfacet
  facet normal 0 1 0
    outer loop
      vertex 21.7 320.6 375.913
      vertex 3.7 320.6 375.913
      vertex 3.7 320.6 375.933
    endloop
  endfacet
  facet normal 0 1 -0
    outer loop
      vertex 18.2 320.6 357.933
      vertex 3.7 320.6 375.913
      vertex 21.7 320.6 375.913
    endloop
  endfacet
  facet normal 0 1 0
    outer loop
      vertex 3.7 320.6 375.913
      vertex 18.2 320.6 357.933
      vertex 7.2 320.6 357.933
    endloop
  endfacet
  facet normal 0.981576 -2.37378e-07 -0.191074
    outer loop
      vertex 21.7 320.6 375.913
      vertex 18.2681 191.35 358.283
      vertex 18.2 320.6 357.933
    endloop
  endfacet
  facet normal 0.981575 0 -0.191076
    outer loop
      vertex 21.7 173 375.913
      vertex 18.2681 191.35 358.283
      vertex 21.7 320.6 375.913
    endloop
  endfacet
  facet normal 0.981575 0 -0.191076
    outer loop
      vertex 18.2681 191.35 358.283
      vertex 21.7 173 375.913
      vertex 18.2681 173 358.283
    endloop
  endfacet
  facet normal 0.981592 0 -0.19099
    outer loop
      vertex 18.2 320.6 357.933
      vertex 18.2681 191.35 358.283
      vertex 18.2 191.35 357.933
    endloop
  endfacet
  facet normal -0 0 1
    outer loop
      vertex 3.7 320.6 375.933
      vertex 21.7 173 375.933
      vertex 21.7 320.6 375.933
    endloop
  endfacet
  facet normal 0 0 1
    outer loop
      vertex 21.7 173 375.933
      vertex 3.7 320.6 375.933
      vertex 3.7 173 375.933
    endloop
  endfacet
  facet normal 1 -0 0
    outer loop
      vertex 21.7 173 375.933
      vertex 21.7 320.6 375.913
      vertex 21.7 320.6 375.933
    endloop
  endfacet
  facet normal 1 0 0
    outer loop
      vertex 21.7 320.6 375.913
      vertex 21.7 173 375.933
      vertex 21.7 173 375.913
    endloop
  endfacet
  facet normal -0.981576 0 -0.191071
    outer loop
      vertex 7.13187 191.35 358.283
      vertex 7.2 320.6 357.933
      vertex 7.2 191.35 357.933
    endloop
  endfacet
  facet normal -0.981576 -9.54579e-09 -0.191074
    outer loop
      vertex 7.2 320.6 357.933
      vertex 7.13187 191.35 358.283
      vertex 3.7 320.6 375.913
    endloop
  endfacet
  facet normal -0.981576 0 -0.191074
    outer loop
      vertex 3.7 173 375.913
      vertex 7.13187 191.35 358.283
      vertex 7.13187 173 358.283
    endloop
  endfacet
  facet normal -0.981576 0 -0.191074
    outer loop
      vertex 7.13187 191.35 358.283
      vertex 3.7 173 375.913
      vertex 3.7 320.6 375.913
    endloop
  endfacet
  facet normal -1 0 0
    outer loop
      vertex 3.7 173 375.913
      vertex 3.7 320.6 375.933
      vertex 3.7 320.6 375.913
    endloop
  endfacet
  facet normal -1 -0 0
    outer loop
      vertex 3.7 320.6 375.933
      vertex 3.7 173 375.913
      vertex 3.7 173 375.933
    endloop
  endfacet
  facet normal 0 -1 0
    outer loop
      vertex 3.35 191.35 210.017
      vertex 7.2 191.35 357.933
      vertex 3.35 191.35 357.933
    endloop
  endfacet
  facet normal 0 -1 -0
    outer loop
      vertex 7.2 191.35 357.933
      vertex 3.35 191.35 210.017
      vertex 18.2 191.35 357.933
    endloop
  endfacet
  facet normal 0 -1 0
    outer loop
      vertex 22.05 191.35 210.017
      vertex 18.2 191.35 357.933
      vertex 3.35 191.35 210.017
    endloop
  endfacet
  facet normal 0 -1 0
    outer loop
      vertex 18.2 191.35 357.933
      vertex 22.05 191.35 210.017
      vertex 22.05 191.35 357.933
    endloop
  endfacet
  facet normal 0 -1 0
    outer loop
      vertex 7.2 191.35 357.933
      vertex 18.2681 191.35 358.283
      vertex 7.13187 191.35 358.283
    endloop
  endfacet
  facet normal 0 -1 0
    outer loop
      vertex 18.2681 191.35 358.283
      vertex 7.2 191.35 357.933
      vertex 18.2 191.35 357.933
    endloop
  endfacet
  facet normal 0 -1 0
    outer loop
      vertex 6.85 191.35 191.667
      vertex 3.35 191.35 209.997
      vertex 3.35 191.35 191.667
    endloop
  endfacet
  facet normal 0 -1 0
    outer loop
      vertex 22.05 191.35 191.667
      vertex 22.05 191.35 209.997
      vertex 18.55 191.35 191.667
    endloop
  endfacet
  facet normal -1 0 0
    outer loop
      vertex 22.05 173 209.997
      vertex 22.05 191.33 210.017
      vertex 22.05 191.33 209.997
    endloop
  endfacet
  facet normal -1 -0 0
    outer loop
      vertex 22.05 191.33 210.017
      vertex 22.05 173 209.997
      vertex 22.05 173 210.017
    endloop
  endfacet
  facet normal -1 0 0
    outer loop
      vertex 22.05 191.33 209.997
      vertex 22.05 191.35 209.997
      vertex 22.05 191.35 191.667
    endloop
  endfacet
  facet normal -1 0 0
    outer loop
      vertex 22.05 191.35 209.997
      vertex 22.05 191.33 209.997
      vertex 22.05 191.35 210.017
    endloop
  endfacet
  facet normal -1 0 0
    outer loop
      vertex 22.05 191.33 209.997
      vertex 22.05 191.35 191.667
      vertex 22.05 191.33 191.667
    endloop
  endfacet
  facet normal -1 0 0
    outer loop
      vertex 22.05 191.33 210.017
      vertex 22.05 191.35 210.017
      vertex 22.05 191.33 209.997
    endloop
  endfacet
  facet normal -1 0 0
    outer loop
      vertex 22.05 191.35 210.017
      vertex 22.05 191.33 210.017
      vertex 22.05 191.35 357.933
    endloop
  endfacet
  facet normal -1 -0 0
    outer loop
      vertex 22.05 191.35 357.933
      vertex 22.05 191.33 210.017
      vertex 22.05 191.33 357.933
    endloop
  endfacet
  facet normal -1 0 0
    outer loop
      vertex 22.05 191.35 209.997
      vertex 22.05 320.6 210.017
      vertex 22.05 320.6 209.997
    endloop
  endfacet
  facet normal -1 -0 0
    outer loop
      vertex 22.05 320.6 210.017
      vertex 22.05 191.35 209.997
      vertex 22.05 191.35 210.017
    endloop
  endfacet
  facet normal 1 -0 0
    outer loop
      vertex 3.35 173 210.017
      vertex 3.35 191.33 209.997
      vertex 3.35 191.33 210.017
    endloop
  endfacet
  facet normal 1 0 0
    outer loop
      vertex 3.35 191.33 209.997
      vertex 3.35 173 210.017
      vertex 3.35 173 209.997
    endloop
  endfacet
  facet normal 1 0 0
    outer loop
      vertex 3.35 191.33 210.017
      vertex 3.35 191.35 210.017
      vertex 3.35 191.35 357.933
    endloop
  endfacet
  facet normal 1 0 0
    outer loop
      vertex 3.35 191.35 210.017
      vertex 3.35 191.33 210.017
      vertex 3.35 191.35 209.997
    endloop
  endfacet
  facet normal 1 0 0
    outer loop
      vertex 3.35 191.33 210.017
      vertex 3.35 191.35 357.933
      vertex 3.35 191.33 357.933
    endloop
  endfacet
  facet normal 1 0 0
    outer loop
      vertex 3.35 191.33 209.997
      vertex 3.35 191.35 209.997
      vertex 3.35 191.33 210.017
    endloop
  endfacet
  facet normal 1 0 0
    outer loop
      vertex 3.35 191.35 209.997
      vertex 3.35 191.33 209.997
      vertex 3.35 191.35 191.667
    endloop
  endfacet
  facet normal 1 0 0
    outer loop
      vertex 3.35 191.35 191.667
      vertex 3.35 191.33 209.997
      vertex 3.35 191.33 191.667
    endloop
  endfacet
  facet normal 1 -0 0
    outer loop
      vertex 3.35 191.35 210.017
      vertex 3.35 320.6 209.997
      vertex 3.35 320.6 210.017
    endloop
  endfacet
  facet normal 1 0 0
    outer loop
      vertex 3.35 320.6 209.997
      vertex 3.35 191.35 210.017
      vertex 3.35 191.35 209.997
    endloop
  endfacet
  facet normal -0.982254 0.187555 0
    outer loop
      vertex 18.55 173 210.017
      vertex 22.05 191.33 357.933
      vertex 22.05 191.33 210.017
    endloop
  endfacet
  facet normal -0.982254 0.187555 0
    outer loop
      vertex 22.05 191.33 357.933
      vertex 18.55 173 210.017
      vertex 18.55 173 357.933
    endloop
  endfacet
  facet normal -0.982254 0.187555 0
    outer loop
      vertex 22.05 191.33 209.997
      vertex 22.05 191.33 191.667
      vertex 18.55 173 191.667
    endloop
  endfacet
  facet normal 0.982254 0.187555 0
    outer loop
      vertex 3.35 191.33 209.997
      vertex 6.85 173 191.667
      vertex 3.35 191.33 191.667
    endloop
  endfacet
  facet normal 0.982254 0.187555 0
    outer loop
      vertex 6.85 173 357.933
      vertex 3.35 191.33 210.017
      vertex 3.35 191.33 357.933
    endloop
  endfacet
  facet normal 0.982254 0.187555 0
    outer loop
      vertex 3.35 191.33 210.017
      vertex 6.85 173 357.933
      vertex 6.85 173 210.017
    endloop
  endfacet
  facet normal 0 0 -1
    outer loop
      vertex 7.13187 173 358.283
      vertex 18.2681 191.35 358.283
      vertex 18.2681 173 358.283
    endloop
  endfacet
  facet normal -0 0 -1
    outer loop
      vertex 18.2681 191.35 358.283
      vertex 7.13187 173 358.283
      vertex 7.13187 191.35 358.283
    endloop
  endfacet
  facet normal 0 -1 0
    outer loop
      vertex 7.13187 320.95 191.667
      vertex 18.2681 320.95 210.017
      vertex 7.13187 320.95 210.017
    endloop
  endfacet
  facet normal 0 -1 -0
    outer loop
      vertex 18.2681 320.95 210.017
      vertex 7.13187 320.95 191.667
      vertex 18.2681 320.95 191.667
    endloop
  endfacet
  facet normal -0.982254 0 0.187555
    outer loop
      vertex 22.05 173 209.997
      vertex 22.05 191.33 209.997
      vertex 18.55 173 191.667
    endloop
  endfacet
  facet normal -0.982254 0 0.187555
    outer loop
      vertex 18.55 191.35 191.667
      vertex 22.05 320.6 209.997
      vertex 18.55 320.6 191.667
    endloop
  endfacet
  facet normal -0.982254 0 0.187555
    outer loop
      vertex 22.05 320.6 209.997
      vertex 18.55 191.35 191.667
      vertex 22.05 191.35 209.997
    endloop
  endfacet
  facet normal 0 0 -1
    outer loop
      vertex 3.35 191.33 210.017
      vertex 6.85 173 210.017
      vertex 3.35 173 210.017
    endloop
  endfacet
  facet normal 0 0 -1
    outer loop
      vertex 22.05 191.35 210.017
      vertex 18.2 320.6 210.017
      vertex 22.05 320.6 210.017
    endloop
  endfacet
  facet normal 0 0 -1
    outer loop
      vertex 22.05 191.35 210.017
      vertex 7.2 320.6 210.017
      vertex 18.2 320.6 210.017
    endloop
  endfacet
  facet normal 0 0 -1
    outer loop
      vertex 3.35 191.35 210.017
      vertex 7.2 320.6 210.017
      vertex 22.05 191.35 210.017
    endloop
  endfacet
  facet normal -0 0 -1
    outer loop
      vertex 7.2 320.6 210.017
      vertex 3.35 191.35 210.017
      vertex 3.35 320.6 210.017
    endloop
  endfacet
  facet normal 0 0 -1
    outer loop
      vertex 7.2 320.6 210.017
      vertex 18.2681 320.95 210.017
      vertex 18.2 320.6 210.017
    endloop
  endfacet
  facet normal -0 0 -1
    outer loop
      vertex 18.2681 320.95 210.017
      vertex 7.2 320.6 210.017
      vertex 7.13187 320.95 210.017
    endloop
  endfacet
  facet normal 0 -0 -1
    outer loop
      vertex 22.05 191.33 210.017
      vertex 22.05 173 210.017
      vertex 18.55 173 210.017
    endloop
  endfacet
  facet normal 0.982254 0 0.187555
    outer loop
      vertex 6.85 173 191.667
      vertex 3.35 191.33 209.997
      vertex 3.35 173 209.997
    endloop
  endfacet
  facet normal 0.982254 -0 0.187555
    outer loop
      vertex 3.35 191.35 209.997
      vertex 6.85 320.6 191.667
      vertex 3.35 320.6 209.997
    endloop
  endfacet
  facet normal 0.982254 0 0.187555
    outer loop
      vertex 6.85 320.6 191.667
      vertex 3.35 191.35 209.997
      vertex 6.85 191.35 191.667
    endloop
  endfacet
endsolid OpenSCAD_Model
