solid OpenSCAD_Model
  facet normal 0 1 0
    outer loop
      vertex 25.4 468.2 524.2
      vertex 18.2 468.2 523
      vertex 18.4731 468.2 524.2
    endloop
  endfacet
  facet normal 0 1 0
    outer loop
      vertex 18.2 468.2 523
      vertex 22.05 468.2 376.283
      vertex 7.2 468.2 523
    endloop
  endfacet
  facet normal 0 1 0
    outer loop
      vertex 25.4 468.2 524.2
      vertex 22.05 468.2 376.283
      vertex 18.2 468.2 523
    endloop
  endfacet
  facet normal 0 1 -0
    outer loop
      vertex 25.4 468.2 357.933
      vertex 22.05 468.2 376.283
      vertex 25.4 468.2 524.2
    endloop
  endfacet
  facet normal 0 1 0
    outer loop
      vertex 22.05 468.2 376.283
      vertex 25.4 468.2 357.933
      vertex 22.05 468.2 376.263
    endloop
  endfacet
  facet normal 0 1 0
    outer loop
      vertex 22.05 468.2 376.263
      vertex 25.4 468.2 357.933
      vertex 18.55 468.2 357.933
    endloop
  endfacet
  facet normal 0 1 0
    outer loop
      vertex 7.2 468.2 523
      vertex 0 468.2 524.2
      vertex 6.92686 468.2 524.2
    endloop
  endfacet
  facet normal 0 1 0
    outer loop
      vertex 3.35 468.2 376.283
      vertex 7.2 468.2 523
      vertex 22.05 468.2 376.283
    endloop
  endfacet
  facet normal 0 1 0
    outer loop
      vertex 7.2 468.2 523
      vertex 3.35 468.2 376.283
      vertex 0 468.2 524.2
    endloop
  endfacet
  facet normal 0 1 0
    outer loop
      vertex 0 468.2 357.933
      vertex 3.35 468.2 376.283
      vertex 3.35 468.2 376.263
    endloop
  endfacet
  facet normal 0 1 0
    outer loop
      vertex 3.35 468.2 376.283
      vertex 0 468.2 357.933
      vertex 0 468.2 524.2
    endloop
  endfacet
  facet normal 0 1 0
    outer loop
      vertex 0 468.2 357.933
      vertex 3.35 468.2 376.263
      vertex 6.85 468.2 357.933
    endloop
  endfacet
  facet normal 1 -0 0
    outer loop
      vertex 25.4 320.6 524.2
      vertex 25.4 468.2 357.933
      vertex 25.4 468.2 524.2
    endloop
  endfacet
  facet normal 1 0 0
    outer loop
      vertex 25.4 468.2 357.933
      vertex 25.4 320.6 524.2
      vertex 25.4 320.6 357.933
    endloop
  endfacet
  facet normal -1 0 0
    outer loop
      vertex 0 320.6 357.933
      vertex 0 468.2 524.2
      vertex 0 468.2 357.933
    endloop
  endfacet
  facet normal -1 -0 0
    outer loop
      vertex 0 468.2 524.2
      vertex 0 320.6 357.933
      vertex 0 320.6 524.2
    endloop
  endfacet
  facet normal 0 -1 0
    outer loop
      vertex 22.05 320.6 376.283
      vertex 18.55 320.6 524.2
      vertex 18.55 320.6 376.283
    endloop
  endfacet
  facet normal 0 -1 0
    outer loop
      vertex 18.55 320.6 524.2
      vertex 22.05 320.6 376.283
      vertex 25.4 320.6 524.2
    endloop
  endfacet
  facet normal 0 -1 0
    outer loop
      vertex 25.4 320.6 357.933
      vertex 22.05 320.6 376.283
      vertex 22.05 320.6 376.263
    endloop
  endfacet
  facet normal 0 -1 0
    outer loop
      vertex 22.05 320.6 376.283
      vertex 25.4 320.6 357.933
      vertex 25.4 320.6 524.2
    endloop
  endfacet
  facet normal 0 -1 0
    outer loop
      vertex 25.4 320.6 357.933
      vertex 22.05 320.6 376.263
      vertex 18.55 320.6 357.933
    endloop
  endfacet
  facet normal 0 -1 0
    outer loop
      vertex 0 320.6 524.2
      vertex 3.35 320.6 376.283
      vertex 6.85 320.6 524.2
    endloop
  endfacet
  facet normal 0 -1 0
    outer loop
      vertex 0 320.6 357.933
      vertex 3.35 320.6 376.283
      vertex 0 320.6 524.2
    endloop
  endfacet
  facet normal 0 -1 -0
    outer loop
      vertex 3.35 320.6 376.283
      vertex 0 320.6 357.933
      vertex 3.35 320.6 376.263
    endloop
  endfacet
  facet normal 0 -1 -0
    outer loop
      vertex 3.35 320.6 376.263
      vertex 0 320.6 357.933
      vertex 6.85 320.6 357.933
    endloop
  endfacet
  facet normal 0 -1 -0
    outer loop
      vertex 6.85 320.6 524.2
      vertex 3.35 320.6 376.283
      vertex 6.85 320.6 376.283
    endloop
  endfacet
  facet normal 0 0 1
    outer loop
      vertex 25.4 468.2 524.2
      vertex 22.05 338.95 524.2
      vertex 25.4 320.6 524.2
    endloop
  endfacet
  facet normal -0 0 1
    outer loop
      vertex 18.4731 468.2 524.2
      vertex 22.05 338.95 524.2
      vertex 25.4 468.2 524.2
    endloop
  endfacet
  facet normal 0 0 1
    outer loop
      vertex 22.05 338.95 524.2
      vertex 18.4731 468.2 524.2
      vertex 18.4731 338.95 524.2
    endloop
  endfacet
  facet normal -0 0 1
    outer loop
      vertex 22.05 338.93 524.2
      vertex 25.4 320.6 524.2
      vertex 22.05 338.95 524.2
    endloop
  endfacet
  facet normal 0 0 1
    outer loop
      vertex 25.4 320.6 524.2
      vertex 22.05 338.93 524.2
      vertex 18.55 320.6 524.2
    endloop
  endfacet
  facet normal 0 0 1
    outer loop
      vertex 6.92686 468.2 524.2
      vertex 3.35 338.95 524.2
      vertex 6.92686 338.95 524.2
    endloop
  endfacet
  facet normal 0 0 1
    outer loop
      vertex 0 320.6 524.2
      vertex 3.35 338.95 524.2
      vertex 0 468.2 524.2
    endloop
  endfacet
  facet normal -0 0 1
    outer loop
      vertex 0 468.2 524.2
      vertex 3.35 338.95 524.2
      vertex 6.92686 468.2 524.2
    endloop
  endfacet
  facet normal 0 0 1
    outer loop
      vertex 3.35 338.93 524.2
      vertex 0 320.6 524.2
      vertex 6.85 320.6 524.2
    endloop
  endfacet
  facet normal 0 0 1
    outer loop
      vertex 3.35 338.95 524.2
      vertex 0 320.6 524.2
      vertex 3.35 338.93 524.2
    endloop
  endfacet
  facet normal 0 0 -1
    outer loop
      vertex 22.05 338.95 357.933
      vertex 25.4 320.6 357.933
      vertex 22.05 338.93 357.933
    endloop
  endfacet
  facet normal 0 -0 -1
    outer loop
      vertex 22.05 338.93 357.933
      vertex 25.4 320.6 357.933
      vertex 18.55 320.6 357.933
    endloop
  endfacet
  facet normal 0 0 -1
    outer loop
      vertex 25.4 320.6 357.933
      vertex 22.05 338.95 357.933
      vertex 25.4 468.2 357.933
    endloop
  endfacet
  facet normal 0 0 -1
    outer loop
      vertex 18.55 468.2 357.933
      vertex 22.05 338.95 357.933
      vertex 18.55 338.95 357.933
    endloop
  endfacet
  facet normal 0 0 -1
    outer loop
      vertex 22.05 338.95 357.933
      vertex 18.55 468.2 357.933
      vertex 25.4 468.2 357.933
    endloop
  endfacet
  facet normal -0 0 -1
    outer loop
      vertex 3.35 338.93 357.933
      vertex 0 320.6 357.933
      vertex 3.35 338.95 357.933
    endloop
  endfacet
  facet normal 0 0 -1
    outer loop
      vertex 0 320.6 357.933
      vertex 3.35 338.93 357.933
      vertex 6.85 320.6 357.933
    endloop
  endfacet
  facet normal 0 0 -1
    outer loop
      vertex 3.35 338.95 357.933
      vertex 6.85 468.2 357.933
      vertex 6.85 338.95 357.933
    endloop
  endfacet
  facet normal 0 0 -1
    outer loop
      vertex 0 468.2 357.933
      vertex 3.35 338.95 357.933
      vertex 0 320.6 357.933
    endloop
  endfacet
  facet normal 0 0 -1
    outer loop
      vertex 3.35 338.95 357.933
      vertex 0 468.2 357.933
      vertex 6.85 468.2 357.933
    endloop
  endfacet
  facet normal 0 -1 0
    outer loop
      vertex 3.35 338.95 524.2
      vertex 7.2 338.95 523
      vertex 6.92686 338.95 524.2
    endloop
  endfacet
  facet normal 0 -1 -0
    outer loop
      vertex 7.2 338.95 523
      vertex 3.35 338.95 376.283
      vertex 18.2 338.95 523
    endloop
  endfacet
  facet normal 0 -1 0
    outer loop
      vertex 3.35 338.95 376.283
      vertex 7.2 338.95 523
      vertex 3.35 338.95 524.2
    endloop
  endfacet
  facet normal 0 -1 0
    outer loop
      vertex 18.2 338.95 523
      vertex 22.05 338.95 524.2
      vertex 18.4731 338.95 524.2
    endloop
  endfacet
  facet normal 0 -1 0
    outer loop
      vertex 22.05 338.95 376.283
      vertex 18.2 338.95 523
      vertex 3.35 338.95 376.283
    endloop
  endfacet
  facet normal 0 -1 0
    outer loop
      vertex 18.2 338.95 523
      vertex 22.05 338.95 376.283
      vertex 22.05 338.95 524.2
    endloop
  endfacet
  facet normal 0 -1 0
    outer loop
      vertex 22.05 338.95 357.933
      vertex 22.05 338.95 376.263
      vertex 18.55 338.95 357.933
    endloop
  endfacet
  facet normal 0 -1 0
    outer loop
      vertex 6.85 338.95 357.933
      vertex 3.35 338.95 376.263
      vertex 3.35 338.95 357.933
    endloop
  endfacet
  facet normal 0.982254 0.187555 0
    outer loop
      vertex 6.85 320.6 524.2
      vertex 3.35 338.93 376.283
      vertex 3.35 338.93 524.2
    endloop
  endfacet
  facet normal 0.982254 0.187555 0
    outer loop
      vertex 3.35 338.93 376.283
      vertex 6.85 320.6 524.2
      vertex 6.85 320.6 376.283
    endloop
  endfacet
  facet normal 0.982254 0.187555 0
    outer loop
      vertex 3.35 338.93 376.263
      vertex 6.85 320.6 357.933
      vertex 3.35 338.93 357.933
    endloop
  endfacet
  facet normal 1 -0 0
    outer loop
      vertex 3.35 320.6 376.283
      vertex 3.35 338.93 376.263
      vertex 3.35 338.93 376.283
    endloop
  endfacet
  facet normal 1 0 0
    outer loop
      vertex 3.35 338.93 376.263
      vertex 3.35 320.6 376.283
      vertex 3.35 320.6 376.263
    endloop
  endfacet
  facet normal 1 0 0
    outer loop
      vertex 3.35 338.93 376.283
      vertex 3.35 338.95 376.283
      vertex 3.35 338.95 524.2
    endloop
  endfacet
  facet normal 1 0 0
    outer loop
      vertex 3.35 338.95 376.283
      vertex 3.35 338.93 376.283
      vertex 3.35 338.95 376.263
    endloop
  endfacet
  facet normal 1 0 0
    outer loop
      vertex 3.35 338.93 376.283
      vertex 3.35 338.95 524.2
      vertex 3.35 338.93 524.2
    endloop
  endfacet
  facet normal 1 0 0
    outer loop
      vertex 3.35 338.93 376.263
      vertex 3.35 338.95 376.263
      vertex 3.35 338.93 376.283
    endloop
  endfacet
  facet normal 1 0 0
    outer loop
      vertex 3.35 338.95 376.263
      vertex 3.35 338.93 376.263
      vertex 3.35 338.95 357.933
    endloop
  endfacet
  facet normal 1 0 0
    outer loop
      vertex 3.35 338.95 357.933
      vertex 3.35 338.93 376.263
      vertex 3.35 338.93 357.933
    endloop
  endfacet
  facet normal 1 -0 0
    outer loop
      vertex 3.35 338.95 376.283
      vertex 3.35 468.2 376.263
      vertex 3.35 468.2 376.283
    endloop
  endfacet
  facet normal 1 0 0
    outer loop
      vertex 3.35 468.2 376.263
      vertex 3.35 338.95 376.283
      vertex 3.35 338.95 376.263
    endloop
  endfacet
  facet normal -0.982254 0.187555 0
    outer loop
      vertex 18.55 320.6 376.283
      vertex 22.05 338.93 524.2
      vertex 22.05 338.93 376.283
    endloop
  endfacet
  facet normal -0.982254 0.187555 0
    outer loop
      vertex 22.05 338.93 524.2
      vertex 18.55 320.6 376.283
      vertex 18.55 320.6 524.2
    endloop
  endfacet
  facet normal -0.982254 0.187555 0
    outer loop
      vertex 22.05 338.93 376.263
      vertex 22.05 338.93 357.933
      vertex 18.55 320.6 357.933
    endloop
  endfacet
  facet normal -1 0 0
    outer loop
      vertex 22.05 320.6 376.263
      vertex 22.05 338.93 376.283
      vertex 22.05 338.93 376.263
    endloop
  endfacet
  facet normal -1 -0 0
    outer loop
      vertex 22.05 338.93 376.283
      vertex 22.05 320.6 376.263
      vertex 22.05 320.6 376.283
    endloop
  endfacet
  facet normal -1 0 0
    outer loop
      vertex 22.05 338.93 376.263
      vertex 22.05 338.95 376.263
      vertex 22.05 338.95 357.933
    endloop
  endfacet
  facet normal -1 0 0
    outer loop
      vertex 22.05 338.95 376.263
      vertex 22.05 338.93 376.263
      vertex 22.05 338.95 376.283
    endloop
  endfacet
  facet normal -1 0 0
    outer loop
      vertex 22.05 338.93 376.263
      vertex 22.05 338.95 357.933
      vertex 22.05 338.93 357.933
    endloop
  endfacet
  facet normal -1 0 0
    outer loop
      vertex 22.05 338.93 376.283
      vertex 22.05 338.95 376.283
      vertex 22.05 338.93 376.263
    endloop
  endfacet
  facet normal -1 0 0
    outer loop
      vertex 22.05 338.95 376.283
      vertex 22.05 338.93 376.283
      vertex 22.05 338.95 524.2
    endloop
  endfacet
  facet normal -1 -0 0
    outer loop
      vertex 22.05 338.95 524.2
      vertex 22.05 338.93 376.283
      vertex 22.05 338.93 524.2
    endloop
  endfacet
  facet normal -1 0 0
    outer loop
      vertex 22.05 338.95 376.263
      vertex 22.05 468.2 376.283
      vertex 22.05 468.2 376.263
    endloop
  endfacet
  facet normal -1 -0 0
    outer loop
      vertex 22.05 468.2 376.283
      vertex 22.05 338.95 376.263
      vertex 22.05 338.95 376.283
    endloop
  endfacet
  facet normal 0 0 -1
    outer loop
      vertex 3.35 338.93 376.283
      vertex 6.85 320.6 376.283
      vertex 3.35 320.6 376.283
    endloop
  endfacet
  facet normal 0 0 -1
    outer loop
      vertex 3.35 338.95 376.283
      vertex 22.05 468.2 376.283
      vertex 22.05 338.95 376.283
    endloop
  endfacet
  facet normal -0 0 -1
    outer loop
      vertex 22.05 468.2 376.283
      vertex 3.35 338.95 376.283
      vertex 3.35 468.2 376.283
    endloop
  endfacet
  facet normal 0 -0 -1
    outer loop
      vertex 22.05 338.93 376.283
      vertex 22.05 320.6 376.283
      vertex 18.55 320.6 376.283
    endloop
  endfacet
  facet normal 0.982254 0 0.187555
    outer loop
      vertex 6.85 320.6 357.933
      vertex 3.35 338.93 376.263
      vertex 3.35 320.6 376.263
    endloop
  endfacet
  facet normal 0.982254 -0 0.187555
    outer loop
      vertex 3.35 338.95 376.263
      vertex 6.85 468.2 357.933
      vertex 3.35 468.2 376.263
    endloop
  endfacet
  facet normal 0.982254 0 0.187555
    outer loop
      vertex 6.85 468.2 357.933
      vertex 3.35 338.95 376.263
      vertex 6.85 338.95 357.933
    endloop
  endfacet
  facet normal -0.982254 0 0.187555
    outer loop
      vertex 22.05 320.6 376.263
      vertex 22.05 338.93 376.263
      vertex 18.55 320.6 357.933
    endloop
  endfacet
  facet normal -0.982254 0 0.187555
    outer loop
      vertex 18.55 338.95 357.933
      vertex 22.05 468.2 376.263
      vertex 18.55 468.2 357.933
    endloop
  endfacet
  facet normal -0.982254 0 0.187555
    outer loop
      vertex 22.05 468.2 376.263
      vertex 18.55 338.95 357.933
      vertex 22.05 338.95 376.263
    endloop
  endfacet
  facet normal 0 1 -0
    outer loop
      vertex 21.2 468.2 536.18
      vertex 4.2 468.2 536.2
      vertex 21.2 468.2 536.2
    endloop
  endfacet
  facet normal 0 1 0
    outer loop
      vertex 21.2 468.2 536.18
      vertex 4.2 468.2 536.18
      vertex 4.2 468.2 536.2
    endloop
  endfacet
  facet normal 0 1 -0
    outer loop
      vertex 18.2 468.2 523
      vertex 4.2 468.2 536.18
      vertex 21.2 468.2 536.18
    endloop
  endfacet
  facet normal 0 1 0
    outer loop
      vertex 4.2 468.2 536.18
      vertex 18.2 468.2 523
      vertex 7.2 468.2 523
    endloop
  endfacet
  facet normal 0 0 -1
    outer loop
      vertex 7.2 320.6 523
      vertex 18.2 338.95 523
      vertex 18.2 320.6 523
    endloop
  endfacet
  facet normal -0 0 -1
    outer loop
      vertex 18.2 338.95 523
      vertex 7.2 320.6 523
      vertex 7.2 338.95 523
    endloop
  endfacet
  facet normal 0.975059 0 -0.221944
    outer loop
      vertex 21.2 468.2 536.18
      vertex 18.4731 338.95 524.2
      vertex 18.4731 468.2 524.2
    endloop
  endfacet
  facet normal 0.975059 0 -0.221944
    outer loop
      vertex 21.2 320.6 536.18
      vertex 18.4731 338.95 524.2
      vertex 21.2 468.2 536.18
    endloop
  endfacet
  facet normal 0.97506 2.18514e-06 -0.221941
    outer loop
      vertex 18.2 320.6 523
      vertex 18.4731 338.95 524.2
      vertex 21.2 320.6 536.18
    endloop
  endfacet
  facet normal 0.975067 0 -0.221909
    outer loop
      vertex 18.4731 338.95 524.2
      vertex 18.2 320.6 523
      vertex 18.2 338.95 523
    endloop
  endfacet
  facet normal 0 -1 0
    outer loop
      vertex 21.2 468.2 536.18
      vertex 18.4731 468.2 524.2
      vertex 18.2 468.2 523
    endloop
  endfacet
  facet normal 0 0 1
    outer loop
      vertex 16.9632 432.639 536.2
      vertex 21.2 468.2 536.2
      vertex 17 433.2 536.2
    endloop
  endfacet
  facet normal 0 0 1
    outer loop
      vertex 21.2 468.2 536.2
      vertex 16.9632 433.761 536.2
      vertex 17 433.2 536.2
    endloop
  endfacet
  facet normal 0 0 1
    outer loop
      vertex 21.2 468.2 536.2
      vertex 16.8535 434.313 536.2
      vertex 16.9632 433.761 536.2
    endloop
  endfacet
  facet normal 0 0 1
    outer loop
      vertex 21.2 468.2 536.2
      vertex 16.6727 434.846 536.2
      vertex 16.8535 434.313 536.2
    endloop
  endfacet
  facet normal 0 0 1
    outer loop
      vertex 21.2 468.2 536.2
      vertex 16.4239 435.35 536.2
      vertex 16.6727 434.846 536.2
    endloop
  endfacet
  facet normal 0 0 1
    outer loop
      vertex 21.2 468.2 536.2
      vertex 16.1114 435.818 536.2
      vertex 16.4239 435.35 536.2
    endloop
  endfacet
  facet normal 0 0 1
    outer loop
      vertex 21.2 468.2 536.2
      vertex 15.7406 436.241 536.2
      vertex 16.1114 435.818 536.2
    endloop
  endfacet
  facet normal 0 0 1
    outer loop
      vertex 21.2 468.2 536.2
      vertex 15.3177 436.611 536.2
      vertex 15.7406 436.241 536.2
    endloop
  endfacet
  facet normal 0 0 1
    outer loop
      vertex 21.2 468.2 536.2
      vertex 14.85 436.924 536.2
      vertex 15.3177 436.611 536.2
    endloop
  endfacet
  facet normal 0 0 1
    outer loop
      vertex 21.2 468.2 536.2
      vertex 14.3455 437.173 536.2
      vertex 14.85 436.924 536.2
    endloop
  endfacet
  facet normal 0 0 1
    outer loop
      vertex 21.2 468.2 536.2
      vertex 13.8129 437.353 536.2
      vertex 14.3455 437.173 536.2
    endloop
  endfacet
  facet normal 0 0 1
    outer loop
      vertex 21.2 468.2 536.2
      vertex 13.2613 437.463 536.2
      vertex 13.8129 437.353 536.2
    endloop
  endfacet
  facet normal 0 0 1
    outer loop
      vertex 21.2 468.2 536.2
      vertex 12.7 437.5 536.2
      vertex 13.2613 437.463 536.2
    endloop
  endfacet
  facet normal -0 0 1
    outer loop
      vertex 4.2 468.2 536.2
      vertex 12.7 437.5 536.2
      vertex 21.2 468.2 536.2
    endloop
  endfacet
  facet normal 0 0 1
    outer loop
      vertex 12.7 437.5 536.2
      vertex 4.2 468.2 536.2
      vertex 12.1387 437.463 536.2
    endloop
  endfacet
  facet normal 0 0 1
    outer loop
      vertex 12.1387 437.463 536.2
      vertex 4.2 468.2 536.2
      vertex 11.5871 437.353 536.2
    endloop
  endfacet
  facet normal 0 0 1
    outer loop
      vertex 11.5871 437.353 536.2
      vertex 4.2 468.2 536.2
      vertex 11.0545 437.173 536.2
    endloop
  endfacet
  facet normal 0 0 1
    outer loop
      vertex 11.0545 437.173 536.2
      vertex 4.2 468.2 536.2
      vertex 10.55 436.924 536.2
    endloop
  endfacet
  facet normal 0 0 1
    outer loop
      vertex 10.55 436.924 536.2
      vertex 4.2 468.2 536.2
      vertex 10.0823 436.611 536.2
    endloop
  endfacet
  facet normal 0 0 1
    outer loop
      vertex 10.0823 436.611 536.2
      vertex 4.2 468.2 536.2
      vertex 9.65944 436.241 536.2
    endloop
  endfacet
  facet normal 0 0 1
    outer loop
      vertex 9.65944 436.241 536.2
      vertex 4.2 468.2 536.2
      vertex 9.28858 435.818 536.2
    endloop
  endfacet
  facet normal 0 0 1
    outer loop
      vertex 9.28858 435.818 536.2
      vertex 4.2 468.2 536.2
      vertex 8.97609 435.35 536.2
    endloop
  endfacet
  facet normal 0 0 1
    outer loop
      vertex 8.43679 433.761 536.2
      vertex 4.2 468.2 536.2
      vertex 8.4 433.2 536.2
    endloop
  endfacet
  facet normal 0 0 1
    outer loop
      vertex 8.54652 434.313 536.2
      vertex 4.2 468.2 536.2
      vertex 8.43679 433.761 536.2
    endloop
  endfacet
  facet normal 0 0 1
    outer loop
      vertex 8.72732 434.846 536.2
      vertex 4.2 468.2 536.2
      vertex 8.54652 434.313 536.2
    endloop
  endfacet
  facet normal 0 0 1
    outer loop
      vertex 8.97609 435.35 536.2
      vertex 4.2 468.2 536.2
      vertex 8.72732 434.846 536.2
    endloop
  endfacet
  facet normal 0 0 1
    outer loop
      vertex 21.2 468.2 536.2
      vertex 16.9632 432.639 536.2
      vertex 21.2 320.6 536.2
    endloop
  endfacet
  facet normal -0 0 1
    outer loop
      vertex 16.8535 432.087 536.2
      vertex 21.2 320.6 536.2
      vertex 16.9632 432.639 536.2
    endloop
  endfacet
  facet normal -0 0 1
    outer loop
      vertex 16.6727 431.554 536.2
      vertex 21.2 320.6 536.2
      vertex 16.8535 432.087 536.2
    endloop
  endfacet
  facet normal -0 0 1
    outer loop
      vertex 16.4239 431.05 536.2
      vertex 21.2 320.6 536.2
      vertex 16.6727 431.554 536.2
    endloop
  endfacet
  facet normal -0 0 1
    outer loop
      vertex 16.1114 430.582 536.2
      vertex 21.2 320.6 536.2
      vertex 16.4239 431.05 536.2
    endloop
  endfacet
  facet normal -0 0 1
    outer loop
      vertex 15.7406 430.159 536.2
      vertex 21.2 320.6 536.2
      vertex 16.1114 430.582 536.2
    endloop
  endfacet
  facet normal -0 0 1
    outer loop
      vertex 15.3177 429.789 536.2
      vertex 21.2 320.6 536.2
      vertex 15.7406 430.159 536.2
    endloop
  endfacet
  facet normal -0 0 1
    outer loop
      vertex 14.85 429.476 536.2
      vertex 21.2 320.6 536.2
      vertex 15.3177 429.789 536.2
    endloop
  endfacet
  facet normal -0 0 1
    outer loop
      vertex 14.3455 429.227 536.2
      vertex 21.2 320.6 536.2
      vertex 14.85 429.476 536.2
    endloop
  endfacet
  facet normal -0 0 1
    outer loop
      vertex 13.8129 429.047 536.2
      vertex 21.2 320.6 536.2
      vertex 14.3455 429.227 536.2
    endloop
  endfacet
  facet normal -0 0 1
    outer loop
      vertex 13.2613 428.937 536.2
      vertex 21.2 320.6 536.2
      vertex 13.8129 429.047 536.2
    endloop
  endfacet
  facet normal -0 0 1
    outer loop
      vertex 12.7 428.9 536.2
      vertex 21.2 320.6 536.2
      vertex 13.2613 428.937 536.2
    endloop
  endfacet
  facet normal 0 0 1
    outer loop
      vertex 4.2 320.6 536.2
      vertex 12.7 428.9 536.2
      vertex 12.1387 428.937 536.2
    endloop
  endfacet
  facet normal 0 0 1
    outer loop
      vertex 4.2 320.6 536.2
      vertex 12.1387 428.937 536.2
      vertex 11.5871 429.047 536.2
    endloop
  endfacet
  facet normal 0 0 1
    outer loop
      vertex 4.2 320.6 536.2
      vertex 11.5871 429.047 536.2
      vertex 11.0545 429.227 536.2
    endloop
  endfacet
  facet normal 0 0 1
    outer loop
      vertex 4.2 320.6 536.2
      vertex 11.0545 429.227 536.2
      vertex 10.55 429.476 536.2
    endloop
  endfacet
  facet normal 0 0 1
    outer loop
      vertex 4.2 320.6 536.2
      vertex 10.55 429.476 536.2
      vertex 10.0823 429.789 536.2
    endloop
  endfacet
  facet normal 0 0 1
    outer loop
      vertex 4.2 320.6 536.2
      vertex 10.0823 429.789 536.2
      vertex 9.65944 430.159 536.2
    endloop
  endfacet
  facet normal 0 0 1
    outer loop
      vertex 4.2 320.6 536.2
      vertex 9.65944 430.159 536.2
      vertex 9.28858 430.582 536.2
    endloop
  endfacet
  facet normal 0 0 1
    outer loop
      vertex 4.2 320.6 536.2
      vertex 9.28858 430.582 536.2
      vertex 8.97609 431.05 536.2
    endloop
  endfacet
  facet normal 0 0 1
    outer loop
      vertex 4.2 320.6 536.2
      vertex 8.97609 431.05 536.2
      vertex 8.72732 431.554 536.2
    endloop
  endfacet
  facet normal 0 0 1
    outer loop
      vertex 4.2 320.6 536.2
      vertex 8.72732 431.554 536.2
      vertex 8.54652 432.087 536.2
    endloop
  endfacet
  facet normal 0 0 1
    outer loop
      vertex 4.2 320.6 536.2
      vertex 8.54652 432.087 536.2
      vertex 8.43679 432.639 536.2
    endloop
  endfacet
  facet normal 0 0 1
    outer loop
      vertex 4.2 468.2 536.2
      vertex 8.43679 432.639 536.2
      vertex 8.4 433.2 536.2
    endloop
  endfacet
  facet normal 0 0 1
    outer loop
      vertex 4.2 320.6 536.2
      vertex 8.43679 432.639 536.2
      vertex 4.2 468.2 536.2
    endloop
  endfacet
  facet normal 0 0 1
    outer loop
      vertex 12.7 428.9 536.2
      vertex 4.2 320.6 536.2
      vertex 21.2 320.6 536.2
    endloop
  endfacet
  facet normal 1 -0 0
    outer loop
      vertex 21.2 320.6 536.2
      vertex 21.2 468.2 536.18
      vertex 21.2 468.2 536.2
    endloop
  endfacet
  facet normal 1 0 0
    outer loop
      vertex 21.2 468.2 536.18
      vertex 21.2 320.6 536.2
      vertex 21.2 320.6 536.18
    endloop
  endfacet
  facet normal -1 0 0
    outer loop
      vertex 4.2 320.6 536.18
      vertex 4.2 468.2 536.2
      vertex 4.2 468.2 536.18
    endloop
  endfacet
  facet normal -1 -0 0
    outer loop
      vertex 4.2 468.2 536.2
      vertex 4.2 320.6 536.18
      vertex 4.2 320.6 536.2
    endloop
  endfacet
  facet normal -0.97506 -0 -0.22194
    outer loop
      vertex 7.2 338.95 523
      vertex 7.2 320.6 523
      vertex 6.92686 338.95 524.2
    endloop
  endfacet
  facet normal -0.97506 0 -0.221941
    outer loop
      vertex 6.92686 338.95 524.2
      vertex 4.2 468.2 536.18
      vertex 6.92686 468.2 524.2
    endloop
  endfacet
  facet normal -0.97506 5.9668e-08 -0.221941
    outer loop
      vertex 4.2 320.6 536.18
      vertex 6.92686 338.95 524.2
      vertex 7.2 320.6 523
    endloop
  endfacet
  facet normal -0.97506 0 -0.221941
    outer loop
      vertex 6.92686 338.95 524.2
      vertex 4.2 320.6 536.18
      vertex 4.2 468.2 536.18
    endloop
  endfacet
  facet normal 0 -1 0
    outer loop
      vertex 7.2 468.2 523
      vertex 6.92686 468.2 524.2
      vertex 4.2 468.2 536.18
    endloop
  endfacet
  facet normal 0 -1 0
    outer loop
      vertex 4.2 320.6 536.18
      vertex 21.2 320.6 536.2
      vertex 4.2 320.6 536.2
    endloop
  endfacet
  facet normal 0 -1 0
    outer loop
      vertex 4.2 320.6 536.18
      vertex 21.2 320.6 536.18
      vertex 21.2 320.6 536.2
    endloop
  endfacet
  facet normal 0 -1 0
    outer loop
      vertex 7.2 320.6 523
      vertex 21.2 320.6 536.18
      vertex 4.2 320.6 536.18
    endloop
  endfacet
  facet normal 0 -1 0
    outer loop
      vertex 21.2 320.6 536.18
      vertex 7.2 320.6 523
      vertex 18.2 320.6 523
    endloop
  endfacet
  facet normal -0.980819 -0.19492 0
    outer loop
      vertex 16.9632 433.761 523.2
      vertex 16.8535 434.313 536.2
      vertex 16.8535 434.313 523.2
    endloop
  endfacet
  facet normal -0.980819 -0.19492 0
    outer loop
      vertex 16.8535 434.313 536.2
      vertex 16.9632 433.761 523.2
      vertex 16.9632 433.761 536.2
    endloop
  endfacet
  facet normal -0.997855 -0.0654565 0
    outer loop
      vertex 17 433.2 523.2
      vertex 16.9632 433.761 536.2
      vertex 16.9632 433.761 523.2
    endloop
  endfacet
  facet normal -0.997855 -0.0654565 0
    outer loop
      vertex 16.9632 433.761 536.2
      vertex 17 433.2 523.2
      vertex 17 433.2 536.2
    endloop
  endfacet
  facet normal -0.947 -0.321234 0
    outer loop
      vertex 16.8535 434.313 523.2
      vertex 16.6727 434.846 536.2
      vertex 16.6727 434.846 523.2
    endloop
  endfacet
  facet normal -0.947 -0.321234 0
    outer loop
      vertex 16.6727 434.846 536.2
      vertex 16.8535 434.313 523.2
      vertex 16.8535 434.313 536.2
    endloop
  endfacet
  facet normal 0.556176 -0.831065 0
    outer loop
      vertex 10.0823 436.611 523.2
      vertex 10.55 436.924 536.2
      vertex 10.0823 436.611 536.2
    endloop
  endfacet
  facet normal 0.556176 -0.831065 0
    outer loop
      vertex 10.55 436.924 536.2
      vertex 10.0823 436.611 523.2
      vertex 10.55 436.924 523.2
    endloop
  endfacet
  facet normal -0.947 0.321234 0
    outer loop
      vertex 16.6727 431.554 523.2
      vertex 16.8535 432.087 536.2
      vertex 16.8535 432.087 523.2
    endloop
  endfacet
  facet normal -0.947 0.321234 0
    outer loop
      vertex 16.8535 432.087 536.2
      vertex 16.6727 431.554 523.2
      vertex 16.6727 431.554 536.2
    endloop
  endfacet
  facet normal -0.896693 -0.442653 0
    outer loop
      vertex 16.6727 434.846 523.2
      vertex 16.4239 435.35 536.2
      vertex 16.4239 435.35 523.2
    endloop
  endfacet
  facet normal -0.896693 -0.442653 0
    outer loop
      vertex 16.4239 435.35 536.2
      vertex 16.6727 434.846 523.2
      vertex 16.6727 434.846 536.2
    endloop
  endfacet
  facet normal -0.320174 0.947359 0
    outer loop
      vertex 14.3455 429.227 523.2
      vertex 13.8129 429.047 536.2
      vertex 14.3455 429.227 536.2
    endloop
  endfacet
  facet normal -0.320174 0.947359 0
    outer loop
      vertex 13.8129 429.047 536.2
      vertex 14.3455 429.227 523.2
      vertex 13.8129 429.047 523.2
    endloop
  endfacet
  facet normal -0.195569 0.98069 0
    outer loop
      vertex 13.8129 429.047 523.2
      vertex 13.2613 428.937 536.2
      vertex 13.8129 429.047 536.2
    endloop
  endfacet
  facet normal -0.195569 0.98069 0
    outer loop
      vertex 13.2613 428.937 536.2
      vertex 13.8129 429.047 523.2
      vertex 13.2613 428.937 523.2
    endloop
  endfacet
  facet normal 0.320174 -0.947359 0
    outer loop
      vertex 11.0545 437.173 523.2
      vertex 11.5871 437.353 536.2
      vertex 11.0545 437.173 536.2
    endloop
  endfacet
  facet normal 0.320174 -0.947359 0
    outer loop
      vertex 11.5871 437.353 536.2
      vertex 11.0545 437.173 523.2
      vertex 11.5871 437.353 523.2
    endloop
  endfacet
  facet normal 0.320174 0.947359 -0
    outer loop
      vertex 11.5871 429.047 523.2
      vertex 11.0545 429.227 536.2
      vertex 11.5871 429.047 536.2
    endloop
  endfacet
  facet normal 0.320174 0.947359 0
    outer loop
      vertex 11.0545 429.227 536.2
      vertex 11.5871 429.047 523.2
      vertex 11.0545 429.227 523.2
    endloop
  endfacet
  facet normal -0.83164 0.555315 0
    outer loop
      vertex 16.1114 430.582 523.2
      vertex 16.4239 431.05 536.2
      vertex 16.4239 431.05 523.2
    endloop
  endfacet
  facet normal -0.83164 0.555315 0
    outer loop
      vertex 16.4239 431.05 536.2
      vertex 16.1114 430.582 523.2
      vertex 16.1114 430.582 536.2
    endloop
  endfacet
  facet normal 0.0657757 -0.997834 0
    outer loop
      vertex 12.1387 437.463 523.2
      vertex 12.7 437.5 536.2
      vertex 12.1387 437.463 536.2
    endloop
  endfacet
  facet normal 0.0657757 -0.997834 0
    outer loop
      vertex 12.7 437.5 536.2
      vertex 12.1387 437.463 523.2
      vertex 12.7 437.5 523.2
    endloop
  endfacet
  facet normal 0.751929 -0.659244 0
    outer loop
      vertex 9.28858 435.818 536.2
      vertex 9.65944 436.241 523.2
      vertex 9.65944 436.241 536.2
    endloop
  endfacet
  facet normal 0.751929 -0.659244 0
    outer loop
      vertex 9.65944 436.241 523.2
      vertex 9.28858 435.818 536.2
      vertex 9.28858 435.818 523.2
    endloop
  endfacet
  facet normal -0.0657757 -0.997834 0
    outer loop
      vertex 12.7 437.5 523.2
      vertex 13.2613 437.463 536.2
      vertex 12.7 437.5 536.2
    endloop
  endfacet
  facet normal -0.0657757 -0.997834 -0
    outer loop
      vertex 13.2613 437.463 536.2
      vertex 12.7 437.5 523.2
      vertex 13.2613 437.463 523.2
    endloop
  endfacet
  facet normal -0.751982 0.659184 0
    outer loop
      vertex 15.7406 430.159 523.2
      vertex 16.1114 430.582 536.2
      vertex 16.1114 430.582 523.2
    endloop
  endfacet
  facet normal -0.751982 0.659184 0
    outer loop
      vertex 16.1114 430.582 536.2
      vertex 15.7406 430.159 523.2
      vertex 15.7406 430.159 536.2
    endloop
  endfacet
  facet normal 0.751929 0.659244 0
    outer loop
      vertex 9.65944 430.159 536.2
      vertex 9.28858 430.582 523.2
      vertex 9.28858 430.582 536.2
    endloop
  endfacet
  facet normal 0.751929 0.659244 0
    outer loop
      vertex 9.28858 430.582 523.2
      vertex 9.65944 430.159 536.2
      vertex 9.65944 430.159 523.2
    endloop
  endfacet
  facet normal -0.0657757 0.997834 0
    outer loop
      vertex 13.2613 428.937 523.2
      vertex 12.7 428.9 536.2
      vertex 13.2613 428.937 536.2
    endloop
  endfacet
  facet normal -0.0657757 0.997834 0
    outer loop
      vertex 12.7 428.9 536.2
      vertex 13.2613 428.937 523.2
      vertex 12.7 428.9 523.2
    endloop
  endfacet
  facet normal -0.658467 -0.75261 0
    outer loop
      vertex 15.3177 436.611 523.2
      vertex 15.7406 436.241 536.2
      vertex 15.3177 436.611 536.2
    endloop
  endfacet
  facet normal -0.658467 -0.75261 -0
    outer loop
      vertex 15.7406 436.241 536.2
      vertex 15.3177 436.611 523.2
      vertex 15.7406 436.241 523.2
    endloop
  endfacet
  facet normal -0.442586 -0.896726 0
    outer loop
      vertex 14.3455 437.173 523.2
      vertex 14.85 436.924 536.2
      vertex 14.3455 437.173 536.2
    endloop
  endfacet
  facet normal -0.442586 -0.896726 -0
    outer loop
      vertex 14.85 436.924 536.2
      vertex 14.3455 437.173 523.2
      vertex 14.85 436.924 523.2
    endloop
  endfacet
  facet normal -0.195569 -0.98069 0
    outer loop
      vertex 13.2613 437.463 523.2
      vertex 13.8129 437.353 536.2
      vertex 13.2613 437.463 536.2
    endloop
  endfacet
  facet normal -0.195569 -0.98069 -0
    outer loop
      vertex 13.8129 437.353 536.2
      vertex 13.2613 437.463 523.2
      vertex 13.8129 437.353 523.2
    endloop
  endfacet
  facet normal -0.556176 -0.831065 0
    outer loop
      vertex 14.85 436.924 523.2
      vertex 15.3177 436.611 536.2
      vertex 14.85 436.924 536.2
    endloop
  endfacet
  facet normal -0.556176 -0.831065 -0
    outer loop
      vertex 15.3177 436.611 536.2
      vertex 14.85 436.924 523.2
      vertex 15.3177 436.611 523.2
    endloop
  endfacet
  facet normal 0 0 1
    outer loop
      vertex 16.9632 433.761 523.2
      vertex 16.9632 432.639 523.2
      vertex 17 433.2 523.2
    endloop
  endfacet
  facet normal 0 0 1
    outer loop
      vertex 16.8535 434.313 523.2
      vertex 16.9632 432.639 523.2
      vertex 16.9632 433.761 523.2
    endloop
  endfacet
  facet normal 0 0 1
    outer loop
      vertex 16.8535 434.313 523.2
      vertex 16.8535 432.087 523.2
      vertex 16.9632 432.639 523.2
    endloop
  endfacet
  facet normal 0 0 1
    outer loop
      vertex 16.6727 434.846 523.2
      vertex 16.8535 432.087 523.2
      vertex 16.8535 434.313 523.2
    endloop
  endfacet
  facet normal 0 0 1
    outer loop
      vertex 16.6727 434.846 523.2
      vertex 16.6727 431.554 523.2
      vertex 16.8535 432.087 523.2
    endloop
  endfacet
  facet normal 0 0 1
    outer loop
      vertex 16.4239 435.35 523.2
      vertex 16.6727 431.554 523.2
      vertex 16.6727 434.846 523.2
    endloop
  endfacet
  facet normal 0 0 1
    outer loop
      vertex 16.4239 435.35 523.2
      vertex 16.4239 431.05 523.2
      vertex 16.6727 431.554 523.2
    endloop
  endfacet
  facet normal 0 0 1
    outer loop
      vertex 16.1114 435.818 523.2
      vertex 16.4239 431.05 523.2
      vertex 16.4239 435.35 523.2
    endloop
  endfacet
  facet normal 0 0 1
    outer loop
      vertex 16.1114 435.818 523.2
      vertex 16.1114 430.582 523.2
      vertex 16.4239 431.05 523.2
    endloop
  endfacet
  facet normal 0 0 1
    outer loop
      vertex 15.7406 436.241 523.2
      vertex 16.1114 430.582 523.2
      vertex 16.1114 435.818 523.2
    endloop
  endfacet
  facet normal 0 0 1
    outer loop
      vertex 15.7406 436.241 523.2
      vertex 15.7406 430.159 523.2
      vertex 16.1114 430.582 523.2
    endloop
  endfacet
  facet normal 0 0 1
    outer loop
      vertex 15.3177 436.611 523.2
      vertex 15.7406 430.159 523.2
      vertex 15.7406 436.241 523.2
    endloop
  endfacet
  facet normal 0 0 1
    outer loop
      vertex 15.3177 436.611 523.2
      vertex 15.3177 429.789 523.2
      vertex 15.7406 430.159 523.2
    endloop
  endfacet
  facet normal 0 0 1
    outer loop
      vertex 14.85 436.924 523.2
      vertex 15.3177 429.789 523.2
      vertex 15.3177 436.611 523.2
    endloop
  endfacet
  facet normal 0 0 1
    outer loop
      vertex 14.85 436.924 523.2
      vertex 14.85 429.476 523.2
      vertex 15.3177 429.789 523.2
    endloop
  endfacet
  facet normal 0 0 1
    outer loop
      vertex 14.3455 437.173 523.2
      vertex 14.85 429.476 523.2
      vertex 14.85 436.924 523.2
    endloop
  endfacet
  facet normal 0 0 1
    outer loop
      vertex 14.3455 437.173 523.2
      vertex 14.3455 429.227 523.2
      vertex 14.85 429.476 523.2
    endloop
  endfacet
  facet normal 0 0 1
    outer loop
      vertex 13.8129 437.353 523.2
      vertex 14.3455 429.227 523.2
      vertex 14.3455 437.173 523.2
    endloop
  endfacet
  facet normal 0 0 1
    outer loop
      vertex 13.8129 437.353 523.2
      vertex 13.8129 429.047 523.2
      vertex 14.3455 429.227 523.2
    endloop
  endfacet
  facet normal 0 0 1
    outer loop
      vertex 13.2613 437.463 523.2
      vertex 13.8129 429.047 523.2
      vertex 13.8129 437.353 523.2
    endloop
  endfacet
  facet normal 0 0 1
    outer loop
      vertex 13.2613 437.463 523.2
      vertex 13.2613 428.937 523.2
      vertex 13.8129 429.047 523.2
    endloop
  endfacet
  facet normal 0 0 1
    outer loop
      vertex 12.7 437.5 523.2
      vertex 13.2613 428.937 523.2
      vertex 13.2613 437.463 523.2
    endloop
  endfacet
  facet normal 0 0 1
    outer loop
      vertex 12.7 437.5 523.2
      vertex 12.7 428.9 523.2
      vertex 13.2613 428.937 523.2
    endloop
  endfacet
  facet normal -0 0 1
    outer loop
      vertex 12.1387 437.463 523.2
      vertex 12.7 428.9 523.2
      vertex 12.7 437.5 523.2
    endloop
  endfacet
  facet normal 0 0 1
    outer loop
      vertex 12.1387 437.463 523.2
      vertex 12.1387 428.937 523.2
      vertex 12.7 428.9 523.2
    endloop
  endfacet
  facet normal -0 0 1
    outer loop
      vertex 11.5871 437.353 523.2
      vertex 12.1387 428.937 523.2
      vertex 12.1387 437.463 523.2
    endloop
  endfacet
  facet normal 0 0 1
    outer loop
      vertex 11.5871 437.353 523.2
      vertex 11.5871 429.047 523.2
      vertex 12.1387 428.937 523.2
    endloop
  endfacet
  facet normal -0 0 1
    outer loop
      vertex 11.0545 437.173 523.2
      vertex 11.5871 429.047 523.2
      vertex 11.5871 437.353 523.2
    endloop
  endfacet
  facet normal 0 0 1
    outer loop
      vertex 11.0545 437.173 523.2
      vertex 11.0545 429.227 523.2
      vertex 11.5871 429.047 523.2
    endloop
  endfacet
  facet normal -0 0 1
    outer loop
      vertex 10.55 436.924 523.2
      vertex 11.0545 429.227 523.2
      vertex 11.0545 437.173 523.2
    endloop
  endfacet
  facet normal 0 0 1
    outer loop
      vertex 10.55 436.924 523.2
      vertex 10.55 429.476 523.2
      vertex 11.0545 429.227 523.2
    endloop
  endfacet
  facet normal -0 0 1
    outer loop
      vertex 10.0823 436.611 523.2
      vertex 10.55 429.476 523.2
      vertex 10.55 436.924 523.2
    endloop
  endfacet
  facet normal 0 0 1
    outer loop
      vertex 10.0823 436.611 523.2
      vertex 10.0823 429.789 523.2
      vertex 10.55 429.476 523.2
    endloop
  endfacet
  facet normal -0 0 1
    outer loop
      vertex 9.65944 436.241 523.2
      vertex 10.0823 429.789 523.2
      vertex 10.0823 436.611 523.2
    endloop
  endfacet
  facet normal 0 0 1
    outer loop
      vertex 9.65944 436.241 523.2
      vertex 9.65944 430.159 523.2
      vertex 10.0823 429.789 523.2
    endloop
  endfacet
  facet normal -0 0 1
    outer loop
      vertex 9.28858 435.818 523.2
      vertex 9.65944 430.159 523.2
      vertex 9.65944 436.241 523.2
    endloop
  endfacet
  facet normal 0 0 1
    outer loop
      vertex 9.28858 435.818 523.2
      vertex 9.28858 430.582 523.2
      vertex 9.65944 430.159 523.2
    endloop
  endfacet
  facet normal -0 0 1
    outer loop
      vertex 8.97609 435.35 523.2
      vertex 9.28858 430.582 523.2
      vertex 9.28858 435.818 523.2
    endloop
  endfacet
  facet normal 0 0 1
    outer loop
      vertex 8.97609 435.35 523.2
      vertex 8.97609 431.05 523.2
      vertex 9.28858 430.582 523.2
    endloop
  endfacet
  facet normal -0 0 1
    outer loop
      vertex 8.72732 434.846 523.2
      vertex 8.97609 431.05 523.2
      vertex 8.97609 435.35 523.2
    endloop
  endfacet
  facet normal 0 0 1
    outer loop
      vertex 8.72732 434.846 523.2
      vertex 8.72732 431.554 523.2
      vertex 8.97609 431.05 523.2
    endloop
  endfacet
  facet normal -0 0 1
    outer loop
      vertex 8.54652 434.313 523.2
      vertex 8.72732 431.554 523.2
      vertex 8.72732 434.846 523.2
    endloop
  endfacet
  facet normal 0 0 1
    outer loop
      vertex 8.54652 434.313 523.2
      vertex 8.54652 432.087 523.2
      vertex 8.72732 431.554 523.2
    endloop
  endfacet
  facet normal -0 0 1
    outer loop
      vertex 8.43679 433.761 523.2
      vertex 8.54652 432.087 523.2
      vertex 8.54652 434.313 523.2
    endloop
  endfacet
  facet normal 0 0 1
    outer loop
      vertex 8.43679 433.761 523.2
      vertex 8.43679 432.639 523.2
      vertex 8.54652 432.087 523.2
    endloop
  endfacet
  facet normal 0 -0 1
    outer loop
      vertex 8.43679 432.639 523.2
      vertex 8.43679 433.761 523.2
      vertex 8.4 433.2 523.2
    endloop
  endfacet
  facet normal -0.751982 -0.659184 0
    outer loop
      vertex 16.1114 435.818 523.2
      vertex 15.7406 436.241 536.2
      vertex 15.7406 436.241 523.2
    endloop
  endfacet
  facet normal -0.751982 -0.659184 0
    outer loop
      vertex 15.7406 436.241 536.2
      vertex 16.1114 435.818 523.2
      vertex 16.1114 435.818 536.2
    endloop
  endfacet
  facet normal -0.83164 -0.555315 0
    outer loop
      vertex 16.4239 435.35 523.2
      vertex 16.1114 435.818 536.2
      vertex 16.1114 435.818 523.2
    endloop
  endfacet
  facet normal -0.83164 -0.555315 0
    outer loop
      vertex 16.1114 435.818 536.2
      vertex 16.4239 435.35 523.2
      vertex 16.4239 435.35 536.2
    endloop
  endfacet
  facet normal 0.442586 -0.896726 0
    outer loop
      vertex 10.55 436.924 523.2
      vertex 11.0545 437.173 536.2
      vertex 10.55 436.924 536.2
    endloop
  endfacet
  facet normal 0.442586 -0.896726 0
    outer loop
      vertex 11.0545 437.173 536.2
      vertex 10.55 436.924 523.2
      vertex 11.0545 437.173 523.2
    endloop
  endfacet
  facet normal 0.195569 0.98069 -0
    outer loop
      vertex 12.1387 428.937 523.2
      vertex 11.5871 429.047 536.2
      vertex 12.1387 428.937 536.2
    endloop
  endfacet
  facet normal 0.195569 0.98069 0
    outer loop
      vertex 11.5871 429.047 536.2
      vertex 12.1387 428.937 523.2
      vertex 11.5871 429.047 523.2
    endloop
  endfacet
  facet normal 0.195569 -0.98069 0
    outer loop
      vertex 11.5871 437.353 523.2
      vertex 12.1387 437.463 536.2
      vertex 11.5871 437.353 536.2
    endloop
  endfacet
  facet normal 0.195569 -0.98069 0
    outer loop
      vertex 12.1387 437.463 536.2
      vertex 11.5871 437.353 523.2
      vertex 12.1387 437.463 523.2
    endloop
  endfacet
  facet normal 0.947 -0.321234 0
    outer loop
      vertex 8.54652 434.313 536.2
      vertex 8.72732 434.846 523.2
      vertex 8.72732 434.846 536.2
    endloop
  endfacet
  facet normal 0.947 -0.321234 0
    outer loop
      vertex 8.72732 434.846 523.2
      vertex 8.54652 434.313 536.2
      vertex 8.54652 434.313 523.2
    endloop
  endfacet
  facet normal 0.997857 -0.0654388 0
    outer loop
      vertex 8.4 433.2 536.2
      vertex 8.43679 433.761 523.2
      vertex 8.43679 433.761 536.2
    endloop
  endfacet
  facet normal 0.997857 -0.0654388 0
    outer loop
      vertex 8.43679 433.761 523.2
      vertex 8.4 433.2 536.2
      vertex 8.4 433.2 523.2
    endloop
  endfacet
  facet normal 0.947 0.321234 0
    outer loop
      vertex 8.72732 431.554 536.2
      vertex 8.54652 432.087 523.2
      vertex 8.54652 432.087 536.2
    endloop
  endfacet
  facet normal 0.947 0.321234 0
    outer loop
      vertex 8.54652 432.087 523.2
      vertex 8.72732 431.554 536.2
      vertex 8.72732 431.554 523.2
    endloop
  endfacet
  facet normal 0.831648 0.555303 0
    outer loop
      vertex 9.28858 430.582 536.2
      vertex 8.97609 431.05 523.2
      vertex 8.97609 431.05 536.2
    endloop
  endfacet
  facet normal 0.831648 0.555303 0
    outer loop
      vertex 8.97609 431.05 523.2
      vertex 9.28858 430.582 536.2
      vertex 9.28858 430.582 523.2
    endloop
  endfacet
  facet normal 0.980809 0.194971 0
    outer loop
      vertex 8.54652 432.087 536.2
      vertex 8.43679 432.639 523.2
      vertex 8.43679 432.639 536.2
    endloop
  endfacet
  facet normal 0.980809 0.194971 0
    outer loop
      vertex 8.43679 432.639 523.2
      vertex 8.54652 432.087 536.2
      vertex 8.54652 432.087 523.2
    endloop
  endfacet
  facet normal 0.896714 0.44261 0
    outer loop
      vertex 8.97609 431.05 536.2
      vertex 8.72732 431.554 523.2
      vertex 8.72732 431.554 536.2
    endloop
  endfacet
  facet normal 0.896714 0.44261 0
    outer loop
      vertex 8.72732 431.554 523.2
      vertex 8.97609 431.05 536.2
      vertex 8.97609 431.05 523.2
    endloop
  endfacet
  facet normal -0.556176 0.831065 0
    outer loop
      vertex 15.3177 429.789 523.2
      vertex 14.85 429.476 536.2
      vertex 15.3177 429.789 536.2
    endloop
  endfacet
  facet normal -0.556176 0.831065 0
    outer loop
      vertex 14.85 429.476 536.2
      vertex 15.3177 429.789 523.2
      vertex 14.85 429.476 523.2
    endloop
  endfacet
  facet normal -0.658467 0.75261 0
    outer loop
      vertex 15.7406 430.159 523.2
      vertex 15.3177 429.789 536.2
      vertex 15.7406 430.159 536.2
    endloop
  endfacet
  facet normal -0.658467 0.75261 0
    outer loop
      vertex 15.3177 429.789 536.2
      vertex 15.7406 430.159 523.2
      vertex 15.3177 429.789 523.2
    endloop
  endfacet
  facet normal 0.556176 0.831065 -0
    outer loop
      vertex 10.55 429.476 523.2
      vertex 10.0823 429.789 536.2
      vertex 10.55 429.476 536.2
    endloop
  endfacet
  facet normal 0.556176 0.831065 0
    outer loop
      vertex 10.0823 429.789 536.2
      vertex 10.55 429.476 523.2
      vertex 10.0823 429.789 523.2
    endloop
  endfacet
  facet normal -0.442586 0.896726 0
    outer loop
      vertex 14.85 429.476 523.2
      vertex 14.3455 429.227 536.2
      vertex 14.85 429.476 536.2
    endloop
  endfacet
  facet normal -0.442586 0.896726 0
    outer loop
      vertex 14.3455 429.227 536.2
      vertex 14.85 429.476 523.2
      vertex 14.3455 429.227 523.2
    endloop
  endfacet
  facet normal -0.320174 -0.947359 0
    outer loop
      vertex 13.8129 437.353 523.2
      vertex 14.3455 437.173 536.2
      vertex 13.8129 437.353 536.2
    endloop
  endfacet
  facet normal -0.320174 -0.947359 -0
    outer loop
      vertex 14.3455 437.173 536.2
      vertex 13.8129 437.353 523.2
      vertex 14.3455 437.173 523.2
    endloop
  endfacet
  facet normal 0.658502 0.752579 -0
    outer loop
      vertex 10.0823 429.789 523.2
      vertex 9.65944 430.159 536.2
      vertex 10.0823 429.789 536.2
    endloop
  endfacet
  facet normal 0.658502 0.752579 0
    outer loop
      vertex 9.65944 430.159 536.2
      vertex 10.0823 429.789 523.2
      vertex 9.65944 430.159 523.2
    endloop
  endfacet
  facet normal -0.997855 0.0654565 0
    outer loop
      vertex 16.9632 432.639 523.2
      vertex 17 433.2 536.2
      vertex 17 433.2 523.2
    endloop
  endfacet
  facet normal -0.997855 0.0654565 0
    outer loop
      vertex 17 433.2 536.2
      vertex 16.9632 432.639 523.2
      vertex 16.9632 432.639 536.2
    endloop
  endfacet
  facet normal -0.980819 0.19492 0
    outer loop
      vertex 16.8535 432.087 523.2
      vertex 16.9632 432.639 536.2
      vertex 16.9632 432.639 523.2
    endloop
  endfacet
  facet normal -0.980819 0.19492 0
    outer loop
      vertex 16.9632 432.639 536.2
      vertex 16.8535 432.087 523.2
      vertex 16.8535 432.087 536.2
    endloop
  endfacet
  facet normal 0.997857 0.0654388 0
    outer loop
      vertex 8.43679 432.639 536.2
      vertex 8.4 433.2 523.2
      vertex 8.4 433.2 536.2
    endloop
  endfacet
  facet normal 0.997857 0.0654388 0
    outer loop
      vertex 8.4 433.2 523.2
      vertex 8.43679 432.639 536.2
      vertex 8.43679 432.639 523.2
    endloop
  endfacet
  facet normal -0.896693 0.442653 0
    outer loop
      vertex 16.4239 431.05 523.2
      vertex 16.6727 431.554 536.2
      vertex 16.6727 431.554 523.2
    endloop
  endfacet
  facet normal -0.896693 0.442653 0
    outer loop
      vertex 16.6727 431.554 536.2
      vertex 16.4239 431.05 523.2
      vertex 16.4239 431.05 536.2
    endloop
  endfacet
  facet normal 0.658502 -0.752579 0
    outer loop
      vertex 9.65944 436.241 523.2
      vertex 10.0823 436.611 536.2
      vertex 9.65944 436.241 536.2
    endloop
  endfacet
  facet normal 0.658502 -0.752579 0
    outer loop
      vertex 10.0823 436.611 536.2
      vertex 9.65944 436.241 523.2
      vertex 10.0823 436.611 523.2
    endloop
  endfacet
  facet normal 0.980809 -0.194971 0
    outer loop
      vertex 8.43679 433.761 536.2
      vertex 8.54652 434.313 523.2
      vertex 8.54652 434.313 536.2
    endloop
  endfacet
  facet normal 0.980809 -0.194971 0
    outer loop
      vertex 8.54652 434.313 523.2
      vertex 8.43679 433.761 536.2
      vertex 8.43679 433.761 523.2
    endloop
  endfacet
  facet normal 0.896714 -0.44261 0
    outer loop
      vertex 8.72732 434.846 536.2
      vertex 8.97609 435.35 523.2
      vertex 8.97609 435.35 536.2
    endloop
  endfacet
  facet normal 0.896714 -0.44261 0
    outer loop
      vertex 8.97609 435.35 523.2
      vertex 8.72732 434.846 536.2
      vertex 8.72732 434.846 523.2
    endloop
  endfacet
  facet normal 0.442586 0.896726 -0
    outer loop
      vertex 11.0545 429.227 523.2
      vertex 10.55 429.476 536.2
      vertex 11.0545 429.227 536.2
    endloop
  endfacet
  facet normal 0.442586 0.896726 0
    outer loop
      vertex 10.55 429.476 536.2
      vertex 11.0545 429.227 523.2
      vertex 10.55 429.476 523.2
    endloop
  endfacet
  facet normal 0.831648 -0.555303 0
    outer loop
      vertex 8.97609 435.35 536.2
      vertex 9.28858 435.818 523.2
      vertex 9.28858 435.818 536.2
    endloop
  endfacet
  facet normal 0.831648 -0.555303 0
    outer loop
      vertex 9.28858 435.818 523.2
      vertex 8.97609 435.35 536.2
      vertex 8.97609 435.35 523.2
    endloop
  endfacet
  facet normal 0.0657757 0.997834 -0
    outer loop
      vertex 12.7 428.9 523.2
      vertex 12.1387 428.937 536.2
      vertex 12.7 428.9 536.2
    endloop
  endfacet
  facet normal 0.0657757 0.997834 0
    outer loop
      vertex 12.1387 428.937 536.2
      vertex 12.7 428.9 523.2
      vertex 12.1387 428.937 523.2
    endloop
  endfacet
endsolid OpenSCAD_Model
