solid OpenSCAD_Model
  facet normal 0 1 0
    outer loop
      vertex 18.2 468.2 26.6
      vertex 18.2 468.2 191.667
      vertex 25.4 468.2 191.667
    endloop
  endfacet
  facet normal 0 1 0
    outer loop
      vertex 18.2 468.2 191.667
      vertex 18.2 468.2 26.6
      vertex 7.2 468.2 191.667
    endloop
  endfacet
  facet normal 0 1 0
    outer loop
      vertex 7.2 468.2 26.6
      vertex 7.2 468.2 191.667
      vertex 18.2 468.2 26.6
    endloop
  endfacet
  facet normal 0 1 -0
    outer loop
      vertex 25.4 468.2 25.4
      vertex 18.2 468.2 26.6
      vertex 25.4 468.2 191.667
    endloop
  endfacet
  facet normal 0 1 0
    outer loop
      vertex 18.2 468.2 26.6
      vertex 25.4 468.2 25.4
      vertex 18.4731 468.2 25.4
    endloop
  endfacet
  facet normal 0 1 -0
    outer loop
      vertex 21.7 468.2 209.647
      vertex 3.7 468.2 209.667
      vertex 21.7 468.2 209.667
    endloop
  endfacet
  facet normal 0 1 0
    outer loop
      vertex 21.7 468.2 209.647
      vertex 3.7 468.2 209.647
      vertex 3.7 468.2 209.667
    endloop
  endfacet
  facet normal 0 1 -0
    outer loop
      vertex 18.2 468.2 191.667
      vertex 3.7 468.2 209.647
      vertex 21.7 468.2 209.647
    endloop
  endfacet
  facet normal 0 1 0
    outer loop
      vertex 3.7 468.2 209.647
      vertex 18.2 468.2 191.667
      vertex 7.2 468.2 191.667
    endloop
  endfacet
  facet normal 0 1 0
    outer loop
      vertex 7.2 468.2 191.667
      vertex 7.2 468.2 26.6
      vertex 0 468.2 191.667
    endloop
  endfacet
  facet normal 0 1 0
    outer loop
      vertex 0 468.2 25.4
      vertex 7.2 468.2 26.6
      vertex 6.92686 468.2 25.4
    endloop
  endfacet
  facet normal 0 1 0
    outer loop
      vertex 7.2 468.2 26.6
      vertex 0 468.2 25.4
      vertex 0 468.2 191.667
    endloop
  endfacet
  facet normal 1 -0 0
    outer loop
      vertex 25.4 320.6 191.667
      vertex 25.4 468.2 25.4
      vertex 25.4 468.2 191.667
    endloop
  endfacet
  facet normal 1 0 0
    outer loop
      vertex 25.4 468.2 25.4
      vertex 25.4 320.6 191.667
      vertex 25.4 320.6 25.4
    endloop
  endfacet
  facet normal -1 0 0
    outer loop
      vertex 0 320.6 25.4
      vertex 0 468.2 191.667
      vertex 0 468.2 25.4
    endloop
  endfacet
  facet normal -1 -0 0
    outer loop
      vertex 0 468.2 191.667
      vertex 0 320.6 25.4
      vertex 0 320.6 191.667
    endloop
  endfacet
  facet normal 0 -1 0
    outer loop
      vertex 18.55 320.6 25.4
      vertex 25.4 320.6 191.667
      vertex 18.55 320.6 191.667
    endloop
  endfacet
  facet normal 0 -1 -0
    outer loop
      vertex 25.4 320.6 191.667
      vertex 18.55 320.6 25.4
      vertex 25.4 320.6 25.4
    endloop
  endfacet
  facet normal 0 -1 0
    outer loop
      vertex 0 320.6 25.4
      vertex 6.85 320.6 191.667
      vertex 0 320.6 191.667
    endloop
  endfacet
  facet normal 0 -1 -0
    outer loop
      vertex 6.85 320.6 191.667
      vertex 0 320.6 25.4
      vertex 6.85 320.6 25.4
    endloop
  endfacet
  facet normal 0 -1 0
    outer loop
      vertex 3.7 320.6 209.647
      vertex 21.7 320.6 209.667
      vertex 3.7 320.6 209.667
    endloop
  endfacet
  facet normal 0 -1 0
    outer loop
      vertex 3.7 320.6 209.647
      vertex 21.7 320.6 209.647
      vertex 21.7 320.6 209.667
    endloop
  endfacet
  facet normal 0 -1 0
    outer loop
      vertex 7.13187 320.6 192.017
      vertex 21.7 320.6 209.647
      vertex 3.7 320.6 209.647
    endloop
  endfacet
  facet normal 0 -1 0
    outer loop
      vertex 21.7 320.6 209.647
      vertex 7.13187 320.6 192.017
      vertex 18.2681 320.6 192.017
    endloop
  endfacet
  facet normal 0 0 1
    outer loop
      vertex 25.4 468.2 191.667
      vertex 22.05 338.95 191.667
      vertex 25.4 320.6 191.667
    endloop
  endfacet
  facet normal -0 0 1
    outer loop
      vertex 18.2 468.2 191.667
      vertex 22.05 338.95 191.667
      vertex 25.4 468.2 191.667
    endloop
  endfacet
  facet normal 0 0 1
    outer loop
      vertex 22.05 338.95 191.667
      vertex 18.2 468.2 191.667
      vertex 18.2 338.95 191.667
    endloop
  endfacet
  facet normal -0 0 1
    outer loop
      vertex 22.05 338.93 191.667
      vertex 25.4 320.6 191.667
      vertex 22.05 338.95 191.667
    endloop
  endfacet
  facet normal 0 0 1
    outer loop
      vertex 25.4 320.6 191.667
      vertex 22.05 338.93 191.667
      vertex 18.55 320.6 191.667
    endloop
  endfacet
  facet normal 0 0 1
    outer loop
      vertex 7.2 468.2 191.667
      vertex 3.35 338.95 191.667
      vertex 7.2 338.95 191.667
    endloop
  endfacet
  facet normal 0 0 1
    outer loop
      vertex 0 320.6 191.667
      vertex 3.35 338.95 191.667
      vertex 0 468.2 191.667
    endloop
  endfacet
  facet normal -0 0 1
    outer loop
      vertex 0 468.2 191.667
      vertex 3.35 338.95 191.667
      vertex 7.2 468.2 191.667
    endloop
  endfacet
  facet normal 0 0 1
    outer loop
      vertex 3.35 338.93 191.667
      vertex 0 320.6 191.667
      vertex 6.85 320.6 191.667
    endloop
  endfacet
  facet normal 0 0 1
    outer loop
      vertex 3.35 338.95 191.667
      vertex 0 320.6 191.667
      vertex 3.35 338.93 191.667
    endloop
  endfacet
  facet normal 0 0 -1
    outer loop
      vertex 22.05 338.95 25.4
      vertex 25.4 320.6 25.4
      vertex 22.05 338.93 25.4
    endloop
  endfacet
  facet normal 0 -0 -1
    outer loop
      vertex 22.05 338.93 25.4
      vertex 25.4 320.6 25.4
      vertex 18.55 320.6 25.4
    endloop
  endfacet
  facet normal 0 0 -1
    outer loop
      vertex 25.4 320.6 25.4
      vertex 22.05 338.95 25.4
      vertex 25.4 468.2 25.4
    endloop
  endfacet
  facet normal 0 0 -1
    outer loop
      vertex 18.4731 468.2 25.4
      vertex 22.05 338.95 25.4
      vertex 18.4731 338.95 25.4
    endloop
  endfacet
  facet normal 0 0 -1
    outer loop
      vertex 22.05 338.95 25.4
      vertex 18.4731 468.2 25.4
      vertex 25.4 468.2 25.4
    endloop
  endfacet
  facet normal -0 0 -1
    outer loop
      vertex 3.35 338.93 25.4
      vertex 0 320.6 25.4
      vertex 3.35 338.95 25.4
    endloop
  endfacet
  facet normal 0 0 -1
    outer loop
      vertex 0 320.6 25.4
      vertex 3.35 338.93 25.4
      vertex 6.85 320.6 25.4
    endloop
  endfacet
  facet normal 0 0 -1
    outer loop
      vertex 3.35 338.95 25.4
      vertex 6.92686 468.2 25.4
      vertex 6.92686 338.95 25.4
    endloop
  endfacet
  facet normal 0 0 -1
    outer loop
      vertex 0 468.2 25.4
      vertex 3.35 338.95 25.4
      vertex 0 320.6 25.4
    endloop
  endfacet
  facet normal 0 0 -1
    outer loop
      vertex 3.35 338.95 25.4
      vertex 0 468.2 25.4
      vertex 6.92686 468.2 25.4
    endloop
  endfacet
  facet normal 0.981576 -2.37378e-07 -0.191074
    outer loop
      vertex 21.7 468.2 209.647
      vertex 18.2681 338.95 192.017
      vertex 18.2 468.2 191.667
    endloop
  endfacet
  facet normal 0.981575 0 -0.191076
    outer loop
      vertex 21.7 320.6 209.647
      vertex 18.2681 338.95 192.017
      vertex 21.7 468.2 209.647
    endloop
  endfacet
  facet normal 0.981575 0 -0.191076
    outer loop
      vertex 18.2681 338.95 192.017
      vertex 21.7 320.6 209.647
      vertex 18.2681 320.6 192.017
    endloop
  endfacet
  facet normal 0.981592 0 -0.19099
    outer loop
      vertex 18.2 468.2 191.667
      vertex 18.2681 338.95 192.017
      vertex 18.2 338.95 191.667
    endloop
  endfacet
  facet normal -0 0 1
    outer loop
      vertex 3.7 468.2 209.667
      vertex 21.7 320.6 209.667
      vertex 21.7 468.2 209.667
    endloop
  endfacet
  facet normal 0 0 1
    outer loop
      vertex 21.7 320.6 209.667
      vertex 3.7 468.2 209.667
      vertex 3.7 320.6 209.667
    endloop
  endfacet
  facet normal 1 -0 0
    outer loop
      vertex 21.7 320.6 209.667
      vertex 21.7 468.2 209.647
      vertex 21.7 468.2 209.667
    endloop
  endfacet
  facet normal 1 0 0
    outer loop
      vertex 21.7 468.2 209.647
      vertex 21.7 320.6 209.667
      vertex 21.7 320.6 209.647
    endloop
  endfacet
  facet normal -0.981576 0 -0.191071
    outer loop
      vertex 7.13187 338.95 192.017
      vertex 7.2 468.2 191.667
      vertex 7.2 338.95 191.667
    endloop
  endfacet
  facet normal -0.981576 -9.54579e-09 -0.191074
    outer loop
      vertex 7.2 468.2 191.667
      vertex 7.13187 338.95 192.017
      vertex 3.7 468.2 209.647
    endloop
  endfacet
  facet normal -0.981576 0 -0.191074
    outer loop
      vertex 3.7 320.6 209.647
      vertex 7.13187 338.95 192.017
      vertex 7.13187 320.6 192.017
    endloop
  endfacet
  facet normal -0.981576 0 -0.191074
    outer loop
      vertex 7.13187 338.95 192.017
      vertex 3.7 320.6 209.647
      vertex 3.7 468.2 209.647
    endloop
  endfacet
  facet normal -1 0 0
    outer loop
      vertex 3.7 320.6 209.647
      vertex 3.7 468.2 209.667
      vertex 3.7 468.2 209.647
    endloop
  endfacet
  facet normal -1 -0 0
    outer loop
      vertex 3.7 468.2 209.667
      vertex 3.7 320.6 209.647
      vertex 3.7 320.6 209.667
    endloop
  endfacet
  facet normal 0 -1 0
    outer loop
      vertex 7.2 338.95 26.6
      vertex 7.2 338.95 191.667
      vertex 3.35 338.95 191.667
    endloop
  endfacet
  facet normal 0 -1 0
    outer loop
      vertex 7.2 338.95 191.667
      vertex 7.2 338.95 26.6
      vertex 18.2 338.95 191.667
    endloop
  endfacet
  facet normal 0 -1 0
    outer loop
      vertex 18.2 338.95 26.6
      vertex 18.2 338.95 191.667
      vertex 7.2 338.95 26.6
    endloop
  endfacet
  facet normal 0 -1 0
    outer loop
      vertex 3.35 338.95 25.4
      vertex 7.2 338.95 26.6
      vertex 3.35 338.95 191.667
    endloop
  endfacet
  facet normal 0 -1 0
    outer loop
      vertex 7.2 338.95 26.6
      vertex 3.35 338.95 25.4
      vertex 6.92686 338.95 25.4
    endloop
  endfacet
  facet normal 0 -1 0
    outer loop
      vertex 7.2 338.95 191.667
      vertex 18.2681 338.95 192.017
      vertex 7.13187 338.95 192.017
    endloop
  endfacet
  facet normal 0 -1 0
    outer loop
      vertex 18.2681 338.95 192.017
      vertex 7.2 338.95 191.667
      vertex 18.2 338.95 191.667
    endloop
  endfacet
  facet normal 0 -1 0
    outer loop
      vertex 18.2 338.95 191.667
      vertex 18.2 338.95 26.6
      vertex 22.05 338.95 191.667
    endloop
  endfacet
  facet normal 0 -1 0
    outer loop
      vertex 22.05 338.95 25.4
      vertex 18.2 338.95 26.6
      vertex 18.4731 338.95 25.4
    endloop
  endfacet
  facet normal 0 -1 0
    outer loop
      vertex 18.2 338.95 26.6
      vertex 22.05 338.95 25.4
      vertex 22.05 338.95 191.667
    endloop
  endfacet
  facet normal 1 -0 0
    outer loop
      vertex 3.35 338.93 191.667
      vertex 3.35 338.95 25.4
      vertex 3.35 338.95 191.667
    endloop
  endfacet
  facet normal 1 0 0
    outer loop
      vertex 3.35 338.95 25.4
      vertex 3.35 338.93 191.667
      vertex 3.35 338.93 25.4
    endloop
  endfacet
  facet normal -0.982254 0.187555 0
    outer loop
      vertex 18.55 320.6 25.4
      vertex 22.05 338.93 191.667
      vertex 22.05 338.93 25.4
    endloop
  endfacet
  facet normal -0.982254 0.187555 0
    outer loop
      vertex 22.05 338.93 191.667
      vertex 18.55 320.6 25.4
      vertex 18.55 320.6 191.667
    endloop
  endfacet
  facet normal 0.982254 0.187555 0
    outer loop
      vertex 6.85 320.6 191.667
      vertex 3.35 338.93 25.4
      vertex 3.35 338.93 191.667
    endloop
  endfacet
  facet normal 0.982254 0.187555 0
    outer loop
      vertex 3.35 338.93 25.4
      vertex 6.85 320.6 191.667
      vertex 6.85 320.6 25.4
    endloop
  endfacet
  facet normal 0 0 -1
    outer loop
      vertex 7.13187 320.6 192.017
      vertex 18.2681 338.95 192.017
      vertex 18.2681 320.6 192.017
    endloop
  endfacet
  facet normal -0 0 -1
    outer loop
      vertex 18.2681 338.95 192.017
      vertex 7.13187 320.6 192.017
      vertex 7.13187 338.95 192.017
    endloop
  endfacet
  facet normal -1 0 0
    outer loop
      vertex 22.05 338.93 25.4
      vertex 22.05 338.95 191.667
      vertex 22.05 338.95 25.4
    endloop
  endfacet
  facet normal -1 -0 0
    outer loop
      vertex 22.05 338.95 191.667
      vertex 22.05 338.93 25.4
      vertex 22.05 338.93 191.667
    endloop
  endfacet
  facet normal -0 0 1
    outer loop
      vertex 7.2 338.95 26.6
      vertex 18.2 320.6 26.6
      vertex 18.2 338.95 26.6
    endloop
  endfacet
  facet normal 0 0 1
    outer loop
      vertex 18.2 320.6 26.6
      vertex 7.2 338.95 26.6
      vertex 7.2 320.6 26.6
    endloop
  endfacet
  facet normal 0 0 -1
    outer loop
      vertex 16.9632 432.639 13.4
      vertex 21.2 468.2 13.4
      vertex 21.2 320.6 13.4
    endloop
  endfacet
  facet normal 0 0 -1
    outer loop
      vertex 21.2 468.2 13.4
      vertex 16.9632 432.639 13.4
      vertex 17 433.2 13.4
    endloop
  endfacet
  facet normal 0 0 -1
    outer loop
      vertex 21.2 320.6 13.4
      vertex 16.8535 432.087 13.4
      vertex 16.9632 432.639 13.4
    endloop
  endfacet
  facet normal 0 0 -1
    outer loop
      vertex 21.2 320.6 13.4
      vertex 16.6727 431.554 13.4
      vertex 16.8535 432.087 13.4
    endloop
  endfacet
  facet normal 0 0 -1
    outer loop
      vertex 21.2 320.6 13.4
      vertex 16.4239 431.05 13.4
      vertex 16.6727 431.554 13.4
    endloop
  endfacet
  facet normal 0 0 -1
    outer loop
      vertex 21.2 320.6 13.4
      vertex 16.1114 430.582 13.4
      vertex 16.4239 431.05 13.4
    endloop
  endfacet
  facet normal 0 0 -1
    outer loop
      vertex 21.2 320.6 13.4
      vertex 15.7406 430.159 13.4
      vertex 16.1114 430.582 13.4
    endloop
  endfacet
  facet normal 0 0 -1
    outer loop
      vertex 21.2 320.6 13.4
      vertex 15.3177 429.789 13.4
      vertex 15.7406 430.159 13.4
    endloop
  endfacet
  facet normal 0 0 -1
    outer loop
      vertex 21.2 320.6 13.4
      vertex 14.85 429.476 13.4
      vertex 15.3177 429.789 13.4
    endloop
  endfacet
  facet normal 0 0 -1
    outer loop
      vertex 21.2 320.6 13.4
      vertex 14.3455 429.227 13.4
      vertex 14.85 429.476 13.4
    endloop
  endfacet
  facet normal 0 0 -1
    outer loop
      vertex 21.2 320.6 13.4
      vertex 13.8129 429.047 13.4
      vertex 14.3455 429.227 13.4
    endloop
  endfacet
  facet normal 0 0 -1
    outer loop
      vertex 21.2 320.6 13.4
      vertex 13.2613 428.937 13.4
      vertex 13.8129 429.047 13.4
    endloop
  endfacet
  facet normal 0 0 -1
    outer loop
      vertex 21.2 320.6 13.4
      vertex 12.7 428.9 13.4
      vertex 13.2613 428.937 13.4
    endloop
  endfacet
  facet normal 0 0 -1
    outer loop
      vertex 4.2 320.6 13.4
      vertex 12.7 428.9 13.4
      vertex 21.2 320.6 13.4
    endloop
  endfacet
  facet normal -0 0 -1
    outer loop
      vertex 12.7 428.9 13.4
      vertex 4.2 320.6 13.4
      vertex 12.1387 428.937 13.4
    endloop
  endfacet
  facet normal -0 0 -1
    outer loop
      vertex 12.1387 428.937 13.4
      vertex 4.2 320.6 13.4
      vertex 11.5871 429.047 13.4
    endloop
  endfacet
  facet normal -0 0 -1
    outer loop
      vertex 11.5871 429.047 13.4
      vertex 4.2 320.6 13.4
      vertex 11.0545 429.227 13.4
    endloop
  endfacet
  facet normal -0 0 -1
    outer loop
      vertex 11.0545 429.227 13.4
      vertex 4.2 320.6 13.4
      vertex 10.55 429.476 13.4
    endloop
  endfacet
  facet normal -0 0 -1
    outer loop
      vertex 10.55 429.476 13.4
      vertex 4.2 320.6 13.4
      vertex 10.0823 429.789 13.4
    endloop
  endfacet
  facet normal -0 0 -1
    outer loop
      vertex 10.0823 429.789 13.4
      vertex 4.2 320.6 13.4
      vertex 9.65944 430.159 13.4
    endloop
  endfacet
  facet normal -0 0 -1
    outer loop
      vertex 9.65944 430.159 13.4
      vertex 4.2 320.6 13.4
      vertex 9.28858 430.582 13.4
    endloop
  endfacet
  facet normal -0 0 -1
    outer loop
      vertex 9.28858 430.582 13.4
      vertex 4.2 320.6 13.4
      vertex 8.97609 431.05 13.4
    endloop
  endfacet
  facet normal -0 0 -1
    outer loop
      vertex 8.97609 431.05 13.4
      vertex 4.2 320.6 13.4
      vertex 8.72732 431.554 13.4
    endloop
  endfacet
  facet normal -0 0 -1
    outer loop
      vertex 8.72732 431.554 13.4
      vertex 4.2 320.6 13.4
      vertex 8.54652 432.087 13.4
    endloop
  endfacet
  facet normal 0 0 -1
    outer loop
      vertex 4.2 468.2 13.4
      vertex 8.43679 432.639 13.4
      vertex 4.2 320.6 13.4
    endloop
  endfacet
  facet normal -0 0 -1
    outer loop
      vertex 8.54652 432.087 13.4
      vertex 4.2 320.6 13.4
      vertex 8.43679 432.639 13.4
    endloop
  endfacet
  facet normal 0 0 -1
    outer loop
      vertex 16.9632 433.761 13.4
      vertex 21.2 468.2 13.4
      vertex 17 433.2 13.4
    endloop
  endfacet
  facet normal 0 0 -1
    outer loop
      vertex 16.8535 434.313 13.4
      vertex 21.2 468.2 13.4
      vertex 16.9632 433.761 13.4
    endloop
  endfacet
  facet normal 0 0 -1
    outer loop
      vertex 16.6727 434.846 13.4
      vertex 21.2 468.2 13.4
      vertex 16.8535 434.313 13.4
    endloop
  endfacet
  facet normal 0 0 -1
    outer loop
      vertex 16.4239 435.35 13.4
      vertex 21.2 468.2 13.4
      vertex 16.6727 434.846 13.4
    endloop
  endfacet
  facet normal 0 0 -1
    outer loop
      vertex 16.1114 435.818 13.4
      vertex 21.2 468.2 13.4
      vertex 16.4239 435.35 13.4
    endloop
  endfacet
  facet normal 0 0 -1
    outer loop
      vertex 15.7406 436.241 13.4
      vertex 21.2 468.2 13.4
      vertex 16.1114 435.818 13.4
    endloop
  endfacet
  facet normal 0 0 -1
    outer loop
      vertex 15.3177 436.611 13.4
      vertex 21.2 468.2 13.4
      vertex 15.7406 436.241 13.4
    endloop
  endfacet
  facet normal 0 0 -1
    outer loop
      vertex 14.85 436.924 13.4
      vertex 21.2 468.2 13.4
      vertex 15.3177 436.611 13.4
    endloop
  endfacet
  facet normal 0 0 -1
    outer loop
      vertex 14.3455 437.173 13.4
      vertex 21.2 468.2 13.4
      vertex 14.85 436.924 13.4
    endloop
  endfacet
  facet normal 0 0 -1
    outer loop
      vertex 13.8129 437.353 13.4
      vertex 21.2 468.2 13.4
      vertex 14.3455 437.173 13.4
    endloop
  endfacet
  facet normal 0 0 -1
    outer loop
      vertex 13.2613 437.463 13.4
      vertex 21.2 468.2 13.4
      vertex 13.8129 437.353 13.4
    endloop
  endfacet
  facet normal 0 0 -1
    outer loop
      vertex 12.7 437.5 13.4
      vertex 21.2 468.2 13.4
      vertex 13.2613 437.463 13.4
    endloop
  endfacet
  facet normal 0 0 -1
    outer loop
      vertex 4.2 468.2 13.4
      vertex 12.7 437.5 13.4
      vertex 12.1387 437.463 13.4
    endloop
  endfacet
  facet normal 0 0 -1
    outer loop
      vertex 4.2 468.2 13.4
      vertex 12.1387 437.463 13.4
      vertex 11.5871 437.353 13.4
    endloop
  endfacet
  facet normal 0 0 -1
    outer loop
      vertex 4.2 468.2 13.4
      vertex 11.5871 437.353 13.4
      vertex 11.0545 437.173 13.4
    endloop
  endfacet
  facet normal 0 0 -1
    outer loop
      vertex 4.2 468.2 13.4
      vertex 11.0545 437.173 13.4
      vertex 10.55 436.924 13.4
    endloop
  endfacet
  facet normal 0 0 -1
    outer loop
      vertex 4.2 468.2 13.4
      vertex 10.55 436.924 13.4
      vertex 10.0823 436.611 13.4
    endloop
  endfacet
  facet normal 0 0 -1
    outer loop
      vertex 4.2 468.2 13.4
      vertex 10.0823 436.611 13.4
      vertex 9.65944 436.241 13.4
    endloop
  endfacet
  facet normal 0 0 -1
    outer loop
      vertex 4.2 468.2 13.4
      vertex 9.65944 436.241 13.4
      vertex 9.28858 435.818 13.4
    endloop
  endfacet
  facet normal 0 0 -1
    outer loop
      vertex 4.2 468.2 13.4
      vertex 9.28858 435.818 13.4
      vertex 8.97609 435.35 13.4
    endloop
  endfacet
  facet normal 0 0 -1
    outer loop
      vertex 4.2 468.2 13.4
      vertex 8.97609 435.35 13.4
      vertex 8.72732 434.846 13.4
    endloop
  endfacet
  facet normal 0 0 -1
    outer loop
      vertex 12.7 437.5 13.4
      vertex 4.2 468.2 13.4
      vertex 21.2 468.2 13.4
    endloop
  endfacet
  facet normal 0 0 -1
    outer loop
      vertex 8.54652 434.313 13.4
      vertex 4.2 468.2 13.4
      vertex 8.72732 434.846 13.4
    endloop
  endfacet
  facet normal 0 0 -1
    outer loop
      vertex 8.43679 433.761 13.4
      vertex 4.2 468.2 13.4
      vertex 8.54652 434.313 13.4
    endloop
  endfacet
  facet normal 0 0 -1
    outer loop
      vertex 8.4 433.2 13.4
      vertex 4.2 468.2 13.4
      vertex 8.43679 433.761 13.4
    endloop
  endfacet
  facet normal 0 0 -1
    outer loop
      vertex 8.43679 432.639 13.4
      vertex 4.2 468.2 13.4
      vertex 8.4 433.2 13.4
    endloop
  endfacet
  facet normal -0.97506 0 0.221941
    outer loop
      vertex 4.2 468.2 13.42
      vertex 6.92686 338.95 25.4
      vertex 6.92686 468.2 25.4
    endloop
  endfacet
  facet normal -0.97506 0 0.221941
    outer loop
      vertex 4.2 320.6 13.42
      vertex 6.92686 338.95 25.4
      vertex 4.2 468.2 13.42
    endloop
  endfacet
  facet normal -0.97506 5.9668e-08 0.221941
    outer loop
      vertex 7.2 320.6 26.6
      vertex 6.92686 338.95 25.4
      vertex 4.2 320.6 13.42
    endloop
  endfacet
  facet normal -0.97506 0 0.22194
    outer loop
      vertex 6.92686 338.95 25.4
      vertex 7.2 320.6 26.6
      vertex 7.2 338.95 26.6
    endloop
  endfacet
  facet normal -0 -1 0
    outer loop
      vertex 6.92686 468.2 25.4
      vertex 7.2 468.2 26.6
      vertex 4.2 468.2 13.42
    endloop
  endfacet
  facet normal 1 -0 0
    outer loop
      vertex 21.2 320.6 13.42
      vertex 21.2 468.2 13.4
      vertex 21.2 468.2 13.42
    endloop
  endfacet
  facet normal 1 0 0
    outer loop
      vertex 21.2 468.2 13.4
      vertex 21.2 320.6 13.42
      vertex 21.2 320.6 13.4
    endloop
  endfacet
  facet normal 0 1 0
    outer loop
      vertex 21.2 468.2 13.42
      vertex 7.2 468.2 26.6
      vertex 18.2 468.2 26.6
    endloop
  endfacet
  facet normal 0 1 0
    outer loop
      vertex 21.2 468.2 13.42
      vertex 4.2 468.2 13.42
      vertex 7.2 468.2 26.6
    endloop
  endfacet
  facet normal 0 1 -0
    outer loop
      vertex 21.2 468.2 13.4
      vertex 4.2 468.2 13.42
      vertex 21.2 468.2 13.42
    endloop
  endfacet
  facet normal 0 1 0
    outer loop
      vertex 4.2 468.2 13.42
      vertex 21.2 468.2 13.4
      vertex 4.2 468.2 13.4
    endloop
  endfacet
  facet normal -1 0 0
    outer loop
      vertex 4.2 320.6 13.4
      vertex 4.2 468.2 13.42
      vertex 4.2 468.2 13.4
    endloop
  endfacet
  facet normal -1 -0 0
    outer loop
      vertex 4.2 468.2 13.42
      vertex 4.2 320.6 13.4
      vertex 4.2 320.6 13.42
    endloop
  endfacet
  facet normal 0.975067 0 0.221909
    outer loop
      vertex 18.2 338.95 26.6
      vertex 18.2 320.6 26.6
      vertex 18.4731 338.95 25.4
    endloop
  endfacet
  facet normal 0.975059 -0 0.221944
    outer loop
      vertex 18.4731 338.95 25.4
      vertex 21.2 468.2 13.42
      vertex 18.4731 468.2 25.4
    endloop
  endfacet
  facet normal 0.97506 2.18514e-06 0.221941
    outer loop
      vertex 21.2 320.6 13.42
      vertex 18.4731 338.95 25.4
      vertex 18.2 320.6 26.6
    endloop
  endfacet
  facet normal 0.975059 0 0.221944
    outer loop
      vertex 18.4731 338.95 25.4
      vertex 21.2 320.6 13.42
      vertex 21.2 468.2 13.42
    endloop
  endfacet
  facet normal 0 -1 0
    outer loop
      vertex 18.4731 468.2 25.4
      vertex 21.2 468.2 13.42
      vertex 18.2 468.2 26.6
    endloop
  endfacet
  facet normal 0 -1 0
    outer loop
      vertex 4.2 320.6 13.42
      vertex 18.2 320.6 26.6
      vertex 7.2 320.6 26.6
    endloop
  endfacet
  facet normal 0 -1 0
    outer loop
      vertex 4.2 320.6 13.42
      vertex 21.2 320.6 13.42
      vertex 18.2 320.6 26.6
    endloop
  endfacet
  facet normal 0 -1 0
    outer loop
      vertex 4.2 320.6 13.4
      vertex 21.2 320.6 13.42
      vertex 4.2 320.6 13.42
    endloop
  endfacet
  facet normal 0 -1 -0
    outer loop
      vertex 21.2 320.6 13.42
      vertex 4.2 320.6 13.4
      vertex 21.2 320.6 13.4
    endloop
  endfacet
  facet normal -0.980819 -0.19492 0
    outer loop
      vertex 16.9632 433.761 13.4
      vertex 16.8535 434.313 26.4
      vertex 16.8535 434.313 13.4
    endloop
  endfacet
  facet normal -0.980819 -0.19492 0
    outer loop
      vertex 16.8535 434.313 26.4
      vertex 16.9632 433.761 13.4
      vertex 16.9632 433.761 26.4
    endloop
  endfacet
  facet normal -0.997855 -0.0654565 0
    outer loop
      vertex 17 433.2 13.4
      vertex 16.9632 433.761 26.4
      vertex 16.9632 433.761 13.4
    endloop
  endfacet
  facet normal -0.997855 -0.0654565 0
    outer loop
      vertex 16.9632 433.761 26.4
      vertex 17 433.2 13.4
      vertex 17 433.2 26.4
    endloop
  endfacet
  facet normal -0.947 -0.321234 0
    outer loop
      vertex 16.8535 434.313 13.4
      vertex 16.6727 434.846 26.4
      vertex 16.6727 434.846 13.4
    endloop
  endfacet
  facet normal -0.947 -0.321234 0
    outer loop
      vertex 16.6727 434.846 26.4
      vertex 16.8535 434.313 13.4
      vertex 16.8535 434.313 26.4
    endloop
  endfacet
  facet normal 0.556176 -0.831065 0
    outer loop
      vertex 10.0823 436.611 13.4
      vertex 10.55 436.924 26.4
      vertex 10.0823 436.611 26.4
    endloop
  endfacet
  facet normal 0.556176 -0.831065 0
    outer loop
      vertex 10.55 436.924 26.4
      vertex 10.0823 436.611 13.4
      vertex 10.55 436.924 13.4
    endloop
  endfacet
  facet normal -0.947 0.321234 0
    outer loop
      vertex 16.6727 431.554 13.4
      vertex 16.8535 432.087 26.4
      vertex 16.8535 432.087 13.4
    endloop
  endfacet
  facet normal -0.947 0.321234 0
    outer loop
      vertex 16.8535 432.087 26.4
      vertex 16.6727 431.554 13.4
      vertex 16.6727 431.554 26.4
    endloop
  endfacet
  facet normal -0.896693 -0.442653 0
    outer loop
      vertex 16.6727 434.846 13.4
      vertex 16.4239 435.35 26.4
      vertex 16.4239 435.35 13.4
    endloop
  endfacet
  facet normal -0.896693 -0.442653 0
    outer loop
      vertex 16.4239 435.35 26.4
      vertex 16.6727 434.846 13.4
      vertex 16.6727 434.846 26.4
    endloop
  endfacet
  facet normal -0.320174 0.947359 0
    outer loop
      vertex 14.3455 429.227 13.4
      vertex 13.8129 429.047 26.4
      vertex 14.3455 429.227 26.4
    endloop
  endfacet
  facet normal -0.320174 0.947359 0
    outer loop
      vertex 13.8129 429.047 26.4
      vertex 14.3455 429.227 13.4
      vertex 13.8129 429.047 13.4
    endloop
  endfacet
  facet normal -0.195569 0.98069 0
    outer loop
      vertex 13.8129 429.047 13.4
      vertex 13.2613 428.937 26.4
      vertex 13.8129 429.047 26.4
    endloop
  endfacet
  facet normal -0.195569 0.98069 0
    outer loop
      vertex 13.2613 428.937 26.4
      vertex 13.8129 429.047 13.4
      vertex 13.2613 428.937 13.4
    endloop
  endfacet
  facet normal 0.320174 -0.947359 0
    outer loop
      vertex 11.0545 437.173 13.4
      vertex 11.5871 437.353 26.4
      vertex 11.0545 437.173 26.4
    endloop
  endfacet
  facet normal 0.320174 -0.947359 0
    outer loop
      vertex 11.5871 437.353 26.4
      vertex 11.0545 437.173 13.4
      vertex 11.5871 437.353 13.4
    endloop
  endfacet
  facet normal 0.320174 0.947359 -0
    outer loop
      vertex 11.5871 429.047 13.4
      vertex 11.0545 429.227 26.4
      vertex 11.5871 429.047 26.4
    endloop
  endfacet
  facet normal 0.320174 0.947359 0
    outer loop
      vertex 11.0545 429.227 26.4
      vertex 11.5871 429.047 13.4
      vertex 11.0545 429.227 13.4
    endloop
  endfacet
  facet normal -0.83164 0.555315 0
    outer loop
      vertex 16.1114 430.582 13.4
      vertex 16.4239 431.05 26.4
      vertex 16.4239 431.05 13.4
    endloop
  endfacet
  facet normal -0.83164 0.555315 0
    outer loop
      vertex 16.4239 431.05 26.4
      vertex 16.1114 430.582 13.4
      vertex 16.1114 430.582 26.4
    endloop
  endfacet
  facet normal 0.0657757 -0.997834 0
    outer loop
      vertex 12.1387 437.463 13.4
      vertex 12.7 437.5 26.4
      vertex 12.1387 437.463 26.4
    endloop
  endfacet
  facet normal 0.0657757 -0.997834 0
    outer loop
      vertex 12.7 437.5 26.4
      vertex 12.1387 437.463 13.4
      vertex 12.7 437.5 13.4
    endloop
  endfacet
  facet normal 0.751929 -0.659244 0
    outer loop
      vertex 9.28858 435.818 26.4
      vertex 9.65944 436.241 13.4
      vertex 9.65944 436.241 26.4
    endloop
  endfacet
  facet normal 0.751929 -0.659244 0
    outer loop
      vertex 9.65944 436.241 13.4
      vertex 9.28858 435.818 26.4
      vertex 9.28858 435.818 13.4
    endloop
  endfacet
  facet normal -0.896693 0.442653 0
    outer loop
      vertex 16.4239 431.05 13.4
      vertex 16.6727 431.554 26.4
      vertex 16.6727 431.554 13.4
    endloop
  endfacet
  facet normal -0.896693 0.442653 0
    outer loop
      vertex 16.6727 431.554 26.4
      vertex 16.4239 431.05 13.4
      vertex 16.4239 431.05 26.4
    endloop
  endfacet
  facet normal -0.0657757 -0.997834 0
    outer loop
      vertex 12.7 437.5 13.4
      vertex 13.2613 437.463 26.4
      vertex 12.7 437.5 26.4
    endloop
  endfacet
  facet normal -0.0657757 -0.997834 -0
    outer loop
      vertex 13.2613 437.463 26.4
      vertex 12.7 437.5 13.4
      vertex 13.2613 437.463 13.4
    endloop
  endfacet
  facet normal -0.751982 0.659184 0
    outer loop
      vertex 15.7406 430.159 13.4
      vertex 16.1114 430.582 26.4
      vertex 16.1114 430.582 13.4
    endloop
  endfacet
  facet normal -0.751982 0.659184 0
    outer loop
      vertex 16.1114 430.582 26.4
      vertex 15.7406 430.159 13.4
      vertex 15.7406 430.159 26.4
    endloop
  endfacet
  facet normal 0.751929 0.659244 0
    outer loop
      vertex 9.65944 430.159 26.4
      vertex 9.28858 430.582 13.4
      vertex 9.28858 430.582 26.4
    endloop
  endfacet
  facet normal 0.751929 0.659244 0
    outer loop
      vertex 9.28858 430.582 13.4
      vertex 9.65944 430.159 26.4
      vertex 9.65944 430.159 13.4
    endloop
  endfacet
  facet normal -0.0657757 0.997834 0
    outer loop
      vertex 13.2613 428.937 13.4
      vertex 12.7 428.9 26.4
      vertex 13.2613 428.937 26.4
    endloop
  endfacet
  facet normal -0.0657757 0.997834 0
    outer loop
      vertex 12.7 428.9 26.4
      vertex 13.2613 428.937 13.4
      vertex 12.7 428.9 13.4
    endloop
  endfacet
  facet normal -0.658467 -0.75261 0
    outer loop
      vertex 15.3177 436.611 13.4
      vertex 15.7406 436.241 26.4
      vertex 15.3177 436.611 26.4
    endloop
  endfacet
  facet normal -0.658467 -0.75261 -0
    outer loop
      vertex 15.7406 436.241 26.4
      vertex 15.3177 436.611 13.4
      vertex 15.7406 436.241 13.4
    endloop
  endfacet
  facet normal -0.442586 -0.896726 0
    outer loop
      vertex 14.3455 437.173 13.4
      vertex 14.85 436.924 26.4
      vertex 14.3455 437.173 26.4
    endloop
  endfacet
  facet normal -0.442586 -0.896726 -0
    outer loop
      vertex 14.85 436.924 26.4
      vertex 14.3455 437.173 13.4
      vertex 14.85 436.924 13.4
    endloop
  endfacet
  facet normal -0.195569 -0.98069 0
    outer loop
      vertex 13.2613 437.463 13.4
      vertex 13.8129 437.353 26.4
      vertex 13.2613 437.463 26.4
    endloop
  endfacet
  facet normal -0.195569 -0.98069 -0
    outer loop
      vertex 13.8129 437.353 26.4
      vertex 13.2613 437.463 13.4
      vertex 13.8129 437.353 13.4
    endloop
  endfacet
  facet normal -0.556176 -0.831065 0
    outer loop
      vertex 14.85 436.924 13.4
      vertex 15.3177 436.611 26.4
      vertex 14.85 436.924 26.4
    endloop
  endfacet
  facet normal -0.556176 -0.831065 -0
    outer loop
      vertex 15.3177 436.611 26.4
      vertex 14.85 436.924 13.4
      vertex 15.3177 436.611 13.4
    endloop
  endfacet
  facet normal -0.751982 -0.659184 0
    outer loop
      vertex 16.1114 435.818 13.4
      vertex 15.7406 436.241 26.4
      vertex 15.7406 436.241 13.4
    endloop
  endfacet
  facet normal -0.751982 -0.659184 0
    outer loop
      vertex 15.7406 436.241 26.4
      vertex 16.1114 435.818 13.4
      vertex 16.1114 435.818 26.4
    endloop
  endfacet
  facet normal -0.83164 -0.555315 0
    outer loop
      vertex 16.4239 435.35 13.4
      vertex 16.1114 435.818 26.4
      vertex 16.1114 435.818 13.4
    endloop
  endfacet
  facet normal -0.83164 -0.555315 0
    outer loop
      vertex 16.1114 435.818 26.4
      vertex 16.4239 435.35 13.4
      vertex 16.4239 435.35 26.4
    endloop
  endfacet
  facet normal 0.442586 -0.896726 0
    outer loop
      vertex 10.55 436.924 13.4
      vertex 11.0545 437.173 26.4
      vertex 10.55 436.924 26.4
    endloop
  endfacet
  facet normal 0.442586 -0.896726 0
    outer loop
      vertex 11.0545 437.173 26.4
      vertex 10.55 436.924 13.4
      vertex 11.0545 437.173 13.4
    endloop
  endfacet
  facet normal 0.195569 0.98069 -0
    outer loop
      vertex 12.1387 428.937 13.4
      vertex 11.5871 429.047 26.4
      vertex 12.1387 428.937 26.4
    endloop
  endfacet
  facet normal 0.195569 0.98069 0
    outer loop
      vertex 11.5871 429.047 26.4
      vertex 12.1387 428.937 13.4
      vertex 11.5871 429.047 13.4
    endloop
  endfacet
  facet normal 0.195569 -0.98069 0
    outer loop
      vertex 11.5871 437.353 13.4
      vertex 12.1387 437.463 26.4
      vertex 11.5871 437.353 26.4
    endloop
  endfacet
  facet normal 0.195569 -0.98069 0
    outer loop
      vertex 12.1387 437.463 26.4
      vertex 11.5871 437.353 13.4
      vertex 12.1387 437.463 13.4
    endloop
  endfacet
  facet normal 0.947 -0.321234 0
    outer loop
      vertex 8.54652 434.313 26.4
      vertex 8.72732 434.846 13.4
      vertex 8.72732 434.846 26.4
    endloop
  endfacet
  facet normal 0.947 -0.321234 0
    outer loop
      vertex 8.72732 434.846 13.4
      vertex 8.54652 434.313 26.4
      vertex 8.54652 434.313 13.4
    endloop
  endfacet
  facet normal 0.997857 -0.0654388 0
    outer loop
      vertex 8.4 433.2 26.4
      vertex 8.43679 433.761 13.4
      vertex 8.43679 433.761 26.4
    endloop
  endfacet
  facet normal 0.997857 -0.0654388 0
    outer loop
      vertex 8.43679 433.761 13.4
      vertex 8.4 433.2 26.4
      vertex 8.4 433.2 13.4
    endloop
  endfacet
  facet normal 0.947 0.321234 0
    outer loop
      vertex 8.72732 431.554 26.4
      vertex 8.54652 432.087 13.4
      vertex 8.54652 432.087 26.4
    endloop
  endfacet
  facet normal 0.947 0.321234 0
    outer loop
      vertex 8.54652 432.087 13.4
      vertex 8.72732 431.554 26.4
      vertex 8.72732 431.554 13.4
    endloop
  endfacet
  facet normal 0.831648 0.555303 0
    outer loop
      vertex 9.28858 430.582 26.4
      vertex 8.97609 431.05 13.4
      vertex 8.97609 431.05 26.4
    endloop
  endfacet
  facet normal 0.831648 0.555303 0
    outer loop
      vertex 8.97609 431.05 13.4
      vertex 9.28858 430.582 26.4
      vertex 9.28858 430.582 13.4
    endloop
  endfacet
  facet normal 0.980809 0.194971 0
    outer loop
      vertex 8.54652 432.087 26.4
      vertex 8.43679 432.639 13.4
      vertex 8.43679 432.639 26.4
    endloop
  endfacet
  facet normal 0.980809 0.194971 0
    outer loop
      vertex 8.43679 432.639 13.4
      vertex 8.54652 432.087 26.4
      vertex 8.54652 432.087 13.4
    endloop
  endfacet
  facet normal 0.896714 0.44261 0
    outer loop
      vertex 8.97609 431.05 26.4
      vertex 8.72732 431.554 13.4
      vertex 8.72732 431.554 26.4
    endloop
  endfacet
  facet normal 0.896714 0.44261 0
    outer loop
      vertex 8.72732 431.554 13.4
      vertex 8.97609 431.05 26.4
      vertex 8.97609 431.05 13.4
    endloop
  endfacet
  facet normal -0.556176 0.831065 0
    outer loop
      vertex 15.3177 429.789 13.4
      vertex 14.85 429.476 26.4
      vertex 15.3177 429.789 26.4
    endloop
  endfacet
  facet normal -0.556176 0.831065 0
    outer loop
      vertex 14.85 429.476 26.4
      vertex 15.3177 429.789 13.4
      vertex 14.85 429.476 13.4
    endloop
  endfacet
  facet normal -0.658467 0.75261 0
    outer loop
      vertex 15.7406 430.159 13.4
      vertex 15.3177 429.789 26.4
      vertex 15.7406 430.159 26.4
    endloop
  endfacet
  facet normal -0.658467 0.75261 0
    outer loop
      vertex 15.3177 429.789 26.4
      vertex 15.7406 430.159 13.4
      vertex 15.3177 429.789 13.4
    endloop
  endfacet
  facet normal 0.556176 0.831065 -0
    outer loop
      vertex 10.55 429.476 13.4
      vertex 10.0823 429.789 26.4
      vertex 10.55 429.476 26.4
    endloop
  endfacet
  facet normal 0.556176 0.831065 0
    outer loop
      vertex 10.0823 429.789 26.4
      vertex 10.55 429.476 13.4
      vertex 10.0823 429.789 13.4
    endloop
  endfacet
  facet normal -0.442586 0.896726 0
    outer loop
      vertex 14.85 429.476 13.4
      vertex 14.3455 429.227 26.4
      vertex 14.85 429.476 26.4
    endloop
  endfacet
  facet normal -0.442586 0.896726 0
    outer loop
      vertex 14.3455 429.227 26.4
      vertex 14.85 429.476 13.4
      vertex 14.3455 429.227 13.4
    endloop
  endfacet
  facet normal -0.320174 -0.947359 0
    outer loop
      vertex 13.8129 437.353 13.4
      vertex 14.3455 437.173 26.4
      vertex 13.8129 437.353 26.4
    endloop
  endfacet
  facet normal -0.320174 -0.947359 -0
    outer loop
      vertex 14.3455 437.173 26.4
      vertex 13.8129 437.353 13.4
      vertex 14.3455 437.173 13.4
    endloop
  endfacet
  facet normal -0.997855 0.0654565 0
    outer loop
      vertex 16.9632 432.639 13.4
      vertex 17 433.2 26.4
      vertex 17 433.2 13.4
    endloop
  endfacet
  facet normal -0.997855 0.0654565 0
    outer loop
      vertex 17 433.2 26.4
      vertex 16.9632 432.639 13.4
      vertex 16.9632 432.639 26.4
    endloop
  endfacet
  facet normal -0.980819 0.19492 0
    outer loop
      vertex 16.8535 432.087 13.4
      vertex 16.9632 432.639 26.4
      vertex 16.9632 432.639 13.4
    endloop
  endfacet
  facet normal -0.980819 0.19492 0
    outer loop
      vertex 16.9632 432.639 26.4
      vertex 16.8535 432.087 13.4
      vertex 16.8535 432.087 26.4
    endloop
  endfacet
  facet normal 0.997857 0.0654388 0
    outer loop
      vertex 8.43679 432.639 26.4
      vertex 8.4 433.2 13.4
      vertex 8.4 433.2 26.4
    endloop
  endfacet
  facet normal 0.997857 0.0654388 0
    outer loop
      vertex 8.4 433.2 13.4
      vertex 8.43679 432.639 26.4
      vertex 8.43679 432.639 13.4
    endloop
  endfacet
  facet normal 0.658502 -0.752579 0
    outer loop
      vertex 9.65944 436.241 13.4
      vertex 10.0823 436.611 26.4
      vertex 9.65944 436.241 26.4
    endloop
  endfacet
  facet normal 0.658502 -0.752579 0
    outer loop
      vertex 10.0823 436.611 26.4
      vertex 9.65944 436.241 13.4
      vertex 10.0823 436.611 13.4
    endloop
  endfacet
  facet normal 0.658502 0.752579 -0
    outer loop
      vertex 10.0823 429.789 13.4
      vertex 9.65944 430.159 26.4
      vertex 10.0823 429.789 26.4
    endloop
  endfacet
  facet normal 0.658502 0.752579 0
    outer loop
      vertex 9.65944 430.159 26.4
      vertex 10.0823 429.789 13.4
      vertex 9.65944 430.159 13.4
    endloop
  endfacet
  facet normal 0.980809 -0.194971 0
    outer loop
      vertex 8.43679 433.761 26.4
      vertex 8.54652 434.313 13.4
      vertex 8.54652 434.313 26.4
    endloop
  endfacet
  facet normal 0.980809 -0.194971 0
    outer loop
      vertex 8.54652 434.313 13.4
      vertex 8.43679 433.761 26.4
      vertex 8.43679 433.761 13.4
    endloop
  endfacet
  facet normal 0.896714 -0.44261 0
    outer loop
      vertex 8.72732 434.846 26.4
      vertex 8.97609 435.35 13.4
      vertex 8.97609 435.35 26.4
    endloop
  endfacet
  facet normal 0.896714 -0.44261 0
    outer loop
      vertex 8.97609 435.35 13.4
      vertex 8.72732 434.846 26.4
      vertex 8.72732 434.846 13.4
    endloop
  endfacet
  facet normal 0.442586 0.896726 -0
    outer loop
      vertex 11.0545 429.227 13.4
      vertex 10.55 429.476 26.4
      vertex 11.0545 429.227 26.4
    endloop
  endfacet
  facet normal 0.442586 0.896726 0
    outer loop
      vertex 10.55 429.476 26.4
      vertex 11.0545 429.227 13.4
      vertex 10.55 429.476 13.4
    endloop
  endfacet
  facet normal 0.831648 -0.555303 0
    outer loop
      vertex 8.97609 435.35 26.4
      vertex 9.28858 435.818 13.4
      vertex 9.28858 435.818 26.4
    endloop
  endfacet
  facet normal 0.831648 -0.555303 0
    outer loop
      vertex 9.28858 435.818 13.4
      vertex 8.97609 435.35 26.4
      vertex 8.97609 435.35 13.4
    endloop
  endfacet
  facet normal 0.0657757 0.997834 -0
    outer loop
      vertex 12.7 428.9 13.4
      vertex 12.1387 428.937 26.4
      vertex 12.7 428.9 26.4
    endloop
  endfacet
  facet normal 0.0657757 0.997834 0
    outer loop
      vertex 12.1387 428.937 26.4
      vertex 12.7 428.9 13.4
      vertex 12.1387 428.937 13.4
    endloop
  endfacet
  facet normal 0 0 -1
    outer loop
      vertex 16.9632 432.639 26.4
      vertex 16.9632 433.761 26.4
      vertex 17 433.2 26.4
    endloop
  endfacet
  facet normal 0 0 -1
    outer loop
      vertex 16.8535 432.087 26.4
      vertex 16.9632 433.761 26.4
      vertex 16.9632 432.639 26.4
    endloop
  endfacet
  facet normal 0 0 -1
    outer loop
      vertex 16.8535 432.087 26.4
      vertex 16.8535 434.313 26.4
      vertex 16.9632 433.761 26.4
    endloop
  endfacet
  facet normal 0 0 -1
    outer loop
      vertex 16.6727 431.554 26.4
      vertex 16.8535 434.313 26.4
      vertex 16.8535 432.087 26.4
    endloop
  endfacet
  facet normal 0 0 -1
    outer loop
      vertex 16.6727 431.554 26.4
      vertex 16.6727 434.846 26.4
      vertex 16.8535 434.313 26.4
    endloop
  endfacet
  facet normal 0 0 -1
    outer loop
      vertex 16.4239 431.05 26.4
      vertex 16.6727 434.846 26.4
      vertex 16.6727 431.554 26.4
    endloop
  endfacet
  facet normal 0 0 -1
    outer loop
      vertex 16.4239 431.05 26.4
      vertex 16.4239 435.35 26.4
      vertex 16.6727 434.846 26.4
    endloop
  endfacet
  facet normal 0 0 -1
    outer loop
      vertex 16.1114 430.582 26.4
      vertex 16.4239 435.35 26.4
      vertex 16.4239 431.05 26.4
    endloop
  endfacet
  facet normal 0 0 -1
    outer loop
      vertex 16.1114 430.582 26.4
      vertex 16.1114 435.818 26.4
      vertex 16.4239 435.35 26.4
    endloop
  endfacet
  facet normal 0 0 -1
    outer loop
      vertex 15.7406 430.159 26.4
      vertex 16.1114 435.818 26.4
      vertex 16.1114 430.582 26.4
    endloop
  endfacet
  facet normal 0 0 -1
    outer loop
      vertex 15.7406 430.159 26.4
      vertex 15.7406 436.241 26.4
      vertex 16.1114 435.818 26.4
    endloop
  endfacet
  facet normal 0 0 -1
    outer loop
      vertex 15.3177 429.789 26.4
      vertex 15.7406 436.241 26.4
      vertex 15.7406 430.159 26.4
    endloop
  endfacet
  facet normal 0 0 -1
    outer loop
      vertex 15.3177 429.789 26.4
      vertex 15.3177 436.611 26.4
      vertex 15.7406 436.241 26.4
    endloop
  endfacet
  facet normal 0 0 -1
    outer loop
      vertex 14.85 429.476 26.4
      vertex 15.3177 436.611 26.4
      vertex 15.3177 429.789 26.4
    endloop
  endfacet
  facet normal 0 0 -1
    outer loop
      vertex 14.85 429.476 26.4
      vertex 14.85 436.924 26.4
      vertex 15.3177 436.611 26.4
    endloop
  endfacet
  facet normal 0 0 -1
    outer loop
      vertex 14.3455 429.227 26.4
      vertex 14.85 436.924 26.4
      vertex 14.85 429.476 26.4
    endloop
  endfacet
  facet normal 0 0 -1
    outer loop
      vertex 14.3455 429.227 26.4
      vertex 14.3455 437.173 26.4
      vertex 14.85 436.924 26.4
    endloop
  endfacet
  facet normal 0 0 -1
    outer loop
      vertex 13.8129 429.047 26.4
      vertex 14.3455 437.173 26.4
      vertex 14.3455 429.227 26.4
    endloop
  endfacet
  facet normal 0 0 -1
    outer loop
      vertex 13.8129 429.047 26.4
      vertex 13.8129 437.353 26.4
      vertex 14.3455 437.173 26.4
    endloop
  endfacet
  facet normal 0 0 -1
    outer loop
      vertex 13.2613 428.937 26.4
      vertex 13.8129 437.353 26.4
      vertex 13.8129 429.047 26.4
    endloop
  endfacet
  facet normal 0 0 -1
    outer loop
      vertex 13.2613 428.937 26.4
      vertex 13.2613 437.463 26.4
      vertex 13.8129 437.353 26.4
    endloop
  endfacet
  facet normal 0 0 -1
    outer loop
      vertex 12.7 428.9 26.4
      vertex 13.2613 437.463 26.4
      vertex 13.2613 428.937 26.4
    endloop
  endfacet
  facet normal 0 0 -1
    outer loop
      vertex 12.7 428.9 26.4
      vertex 12.7 437.5 26.4
      vertex 13.2613 437.463 26.4
    endloop
  endfacet
  facet normal 0 0 -1
    outer loop
      vertex 12.1387 428.937 26.4
      vertex 12.7 437.5 26.4
      vertex 12.7 428.9 26.4
    endloop
  endfacet
  facet normal 0 0 -1
    outer loop
      vertex 12.1387 428.937 26.4
      vertex 12.1387 437.463 26.4
      vertex 12.7 437.5 26.4
    endloop
  endfacet
  facet normal 0 0 -1
    outer loop
      vertex 11.5871 429.047 26.4
      vertex 12.1387 437.463 26.4
      vertex 12.1387 428.937 26.4
    endloop
  endfacet
  facet normal 0 0 -1
    outer loop
      vertex 11.5871 429.047 26.4
      vertex 11.5871 437.353 26.4
      vertex 12.1387 437.463 26.4
    endloop
  endfacet
  facet normal 0 0 -1
    outer loop
      vertex 11.0545 429.227 26.4
      vertex 11.5871 437.353 26.4
      vertex 11.5871 429.047 26.4
    endloop
  endfacet
  facet normal 0 0 -1
    outer loop
      vertex 11.0545 429.227 26.4
      vertex 11.0545 437.173 26.4
      vertex 11.5871 437.353 26.4
    endloop
  endfacet
  facet normal 0 0 -1
    outer loop
      vertex 10.55 429.476 26.4
      vertex 11.0545 437.173 26.4
      vertex 11.0545 429.227 26.4
    endloop
  endfacet
  facet normal 0 0 -1
    outer loop
      vertex 10.55 429.476 26.4
      vertex 10.55 436.924 26.4
      vertex 11.0545 437.173 26.4
    endloop
  endfacet
  facet normal 0 0 -1
    outer loop
      vertex 10.0823 429.789 26.4
      vertex 10.55 436.924 26.4
      vertex 10.55 429.476 26.4
    endloop
  endfacet
  facet normal 0 0 -1
    outer loop
      vertex 10.0823 429.789 26.4
      vertex 10.0823 436.611 26.4
      vertex 10.55 436.924 26.4
    endloop
  endfacet
  facet normal 0 0 -1
    outer loop
      vertex 9.65944 430.159 26.4
      vertex 10.0823 436.611 26.4
      vertex 10.0823 429.789 26.4
    endloop
  endfacet
  facet normal 0 0 -1
    outer loop
      vertex 9.65944 430.159 26.4
      vertex 9.65944 436.241 26.4
      vertex 10.0823 436.611 26.4
    endloop
  endfacet
  facet normal 0 0 -1
    outer loop
      vertex 9.28858 430.582 26.4
      vertex 9.65944 436.241 26.4
      vertex 9.65944 430.159 26.4
    endloop
  endfacet
  facet normal 0 0 -1
    outer loop
      vertex 9.28858 430.582 26.4
      vertex 9.28858 435.818 26.4
      vertex 9.65944 436.241 26.4
    endloop
  endfacet
  facet normal 0 0 -1
    outer loop
      vertex 8.97609 431.05 26.4
      vertex 9.28858 435.818 26.4
      vertex 9.28858 430.582 26.4
    endloop
  endfacet
  facet normal 0 0 -1
    outer loop
      vertex 8.97609 431.05 26.4
      vertex 8.97609 435.35 26.4
      vertex 9.28858 435.818 26.4
    endloop
  endfacet
  facet normal 0 0 -1
    outer loop
      vertex 8.72732 431.554 26.4
      vertex 8.97609 435.35 26.4
      vertex 8.97609 431.05 26.4
    endloop
  endfacet
  facet normal 0 0 -1
    outer loop
      vertex 8.72732 431.554 26.4
      vertex 8.72732 434.846 26.4
      vertex 8.97609 435.35 26.4
    endloop
  endfacet
  facet normal 0 0 -1
    outer loop
      vertex 8.54652 432.087 26.4
      vertex 8.72732 434.846 26.4
      vertex 8.72732 431.554 26.4
    endloop
  endfacet
  facet normal 0 0 -1
    outer loop
      vertex 8.54652 432.087 26.4
      vertex 8.54652 434.313 26.4
      vertex 8.72732 434.846 26.4
    endloop
  endfacet
  facet normal 0 0 -1
    outer loop
      vertex 8.43679 432.639 26.4
      vertex 8.54652 434.313 26.4
      vertex 8.54652 432.087 26.4
    endloop
  endfacet
  facet normal 0 0 -1
    outer loop
      vertex 8.43679 432.639 26.4
      vertex 8.43679 433.761 26.4
      vertex 8.54652 434.313 26.4
    endloop
  endfacet
  facet normal 0 -0 -1
    outer loop
      vertex 8.43679 433.761 26.4
      vertex 8.43679 432.639 26.4
      vertex 8.4 433.2 26.4
    endloop
  endfacet
endsolid OpenSCAD_Model
