solid OpenSCAD_Model
  facet normal 0 1 0
    outer loop
      vertex 5.25369 241.4 20
      vertex 6 241.4 186.267
      vertex 6 241.4 20
    endloop
  endfacet
  facet normal 0 1 0
    outer loop
      vertex 6 241.4 186.267
      vertex 5.25369 241.4 20
      vertex 0 241.4 186.267
    endloop
  endfacet
  facet normal 0 1 0
    outer loop
      vertex 0 241.4 186.267
      vertex 5.25369 241.4 20
      vertex 0 241.4 20
    endloop
  endfacet
  facet normal 0 1 -0
    outer loop
      vertex 20 241.4 20
      vertex 14 241.4 186.267
      vertex 20 241.4 186.267
    endloop
  endfacet
  facet normal 0 1 -0
    outer loop
      vertex 14.7463 241.4 20
      vertex 14 241.4 186.267
      vertex 20 241.4 20
    endloop
  endfacet
  facet normal 0 1 0
    outer loop
      vertex 14.7463 241.4 20
      vertex 14 241.4 20
      vertex 14 241.4 186.267
    endloop
  endfacet
  facet normal 0 1 0
    outer loop
      vertex 17 241.4 9.02
      vertex 14 241.4 20
      vertex 14.7463 241.4 20
    endloop
  endfacet
  facet normal 0 1 0
    outer loop
      vertex 14 241.4 20
      vertex 17 241.4 9.02
      vertex 6 241.4 20
    endloop
  endfacet
  facet normal 0 1 0
    outer loop
      vertex 3 241.4 9.02
      vertex 6 241.4 20
      vertex 17 241.4 9.02
    endloop
  endfacet
  facet normal 0 1 0
    outer loop
      vertex 6 241.4 20
      vertex 3 241.4 9.02
      vertex 5.25369 241.4 20
    endloop
  endfacet
  facet normal 0 1 -0
    outer loop
      vertex 17 241.4 9
      vertex 3 241.4 9.02
      vertex 17 241.4 9.02
    endloop
  endfacet
  facet normal 0 1 0
    outer loop
      vertex 3 241.4 9.02
      vertex 17 241.4 9
      vertex 3 241.4 9
    endloop
  endfacet
  facet normal 1 -0 0
    outer loop
      vertex 20 20 186.267
      vertex 20 241.4 20
      vertex 20 241.4 186.267
    endloop
  endfacet
  facet normal 1 0 0
    outer loop
      vertex 20 241.4 20
      vertex 20 20 186.267
      vertex 20 20 20
    endloop
  endfacet
  facet normal -1 0 0
    outer loop
      vertex 0 20 20
      vertex 0 241.4 186.267
      vertex 0 241.4 20
    endloop
  endfacet
  facet normal -1 -0 0
    outer loop
      vertex 0 241.4 186.267
      vertex 0 20 20
      vertex 0 20 186.267
    endloop
  endfacet
  facet normal 0 -1 0
    outer loop
      vertex 0 20 20
      vertex 5.25369 20 186.267
      vertex 0 20 186.267
    endloop
  endfacet
  facet normal 0 -1 -0
    outer loop
      vertex 5.25369 20 186.267
      vertex 0 20 20
      vertex 5.25369 20 20
    endloop
  endfacet
  facet normal 0 -1 0
    outer loop
      vertex 14.7463 20 20
      vertex 20 20 186.267
      vertex 14.7463 20 186.267
    endloop
  endfacet
  facet normal 0 -1 -0
    outer loop
      vertex 20 20 186.267
      vertex 14.7463 20 20
      vertex 20 20 20
    endloop
  endfacet
  facet normal 0 -1 0
    outer loop
      vertex 3 20 200.247
      vertex 17 20 200.267
      vertex 3 20 200.267
    endloop
  endfacet
  facet normal 0 -1 0
    outer loop
      vertex 3 20 200.247
      vertex 17 20 200.247
      vertex 17 20 200.267
    endloop
  endfacet
  facet normal 0 -1 0
    outer loop
      vertex 6 20 186.267
      vertex 17 20 200.247
      vertex 3 20 200.247
    endloop
  endfacet
  facet normal 0 -1 0
    outer loop
      vertex 17 20 200.247
      vertex 6 20 186.267
      vertex 14 20 186.267
    endloop
  endfacet
  facet normal 0 0 1
    outer loop
      vertex 6 241.4 186.267
      vertex 5.25369 20 186.267
      vertex 6 20 186.267
    endloop
  endfacet
  facet normal -0 0 1
    outer loop
      vertex 0 241.4 186.267
      vertex 5.25369 20 186.267
      vertex 6 241.4 186.267
    endloop
  endfacet
  facet normal 0 0 1
    outer loop
      vertex 5.25369 20 186.267
      vertex 0 241.4 186.267
      vertex 0 20 186.267
    endloop
  endfacet
  facet normal 0 0 1
    outer loop
      vertex 20 241.4 186.267
      vertex 14.7463 20 186.267
      vertex 20 20 186.267
    endloop
  endfacet
  facet normal 0 -0 1
    outer loop
      vertex 14.7463 20 186.267
      vertex 20 241.4 186.267
      vertex 14 241.4 186.267
    endloop
  endfacet
  facet normal -0 0 1
    outer loop
      vertex 14 20 186.267
      vertex 17 9.02 186.267
      vertex 14.7463 20 186.267
    endloop
  endfacet
  facet normal 0 0 1
    outer loop
      vertex 14 20 186.267
      vertex 14.7463 20 186.267
      vertex 14 241.4 186.267
    endloop
  endfacet
  facet normal -0 0 1
    outer loop
      vertex 6 20 186.267
      vertex 17 9.02 186.267
      vertex 14 20 186.267
    endloop
  endfacet
  facet normal 0 0 1
    outer loop
      vertex 3 9.02 186.267
      vertex 17 9.02 186.267
      vertex 6 20 186.267
    endloop
  endfacet
  facet normal 0 0 1
    outer loop
      vertex 3 9.02 186.267
      vertex 6 20 186.267
      vertex 5.25369 20 186.267
    endloop
  endfacet
  facet normal 0 0 1
    outer loop
      vertex 17 9.02 186.267
      vertex 3 9.02 186.267
      vertex 17 9 186.267
    endloop
  endfacet
  facet normal 0 0 1
    outer loop
      vertex 17 9 186.267
      vertex 3 9.02 186.267
      vertex 3 9 186.267
    endloop
  endfacet
  facet normal 0 0 1
    outer loop
      vertex 3 255.38 186.267
      vertex 17 255.38 186.267
      vertex 17 255.4 186.267
    endloop
  endfacet
  facet normal 0 0 1
    outer loop
      vertex 17 255.38 186.267
      vertex 6 241.4 186.267
      vertex 14 241.4 186.267
    endloop
  endfacet
  facet normal 0 0 1
    outer loop
      vertex 3 255.38 186.267
      vertex 17 255.4 186.267
      vertex 3 255.4 186.267
    endloop
  endfacet
  facet normal 0 0 1
    outer loop
      vertex 17 255.38 186.267
      vertex 3 255.38 186.267
      vertex 6 241.4 186.267
    endloop
  endfacet
  facet normal 0 0 -1
    outer loop
      vertex 0 20 20
      vertex 5.25369 241.4 20
      vertex 5.25369 20 20
    endloop
  endfacet
  facet normal -0 0 -1
    outer loop
      vertex 5.25369 241.4 20
      vertex 0 20 20
      vertex 0 241.4 20
    endloop
  endfacet
  facet normal 0 0 -1
    outer loop
      vertex 14.7463 20 20
      vertex 20 241.4 20
      vertex 20 20 20
    endloop
  endfacet
  facet normal -0 0 -1
    outer loop
      vertex 20 241.4 20
      vertex 14.7463 20 20
      vertex 14.7463 241.4 20
    endloop
  endfacet
  facet normal 0 0 -1
    outer loop
      vertex 6 241.4 20
      vertex 17 255.38 20
      vertex 14 241.4 20
    endloop
  endfacet
  facet normal 0 0 -1
    outer loop
      vertex 3 255.38 20
      vertex 17 255.38 20
      vertex 6 241.4 20
    endloop
  endfacet
  facet normal 0 0 -1
    outer loop
      vertex 17 255.38 20
      vertex 3 255.38 20
      vertex 17 255.4 20
    endloop
  endfacet
  facet normal -0 0 -1
    outer loop
      vertex 17 255.4 20
      vertex 3 255.38 20
      vertex 3 255.4 20
    endloop
  endfacet
  facet normal 0 1 -0
    outer loop
      vertex 17 255.4 20
      vertex 3 255.4 186.267
      vertex 17 255.4 186.267
    endloop
  endfacet
  facet normal 0 1 0
    outer loop
      vertex 3 255.4 186.267
      vertex 17 255.4 20
      vertex 3 255.4 20
    endloop
  endfacet
  facet normal -0.977741 -0.209816 0
    outer loop
      vertex 6 241.4 20
      vertex 3 255.38 186.267
      vertex 3 255.38 20
    endloop
  endfacet
  facet normal -0.977741 -0.209816 0
    outer loop
      vertex 3 255.38 186.267
      vertex 6 241.4 20
      vertex 6 241.4 186.267
    endloop
  endfacet
  facet normal -1 0 0
    outer loop
      vertex 3 255.38 20
      vertex 3 255.4 186.267
      vertex 3 255.4 20
    endloop
  endfacet
  facet normal -1 -0 0
    outer loop
      vertex 3 255.4 186.267
      vertex 3 255.38 20
      vertex 3 255.38 186.267
    endloop
  endfacet
  facet normal 0.977741 -0.209816 0
    outer loop
      vertex 14 241.4 186.267
      vertex 17 255.38 20
      vertex 17 255.38 186.267
    endloop
  endfacet
  facet normal 0.977741 -0.209816 0
    outer loop
      vertex 17 255.38 20
      vertex 14 241.4 186.267
      vertex 14 241.4 20
    endloop
  endfacet
  facet normal 1 -0 0
    outer loop
      vertex 17 255.38 186.267
      vertex 17 255.4 20
      vertex 17 255.4 186.267
    endloop
  endfacet
  facet normal 1 0 0
    outer loop
      vertex 17 255.4 20
      vertex 17 255.38 186.267
      vertex 17 255.38 20
    endloop
  endfacet
  facet normal 0 1 -0
    outer loop
      vertex 17 241.4 200.247
      vertex 3 241.4 200.267
      vertex 17 241.4 200.267
    endloop
  endfacet
  facet normal 0 1 0
    outer loop
      vertex 17 241.4 200.247
      vertex 3 241.4 200.247
      vertex 3 241.4 200.267
    endloop
  endfacet
  facet normal 0 1 -0
    outer loop
      vertex 14 241.4 186.267
      vertex 3 241.4 200.247
      vertex 17 241.4 200.247
    endloop
  endfacet
  facet normal 0 1 0
    outer loop
      vertex 3 241.4 200.247
      vertex 14 241.4 186.267
      vertex 6 241.4 186.267
    endloop
  endfacet
  facet normal 0.977741 0 -0.209816
    outer loop
      vertex 17 20 200.247
      vertex 14 241.4 186.267
      vertex 17 241.4 200.247
    endloop
  endfacet
  facet normal 0.977741 0 -0.209816
    outer loop
      vertex 14 241.4 186.267
      vertex 17 20 200.247
      vertex 14 20 186.267
    endloop
  endfacet
  facet normal -1 0 0
    outer loop
      vertex 3 20 200.247
      vertex 3 241.4 200.267
      vertex 3 241.4 200.247
    endloop
  endfacet
  facet normal -1 -0 0
    outer loop
      vertex 3 241.4 200.267
      vertex 3 20 200.247
      vertex 3 20 200.267
    endloop
  endfacet
  facet normal -0 0 1
    outer loop
      vertex 3 241.4 200.267
      vertex 17 20 200.267
      vertex 17 241.4 200.267
    endloop
  endfacet
  facet normal 0 0 1
    outer loop
      vertex 17 20 200.267
      vertex 3 241.4 200.267
      vertex 3 20 200.267
    endloop
  endfacet
  facet normal 1 -0 0
    outer loop
      vertex 17 20 200.267
      vertex 17 241.4 200.247
      vertex 17 241.4 200.267
    endloop
  endfacet
  facet normal 1 0 0
    outer loop
      vertex 17 241.4 200.247
      vertex 17 20 200.267
      vertex 17 20 200.247
    endloop
  endfacet
  facet normal -0.977741 0 -0.209816
    outer loop
      vertex 6 20 186.267
      vertex 3 241.4 200.247
      vertex 6 241.4 186.267
    endloop
  endfacet
  facet normal -0.977741 -0 -0.209816
    outer loop
      vertex 3 241.4 200.247
      vertex 6 20 186.267
      vertex 3 20 200.247
    endloop
  endfacet
  facet normal 0 -1 0
    outer loop
      vertex 3 20 9.02
      vertex 14.7463 20 20
      vertex 5.25369 20 20
    endloop
  endfacet
  facet normal 0 -1 0
    outer loop
      vertex 3 20 9.02
      vertex 17 20 9.02
      vertex 14.7463 20 20
    endloop
  endfacet
  facet normal 0 -1 0
    outer loop
      vertex 3 20 9
      vertex 17 20 9.02
      vertex 3 20 9.02
    endloop
  endfacet
  facet normal 0 -1 -0
    outer loop
      vertex 17 20 9.02
      vertex 3 20 9
      vertex 17 20 9
    endloop
  endfacet
  facet normal 0 0 -1
    outer loop
      vertex 3 20 9
      vertex 17 241.4 9
      vertex 17 20 9
    endloop
  endfacet
  facet normal -0 0 -1
    outer loop
      vertex 17 241.4 9
      vertex 3 20 9
      vertex 3 241.4 9
    endloop
  endfacet
  facet normal -0.979578 0 0.201062
    outer loop
      vertex 3 20 9.02
      vertex 5.25369 241.4 20
      vertex 3 241.4 9.02
    endloop
  endfacet
  facet normal -0.979578 0 0.201062
    outer loop
      vertex 5.25369 241.4 20
      vertex 3 20 9.02
      vertex 5.25369 20 20
    endloop
  endfacet
  facet normal 1 -0 0
    outer loop
      vertex 17 20 9.02
      vertex 17 241.4 9
      vertex 17 241.4 9.02
    endloop
  endfacet
  facet normal 1 0 0
    outer loop
      vertex 17 241.4 9
      vertex 17 20 9.02
      vertex 17 20 9
    endloop
  endfacet
  facet normal -1 0 0
    outer loop
      vertex 3 20 9
      vertex 3 241.4 9.02
      vertex 3 241.4 9
    endloop
  endfacet
  facet normal -1 -0 0
    outer loop
      vertex 3 241.4 9.02
      vertex 3 20 9
      vertex 3 20 9.02
    endloop
  endfacet
  facet normal 0.979578 -0 0.201063
    outer loop
      vertex 14.7463 20 20
      vertex 17 241.4 9.02
      vertex 14.7463 241.4 20
    endloop
  endfacet
  facet normal 0.979578 0 0.201063
    outer loop
      vertex 17 241.4 9.02
      vertex 14.7463 20 20
      vertex 17 20 9.02
    endloop
  endfacet
  facet normal 0 0 -1
    outer loop
      vertex 3 9.02 20
      vertex 17 9.02 20
      vertex 17 9 20
    endloop
  endfacet
  facet normal 0 0 -1
    outer loop
      vertex 17 9.02 20
      vertex 5.25369 20 20
      vertex 14.7463 20 20
    endloop
  endfacet
  facet normal 0 0 -1
    outer loop
      vertex 3 9.02 20
      vertex 17 9 20
      vertex 3 9 20
    endloop
  endfacet
  facet normal 0 0 -1
    outer loop
      vertex 17 9.02 20
      vertex 3 9.02 20
      vertex 5.25369 20 20
    endloop
  endfacet
  facet normal 0.979578 0.201063 0
    outer loop
      vertex 17 9.02 186.267
      vertex 14.7463 20 20
      vertex 14.7463 20 186.267
    endloop
  endfacet
  facet normal 0.979578 0.201063 0
    outer loop
      vertex 14.7463 20 20
      vertex 17 9.02 186.267
      vertex 17 9.02 20
    endloop
  endfacet
  facet normal -1 0 0
    outer loop
      vertex 3 9 20
      vertex 3 9.02 186.267
      vertex 3 9.02 20
    endloop
  endfacet
  facet normal -1 -0 0
    outer loop
      vertex 3 9.02 186.267
      vertex 3 9 20
      vertex 3 9 186.267
    endloop
  endfacet
  facet normal 0 -1 0
    outer loop
      vertex 3 9 20
      vertex 17 9 186.267
      vertex 3 9 186.267
    endloop
  endfacet
  facet normal 0 -1 -0
    outer loop
      vertex 17 9 186.267
      vertex 3 9 20
      vertex 17 9 20
    endloop
  endfacet
  facet normal 1 -0 0
    outer loop
      vertex 17 9 186.267
      vertex 17 9.02 20
      vertex 17 9.02 186.267
    endloop
  endfacet
  facet normal 1 0 0
    outer loop
      vertex 17 9.02 20
      vertex 17 9 186.267
      vertex 17 9 20
    endloop
  endfacet
  facet normal -0.979578 0.201062 0
    outer loop
      vertex 3 9.02 20
      vertex 5.25369 20 186.267
      vertex 5.25369 20 20
    endloop
  endfacet
  facet normal -0.979578 0.201062 0
    outer loop
      vertex 5.25369 20 186.267
      vertex 3 9.02 20
      vertex 3 9.02 186.267
    endloop
  endfacet
endsolid OpenSCAD_Model
