solid OpenSCAD_Model
  facet normal 0 1 0
    outer loop
      vertex 2.65 241.4 200.617
      vertex 6 241.4 352.533
      vertex 6 241.4 200.617
    endloop
  endfacet
  facet normal 0 1 0
    outer loop
      vertex 6 241.4 352.533
      vertex 2.65 241.4 200.617
      vertex 0 241.4 352.533
    endloop
  endfacet
  facet normal 0 1 0
    outer loop
      vertex 0 241.4 186.267
      vertex 2.65 241.4 200.617
      vertex 2.65 241.4 200.597
    endloop
  endfacet
  facet normal 0 1 0
    outer loop
      vertex 2.65 241.4 200.617
      vertex 0 241.4 186.267
      vertex 0 241.4 352.533
    endloop
  endfacet
  facet normal 0 1 0
    outer loop
      vertex 0 241.4 186.267
      vertex 2.65 241.4 200.597
      vertex 5.65 241.4 186.267
    endloop
  endfacet
  facet normal 0 1 0
    outer loop
      vertex 20 241.4 352.533
      vertex 17.35 241.4 200.617
      vertex 14 241.4 352.533
    endloop
  endfacet
  facet normal 0 1 -0
    outer loop
      vertex 20 241.4 186.267
      vertex 17.35 241.4 200.617
      vertex 20 241.4 352.533
    endloop
  endfacet
  facet normal 0 1 0
    outer loop
      vertex 17.35 241.4 200.617
      vertex 20 241.4 186.267
      vertex 17.35 241.4 200.597
    endloop
  endfacet
  facet normal 0 1 0
    outer loop
      vertex 17.35 241.4 200.597
      vertex 20 241.4 186.267
      vertex 14.35 241.4 186.267
    endloop
  endfacet
  facet normal 0 1 0
    outer loop
      vertex 14 241.4 352.533
      vertex 17.35 241.4 200.617
      vertex 14 241.4 200.617
    endloop
  endfacet
  facet normal 1 -0 0
    outer loop
      vertex 20 20 352.533
      vertex 20 241.4 186.267
      vertex 20 241.4 352.533
    endloop
  endfacet
  facet normal 1 0 0
    outer loop
      vertex 20 241.4 186.267
      vertex 20 20 352.533
      vertex 20 20 186.267
    endloop
  endfacet
  facet normal -1 0 0
    outer loop
      vertex 0 20 186.267
      vertex 0 241.4 352.533
      vertex 0 241.4 186.267
    endloop
  endfacet
  facet normal -1 -0 0
    outer loop
      vertex 0 241.4 352.533
      vertex 0 20 186.267
      vertex 0 20 352.533
    endloop
  endfacet
  facet normal 0 -1 0
    outer loop
      vertex 3 20 366.513
      vertex 17 20 366.533
      vertex 3 20 366.533
    endloop
  endfacet
  facet normal 0 -1 0
    outer loop
      vertex 3 20 366.513
      vertex 17 20 366.513
      vertex 17 20 366.533
    endloop
  endfacet
  facet normal 0 -1 0
    outer loop
      vertex 6 20 352.533
      vertex 17 20 366.513
      vertex 3 20 366.513
    endloop
  endfacet
  facet normal 0 -1 0
    outer loop
      vertex 17 20 366.513
      vertex 6 20 352.533
      vertex 14 20 352.533
    endloop
  endfacet
  facet normal 0 -1 0
    outer loop
      vertex 17.35 20 200.617
      vertex 14.7463 20 352.533
      vertex 14.7463 20 200.617
    endloop
  endfacet
  facet normal 0 -1 0
    outer loop
      vertex 14.7463 20 352.533
      vertex 17.35 20 200.617
      vertex 20 20 352.533
    endloop
  endfacet
  facet normal 0 -1 0
    outer loop
      vertex 20 20 186.267
      vertex 17.35 20 200.617
      vertex 17.35 20 200.597
    endloop
  endfacet
  facet normal 0 -1 0
    outer loop
      vertex 20 20 186.267
      vertex 14.7463 20 188.16
      vertex 14.7463 20 186.267
    endloop
  endfacet
  facet normal 0 -1 0
    outer loop
      vertex 17.35 20 200.617
      vertex 20 20 186.267
      vertex 20 20 352.533
    endloop
  endfacet
  facet normal 0 -1 0
    outer loop
      vertex 14.7463 20 188.16
      vertex 20 20 186.267
      vertex 17.35 20 200.597
    endloop
  endfacet
  facet normal 0 -1 0
    outer loop
      vertex 0 20 352.533
      vertex 2.65 20 200.617
      vertex 5.25369 20 352.533
    endloop
  endfacet
  facet normal 0 -1 0
    outer loop
      vertex 0 20 186.267
      vertex 2.65 20 200.617
      vertex 0 20 352.533
    endloop
  endfacet
  facet normal 0 -1 -0
    outer loop
      vertex 2.65 20 200.617
      vertex 0 20 186.267
      vertex 2.65 20 200.597
    endloop
  endfacet
  facet normal 0 -1 0
    outer loop
      vertex 0 20 186.267
      vertex 5.25369 20 188.16
      vertex 2.65 20 200.597
    endloop
  endfacet
  facet normal 0 -1 -0
    outer loop
      vertex 5.25369 20 188.16
      vertex 0 20 186.267
      vertex 5.25369 20 186.267
    endloop
  endfacet
  facet normal 0 -1 -0
    outer loop
      vertex 5.25369 20 352.533
      vertex 2.65 20 200.617
      vertex 5.25369 20 200.617
    endloop
  endfacet
  facet normal 0 0 1
    outer loop
      vertex 6 241.4 352.533
      vertex 5.25369 20 352.533
      vertex 6 20 352.533
    endloop
  endfacet
  facet normal -0 0 1
    outer loop
      vertex 0 241.4 352.533
      vertex 5.25369 20 352.533
      vertex 6 241.4 352.533
    endloop
  endfacet
  facet normal 0 0 1
    outer loop
      vertex 5.25369 20 352.533
      vertex 0 241.4 352.533
      vertex 0 20 352.533
    endloop
  endfacet
  facet normal 0 0 1
    outer loop
      vertex 20 241.4 352.533
      vertex 14.7463 20 352.533
      vertex 20 20 352.533
    endloop
  endfacet
  facet normal 0 -0 1
    outer loop
      vertex 14.7463 20 352.533
      vertex 20 241.4 352.533
      vertex 14 241.4 352.533
    endloop
  endfacet
  facet normal -0 0 1
    outer loop
      vertex 14 20 352.533
      vertex 17 9.02 352.533
      vertex 14.7463 20 352.533
    endloop
  endfacet
  facet normal 0 0 1
    outer loop
      vertex 14 20 352.533
      vertex 14.7463 20 352.533
      vertex 14 241.4 352.533
    endloop
  endfacet
  facet normal -0 0 1
    outer loop
      vertex 6 20 352.533
      vertex 17 9.02 352.533
      vertex 14 20 352.533
    endloop
  endfacet
  facet normal 0 0 1
    outer loop
      vertex 3 9.02 352.533
      vertex 17 9.02 352.533
      vertex 6 20 352.533
    endloop
  endfacet
  facet normal 0 0 1
    outer loop
      vertex 3 9.02 352.533
      vertex 6 20 352.533
      vertex 5.25369 20 352.533
    endloop
  endfacet
  facet normal 0 0 1
    outer loop
      vertex 17 9.02 352.533
      vertex 3 9.02 352.533
      vertex 17 9 352.533
    endloop
  endfacet
  facet normal 0 0 1
    outer loop
      vertex 17 9 352.533
      vertex 3 9.02 352.533
      vertex 3 9 352.533
    endloop
  endfacet
  facet normal 0 0 1
    outer loop
      vertex 3 255.38 352.533
      vertex 17 255.38 352.533
      vertex 17 255.4 352.533
    endloop
  endfacet
  facet normal 0 0 1
    outer loop
      vertex 17 255.38 352.533
      vertex 6 241.4 352.533
      vertex 14 241.4 352.533
    endloop
  endfacet
  facet normal 0 0 1
    outer loop
      vertex 3 255.38 352.533
      vertex 17 255.4 352.533
      vertex 3 255.4 352.533
    endloop
  endfacet
  facet normal 0 0 1
    outer loop
      vertex 17 255.38 352.533
      vertex 3 255.38 352.533
      vertex 6 241.4 352.533
    endloop
  endfacet
  facet normal 0 0 -1
    outer loop
      vertex 3 9.02 186.267
      vertex 17 9.02 186.267
      vertex 17 9 186.267
    endloop
  endfacet
  facet normal 0 0 -1
    outer loop
      vertex 17 9.02 186.267
      vertex 5.25369 20 186.267
      vertex 14.7463 20 186.267
    endloop
  endfacet
  facet normal 0 0 -1
    outer loop
      vertex 14.7463 20 186.267
      vertex 5.25369 20 186.267
      vertex 14.35 21.2 186.267
    endloop
  endfacet
  facet normal 0 0 -1
    outer loop
      vertex 0 20 186.267
      vertex 5.65 21.2 186.267
      vertex 5.25369 20 186.267
    endloop
  endfacet
  facet normal -0 0 -1
    outer loop
      vertex 14.35 21.2 186.267
      vertex 5.25369 20 186.267
      vertex 5.65 21.2 186.267
    endloop
  endfacet
  facet normal 0 0 -1
    outer loop
      vertex 3 9.02 186.267
      vertex 17 9 186.267
      vertex 3 9 186.267
    endloop
  endfacet
  facet normal 0 0 -1
    outer loop
      vertex 17 9.02 186.267
      vertex 3 9.02 186.267
      vertex 5.25369 20 186.267
    endloop
  endfacet
  facet normal 0 0 -1
    outer loop
      vertex 14.35 21.2 186.267
      vertex 20 20 186.267
      vertex 14.7463 20 186.267
    endloop
  endfacet
  facet normal 0 0 -1
    outer loop
      vertex 20 20 186.267
      vertex 14.35 21.2 186.267
      vertex 20 241.4 186.267
    endloop
  endfacet
  facet normal -0 0 -1
    outer loop
      vertex 20 241.4 186.267
      vertex 14.35 21.2 186.267
      vertex 14.35 241.4 186.267
    endloop
  endfacet
  facet normal 0 0 -1
    outer loop
      vertex 0 241.4 186.267
      vertex 5.65 21.2 186.267
      vertex 0 20 186.267
    endloop
  endfacet
  facet normal 0 0 -1
    outer loop
      vertex 5.65 21.2 186.267
      vertex 0 241.4 186.267
      vertex 5.65 241.4 186.267
    endloop
  endfacet
  facet normal 0 0 -1
    outer loop
      vertex 5.92489 241.75 186.267
      vertex 17 255.38 186.267
      vertex 14.0751 241.75 186.267
    endloop
  endfacet
  facet normal 0 0 -1
    outer loop
      vertex 3 255.38 186.267
      vertex 17 255.38 186.267
      vertex 5.92489 241.75 186.267
    endloop
  endfacet
  facet normal 0 0 -1
    outer loop
      vertex 17 255.38 186.267
      vertex 3 255.38 186.267
      vertex 17 255.4 186.267
    endloop
  endfacet
  facet normal -0 0 -1
    outer loop
      vertex 17 255.4 186.267
      vertex 3 255.38 186.267
      vertex 3 255.4 186.267
    endloop
  endfacet
  facet normal 0 1 -0
    outer loop
      vertex 17 255.4 186.267
      vertex 3 255.4 352.533
      vertex 17 255.4 352.533
    endloop
  endfacet
  facet normal 0 1 0
    outer loop
      vertex 3 255.4 352.533
      vertex 17 255.4 186.267
      vertex 3 255.4 186.267
    endloop
  endfacet
  facet normal -0.977741 -0.209815 -0
    outer loop
      vertex 5.92489 241.75 200.617
      vertex 3 255.38 186.267
      vertex 5.92489 241.75 186.267
    endloop
  endfacet
  facet normal -0.977741 -0.209815 0
    outer loop
      vertex 3 255.38 186.267
      vertex 5.92489 241.75 200.617
      vertex 3 255.38 352.533
    endloop
  endfacet
  facet normal -0.977739 -0.209823 -0
    outer loop
      vertex 6 241.4 352.533
      vertex 5.92489 241.75 200.617
      vertex 6 241.4 200.617
    endloop
  endfacet
  facet normal -0.977741 -0.209816 1.74022e-08
    outer loop
      vertex 5.92489 241.75 200.617
      vertex 6 241.4 352.533
      vertex 3 255.38 352.533
    endloop
  endfacet
  facet normal -1 0 0
    outer loop
      vertex 3 255.38 186.267
      vertex 3 255.4 352.533
      vertex 3 255.4 186.267
    endloop
  endfacet
  facet normal -1 -0 0
    outer loop
      vertex 3 255.4 352.533
      vertex 3 255.38 186.267
      vertex 3 255.38 352.533
    endloop
  endfacet
  facet normal 0.977741 -0.209816 0
    outer loop
      vertex 17 255.38 352.533
      vertex 14.0751 241.75 200.617
      vertex 17 255.38 186.267
    endloop
  endfacet
  facet normal 0.977741 -0.209816 -4.69584e-08
    outer loop
      vertex 14 241.4 352.533
      vertex 14.0751 241.75 200.617
      vertex 17 255.38 352.533
    endloop
  endfacet
  facet normal 0.977745 -0.209796 0
    outer loop
      vertex 14.0751 241.75 200.617
      vertex 14 241.4 352.533
      vertex 14 241.4 200.617
    endloop
  endfacet
  facet normal 0.977741 -0.209816 0
    outer loop
      vertex 17 255.38 186.267
      vertex 14.0751 241.75 200.617
      vertex 14.0751 241.75 186.267
    endloop
  endfacet
  facet normal 1 -0 0
    outer loop
      vertex 17 255.38 352.533
      vertex 17 255.4 186.267
      vertex 17 255.4 352.533
    endloop
  endfacet
  facet normal 1 0 0
    outer loop
      vertex 17 255.4 186.267
      vertex 17 255.38 352.533
      vertex 17 255.38 186.267
    endloop
  endfacet
  facet normal 0 1 -0
    outer loop
      vertex 17 241.4 366.513
      vertex 3 241.4 366.533
      vertex 17 241.4 366.533
    endloop
  endfacet
  facet normal 0 1 0
    outer loop
      vertex 17 241.4 366.513
      vertex 3 241.4 366.513
      vertex 3 241.4 366.533
    endloop
  endfacet
  facet normal 0 1 -0
    outer loop
      vertex 14 241.4 352.533
      vertex 3 241.4 366.513
      vertex 17 241.4 366.513
    endloop
  endfacet
  facet normal 0 1 0
    outer loop
      vertex 3 241.4 366.513
      vertex 14 241.4 352.533
      vertex 6 241.4 352.533
    endloop
  endfacet
  facet normal 0.977741 0 -0.209816
    outer loop
      vertex 17 20 366.513
      vertex 14 241.4 352.533
      vertex 17 241.4 366.513
    endloop
  endfacet
  facet normal 0.977741 0 -0.209816
    outer loop
      vertex 14 241.4 352.533
      vertex 17 20 366.513
      vertex 14 20 352.533
    endloop
  endfacet
  facet normal -0 0 1
    outer loop
      vertex 3 241.4 366.533
      vertex 17 20 366.533
      vertex 17 241.4 366.533
    endloop
  endfacet
  facet normal 0 0 1
    outer loop
      vertex 17 20 366.533
      vertex 3 241.4 366.533
      vertex 3 20 366.533
    endloop
  endfacet
  facet normal 1 -0 0
    outer loop
      vertex 17 20 366.533
      vertex 17 241.4 366.513
      vertex 17 241.4 366.533
    endloop
  endfacet
  facet normal 1 0 0
    outer loop
      vertex 17 241.4 366.513
      vertex 17 20 366.533
      vertex 17 20 366.513
    endloop
  endfacet
  facet normal -0.977741 0 -0.209816
    outer loop
      vertex 6 20 352.533
      vertex 3 241.4 366.513
      vertex 6 241.4 352.533
    endloop
  endfacet
  facet normal -0.977741 -0 -0.209816
    outer loop
      vertex 3 241.4 366.513
      vertex 6 20 352.533
      vertex 3 20 366.513
    endloop
  endfacet
  facet normal -1 0 0
    outer loop
      vertex 3 20 366.513
      vertex 3 241.4 366.533
      vertex 3 241.4 366.513
    endloop
  endfacet
  facet normal -1 -0 0
    outer loop
      vertex 3 241.4 366.533
      vertex 3 20 366.513
      vertex 3 20 366.533
    endloop
  endfacet
  facet normal 0 -1 0
    outer loop
      vertex 5.92489 241.75 186.267
      vertex 14.0751 241.75 200.617
      vertex 5.92489 241.75 200.617
    endloop
  endfacet
  facet normal 0 -1 -0
    outer loop
      vertex 14.0751 241.75 200.617
      vertex 5.92489 241.75 186.267
      vertex 14.0751 241.75 186.267
    endloop
  endfacet
  facet normal 0 0 -1
    outer loop
      vertex 14.5 21.2 200.617
      vertex 17.35 20 200.617
      vertex 14.7463 20 200.617
    endloop
  endfacet
  facet normal 0 0 -1
    outer loop
      vertex 17.35 20 200.617
      vertex 14.5 21.2 200.617
      vertex 17.35 241.4 200.617
    endloop
  endfacet
  facet normal 0 0 -1
    outer loop
      vertex 14.5 21.2 200.617
      vertex 14 241.4 200.617
      vertex 17.35 241.4 200.617
    endloop
  endfacet
  facet normal 0 0 -1
    outer loop
      vertex 14.5 21.2 200.617
      vertex 6 241.4 200.617
      vertex 14 241.4 200.617
    endloop
  endfacet
  facet normal 0 0 -1
    outer loop
      vertex 5.5 21.2 200.617
      vertex 6 241.4 200.617
      vertex 14.5 21.2 200.617
    endloop
  endfacet
  facet normal 0 0 -1
    outer loop
      vertex 2.65 20 200.617
      vertex 5.5 21.2 200.617
      vertex 5.25369 20 200.617
    endloop
  endfacet
  facet normal 0 0 -1
    outer loop
      vertex 2.65 241.4 200.617
      vertex 5.5 21.2 200.617
      vertex 2.65 20 200.617
    endloop
  endfacet
  facet normal 0 0 -1
    outer loop
      vertex 5.5 21.2 200.617
      vertex 2.65 241.4 200.617
      vertex 6 241.4 200.617
    endloop
  endfacet
  facet normal 0 0 -1
    outer loop
      vertex 6 241.4 200.617
      vertex 14.0751 241.75 200.617
      vertex 14 241.4 200.617
    endloop
  endfacet
  facet normal -0 0 -1
    outer loop
      vertex 14.0751 241.75 200.617
      vertex 6 241.4 200.617
      vertex 5.92489 241.75 200.617
    endloop
  endfacet
  facet normal -1 0 0
    outer loop
      vertex 17.35 20 200.597
      vertex 17.35 241.4 200.617
      vertex 17.35 241.4 200.597
    endloop
  endfacet
  facet normal -1 -0 0
    outer loop
      vertex 17.35 241.4 200.617
      vertex 17.35 20 200.597
      vertex 17.35 20 200.617
    endloop
  endfacet
  facet normal 0.978781 -4.65279e-07 0.204909
    outer loop
      vertex 2.65 241.4 200.597
      vertex 5.5 21.2 186.983
      vertex 5.65 241.4 186.267
    endloop
  endfacet
  facet normal 0.978783 -0 0.204902
    outer loop
      vertex 2.65 20 200.597
      vertex 5.5 21.2 186.983
      vertex 2.65 241.4 200.597
    endloop
  endfacet
  facet normal 0.978781 7.77587e-05 0.204908
    outer loop
      vertex 5.5 21.2 186.983
      vertex 2.65 20 200.597
      vertex 5.25369 20 188.16
    endloop
  endfacet
  facet normal 0.978752 0 0.205046
    outer loop
      vertex 5.65 241.4 186.267
      vertex 5.5 21.2 186.983
      vertex 5.65 21.2 186.267
    endloop
  endfacet
  facet normal -0.978752 0 0.205046
    outer loop
      vertex 14.5 21.2 186.983
      vertex 14.35 241.4 186.267
      vertex 14.35 21.2 186.267
    endloop
  endfacet
  facet normal -0.978781 -4.65279e-07 0.204909
    outer loop
      vertex 14.35 241.4 186.267
      vertex 14.5 21.2 186.983
      vertex 17.35 241.4 200.597
    endloop
  endfacet
  facet normal -0.978781 8.66871e-05 0.204909
    outer loop
      vertex 17.35 20 200.597
      vertex 14.5 21.2 186.983
      vertex 14.7463 20 188.16
    endloop
  endfacet
  facet normal -0.978783 0 0.204902
    outer loop
      vertex 14.5 21.2 186.983
      vertex 17.35 20 200.597
      vertex 17.35 241.4 200.597
    endloop
  endfacet
  facet normal 1 -0 0
    outer loop
      vertex 2.65 20 200.617
      vertex 2.65 241.4 200.597
      vertex 2.65 241.4 200.617
    endloop
  endfacet
  facet normal 1 0 0
    outer loop
      vertex 2.65 241.4 200.597
      vertex 2.65 20 200.617
      vertex 2.65 20 200.597
    endloop
  endfacet
  facet normal 0 1 -0
    outer loop
      vertex 14.5 21.2 186.983
      vertex 5.5 21.2 200.617
      vertex 14.5 21.2 200.617
    endloop
  endfacet
  facet normal 0 1 0
    outer loop
      vertex 14.5 21.2 186.983
      vertex 5.5 21.2 186.983
      vertex 5.5 21.2 200.617
    endloop
  endfacet
  facet normal 0 1 -0
    outer loop
      vertex 14.35 21.2 186.267
      vertex 5.5 21.2 186.983
      vertex 14.5 21.2 186.983
    endloop
  endfacet
  facet normal 0 1 0
    outer loop
      vertex 5.5 21.2 186.983
      vertex 14.35 21.2 186.267
      vertex 5.65 21.2 186.267
    endloop
  endfacet
  facet normal 0.979579 0.201059 0
    outer loop
      vertex 14.9926 18.8 269.4
      vertex 14.7463 20 200.617
      vertex 14.7463 20 352.533
    endloop
  endfacet
  facet normal 0.979385 0.202003 1.71645e-05
    outer loop
      vertex 15.0002 18.7632 268.839
      vertex 14.7463 20 200.617
      vertex 14.9926 18.8 269.4
    endloop
  endfacet
  facet normal 0.979604 0.200937 -2.9784e-06
    outer loop
      vertex 15.0227 18.6535 268.287
      vertex 14.7463 20 200.617
      vertex 15.0002 18.7632 268.839
    endloop
  endfacet
  facet normal 0.979378 0.202038 -1.47359e-05
    outer loop
      vertex 14.7463 20 352.533
      vertex 15.0002 18.7632 269.961
      vertex 14.9926 18.8 269.4
    endloop
  endfacet
  facet normal 0.979605 0.200934 2.49707e-06
    outer loop
      vertex 14.7463 20 352.533
      vertex 15.0227 18.6535 270.513
      vertex 15.0002 18.7632 269.961
    endloop
  endfacet
  facet normal 0.979588 0.201014 1.13226e-06
    outer loop
      vertex 14.7463 20 352.533
      vertex 15.0598 18.4727 271.046
      vertex 15.0227 18.6535 270.513
    endloop
  endfacet
  facet normal 0.979554 0.201182 -2.15194e-06
    outer loop
      vertex 14.7463 20 352.533
      vertex 15.1109 18.2239 271.55
      vertex 15.0598 18.4727 271.046
    endloop
  endfacet
  facet normal 0.979603 0.200941 3.35387e-06
    outer loop
      vertex 14.7463 20 352.533
      vertex 15.175 17.9114 272.018
      vertex 15.1109 18.2239 271.55
    endloop
  endfacet
  facet normal 0.979583 0.201042 6.21432e-07
    outer loop
      vertex 14.7463 20 352.533
      vertex 15.2511 17.5406 272.441
      vertex 15.175 17.9114 272.018
    endloop
  endfacet
  facet normal 0.979579 0.201058 1.12657e-07
    outer loop
      vertex 14.7463 20 352.533
      vertex 15.3379 17.1177 272.811
      vertex 15.2511 17.5406 272.441
    endloop
  endfacet
  facet normal 0.979577 0.201068 -2.43175e-07
    outer loop
      vertex 14.7463 20 352.533
      vertex 15.4339 16.65 273.124
      vertex 15.3379 17.1177 272.811
    endloop
  endfacet
  facet normal 0.97956 0.201152 -3.97132e-06
    outer loop
      vertex 14.7463 20 352.533
      vertex 15.5375 16.1455 273.373
      vertex 15.4339 16.65 273.124
    endloop
  endfacet
  facet normal 0.979585 0.201031 2.20058e-06
    outer loop
      vertex 14.7463 20 352.533
      vertex 15.6468 15.6129 273.553
      vertex 15.5375 16.1455 273.373
    endloop
  endfacet
  facet normal 0.979585 0.201032 2.13673e-06
    outer loop
      vertex 14.7463 20 352.533
      vertex 15.76 15.0613 273.663
      vertex 15.6468 15.6129 273.553
    endloop
  endfacet
  facet normal 0.979582 0.201047 1.13643e-06
    outer loop
      vertex 14.7463 20 352.533
      vertex 15.8752 14.5 273.7
      vertex 15.76 15.0613 273.663
    endloop
  endfacet
  facet normal 0.979578 0.201063 -3.16874e-08
    outer loop
      vertex 17 9.02 352.533
      vertex 15.8752 14.5 273.7
      vertex 14.7463 20 352.533
    endloop
  endfacet
  facet normal 0.979582 0.201047 -1.19529e-06
    outer loop
      vertex 15.8752 14.5 273.7
      vertex 17 9.02 352.533
      vertex 15.9904 13.9387 273.663
    endloop
  endfacet
  facet normal 0.979585 0.201032 -2.1911e-06
    outer loop
      vertex 15.9904 13.9387 273.663
      vertex 17 9.02 352.533
      vertex 16.1036 13.3871 273.553
    endloop
  endfacet
  facet normal 0.979549 0.201204 7.7288e-06
    outer loop
      vertex 16.1036 13.3871 273.553
      vertex 17 9.02 352.533
      vertex 16.213 12.8545 273.373
    endloop
  endfacet
  facet normal 0.979597 0.20097 -4.09054e-06
    outer loop
      vertex 16.213 12.8545 273.373
      vertex 17 9.02 352.533
      vertex 16.3165 12.35 273.124
    endloop
  endfacet
  facet normal 0.979577 0.201068 1.80872e-07
    outer loop
      vertex 16.3165 12.35 273.124
      vertex 17 9.02 352.533
      vertex 16.4125 11.8823 272.811
    endloop
  endfacet
  facet normal 0.979579 0.201058 -1.7212e-07
    outer loop
      vertex 16.4125 11.8823 272.811
      vertex 17 9.02 352.533
      vertex 16.4993 11.4594 272.441
    endloop
  endfacet
  facet normal 0.979583 0.201042 -6.76432e-07
    outer loop
      vertex 16.4993 11.4594 272.441
      vertex 17 9.02 352.533
      vertex 16.5754 11.0886 272.018
    endloop
  endfacet
  facet normal 0.979544 0.201231 4.37193e-06
    outer loop
      vertex 16.5754 11.0886 272.018
      vertex 17 9.02 352.533
      vertex 16.6396 10.7761 271.55
    endloop
  endfacet
  facet normal 0.979629 0.200818 -4.95644e-06
    outer loop
      vertex 16.6396 10.7761 271.55
      vertex 17 9.02 352.533
      vertex 16.6906 10.5273 271.046
    endloop
  endfacet
  facet normal 0.979588 0.201014 -1.17844e-06
    outer loop
      vertex 16.6906 10.5273 271.046
      vertex 17 9.02 352.533
      vertex 16.7277 10.3465 270.513
    endloop
  endfacet
  facet normal 0.979377 0.202042 1.44856e-05
    outer loop
      vertex 16.7502 10.2368 269.961
      vertex 17 9.02 352.533
      vertex 16.7578 10.2 269.4
    endloop
  endfacet
  facet normal 0.979605 0.200934 -2.52306e-06
    outer loop
      vertex 16.7277 10.3465 270.513
      vertex 17 9.02 352.533
      vertex 16.7502 10.2368 269.961
    endloop
  endfacet
  facet normal 0.979579 0.201059 -0
    outer loop
      vertex 14.7463 20 188.16
      vertex 14.5 21.2 200.617
      vertex 14.7463 20 200.617
    endloop
  endfacet
  facet normal 0.979579 0.201059 0
    outer loop
      vertex 14.5 21.2 200.617
      vertex 14.7463 20 188.16
      vertex 14.5 21.2 186.983
    endloop
  endfacet
  facet normal 0.979588 0.201015 -1.35907e-06
    outer loop
      vertex 15.0598 18.4727 267.754
      vertex 14.7463 20 200.617
      vertex 15.0227 18.6535 268.287
    endloop
  endfacet
  facet normal 0.979554 0.201181 2.59163e-06
    outer loop
      vertex 15.1109 18.2239 267.25
      vertex 14.7463 20 200.617
      vertex 15.0598 18.4727 267.754
    endloop
  endfacet
  facet normal 0.979603 0.200942 -4.04842e-06
    outer loop
      vertex 15.175 17.9114 266.782
      vertex 14.7463 20 200.617
      vertex 15.1109 18.2239 267.25
    endloop
  endfacet
  facet normal 0.979583 0.201042 -7.51525e-07
    outer loop
      vertex 15.2511 17.5406 266.359
      vertex 14.7463 20 200.617
      vertex 15.175 17.9114 266.782
    endloop
  endfacet
  facet normal 0.979579 0.201058 -1.36468e-07
    outer loop
      vertex 15.3379 17.1177 265.989
      vertex 14.7463 20 200.617
      vertex 15.2511 17.5406 266.359
    endloop
  endfacet
  facet normal 0.979577 0.201068 2.95025e-07
    outer loop
      vertex 15.4339 16.65 265.676
      vertex 14.7463 20 200.617
      vertex 15.3379 17.1177 265.989
    endloop
  endfacet
  facet normal 0.97956 0.201152 4.82556e-06
    outer loop
      vertex 15.5375 16.1455 265.427
      vertex 14.7463 20 200.617
      vertex 15.4339 16.65 265.676
    endloop
  endfacet
  facet normal 0.979585 0.201031 -2.67823e-06
    outer loop
      vertex 15.6468 15.6129 265.247
      vertex 14.7463 20 200.617
      vertex 15.5375 16.1455 265.427
    endloop
  endfacet
  facet normal 0.979585 0.201032 -2.60482e-06
    outer loop
      vertex 15.76 15.0613 265.137
      vertex 14.7463 20 200.617
      vertex 15.6468 15.6129 265.247
    endloop
  endfacet
  facet normal 0.979582 0.201047 -1.38791e-06
    outer loop
      vertex 15.8752 14.5 265.1
      vertex 14.7463 20 200.617
      vertex 15.76 15.0613 265.137
    endloop
  endfacet
  facet normal 0.979582 0.201047 -1.40361e-06
    outer loop
      vertex 15.9904 13.9387 265.137
      vertex 14.7463 20 200.617
      vertex 15.8752 14.5 265.1
    endloop
  endfacet
  facet normal 0.979585 0.201031 -2.98455e-06
    outer loop
      vertex 16.1036 13.3871 265.247
      vertex 14.7463 20 200.617
      vertex 15.9904 13.9387 265.137
    endloop
  endfacet
  facet normal 0.979578 0.201063 0
    outer loop
      vertex 14.7463 20 200.617
      vertex 17 9.02 186.267
      vertex 14.7463 20 188.16
    endloop
  endfacet
  facet normal 0.979548 0.201212 1.63087e-05
    outer loop
      vertex 16.213 12.8545 265.427
      vertex 14.7463 20 200.617
      vertex 16.1036 13.3871 265.247
    endloop
  endfacet
  facet normal 0.979599 0.200962 -1.23854e-05
    outer loop
      vertex 16.3165 12.35 265.676
      vertex 14.7463 20 200.617
      vertex 16.213 12.8545 265.427
    endloop
  endfacet
  facet normal 0.979577 0.201068 6.10103e-07
    outer loop
      vertex 16.4125 11.8823 265.989
      vertex 14.7463 20 200.617
      vertex 16.3165 12.35 265.676
    endloop
  endfacet
  facet normal 0.979579 0.201057 -7.79934e-07
    outer loop
      vertex 16.4993 11.4594 266.359
      vertex 14.7463 20 200.617
      vertex 16.4125 11.8823 265.989
    endloop
  endfacet
  facet normal 0.979578 0.201063 1.1856e-08
    outer loop
      vertex 14.7463 20 200.617
      vertex 16.4993 11.4594 266.359
      vertex 17 9.02 186.267
    endloop
  endfacet
  facet normal 0.979583 0.201042 6.76432e-07
    outer loop
      vertex 17 9.02 186.267
      vertex 16.4993 11.4594 266.359
      vertex 16.5754 11.0886 266.782
    endloop
  endfacet
  facet normal 0.979544 0.201231 -4.37193e-06
    outer loop
      vertex 17 9.02 186.267
      vertex 16.5754 11.0886 266.782
      vertex 16.6396 10.7761 267.25
    endloop
  endfacet
  facet normal 0.979629 0.200818 4.95644e-06
    outer loop
      vertex 17 9.02 186.267
      vertex 16.6396 10.7761 267.25
      vertex 16.6906 10.5273 267.754
    endloop
  endfacet
  facet normal 0.979588 0.201014 1.17844e-06
    outer loop
      vertex 17 9.02 186.267
      vertex 16.6906 10.5273 267.754
      vertex 16.7277 10.3465 268.287
    endloop
  endfacet
  facet normal 0.979605 0.200934 2.52306e-06
    outer loop
      vertex 17 9.02 186.267
      vertex 16.7277 10.3465 268.287
      vertex 16.7502 10.2368 268.839
    endloop
  endfacet
  facet normal 0.979578 0.201063 0
    outer loop
      vertex 14.7463 20 188.16
      vertex 17 9.02 186.267
      vertex 14.7463 20 186.267
    endloop
  endfacet
  facet normal 0.979377 0.202042 -1.44856e-05
    outer loop
      vertex 16.7578 10.2 269.4
      vertex 17 9.02 186.267
      vertex 16.7502 10.2368 268.839
    endloop
  endfacet
  facet normal 0.979578 0.201063 -0
    outer loop
      vertex 17 9.02 186.267
      vertex 16.7578 10.2 269.4
      vertex 17 9.02 352.533
    endloop
  endfacet
  facet normal -1 0 0
    outer loop
      vertex 3 9 186.267
      vertex 3 9.02 352.533
      vertex 3 9.02 186.267
    endloop
  endfacet
  facet normal -1 -0 0
    outer loop
      vertex 3 9.02 352.533
      vertex 3 9 186.267
      vertex 3 9 352.533
    endloop
  endfacet
  facet normal 0 -1 0
    outer loop
      vertex 3 9 186.267
      vertex 17 9 352.533
      vertex 3 9 352.533
    endloop
  endfacet
  facet normal 0 -1 -0
    outer loop
      vertex 17 9 352.533
      vertex 3 9 186.267
      vertex 17 9 186.267
    endloop
  endfacet
  facet normal 1 -0 0
    outer loop
      vertex 17 9 352.533
      vertex 17 9.02 186.267
      vertex 17 9.02 352.533
    endloop
  endfacet
  facet normal 1 0 0
    outer loop
      vertex 17 9.02 186.267
      vertex 17 9 352.533
      vertex 17 9 186.267
    endloop
  endfacet
  facet normal -0.979578 0.201062 0
    outer loop
      vertex 3 9.02 186.267
      vertex 5.25369 20 188.16
      vertex 5.25369 20 186.267
    endloop
  endfacet
  facet normal -0.979578 0.201062 0
    outer loop
      vertex 5.25369 20 188.16
      vertex 3 9.02 186.267
      vertex 5.25369 20 200.617
    endloop
  endfacet
  facet normal -0.979579 0.201059 0
    outer loop
      vertex 5.25369 20 200.617
      vertex 5.00739 18.8 269.4
      vertex 5.25369 20 352.533
    endloop
  endfacet
  facet normal -0.979592 0.200994 -1.17389e-06
    outer loop
      vertex 5.25369 20 200.617
      vertex 4.99984 18.7632 268.839
      vertex 5.00739 18.8 269.4
    endloop
  endfacet
  facet normal -0.979573 0.20109 6.46638e-07
    outer loop
      vertex 5.25369 20 200.617
      vertex 4.97732 18.6535 268.287
      vertex 4.99984 18.7632 268.839
    endloop
  endfacet
  facet normal -0.979578 0.201063 6.9503e-08
    outer loop
      vertex 5.25369 20 200.617
      vertex 4.94021 18.4727 267.754
      vertex 4.97732 18.6535 268.287
    endloop
  endfacet
  facet normal -0.979576 0.201072 3.02e-07
    outer loop
      vertex 5.25369 20 200.617
      vertex 4.88914 18.2239 267.25
      vertex 4.94021 18.4727 267.754
    endloop
  endfacet
  facet normal -0.97958 0.201057 -1.27616e-07
    outer loop
      vertex 5.25369 20 200.617
      vertex 4.825 17.9114 266.782
      vertex 4.88914 18.2239 267.25
    endloop
  endfacet
  facet normal -0.979573 0.201091 1.00125e-06
    outer loop
      vertex 5.25369 20 200.617
      vertex 4.74888 17.5406 266.359
      vertex 4.825 17.9114 266.782
    endloop
  endfacet
  facet normal -0.979579 0.201058 -2.8075e-07
    outer loop
      vertex 5.25369 20 200.617
      vertex 4.66208 17.1177 265.989
      vertex 4.74888 17.5406 266.359
    endloop
  endfacet
  facet normal -0.979581 0.201048 -7.47524e-07
    outer loop
      vertex 5.25369 20 200.617
      vertex 4.56609 16.65 265.676
      vertex 4.66208 17.1177 265.989
    endloop
  endfacet
  facet normal -0.979582 0.201043 -1.02451e-06
    outer loop
      vertex 5.25369 20 200.617
      vertex 4.46255 16.1455 265.427
      vertex 4.56609 16.65 265.676
    endloop
  endfacet
  facet normal -0.979578 0.201065 3.55425e-07
    outer loop
      vertex 5.25369 20 200.617
      vertex 4.35323 15.6129 265.247
      vertex 4.46255 16.1455 265.427
    endloop
  endfacet
  facet normal -0.979574 0.201082 1.56149e-06
    outer loop
      vertex 5.25369 20 200.617
      vertex 4.24 15.0613 265.137
      vertex 4.35323 15.6129 265.247
    endloop
  endfacet
  facet normal -0.979578 0.201064 9.2312e-08
    outer loop
      vertex 5.25369 20 200.617
      vertex 4.12479 14.5 265.1
      vertex 4.24 15.0613 265.137
    endloop
  endfacet
  facet normal -0.979578 0.201062 1.67532e-07
    outer loop
      vertex 3.50071 11.4594 266.359
      vertex 5.25369 20 200.617
      vertex 3 9.02 186.267
    endloop
  endfacet
  facet normal -0.979582 0.201047 -1.40361e-06
    outer loop
      vertex 5.25369 20 200.617
      vertex 4.00959 13.9387 265.137
      vertex 4.12479 14.5 265.1
    endloop
  endfacet
  facet normal -0.979574 0.201083 2.11606e-06
    outer loop
      vertex 5.25369 20 200.617
      vertex 3.89636 13.3871 265.247
      vertex 4.00959 13.9387 265.137
    endloop
  endfacet
  facet normal -0.979578 0.201066 2.43777e-07
    outer loop
      vertex 5.25369 20 200.617
      vertex 3.78704 12.8545 265.427
      vertex 3.89636 13.3871 265.247
    endloop
  endfacet
  facet normal -0.979583 0.201041 -2.53011e-06
    outer loop
      vertex 5.25369 20 200.617
      vertex 3.6835 12.35 265.676
      vertex 3.78704 12.8545 265.427
    endloop
  endfacet
  facet normal -0.979582 0.201047 -1.89961e-06
    outer loop
      vertex 5.25369 20 200.617
      vertex 3.58751 11.8823 265.989
      vertex 3.6835 12.35 265.676
    endloop
  endfacet
  facet normal -0.979579 0.201058 -4.43712e-07
    outer loop
      vertex 5.25369 20 200.617
      vertex 3.50071 11.4594 266.359
      vertex 3.58751 11.8823 265.989
    endloop
  endfacet
  facet normal -0.979572 0.201092 -7.6058e-07
    outer loop
      vertex 3.50071 11.4594 266.359
      vertex 3 9.02 186.267
      vertex 3.42459 11.0886 266.782
    endloop
  endfacet
  facet normal -0.97958 0.201057 1.63869e-07
    outer loop
      vertex 3.42459 11.0886 266.782
      vertex 3 9.02 186.267
      vertex 3.36045 10.7761 267.25
    endloop
  endfacet
  facet normal -0.979576 0.201073 -1.89408e-07
    outer loop
      vertex 3.36045 10.7761 267.25
      vertex 3 9.02 186.267
      vertex 3.30938 10.5273 267.754
    endloop
  endfacet
  facet normal -0.979578 0.201063 6.30512e-11
    outer loop
      vertex 3.30938 10.5273 267.754
      vertex 3 9.02 186.267
      vertex 3.27227 10.3465 268.287
    endloop
  endfacet
  facet normal -0.979593 0.200992 1.04244e-06
    outer loop
      vertex 3.24975 10.2368 268.839
      vertex 3 9.02 186.267
      vertex 3.2422 10.2 269.4
    endloop
  endfacet
  facet normal -0.979573 0.201091 -4.79325e-07
    outer loop
      vertex 3.27227 10.3465 268.287
      vertex 3 9.02 186.267
      vertex 3.24975 10.2368 268.839
    endloop
  endfacet
  facet normal -0.979578 0.201066 0
    outer loop
      vertex 5.25369 20 188.16
      vertex 5.5 21.2 200.617
      vertex 5.5 21.2 186.983
    endloop
  endfacet
  facet normal -0.979578 0.201066 0
    outer loop
      vertex 5.5 21.2 200.617
      vertex 5.25369 20 188.16
      vertex 5.25369 20 200.617
    endloop
  endfacet
  facet normal -0.979593 0.200992 1.00781e-06
    outer loop
      vertex 4.99984 18.7632 269.961
      vertex 5.25369 20 352.533
      vertex 5.00739 18.8 269.4
    endloop
  endfacet
  facet normal -0.979573 0.201091 -5.42136e-07
    outer loop
      vertex 4.97732 18.6535 270.513
      vertex 5.25369 20 352.533
      vertex 4.99984 18.7632 269.961
    endloop
  endfacet
  facet normal -0.979578 0.201063 -5.79043e-08
    outer loop
      vertex 4.94021 18.4727 271.046
      vertex 5.25369 20 352.533
      vertex 4.97732 18.6535 270.513
    endloop
  endfacet
  facet normal -0.979576 0.201073 -2.50763e-07
    outer loop
      vertex 4.88914 18.2239 271.55
      vertex 5.25369 20 352.533
      vertex 4.94021 18.4727 271.046
    endloop
  endfacet
  facet normal -0.97958 0.201057 1.05722e-07
    outer loop
      vertex 4.825 17.9114 272.018
      vertex 5.25369 20 352.533
      vertex 4.88914 18.2239 271.55
    endloop
  endfacet
  facet normal -0.979572 0.201091 -8.27931e-07
    outer loop
      vertex 4.74888 17.5406 272.441
      vertex 5.25369 20 352.533
      vertex 4.825 17.9114 272.018
    endloop
  endfacet
  facet normal -0.979579 0.201058 2.31764e-07
    outer loop
      vertex 4.66208 17.1177 272.811
      vertex 5.25369 20 352.533
      vertex 4.74888 17.5406 272.441
    endloop
  endfacet
  facet normal -0.979581 0.201048 6.16148e-07
    outer loop
      vertex 4.56609 16.65 273.124
      vertex 5.25369 20 352.533
      vertex 4.66208 17.1177 272.811
    endloop
  endfacet
  facet normal -0.979582 0.201043 8.43146e-07
    outer loop
      vertex 4.46255 16.1455 273.373
      vertex 5.25369 20 352.533
      vertex 4.56609 16.65 273.124
    endloop
  endfacet
  facet normal -0.979578 0.201065 -2.92037e-07
    outer loop
      vertex 4.35323 15.6129 273.553
      vertex 5.25369 20 352.533
      vertex 4.46255 16.1455 273.373
    endloop
  endfacet
  facet normal -0.979574 0.201082 -1.28089e-06
    outer loop
      vertex 4.24 15.0613 273.663
      vertex 5.25369 20 352.533
      vertex 4.35323 15.6129 273.553
    endloop
  endfacet
  facet normal -0.979578 0.201064 -7.55853e-08
    outer loop
      vertex 4.12479 14.5 273.7
      vertex 5.25369 20 352.533
      vertex 4.24 15.0613 273.663
    endloop
  endfacet
  facet normal -0.979582 0.201047 -1.07159e-06
    outer loop
      vertex 3 9.02 352.533
      vertex 4.12479 14.5 273.7
      vertex 4.00959 13.9387 273.663
    endloop
  endfacet
  facet normal -0.979574 0.201082 1.21334e-06
    outer loop
      vertex 3 9.02 352.533
      vertex 4.00959 13.9387 273.663
      vertex 3.89636 13.3871 273.553
    endloop
  endfacet
  facet normal -0.979578 0.201065 2.29425e-07
    outer loop
      vertex 3 9.02 352.533
      vertex 3.89636 13.3871 273.553
      vertex 3.78704 12.8545 273.373
    endloop
  endfacet
  facet normal -0.979582 0.201043 -8.99545e-07
    outer loop
      vertex 3 9.02 352.533
      vertex 3.78704 12.8545 273.373
      vertex 3.6835 12.35 273.124
    endloop
  endfacet
  facet normal -0.979581 0.201048 -6.73461e-07
    outer loop
      vertex 3 9.02 352.533
      vertex 3.6835 12.35 273.124
      vertex 3.58751 11.8823 272.811
    endloop
  endfacet
  facet normal -0.979579 0.201058 -2.91253e-07
    outer loop
      vertex 3 9.02 352.533
      vertex 3.58751 11.8823 272.811
      vertex 3.50071 11.4594 272.441
    endloop
  endfacet
  facet normal -0.979572 0.201092 7.6058e-07
    outer loop
      vertex 3 9.02 352.533
      vertex 3.50071 11.4594 272.441
      vertex 3.42459 11.0886 272.018
    endloop
  endfacet
  facet normal -0.97958 0.201057 -1.63869e-07
    outer loop
      vertex 3 9.02 352.533
      vertex 3.42459 11.0886 272.018
      vertex 3.36045 10.7761 271.55
    endloop
  endfacet
  facet normal -0.979576 0.201073 1.89408e-07
    outer loop
      vertex 3 9.02 352.533
      vertex 3.36045 10.7761 271.55
      vertex 3.30938 10.5273 271.046
    endloop
  endfacet
  facet normal -0.979578 0.201063 -6.30512e-11
    outer loop
      vertex 3 9.02 352.533
      vertex 3.30938 10.5273 271.046
      vertex 3.27227 10.3465 270.513
    endloop
  endfacet
  facet normal -0.979573 0.201091 4.79325e-07
    outer loop
      vertex 3 9.02 352.533
      vertex 3.27227 10.3465 270.513
      vertex 3.24975 10.2368 269.961
    endloop
  endfacet
  facet normal -0.979578 0.201062 3.05557e-08
    outer loop
      vertex 4.12479 14.5 273.7
      vertex 3 9.02 352.533
      vertex 5.25369 20 352.533
    endloop
  endfacet
  facet normal -0.979593 0.200992 -1.04244e-06
    outer loop
      vertex 3.2422 10.2 269.4
      vertex 3 9.02 352.533
      vertex 3.24975 10.2368 269.961
    endloop
  endfacet
  facet normal -0.979578 0.201063 0
    outer loop
      vertex 3 9.02 352.533
      vertex 3.2422 10.2 269.4
      vertex 3 9.02 186.267
    endloop
  endfacet
  facet normal 0 -0.947 0.321234
    outer loop
      vertex 4.94021 18.4727 267.754
      vertex 15.0227 18.6535 268.287
      vertex 4.97732 18.6535 268.287
    endloop
  endfacet
  facet normal 0 -0.947 0.321234
    outer loop
      vertex 15.0227 18.6535 268.287
      vertex 4.94021 18.4727 267.754
      vertex 15.0598 18.4727 267.754
    endloop
  endfacet
  facet normal 0 0.896693 -0.442653
    outer loop
      vertex 16.6906 10.5273 271.046
      vertex 3.36045 10.7761 271.55
      vertex 16.6396 10.7761 271.55
    endloop
  endfacet
  facet normal 0 0.896693 -0.442653
    outer loop
      vertex 3.36045 10.7761 271.55
      vertex 16.6906 10.5273 271.046
      vertex 3.30938 10.5273 271.046
    endloop
  endfacet
  facet normal -0 0.0657757 0.997834
    outer loop
      vertex 4.12479 14.5 265.1
      vertex 15.9904 13.9387 265.137
      vertex 15.8752 14.5 265.1
    endloop
  endfacet
  facet normal 0 0.0657757 0.997834
    outer loop
      vertex 15.9904 13.9387 265.137
      vertex 4.12479 14.5 265.1
      vertex 4.00959 13.9387 265.137
    endloop
  endfacet
  facet normal 0 -0.0657757 0.997834
    outer loop
      vertex 4.24 15.0613 265.137
      vertex 15.8752 14.5 265.1
      vertex 15.76 15.0613 265.137
    endloop
  endfacet
  facet normal 0 -0.0657757 0.997834
    outer loop
      vertex 15.8752 14.5 265.1
      vertex 4.24 15.0613 265.137
      vertex 4.12479 14.5 265.1
    endloop
  endfacet
  facet normal 0 -0.896693 0.442653
    outer loop
      vertex 4.88914 18.2239 267.25
      vertex 15.0598 18.4727 267.754
      vertex 4.94021 18.4727 267.754
    endloop
  endfacet
  facet normal 0 -0.896693 0.442653
    outer loop
      vertex 15.0598 18.4727 267.754
      vertex 4.88914 18.2239 267.25
      vertex 15.1109 18.2239 267.25
    endloop
  endfacet
  facet normal 0 -0.320174 -0.947359
    outer loop
      vertex 15.6468 15.6129 273.553
      vertex 4.46255 16.1455 273.373
      vertex 15.5375 16.1455 273.373
    endloop
  endfacet
  facet normal 0 -0.320174 -0.947359
    outer loop
      vertex 4.46255 16.1455 273.373
      vertex 15.6468 15.6129 273.553
      vertex 4.35323 15.6129 273.553
    endloop
  endfacet
  facet normal 0 0.947 0.321234
    outer loop
      vertex 16.6906 10.5273 267.754
      vertex 3.27227 10.3465 268.287
      vertex 16.7277 10.3465 268.287
    endloop
  endfacet
  facet normal 0 0.947 0.321234
    outer loop
      vertex 3.27227 10.3465 268.287
      vertex 16.6906 10.5273 267.754
      vertex 3.30938 10.5273 267.754
    endloop
  endfacet
  facet normal 0 -0.751982 0.659184
    outer loop
      vertex 4.74888 17.5406 266.359
      vertex 15.175 17.9114 266.782
      vertex 4.825 17.9114 266.782
    endloop
  endfacet
  facet normal 0 -0.751982 0.659184
    outer loop
      vertex 15.175 17.9114 266.782
      vertex 4.74888 17.5406 266.359
      vertex 15.2511 17.5406 266.359
    endloop
  endfacet
  facet normal 0 -0.83164 0.555315
    outer loop
      vertex 4.825 17.9114 266.782
      vertex 15.1109 18.2239 267.25
      vertex 4.88914 18.2239 267.25
    endloop
  endfacet
  facet normal 0 -0.83164 0.555315
    outer loop
      vertex 15.1109 18.2239 267.25
      vertex 4.825 17.9114 266.782
      vertex 15.175 17.9114 266.782
    endloop
  endfacet
  facet normal -0 0.320174 0.947359
    outer loop
      vertex 3.89636 13.3871 265.247
      vertex 16.213 12.8545 265.427
      vertex 16.1036 13.3871 265.247
    endloop
  endfacet
  facet normal 0 0.320174 0.947359
    outer loop
      vertex 16.213 12.8545 265.427
      vertex 3.89636 13.3871 265.247
      vertex 3.78704 12.8545 265.427
    endloop
  endfacet
  facet normal -0 0.556176 0.831065
    outer loop
      vertex 3.6835 12.35 265.676
      vertex 16.4125 11.8823 265.989
      vertex 16.3165 12.35 265.676
    endloop
  endfacet
  facet normal 0 0.556176 0.831065
    outer loop
      vertex 16.4125 11.8823 265.989
      vertex 3.6835 12.35 265.676
      vertex 3.58751 11.8823 265.989
    endloop
  endfacet
  facet normal 0 0.658467 -0.75261
    outer loop
      vertex 16.4993 11.4594 272.441
      vertex 3.58751 11.8823 272.811
      vertex 16.4125 11.8823 272.811
    endloop
  endfacet
  facet normal 0 0.658467 -0.75261
    outer loop
      vertex 3.58751 11.8823 272.811
      vertex 16.4993 11.4594 272.441
      vertex 3.50071 11.4594 272.441
    endloop
  endfacet
  facet normal 0 -0.83164 -0.555315
    outer loop
      vertex 4.88914 18.2239 271.55
      vertex 15.175 17.9114 272.018
      vertex 4.825 17.9114 272.018
    endloop
  endfacet
  facet normal 0 -0.83164 -0.555315
    outer loop
      vertex 15.175 17.9114 272.018
      vertex 4.88914 18.2239 271.55
      vertex 15.1109 18.2239 271.55
    endloop
  endfacet
  facet normal 0 0.997855 0.0654565
    outer loop
      vertex 16.7502 10.2368 268.839
      vertex 3.2422 10.2 269.4
      vertex 16.7578 10.2 269.4
    endloop
  endfacet
  facet normal 0 0.997855 0.0654565
    outer loop
      vertex 3.2422 10.2 269.4
      vertex 16.7502 10.2368 268.839
      vertex 3.24975 10.2368 268.839
    endloop
  endfacet
  facet normal 0 0.980819 -0.19492
    outer loop
      vertex 16.7502 10.2368 269.961
      vertex 3.27227 10.3465 270.513
      vertex 16.7277 10.3465 270.513
    endloop
  endfacet
  facet normal 0 0.980819 -0.19492
    outer loop
      vertex 3.27227 10.3465 270.513
      vertex 16.7502 10.2368 269.961
      vertex 3.24975 10.2368 269.961
    endloop
  endfacet
  facet normal 0 -0.195569 0.98069
    outer loop
      vertex 4.35323 15.6129 265.247
      vertex 15.76 15.0613 265.137
      vertex 15.6468 15.6129 265.247
    endloop
  endfacet
  facet normal 0 -0.195569 0.98069
    outer loop
      vertex 15.76 15.0613 265.137
      vertex 4.35323 15.6129 265.247
      vertex 4.24 15.0613 265.137
    endloop
  endfacet
  facet normal 0 -0.442586 0.896726
    outer loop
      vertex 4.56609 16.65 265.676
      vertex 15.5375 16.1455 265.427
      vertex 15.4339 16.65 265.676
    endloop
  endfacet
  facet normal 0 -0.442586 0.896726
    outer loop
      vertex 15.5375 16.1455 265.427
      vertex 4.56609 16.65 265.676
      vertex 4.46255 16.1455 265.427
    endloop
  endfacet
  facet normal 0 -0.980819 0.19492
    outer loop
      vertex 4.97732 18.6535 268.287
      vertex 15.0002 18.7632 268.839
      vertex 4.99984 18.7632 268.839
    endloop
  endfacet
  facet normal 0 -0.980819 0.19492
    outer loop
      vertex 15.0002 18.7632 268.839
      vertex 4.97732 18.6535 268.287
      vertex 15.0227 18.6535 268.287
    endloop
  endfacet
  facet normal 0 0.896693 0.442653
    outer loop
      vertex 16.6396 10.7761 267.25
      vertex 3.30938 10.5273 267.754
      vertex 16.6906 10.5273 267.754
    endloop
  endfacet
  facet normal 0 0.896693 0.442653
    outer loop
      vertex 3.30938 10.5273 267.754
      vertex 16.6396 10.7761 267.25
      vertex 3.36045 10.7761 267.25
    endloop
  endfacet
  facet normal 0 -0.556176 0.831065
    outer loop
      vertex 4.66208 17.1177 265.989
      vertex 15.4339 16.65 265.676
      vertex 15.3379 17.1177 265.989
    endloop
  endfacet
  facet normal 0 -0.556176 0.831065
    outer loop
      vertex 15.4339 16.65 265.676
      vertex 4.66208 17.1177 265.989
      vertex 4.56609 16.65 265.676
    endloop
  endfacet
  facet normal 0 -0.751982 -0.659184
    outer loop
      vertex 4.825 17.9114 272.018
      vertex 15.2511 17.5406 272.441
      vertex 4.74888 17.5406 272.441
    endloop
  endfacet
  facet normal 0 -0.751982 -0.659184
    outer loop
      vertex 15.2511 17.5406 272.441
      vertex 4.825 17.9114 272.018
      vertex 15.175 17.9114 272.018
    endloop
  endfacet
  facet normal 0 0.195569 -0.98069
    outer loop
      vertex 16.1036 13.3871 273.553
      vertex 4.00959 13.9387 273.663
      vertex 15.9904 13.9387 273.663
    endloop
  endfacet
  facet normal 0 0.195569 -0.98069
    outer loop
      vertex 4.00959 13.9387 273.663
      vertex 16.1036 13.3871 273.553
      vertex 3.89636 13.3871 273.553
    endloop
  endfacet
  facet normal 0 0.980819 0.19492
    outer loop
      vertex 16.7277 10.3465 268.287
      vertex 3.24975 10.2368 268.839
      vertex 16.7502 10.2368 268.839
    endloop
  endfacet
  facet normal 0 0.980819 0.19492
    outer loop
      vertex 3.24975 10.2368 268.839
      vertex 16.7277 10.3465 268.287
      vertex 3.27227 10.3465 268.287
    endloop
  endfacet
  facet normal 0 -0.896693 -0.442653
    outer loop
      vertex 4.94021 18.4727 271.046
      vertex 15.1109 18.2239 271.55
      vertex 4.88914 18.2239 271.55
    endloop
  endfacet
  facet normal 0 -0.896693 -0.442653
    outer loop
      vertex 15.1109 18.2239 271.55
      vertex 4.94021 18.4727 271.046
      vertex 15.0598 18.4727 271.046
    endloop
  endfacet
  facet normal 0 0.751982 0.659184
    outer loop
      vertex 16.4993 11.4594 266.359
      vertex 3.42459 11.0886 266.782
      vertex 16.5754 11.0886 266.782
    endloop
  endfacet
  facet normal 0 0.751982 0.659184
    outer loop
      vertex 3.42459 11.0886 266.782
      vertex 16.4993 11.4594 266.359
      vertex 3.50071 11.4594 266.359
    endloop
  endfacet
  facet normal 0 0.997855 -0.0654565
    outer loop
      vertex 16.7578 10.2 269.4
      vertex 3.24975 10.2368 269.961
      vertex 16.7502 10.2368 269.961
    endloop
  endfacet
  facet normal 0 0.997855 -0.0654565
    outer loop
      vertex 3.24975 10.2368 269.961
      vertex 16.7578 10.2 269.4
      vertex 3.2422 10.2 269.4
    endloop
  endfacet
  facet normal 0 -0.556176 -0.831065
    outer loop
      vertex 15.4339 16.65 273.124
      vertex 4.66208 17.1177 272.811
      vertex 15.3379 17.1177 272.811
    endloop
  endfacet
  facet normal 0 -0.556176 -0.831065
    outer loop
      vertex 4.66208 17.1177 272.811
      vertex 15.4339 16.65 273.124
      vertex 4.56609 16.65 273.124
    endloop
  endfacet
  facet normal 0 -0.980819 -0.19492
    outer loop
      vertex 4.99984 18.7632 269.961
      vertex 15.0227 18.6535 270.513
      vertex 4.97732 18.6535 270.513
    endloop
  endfacet
  facet normal 0 -0.980819 -0.19492
    outer loop
      vertex 15.0227 18.6535 270.513
      vertex 4.99984 18.7632 269.961
      vertex 15.0002 18.7632 269.961
    endloop
  endfacet
  facet normal 0 -0.997855 -0.0654565
    outer loop
      vertex 5.00739 18.8 269.4
      vertex 15.0002 18.7632 269.961
      vertex 4.99984 18.7632 269.961
    endloop
  endfacet
  facet normal 0 -0.997855 -0.0654565
    outer loop
      vertex 15.0002 18.7632 269.961
      vertex 5.00739 18.8 269.4
      vertex 14.9926 18.8 269.4
    endloop
  endfacet
  facet normal 0 -0.658467 0.75261
    outer loop
      vertex 4.74888 17.5406 266.359
      vertex 15.3379 17.1177 265.989
      vertex 15.2511 17.5406 266.359
    endloop
  endfacet
  facet normal 0 -0.658467 0.75261
    outer loop
      vertex 15.3379 17.1177 265.989
      vertex 4.74888 17.5406 266.359
      vertex 4.66208 17.1177 265.989
    endloop
  endfacet
  facet normal -0 0.195569 0.98069
    outer loop
      vertex 4.00959 13.9387 265.137
      vertex 16.1036 13.3871 265.247
      vertex 15.9904 13.9387 265.137
    endloop
  endfacet
  facet normal 0 0.195569 0.98069
    outer loop
      vertex 16.1036 13.3871 265.247
      vertex 4.00959 13.9387 265.137
      vertex 3.89636 13.3871 265.247
    endloop
  endfacet
  facet normal 0 0.442586 -0.896726
    outer loop
      vertex 16.3165 12.35 273.124
      vertex 3.78704 12.8545 273.373
      vertex 16.213 12.8545 273.373
    endloop
  endfacet
  facet normal 0 0.442586 -0.896726
    outer loop
      vertex 3.78704 12.8545 273.373
      vertex 16.3165 12.35 273.124
      vertex 3.6835 12.35 273.124
    endloop
  endfacet
  facet normal 0 -0.442586 -0.896726
    outer loop
      vertex 15.5375 16.1455 273.373
      vertex 4.56609 16.65 273.124
      vertex 15.4339 16.65 273.124
    endloop
  endfacet
  facet normal 0 -0.442586 -0.896726
    outer loop
      vertex 4.56609 16.65 273.124
      vertex 15.5375 16.1455 273.373
      vertex 4.46255 16.1455 273.373
    endloop
  endfacet
  facet normal 0 0.751982 -0.659184
    outer loop
      vertex 16.5754 11.0886 272.018
      vertex 3.50071 11.4594 272.441
      vertex 16.4993 11.4594 272.441
    endloop
  endfacet
  facet normal 0 0.751982 -0.659184
    outer loop
      vertex 3.50071 11.4594 272.441
      vertex 16.5754 11.0886 272.018
      vertex 3.42459 11.0886 272.018
    endloop
  endfacet
  facet normal 0 0.0657757 -0.997834
    outer loop
      vertex 15.9904 13.9387 273.663
      vertex 4.12479 14.5 273.7
      vertex 15.8752 14.5 273.7
    endloop
  endfacet
  facet normal 0 0.0657757 -0.997834
    outer loop
      vertex 4.12479 14.5 273.7
      vertex 15.9904 13.9387 273.663
      vertex 4.00959 13.9387 273.663
    endloop
  endfacet
  facet normal 0 0.83164 0.555315
    outer loop
      vertex 16.5754 11.0886 266.782
      vertex 3.36045 10.7761 267.25
      vertex 16.6396 10.7761 267.25
    endloop
  endfacet
  facet normal 0 0.83164 0.555315
    outer loop
      vertex 3.36045 10.7761 267.25
      vertex 16.5754 11.0886 266.782
      vertex 3.42459 11.0886 266.782
    endloop
  endfacet
  facet normal -0 0.442586 0.896726
    outer loop
      vertex 3.78704 12.8545 265.427
      vertex 16.3165 12.35 265.676
      vertex 16.213 12.8545 265.427
    endloop
  endfacet
  facet normal 0 0.442586 0.896726
    outer loop
      vertex 16.3165 12.35 265.676
      vertex 3.78704 12.8545 265.427
      vertex 3.6835 12.35 265.676
    endloop
  endfacet
  facet normal 0 -0.320174 0.947359
    outer loop
      vertex 4.46255 16.1455 265.427
      vertex 15.6468 15.6129 265.247
      vertex 15.5375 16.1455 265.427
    endloop
  endfacet
  facet normal 0 -0.320174 0.947359
    outer loop
      vertex 15.6468 15.6129 265.247
      vertex 4.46255 16.1455 265.427
      vertex 4.35323 15.6129 265.247
    endloop
  endfacet
  facet normal 0 -0.947 -0.321234
    outer loop
      vertex 4.97732 18.6535 270.513
      vertex 15.0598 18.4727 271.046
      vertex 4.94021 18.4727 271.046
    endloop
  endfacet
  facet normal 0 -0.947 -0.321234
    outer loop
      vertex 15.0598 18.4727 271.046
      vertex 4.97732 18.6535 270.513
      vertex 15.0227 18.6535 270.513
    endloop
  endfacet
  facet normal 0 0.320174 -0.947359
    outer loop
      vertex 16.213 12.8545 273.373
      vertex 3.89636 13.3871 273.553
      vertex 16.1036 13.3871 273.553
    endloop
  endfacet
  facet normal 0 0.320174 -0.947359
    outer loop
      vertex 3.89636 13.3871 273.553
      vertex 16.213 12.8545 273.373
      vertex 3.78704 12.8545 273.373
    endloop
  endfacet
  facet normal 0 -0.0657757 -0.997834
    outer loop
      vertex 15.8752 14.5 273.7
      vertex 4.24 15.0613 273.663
      vertex 15.76 15.0613 273.663
    endloop
  endfacet
  facet normal 0 -0.0657757 -0.997834
    outer loop
      vertex 4.24 15.0613 273.663
      vertex 15.8752 14.5 273.7
      vertex 4.12479 14.5 273.7
    endloop
  endfacet
  facet normal 0 0.947 -0.321234
    outer loop
      vertex 16.7277 10.3465 270.513
      vertex 3.30938 10.5273 271.046
      vertex 16.6906 10.5273 271.046
    endloop
  endfacet
  facet normal 0 0.947 -0.321234
    outer loop
      vertex 3.30938 10.5273 271.046
      vertex 16.7277 10.3465 270.513
      vertex 3.27227 10.3465 270.513
    endloop
  endfacet
  facet normal 0 -0.658467 -0.75261
    outer loop
      vertex 15.3379 17.1177 272.811
      vertex 4.74888 17.5406 272.441
      vertex 15.2511 17.5406 272.441
    endloop
  endfacet
  facet normal 0 -0.658467 -0.75261
    outer loop
      vertex 4.74888 17.5406 272.441
      vertex 15.3379 17.1177 272.811
      vertex 4.66208 17.1177 272.811
    endloop
  endfacet
  facet normal 0 -0.195569 -0.98069
    outer loop
      vertex 15.76 15.0613 273.663
      vertex 4.35323 15.6129 273.553
      vertex 15.6468 15.6129 273.553
    endloop
  endfacet
  facet normal 0 -0.195569 -0.98069
    outer loop
      vertex 4.35323 15.6129 273.553
      vertex 15.76 15.0613 273.663
      vertex 4.24 15.0613 273.663
    endloop
  endfacet
  facet normal 0 -0.997855 0.0654565
    outer loop
      vertex 4.99984 18.7632 268.839
      vertex 14.9926 18.8 269.4
      vertex 5.00739 18.8 269.4
    endloop
  endfacet
  facet normal 0 -0.997855 0.0654565
    outer loop
      vertex 14.9926 18.8 269.4
      vertex 4.99984 18.7632 268.839
      vertex 15.0002 18.7632 268.839
    endloop
  endfacet
  facet normal -0 0.658467 0.75261
    outer loop
      vertex 3.58751 11.8823 265.989
      vertex 16.4993 11.4594 266.359
      vertex 16.4125 11.8823 265.989
    endloop
  endfacet
  facet normal 0 0.658467 0.75261
    outer loop
      vertex 16.4993 11.4594 266.359
      vertex 3.58751 11.8823 265.989
      vertex 3.50071 11.4594 266.359
    endloop
  endfacet
  facet normal 0 0.83164 -0.555315
    outer loop
      vertex 16.6396 10.7761 271.55
      vertex 3.42459 11.0886 272.018
      vertex 16.5754 11.0886 272.018
    endloop
  endfacet
  facet normal 0 0.83164 -0.555315
    outer loop
      vertex 3.42459 11.0886 272.018
      vertex 16.6396 10.7761 271.55
      vertex 3.36045 10.7761 271.55
    endloop
  endfacet
  facet normal 0 0.556176 -0.831065
    outer loop
      vertex 16.4125 11.8823 272.811
      vertex 3.6835 12.35 273.124
      vertex 16.3165 12.35 273.124
    endloop
  endfacet
  facet normal 0 0.556176 -0.831065
    outer loop
      vertex 3.6835 12.35 273.124
      vertex 16.4125 11.8823 272.811
      vertex 3.58751 11.8823 272.811
    endloop
  endfacet
endsolid OpenSCAD_Model
