solid OpenSCAD_Model
  facet normal 0 1 0
    outer loop
      vertex 365.4 468.2 26.6
      vertex 365.4 468.2 191.667
      vertex 372.6 468.2 191.667
    endloop
  endfacet
  facet normal 0 1 0
    outer loop
      vertex 365.4 468.2 191.667
      vertex 365.4 468.2 26.6
      vertex 354.4 468.2 191.667
    endloop
  endfacet
  facet normal 0 1 0
    outer loop
      vertex 354.4 468.2 26.6
      vertex 354.4 468.2 191.667
      vertex 365.4 468.2 26.6
    endloop
  endfacet
  facet normal 0 1 -0
    outer loop
      vertex 372.6 468.2 25.4
      vertex 365.4 468.2 26.6
      vertex 372.6 468.2 191.667
    endloop
  endfacet
  facet normal 0 1 0
    outer loop
      vertex 365.4 468.2 26.6
      vertex 372.6 468.2 25.4
      vertex 365.673 468.2 25.4
    endloop
  endfacet
  facet normal 0 1 -0
    outer loop
      vertex 368.9 468.2 209.647
      vertex 350.9 468.2 209.667
      vertex 368.9 468.2 209.667
    endloop
  endfacet
  facet normal 0 1 0
    outer loop
      vertex 368.9 468.2 209.647
      vertex 350.9 468.2 209.647
      vertex 350.9 468.2 209.667
    endloop
  endfacet
  facet normal 0 1 -0
    outer loop
      vertex 365.4 468.2 191.667
      vertex 350.9 468.2 209.647
      vertex 368.9 468.2 209.647
    endloop
  endfacet
  facet normal 0 1 0
    outer loop
      vertex 350.9 468.2 209.647
      vertex 365.4 468.2 191.667
      vertex 354.4 468.2 191.667
    endloop
  endfacet
  facet normal 0 1 0
    outer loop
      vertex 354.4 468.2 191.667
      vertex 354.4 468.2 26.6
      vertex 347.2 468.2 191.667
    endloop
  endfacet
  facet normal 0 1 0
    outer loop
      vertex 347.2 468.2 25.4
      vertex 354.4 468.2 26.6
      vertex 354.127 468.2 25.4
    endloop
  endfacet
  facet normal 0 1 0
    outer loop
      vertex 354.4 468.2 26.6
      vertex 347.2 468.2 25.4
      vertex 347.2 468.2 191.667
    endloop
  endfacet
  facet normal 1 -0 0
    outer loop
      vertex 372.6 320.6 191.667
      vertex 372.6 468.2 25.4
      vertex 372.6 468.2 191.667
    endloop
  endfacet
  facet normal 1 0 0
    outer loop
      vertex 372.6 468.2 25.4
      vertex 372.6 320.6 191.667
      vertex 372.6 320.6 25.4
    endloop
  endfacet
  facet normal -1 0 0
    outer loop
      vertex 347.2 320.6 25.4
      vertex 347.2 468.2 191.667
      vertex 347.2 468.2 25.4
    endloop
  endfacet
  facet normal -1 -0 0
    outer loop
      vertex 347.2 468.2 191.667
      vertex 347.2 320.6 25.4
      vertex 347.2 320.6 191.667
    endloop
  endfacet
  facet normal 0 -1 0
    outer loop
      vertex 365.75 320.6 25.4
      vertex 372.6 320.6 191.667
      vertex 365.75 320.6 191.667
    endloop
  endfacet
  facet normal 0 -1 -0
    outer loop
      vertex 372.6 320.6 191.667
      vertex 365.75 320.6 25.4
      vertex 372.6 320.6 25.4
    endloop
  endfacet
  facet normal 0 -1 0
    outer loop
      vertex 347.2 320.6 25.4
      vertex 354.05 320.6 191.667
      vertex 347.2 320.6 191.667
    endloop
  endfacet
  facet normal 0 -1 -0
    outer loop
      vertex 354.05 320.6 191.667
      vertex 347.2 320.6 25.4
      vertex 354.05 320.6 25.4
    endloop
  endfacet
  facet normal 0 -1 0
    outer loop
      vertex 350.9 320.6 209.647
      vertex 368.9 320.6 209.667
      vertex 350.9 320.6 209.667
    endloop
  endfacet
  facet normal 0 -1 0
    outer loop
      vertex 350.9 320.6 209.647
      vertex 368.9 320.6 209.647
      vertex 368.9 320.6 209.667
    endloop
  endfacet
  facet normal 0 -1 0
    outer loop
      vertex 354.332 320.6 192.017
      vertex 368.9 320.6 209.647
      vertex 350.9 320.6 209.647
    endloop
  endfacet
  facet normal 0 -1 0
    outer loop
      vertex 368.9 320.6 209.647
      vertex 354.332 320.6 192.017
      vertex 365.468 320.6 192.017
    endloop
  endfacet
  facet normal 0 0 1
    outer loop
      vertex 372.6 468.2 191.667
      vertex 369.25 338.95 191.667
      vertex 372.6 320.6 191.667
    endloop
  endfacet
  facet normal -0 0 1
    outer loop
      vertex 365.4 468.2 191.667
      vertex 369.25 338.95 191.667
      vertex 372.6 468.2 191.667
    endloop
  endfacet
  facet normal 0 0 1
    outer loop
      vertex 369.25 338.95 191.667
      vertex 365.4 468.2 191.667
      vertex 365.4 338.95 191.667
    endloop
  endfacet
  facet normal -0 0 1
    outer loop
      vertex 369.25 338.93 191.667
      vertex 372.6 320.6 191.667
      vertex 369.25 338.95 191.667
    endloop
  endfacet
  facet normal 0 0 1
    outer loop
      vertex 372.6 320.6 191.667
      vertex 369.25 338.93 191.667
      vertex 365.75 320.6 191.667
    endloop
  endfacet
  facet normal 0 0 1
    outer loop
      vertex 354.4 468.2 191.667
      vertex 350.55 338.95 191.667
      vertex 354.4 338.95 191.667
    endloop
  endfacet
  facet normal 0 0 1
    outer loop
      vertex 347.2 320.6 191.667
      vertex 350.55 338.95 191.667
      vertex 347.2 468.2 191.667
    endloop
  endfacet
  facet normal -0 0 1
    outer loop
      vertex 347.2 468.2 191.667
      vertex 350.55 338.95 191.667
      vertex 354.4 468.2 191.667
    endloop
  endfacet
  facet normal 0 0 1
    outer loop
      vertex 350.55 338.93 191.667
      vertex 347.2 320.6 191.667
      vertex 354.05 320.6 191.667
    endloop
  endfacet
  facet normal 0 0 1
    outer loop
      vertex 350.55 338.95 191.667
      vertex 347.2 320.6 191.667
      vertex 350.55 338.93 191.667
    endloop
  endfacet
  facet normal 0 0 -1
    outer loop
      vertex 369.25 338.95 25.4
      vertex 372.6 320.6 25.4
      vertex 369.25 338.93 25.4
    endloop
  endfacet
  facet normal 0 -0 -1
    outer loop
      vertex 369.25 338.93 25.4
      vertex 372.6 320.6 25.4
      vertex 365.75 320.6 25.4
    endloop
  endfacet
  facet normal 0 0 -1
    outer loop
      vertex 372.6 320.6 25.4
      vertex 369.25 338.95 25.4
      vertex 372.6 468.2 25.4
    endloop
  endfacet
  facet normal 0 0 -1
    outer loop
      vertex 365.673 468.2 25.4
      vertex 369.25 338.95 25.4
      vertex 365.673 338.95 25.4
    endloop
  endfacet
  facet normal 0 0 -1
    outer loop
      vertex 369.25 338.95 25.4
      vertex 365.673 468.2 25.4
      vertex 372.6 468.2 25.4
    endloop
  endfacet
  facet normal -0 0 -1
    outer loop
      vertex 350.55 338.93 25.4
      vertex 347.2 320.6 25.4
      vertex 350.55 338.95 25.4
    endloop
  endfacet
  facet normal 0 0 -1
    outer loop
      vertex 347.2 320.6 25.4
      vertex 350.55 338.93 25.4
      vertex 354.05 320.6 25.4
    endloop
  endfacet
  facet normal 0 0 -1
    outer loop
      vertex 350.55 338.95 25.4
      vertex 354.127 468.2 25.4
      vertex 354.127 338.95 25.4
    endloop
  endfacet
  facet normal 0 0 -1
    outer loop
      vertex 347.2 468.2 25.4
      vertex 350.55 338.95 25.4
      vertex 347.2 320.6 25.4
    endloop
  endfacet
  facet normal 0 0 -1
    outer loop
      vertex 350.55 338.95 25.4
      vertex 347.2 468.2 25.4
      vertex 354.127 468.2 25.4
    endloop
  endfacet
  facet normal 0.981576 -9.96817e-07 -0.191074
    outer loop
      vertex 368.9 468.2 209.647
      vertex 365.468 338.95 192.017
      vertex 365.4 468.2 191.667
    endloop
  endfacet
  facet normal 0.981574 0 -0.191081
    outer loop
      vertex 368.9 320.6 209.647
      vertex 365.468 338.95 192.017
      vertex 368.9 468.2 209.647
    endloop
  endfacet
  facet normal 0.981574 0 -0.191081
    outer loop
      vertex 365.468 338.95 192.017
      vertex 368.9 320.6 209.647
      vertex 365.468 320.6 192.017
    endloop
  endfacet
  facet normal 0.981645 0 -0.19072
    outer loop
      vertex 365.4 468.2 191.667
      vertex 365.468 338.95 192.017
      vertex 365.4 338.95 191.667
    endloop
  endfacet
  facet normal -0 0 1
    outer loop
      vertex 350.9 468.2 209.667
      vertex 368.9 320.6 209.667
      vertex 368.9 468.2 209.667
    endloop
  endfacet
  facet normal 0 0 1
    outer loop
      vertex 368.9 320.6 209.667
      vertex 350.9 468.2 209.667
      vertex 350.9 320.6 209.667
    endloop
  endfacet
  facet normal 1 -0 0
    outer loop
      vertex 368.9 320.6 209.667
      vertex 368.9 468.2 209.647
      vertex 368.9 468.2 209.667
    endloop
  endfacet
  facet normal 1 0 0
    outer loop
      vertex 368.9 468.2 209.647
      vertex 368.9 320.6 209.667
      vertex 368.9 320.6 209.647
    endloop
  endfacet
  facet normal -0.981645 0 -0.19072
    outer loop
      vertex 354.332 338.95 192.017
      vertex 354.4 468.2 191.667
      vertex 354.4 338.95 191.667
    endloop
  endfacet
  facet normal -0.981576 -9.96817e-07 -0.191074
    outer loop
      vertex 354.4 468.2 191.667
      vertex 354.332 338.95 192.017
      vertex 350.9 468.2 209.647
    endloop
  endfacet
  facet normal -0.981574 0 -0.191081
    outer loop
      vertex 350.9 320.6 209.647
      vertex 354.332 338.95 192.017
      vertex 354.332 320.6 192.017
    endloop
  endfacet
  facet normal -0.981574 0 -0.191081
    outer loop
      vertex 354.332 338.95 192.017
      vertex 350.9 320.6 209.647
      vertex 350.9 468.2 209.647
    endloop
  endfacet
  facet normal -1 0 0
    outer loop
      vertex 350.9 320.6 209.647
      vertex 350.9 468.2 209.667
      vertex 350.9 468.2 209.647
    endloop
  endfacet
  facet normal -1 -0 0
    outer loop
      vertex 350.9 468.2 209.667
      vertex 350.9 320.6 209.647
      vertex 350.9 320.6 209.667
    endloop
  endfacet
  facet normal 0 -1 0
    outer loop
      vertex 354.4 338.95 26.6
      vertex 354.4 338.95 191.667
      vertex 350.55 338.95 191.667
    endloop
  endfacet
  facet normal 0 -1 0
    outer loop
      vertex 354.4 338.95 191.667
      vertex 354.4 338.95 26.6
      vertex 365.4 338.95 191.667
    endloop
  endfacet
  facet normal 0 -1 0
    outer loop
      vertex 365.4 338.95 26.6
      vertex 365.4 338.95 191.667
      vertex 354.4 338.95 26.6
    endloop
  endfacet
  facet normal 0 -1 0
    outer loop
      vertex 350.55 338.95 25.4
      vertex 354.4 338.95 26.6
      vertex 350.55 338.95 191.667
    endloop
  endfacet
  facet normal 0 -1 0
    outer loop
      vertex 354.4 338.95 26.6
      vertex 350.55 338.95 25.4
      vertex 354.127 338.95 25.4
    endloop
  endfacet
  facet normal 0 -1 0
    outer loop
      vertex 354.4 338.95 191.667
      vertex 365.468 338.95 192.017
      vertex 354.332 338.95 192.017
    endloop
  endfacet
  facet normal 0 -1 0
    outer loop
      vertex 365.468 338.95 192.017
      vertex 354.4 338.95 191.667
      vertex 365.4 338.95 191.667
    endloop
  endfacet
  facet normal 0 -1 0
    outer loop
      vertex 365.4 338.95 191.667
      vertex 365.4 338.95 26.6
      vertex 369.25 338.95 191.667
    endloop
  endfacet
  facet normal 0 -1 0
    outer loop
      vertex 369.25 338.95 25.4
      vertex 365.4 338.95 26.6
      vertex 365.673 338.95 25.4
    endloop
  endfacet
  facet normal 0 -1 0
    outer loop
      vertex 365.4 338.95 26.6
      vertex 369.25 338.95 25.4
      vertex 369.25 338.95 191.667
    endloop
  endfacet
  facet normal 0.982254 0.187555 0
    outer loop
      vertex 354.05 320.6 191.667
      vertex 350.55 338.93 25.4
      vertex 350.55 338.93 191.667
    endloop
  endfacet
  facet normal 0.982254 0.187555 0
    outer loop
      vertex 350.55 338.93 25.4
      vertex 354.05 320.6 191.667
      vertex 354.05 320.6 25.4
    endloop
  endfacet
  facet normal 1 -0 0
    outer loop
      vertex 350.55 338.93 191.667
      vertex 350.55 338.95 25.4
      vertex 350.55 338.95 191.667
    endloop
  endfacet
  facet normal 1 0 0
    outer loop
      vertex 350.55 338.95 25.4
      vertex 350.55 338.93 191.667
      vertex 350.55 338.93 25.4
    endloop
  endfacet
  facet normal -0.982254 0.187555 0
    outer loop
      vertex 365.75 320.6 25.4
      vertex 369.25 338.93 191.667
      vertex 369.25 338.93 25.4
    endloop
  endfacet
  facet normal -0.982254 0.187555 0
    outer loop
      vertex 369.25 338.93 191.667
      vertex 365.75 320.6 25.4
      vertex 365.75 320.6 191.667
    endloop
  endfacet
  facet normal 0 0 -1
    outer loop
      vertex 354.332 320.6 192.017
      vertex 365.468 338.95 192.017
      vertex 365.468 320.6 192.017
    endloop
  endfacet
  facet normal -0 0 -1
    outer loop
      vertex 365.468 338.95 192.017
      vertex 354.332 320.6 192.017
      vertex 354.332 338.95 192.017
    endloop
  endfacet
  facet normal -1 0 0
    outer loop
      vertex 369.25 338.93 25.4
      vertex 369.25 338.95 191.667
      vertex 369.25 338.95 25.4
    endloop
  endfacet
  facet normal -1 -0 0
    outer loop
      vertex 369.25 338.95 191.667
      vertex 369.25 338.93 25.4
      vertex 369.25 338.93 191.667
    endloop
  endfacet
  facet normal -0 0 1
    outer loop
      vertex 354.4 338.95 26.6
      vertex 365.4 320.6 26.6
      vertex 365.4 338.95 26.6
    endloop
  endfacet
  facet normal 0 0 1
    outer loop
      vertex 365.4 320.6 26.6
      vertex 354.4 338.95 26.6
      vertex 354.4 320.6 26.6
    endloop
  endfacet
  facet normal 0 0 -1
    outer loop
      vertex 364.163 432.639 13.4
      vertex 368.4 468.2 13.4
      vertex 368.4 320.6 13.4
    endloop
  endfacet
  facet normal 0 0 -1
    outer loop
      vertex 368.4 468.2 13.4
      vertex 364.163 432.639 13.4
      vertex 364.2 433.2 13.4
    endloop
  endfacet
  facet normal 0 0 -1
    outer loop
      vertex 368.4 320.6 13.4
      vertex 364.053 432.087 13.4
      vertex 364.163 432.639 13.4
    endloop
  endfacet
  facet normal 0 0 -1
    outer loop
      vertex 368.4 320.6 13.4
      vertex 363.873 431.554 13.4
      vertex 364.053 432.087 13.4
    endloop
  endfacet
  facet normal 0 0 -1
    outer loop
      vertex 368.4 320.6 13.4
      vertex 363.624 431.05 13.4
      vertex 363.873 431.554 13.4
    endloop
  endfacet
  facet normal 0 0 -1
    outer loop
      vertex 368.4 320.6 13.4
      vertex 363.311 430.582 13.4
      vertex 363.624 431.05 13.4
    endloop
  endfacet
  facet normal 0 0 -1
    outer loop
      vertex 368.4 320.6 13.4
      vertex 362.941 430.159 13.4
      vertex 363.311 430.582 13.4
    endloop
  endfacet
  facet normal 0 0 -1
    outer loop
      vertex 368.4 320.6 13.4
      vertex 362.518 429.789 13.4
      vertex 362.941 430.159 13.4
    endloop
  endfacet
  facet normal 0 0 -1
    outer loop
      vertex 368.4 320.6 13.4
      vertex 362.05 429.476 13.4
      vertex 362.518 429.789 13.4
    endloop
  endfacet
  facet normal 0 0 -1
    outer loop
      vertex 368.4 320.6 13.4
      vertex 361.546 429.227 13.4
      vertex 362.05 429.476 13.4
    endloop
  endfacet
  facet normal 0 0 -1
    outer loop
      vertex 368.4 320.6 13.4
      vertex 361.013 429.047 13.4
      vertex 361.546 429.227 13.4
    endloop
  endfacet
  facet normal 0 0 -1
    outer loop
      vertex 368.4 320.6 13.4
      vertex 360.461 428.937 13.4
      vertex 361.013 429.047 13.4
    endloop
  endfacet
  facet normal 0 0 -1
    outer loop
      vertex 368.4 320.6 13.4
      vertex 359.9 428.9 13.4
      vertex 360.461 428.937 13.4
    endloop
  endfacet
  facet normal 0 0 -1
    outer loop
      vertex 351.4 320.6 13.4
      vertex 359.9 428.9 13.4
      vertex 368.4 320.6 13.4
    endloop
  endfacet
  facet normal -0 0 -1
    outer loop
      vertex 359.9 428.9 13.4
      vertex 351.4 320.6 13.4
      vertex 359.339 428.937 13.4
    endloop
  endfacet
  facet normal -0 0 -1
    outer loop
      vertex 359.339 428.937 13.4
      vertex 351.4 320.6 13.4
      vertex 358.787 429.047 13.4
    endloop
  endfacet
  facet normal -0 0 -1
    outer loop
      vertex 358.787 429.047 13.4
      vertex 351.4 320.6 13.4
      vertex 358.254 429.227 13.4
    endloop
  endfacet
  facet normal -0 0 -1
    outer loop
      vertex 358.254 429.227 13.4
      vertex 351.4 320.6 13.4
      vertex 357.75 429.476 13.4
    endloop
  endfacet
  facet normal -0 0 -1
    outer loop
      vertex 357.75 429.476 13.4
      vertex 351.4 320.6 13.4
      vertex 357.282 429.789 13.4
    endloop
  endfacet
  facet normal -0 0 -1
    outer loop
      vertex 357.282 429.789 13.4
      vertex 351.4 320.6 13.4
      vertex 356.859 430.159 13.4
    endloop
  endfacet
  facet normal -0 0 -1
    outer loop
      vertex 356.859 430.159 13.4
      vertex 351.4 320.6 13.4
      vertex 356.489 430.582 13.4
    endloop
  endfacet
  facet normal -0 0 -1
    outer loop
      vertex 356.489 430.582 13.4
      vertex 351.4 320.6 13.4
      vertex 356.176 431.05 13.4
    endloop
  endfacet
  facet normal -0 0 -1
    outer loop
      vertex 356.176 431.05 13.4
      vertex 351.4 320.6 13.4
      vertex 355.927 431.554 13.4
    endloop
  endfacet
  facet normal -0 0 -1
    outer loop
      vertex 355.927 431.554 13.4
      vertex 351.4 320.6 13.4
      vertex 355.747 432.087 13.4
    endloop
  endfacet
  facet normal 0 0 -1
    outer loop
      vertex 351.4 468.2 13.4
      vertex 355.637 432.639 13.4
      vertex 351.4 320.6 13.4
    endloop
  endfacet
  facet normal -0 0 -1
    outer loop
      vertex 355.747 432.087 13.4
      vertex 351.4 320.6 13.4
      vertex 355.637 432.639 13.4
    endloop
  endfacet
  facet normal 0 0 -1
    outer loop
      vertex 364.163 433.761 13.4
      vertex 368.4 468.2 13.4
      vertex 364.2 433.2 13.4
    endloop
  endfacet
  facet normal 0 0 -1
    outer loop
      vertex 364.053 434.313 13.4
      vertex 368.4 468.2 13.4
      vertex 364.163 433.761 13.4
    endloop
  endfacet
  facet normal 0 0 -1
    outer loop
      vertex 363.873 434.846 13.4
      vertex 368.4 468.2 13.4
      vertex 364.053 434.313 13.4
    endloop
  endfacet
  facet normal 0 0 -1
    outer loop
      vertex 363.624 435.35 13.4
      vertex 368.4 468.2 13.4
      vertex 363.873 434.846 13.4
    endloop
  endfacet
  facet normal 0 0 -1
    outer loop
      vertex 363.311 435.818 13.4
      vertex 368.4 468.2 13.4
      vertex 363.624 435.35 13.4
    endloop
  endfacet
  facet normal 0 0 -1
    outer loop
      vertex 362.941 436.241 13.4
      vertex 368.4 468.2 13.4
      vertex 363.311 435.818 13.4
    endloop
  endfacet
  facet normal 0 0 -1
    outer loop
      vertex 362.518 436.611 13.4
      vertex 368.4 468.2 13.4
      vertex 362.941 436.241 13.4
    endloop
  endfacet
  facet normal 0 0 -1
    outer loop
      vertex 362.05 436.924 13.4
      vertex 368.4 468.2 13.4
      vertex 362.518 436.611 13.4
    endloop
  endfacet
  facet normal 0 0 -1
    outer loop
      vertex 361.546 437.173 13.4
      vertex 368.4 468.2 13.4
      vertex 362.05 436.924 13.4
    endloop
  endfacet
  facet normal 0 0 -1
    outer loop
      vertex 361.013 437.353 13.4
      vertex 368.4 468.2 13.4
      vertex 361.546 437.173 13.4
    endloop
  endfacet
  facet normal 0 0 -1
    outer loop
      vertex 360.461 437.463 13.4
      vertex 368.4 468.2 13.4
      vertex 361.013 437.353 13.4
    endloop
  endfacet
  facet normal 0 0 -1
    outer loop
      vertex 359.9 437.5 13.4
      vertex 368.4 468.2 13.4
      vertex 360.461 437.463 13.4
    endloop
  endfacet
  facet normal 0 0 -1
    outer loop
      vertex 351.4 468.2 13.4
      vertex 359.9 437.5 13.4
      vertex 359.339 437.463 13.4
    endloop
  endfacet
  facet normal 0 0 -1
    outer loop
      vertex 351.4 468.2 13.4
      vertex 359.339 437.463 13.4
      vertex 358.787 437.353 13.4
    endloop
  endfacet
  facet normal 0 0 -1
    outer loop
      vertex 351.4 468.2 13.4
      vertex 358.787 437.353 13.4
      vertex 358.254 437.173 13.4
    endloop
  endfacet
  facet normal 0 0 -1
    outer loop
      vertex 351.4 468.2 13.4
      vertex 358.254 437.173 13.4
      vertex 357.75 436.924 13.4
    endloop
  endfacet
  facet normal 0 0 -1
    outer loop
      vertex 351.4 468.2 13.4
      vertex 357.75 436.924 13.4
      vertex 357.282 436.611 13.4
    endloop
  endfacet
  facet normal 0 0 -1
    outer loop
      vertex 351.4 468.2 13.4
      vertex 357.282 436.611 13.4
      vertex 356.859 436.241 13.4
    endloop
  endfacet
  facet normal 0 0 -1
    outer loop
      vertex 351.4 468.2 13.4
      vertex 356.859 436.241 13.4
      vertex 356.489 435.818 13.4
    endloop
  endfacet
  facet normal 0 0 -1
    outer loop
      vertex 351.4 468.2 13.4
      vertex 356.489 435.818 13.4
      vertex 356.176 435.35 13.4
    endloop
  endfacet
  facet normal 0 0 -1
    outer loop
      vertex 351.4 468.2 13.4
      vertex 356.176 435.35 13.4
      vertex 355.927 434.846 13.4
    endloop
  endfacet
  facet normal 0 0 -1
    outer loop
      vertex 359.9 437.5 13.4
      vertex 351.4 468.2 13.4
      vertex 368.4 468.2 13.4
    endloop
  endfacet
  facet normal 0 0 -1
    outer loop
      vertex 355.747 434.313 13.4
      vertex 351.4 468.2 13.4
      vertex 355.927 434.846 13.4
    endloop
  endfacet
  facet normal 0 0 -1
    outer loop
      vertex 355.637 433.761 13.4
      vertex 351.4 468.2 13.4
      vertex 355.747 434.313 13.4
    endloop
  endfacet
  facet normal 0 0 -1
    outer loop
      vertex 355.6 433.2 13.4
      vertex 351.4 468.2 13.4
      vertex 355.637 433.761 13.4
    endloop
  endfacet
  facet normal 0 0 -1
    outer loop
      vertex 355.637 432.639 13.4
      vertex 351.4 468.2 13.4
      vertex 355.6 433.2 13.4
    endloop
  endfacet
  facet normal -0.975058 0 0.221952
    outer loop
      vertex 351.4 468.2 13.42
      vertex 354.127 338.95 25.4
      vertex 354.127 468.2 25.4
    endloop
  endfacet
  facet normal -0.975058 0 0.221952
    outer loop
      vertex 351.4 320.6 13.42
      vertex 354.127 338.95 25.4
      vertex 351.4 468.2 13.42
    endloop
  endfacet
  facet normal -0.97506 7.49882e-06 0.221941
    outer loop
      vertex 354.4 320.6 26.6
      vertex 354.127 338.95 25.4
      vertex 351.4 320.6 13.42
    endloop
  endfacet
  facet normal -0.975085 0 0.221832
    outer loop
      vertex 354.127 338.95 25.4
      vertex 354.4 320.6 26.6
      vertex 354.4 338.95 26.6
    endloop
  endfacet
  facet normal -0 -1 0
    outer loop
      vertex 354.127 468.2 25.4
      vertex 354.4 468.2 26.6
      vertex 351.4 468.2 13.42
    endloop
  endfacet
  facet normal 1 -0 0
    outer loop
      vertex 368.4 320.6 13.42
      vertex 368.4 468.2 13.4
      vertex 368.4 468.2 13.42
    endloop
  endfacet
  facet normal 1 0 0
    outer loop
      vertex 368.4 468.2 13.4
      vertex 368.4 320.6 13.42
      vertex 368.4 320.6 13.4
    endloop
  endfacet
  facet normal 0 1 0
    outer loop
      vertex 368.4 468.2 13.42
      vertex 354.4 468.2 26.6
      vertex 365.4 468.2 26.6
    endloop
  endfacet
  facet normal 0 1 0
    outer loop
      vertex 368.4 468.2 13.42
      vertex 351.4 468.2 13.42
      vertex 354.4 468.2 26.6
    endloop
  endfacet
  facet normal 0 1 -0
    outer loop
      vertex 368.4 468.2 13.4
      vertex 351.4 468.2 13.42
      vertex 368.4 468.2 13.42
    endloop
  endfacet
  facet normal 0 1 0
    outer loop
      vertex 351.4 468.2 13.42
      vertex 368.4 468.2 13.4
      vertex 351.4 468.2 13.4
    endloop
  endfacet
  facet normal -1 0 0
    outer loop
      vertex 351.4 320.6 13.4
      vertex 351.4 468.2 13.42
      vertex 351.4 468.2 13.4
    endloop
  endfacet
  facet normal -1 -0 0
    outer loop
      vertex 351.4 468.2 13.42
      vertex 351.4 320.6 13.4
      vertex 351.4 320.6 13.42
    endloop
  endfacet
  facet normal 0.975085 0 0.221832
    outer loop
      vertex 365.4 338.95 26.6
      vertex 365.4 320.6 26.6
      vertex 365.673 338.95 25.4
    endloop
  endfacet
  facet normal 0.975058 -0 0.221952
    outer loop
      vertex 365.673 338.95 25.4
      vertex 368.4 468.2 13.42
      vertex 365.673 468.2 25.4
    endloop
  endfacet
  facet normal 0.97506 7.49882e-06 0.221941
    outer loop
      vertex 368.4 320.6 13.42
      vertex 365.673 338.95 25.4
      vertex 365.4 320.6 26.6
    endloop
  endfacet
  facet normal 0.975058 0 0.221952
    outer loop
      vertex 365.673 338.95 25.4
      vertex 368.4 320.6 13.42
      vertex 368.4 468.2 13.42
    endloop
  endfacet
  facet normal 0 -1 0
    outer loop
      vertex 365.673 468.2 25.4
      vertex 368.4 468.2 13.42
      vertex 365.4 468.2 26.6
    endloop
  endfacet
  facet normal 0 -1 0
    outer loop
      vertex 351.4 320.6 13.42
      vertex 365.4 320.6 26.6
      vertex 354.4 320.6 26.6
    endloop
  endfacet
  facet normal 0 -1 0
    outer loop
      vertex 351.4 320.6 13.42
      vertex 368.4 320.6 13.42
      vertex 365.4 320.6 26.6
    endloop
  endfacet
  facet normal 0 -1 0
    outer loop
      vertex 351.4 320.6 13.4
      vertex 368.4 320.6 13.42
      vertex 351.4 320.6 13.42
    endloop
  endfacet
  facet normal 0 -1 -0
    outer loop
      vertex 368.4 320.6 13.42
      vertex 351.4 320.6 13.4
      vertex 368.4 320.6 13.4
    endloop
  endfacet
  facet normal -0.195433 0.980717 0
    outer loop
      vertex 361.013 429.047 13.4
      vertex 360.461 428.937 26.4
      vertex 361.013 429.047 26.4
    endloop
  endfacet
  facet normal -0.195433 0.980717 0
    outer loop
      vertex 360.461 428.937 26.4
      vertex 361.013 429.047 13.4
      vertex 360.461 428.937 13.4
    endloop
  endfacet
  facet normal -0.980717 -0.195433 0
    outer loop
      vertex 364.163 433.761 13.4
      vertex 364.053 434.313 26.4
      vertex 364.053 434.313 13.4
    endloop
  endfacet
  facet normal -0.980717 -0.195433 0
    outer loop
      vertex 364.053 434.313 26.4
      vertex 364.163 433.761 13.4
      vertex 364.163 433.761 26.4
    endloop
  endfacet
  facet normal -0.997832 -0.0658107 0
    outer loop
      vertex 364.2 433.2 13.4
      vertex 364.163 433.761 26.4
      vertex 364.163 433.761 13.4
    endloop
  endfacet
  facet normal -0.997832 -0.0658107 0
    outer loop
      vertex 364.163 433.761 26.4
      vertex 364.2 433.2 13.4
      vertex 364.2 433.2 26.4
    endloop
  endfacet
  facet normal -0.947432 -0.319958 0
    outer loop
      vertex 364.053 434.313 13.4
      vertex 363.873 434.846 26.4
      vertex 363.873 434.846 13.4
    endloop
  endfacet
  facet normal -0.947432 -0.319958 0
    outer loop
      vertex 363.873 434.846 26.4
      vertex 364.053 434.313 13.4
      vertex 364.053 434.313 26.4
    endloop
  endfacet
  facet normal -0.947432 0.319958 0
    outer loop
      vertex 363.873 431.554 13.4
      vertex 364.053 432.087 26.4
      vertex 364.053 432.087 13.4
    endloop
  endfacet
  facet normal -0.947432 0.319958 0
    outer loop
      vertex 364.053 432.087 26.4
      vertex 363.873 431.554 13.4
      vertex 363.873 431.554 26.4
    endloop
  endfacet
  facet normal -0.83123 -0.555929 0
    outer loop
      vertex 363.624 435.35 13.4
      vertex 363.311 435.818 26.4
      vertex 363.311 435.818 13.4
    endloop
  endfacet
  facet normal -0.83123 -0.555929 0
    outer loop
      vertex 363.311 435.818 26.4
      vertex 363.624 435.35 13.4
      vertex 363.624 435.35 26.4
    endloop
  endfacet
  facet normal 0.980717 0.195433 0
    outer loop
      vertex 355.747 432.087 26.4
      vertex 355.637 432.639 13.4
      vertex 355.637 432.639 26.4
    endloop
  endfacet
  facet normal 0.980717 0.195433 0
    outer loop
      vertex 355.637 432.639 13.4
      vertex 355.747 432.087 26.4
      vertex 355.747 432.087 13.4
    endloop
  endfacet
  facet normal -0.896552 -0.442939 0
    outer loop
      vertex 363.873 434.846 13.4
      vertex 363.624 435.35 26.4
      vertex 363.624 435.35 13.4
    endloop
  endfacet
  facet normal -0.896552 -0.442939 0
    outer loop
      vertex 363.624 435.35 26.4
      vertex 363.873 434.846 13.4
      vertex 363.873 434.846 26.4
    endloop
  endfacet
  facet normal -0.658379 -0.752687 0
    outer loop
      vertex 362.518 436.611 13.4
      vertex 362.941 436.241 26.4
      vertex 362.518 436.611 26.4
    endloop
  endfacet
  facet normal -0.658379 -0.752687 -0
    outer loop
      vertex 362.941 436.241 26.4
      vertex 362.518 436.611 13.4
      vertex 362.941 436.241 13.4
    endloop
  endfacet
  facet normal 0.658379 -0.752687 0
    outer loop
      vertex 356.859 436.241 13.4
      vertex 357.282 436.611 26.4
      vertex 356.859 436.241 26.4
    endloop
  endfacet
  facet normal 0.658379 -0.752687 0
    outer loop
      vertex 357.282 436.611 26.4
      vertex 356.859 436.241 13.4
      vertex 357.282 436.611 13.4
    endloop
  endfacet
  facet normal -0.980717 0.195433 0
    outer loop
      vertex 364.053 432.087 13.4
      vertex 364.163 432.639 26.4
      vertex 364.163 432.639 13.4
    endloop
  endfacet
  facet normal -0.980717 0.195433 0
    outer loop
      vertex 364.163 432.639 26.4
      vertex 364.053 432.087 13.4
      vertex 364.053 432.087 26.4
    endloop
  endfacet
  facet normal -0.555929 -0.83123 0
    outer loop
      vertex 362.05 436.924 13.4
      vertex 362.518 436.611 26.4
      vertex 362.05 436.924 26.4
    endloop
  endfacet
  facet normal -0.555929 -0.83123 -0
    outer loop
      vertex 362.518 436.611 26.4
      vertex 362.05 436.924 13.4
      vertex 362.518 436.611 13.4
    endloop
  endfacet
  facet normal 0.980717 -0.195433 0
    outer loop
      vertex 355.637 433.761 26.4
      vertex 355.747 434.313 13.4
      vertex 355.747 434.313 26.4
    endloop
  endfacet
  facet normal 0.980717 -0.195433 0
    outer loop
      vertex 355.747 434.313 13.4
      vertex 355.637 433.761 26.4
      vertex 355.637 433.761 13.4
    endloop
  endfacet
  facet normal -0.0658107 -0.997832 0
    outer loop
      vertex 359.9 437.5 13.4
      vertex 360.461 437.463 26.4
      vertex 359.9 437.5 26.4
    endloop
  endfacet
  facet normal -0.0658107 -0.997832 -0
    outer loop
      vertex 360.461 437.463 26.4
      vertex 359.9 437.5 13.4
      vertex 360.461 437.463 13.4
    endloop
  endfacet
  facet normal 0.0658107 -0.997832 0
    outer loop
      vertex 359.339 437.463 13.4
      vertex 359.9 437.5 26.4
      vertex 359.339 437.463 26.4
    endloop
  endfacet
  facet normal 0.0658107 -0.997832 0
    outer loop
      vertex 359.9 437.5 26.4
      vertex 359.339 437.463 13.4
      vertex 359.9 437.5 13.4
    endloop
  endfacet
  facet normal 0.896552 -0.442939 0
    outer loop
      vertex 355.927 434.846 26.4
      vertex 356.176 435.35 13.4
      vertex 356.176 435.35 26.4
    endloop
  endfacet
  facet normal 0.896552 -0.442939 0
    outer loop
      vertex 356.176 435.35 13.4
      vertex 355.927 434.846 26.4
      vertex 355.927 434.846 13.4
    endloop
  endfacet
  facet normal -0.0658107 0.997832 0
    outer loop
      vertex 360.461 428.937 13.4
      vertex 359.9 428.9 26.4
      vertex 360.461 428.937 26.4
    endloop
  endfacet
  facet normal -0.0658107 0.997832 0
    outer loop
      vertex 359.9 428.9 26.4
      vertex 360.461 428.937 13.4
      vertex 359.9 428.9 13.4
    endloop
  endfacet
  facet normal -0.195433 -0.980717 0
    outer loop
      vertex 360.461 437.463 13.4
      vertex 361.013 437.353 26.4
      vertex 360.461 437.463 26.4
    endloop
  endfacet
  facet normal -0.195433 -0.980717 -0
    outer loop
      vertex 361.013 437.353 26.4
      vertex 360.461 437.463 13.4
      vertex 361.013 437.353 13.4
    endloop
  endfacet
  facet normal 0.319958 -0.947432 0
    outer loop
      vertex 358.254 437.173 13.4
      vertex 358.787 437.353 26.4
      vertex 358.254 437.173 26.4
    endloop
  endfacet
  facet normal 0.319958 -0.947432 0
    outer loop
      vertex 358.787 437.353 26.4
      vertex 358.254 437.173 13.4
      vertex 358.787 437.353 13.4
    endloop
  endfacet
  facet normal 0.555929 -0.83123 0
    outer loop
      vertex 357.282 436.611 13.4
      vertex 357.75 436.924 26.4
      vertex 357.282 436.611 26.4
    endloop
  endfacet
  facet normal 0.555929 -0.83123 0
    outer loop
      vertex 357.75 436.924 26.4
      vertex 357.282 436.611 13.4
      vertex 357.75 436.924 13.4
    endloop
  endfacet
  facet normal 0.752687 0.658379 0
    outer loop
      vertex 356.859 430.159 26.4
      vertex 356.489 430.582 13.4
      vertex 356.489 430.582 26.4
    endloop
  endfacet
  facet normal 0.752687 0.658379 0
    outer loop
      vertex 356.489 430.582 13.4
      vertex 356.859 430.159 26.4
      vertex 356.859 430.159 13.4
    endloop
  endfacet
  facet normal 0.555929 0.83123 -0
    outer loop
      vertex 357.75 429.476 13.4
      vertex 357.282 429.789 26.4
      vertex 357.75 429.476 26.4
    endloop
  endfacet
  facet normal 0.555929 0.83123 0
    outer loop
      vertex 357.282 429.789 26.4
      vertex 357.75 429.476 13.4
      vertex 357.282 429.789 13.4
    endloop
  endfacet
  facet normal -0.658379 0.752687 0
    outer loop
      vertex 362.941 430.159 13.4
      vertex 362.518 429.789 26.4
      vertex 362.941 430.159 26.4
    endloop
  endfacet
  facet normal -0.658379 0.752687 0
    outer loop
      vertex 362.518 429.789 26.4
      vertex 362.941 430.159 13.4
      vertex 362.518 429.789 13.4
    endloop
  endfacet
  facet normal -0.752687 -0.658379 0
    outer loop
      vertex 363.311 435.818 13.4
      vertex 362.941 436.241 26.4
      vertex 362.941 436.241 13.4
    endloop
  endfacet
  facet normal -0.752687 -0.658379 0
    outer loop
      vertex 362.941 436.241 26.4
      vertex 363.311 435.818 13.4
      vertex 363.311 435.818 26.4
    endloop
  endfacet
  facet normal -0.997832 0.0658107 0
    outer loop
      vertex 364.163 432.639 13.4
      vertex 364.2 433.2 26.4
      vertex 364.2 433.2 13.4
    endloop
  endfacet
  facet normal -0.997832 0.0658107 0
    outer loop
      vertex 364.2 433.2 26.4
      vertex 364.163 432.639 13.4
      vertex 364.163 432.639 26.4
    endloop
  endfacet
  facet normal -0.442939 -0.896552 0
    outer loop
      vertex 361.546 437.173 13.4
      vertex 362.05 436.924 26.4
      vertex 361.546 437.173 26.4
    endloop
  endfacet
  facet normal -0.442939 -0.896552 -0
    outer loop
      vertex 362.05 436.924 26.4
      vertex 361.546 437.173 13.4
      vertex 362.05 436.924 13.4
    endloop
  endfacet
  facet normal -0.555929 0.83123 0
    outer loop
      vertex 362.518 429.789 13.4
      vertex 362.05 429.476 26.4
      vertex 362.518 429.789 26.4
    endloop
  endfacet
  facet normal -0.555929 0.83123 0
    outer loop
      vertex 362.05 429.476 26.4
      vertex 362.518 429.789 13.4
      vertex 362.05 429.476 13.4
    endloop
  endfacet
  facet normal -0.319958 -0.947432 0
    outer loop
      vertex 361.013 437.353 13.4
      vertex 361.546 437.173 26.4
      vertex 361.013 437.353 26.4
    endloop
  endfacet
  facet normal -0.319958 -0.947432 -0
    outer loop
      vertex 361.546 437.173 26.4
      vertex 361.013 437.353 13.4
      vertex 361.546 437.173 13.4
    endloop
  endfacet
  facet normal 0.752687 -0.658379 0
    outer loop
      vertex 356.489 435.818 26.4
      vertex 356.859 436.241 13.4
      vertex 356.859 436.241 26.4
    endloop
  endfacet
  facet normal 0.752687 -0.658379 0
    outer loop
      vertex 356.859 436.241 13.4
      vertex 356.489 435.818 26.4
      vertex 356.489 435.818 13.4
    endloop
  endfacet
  facet normal 0.997832 0.0658107 0
    outer loop
      vertex 355.637 432.639 26.4
      vertex 355.6 433.2 13.4
      vertex 355.6 433.2 26.4
    endloop
  endfacet
  facet normal 0.997832 0.0658107 0
    outer loop
      vertex 355.6 433.2 13.4
      vertex 355.637 432.639 26.4
      vertex 355.637 432.639 13.4
    endloop
  endfacet
  facet normal -0.442939 0.896552 0
    outer loop
      vertex 362.05 429.476 13.4
      vertex 361.546 429.227 26.4
      vertex 362.05 429.476 26.4
    endloop
  endfacet
  facet normal -0.442939 0.896552 0
    outer loop
      vertex 361.546 429.227 26.4
      vertex 362.05 429.476 13.4
      vertex 361.546 429.227 13.4
    endloop
  endfacet
  facet normal 0.442939 -0.896552 0
    outer loop
      vertex 357.75 436.924 13.4
      vertex 358.254 437.173 26.4
      vertex 357.75 436.924 26.4
    endloop
  endfacet
  facet normal 0.442939 -0.896552 0
    outer loop
      vertex 358.254 437.173 26.4
      vertex 357.75 436.924 13.4
      vertex 358.254 437.173 13.4
    endloop
  endfacet
  facet normal -0.319958 0.947432 0
    outer loop
      vertex 361.546 429.227 13.4
      vertex 361.013 429.047 26.4
      vertex 361.546 429.227 26.4
    endloop
  endfacet
  facet normal -0.319958 0.947432 0
    outer loop
      vertex 361.013 429.047 26.4
      vertex 361.546 429.227 13.4
      vertex 361.013 429.047 13.4
    endloop
  endfacet
  facet normal 0.83123 0.555929 0
    outer loop
      vertex 356.489 430.582 26.4
      vertex 356.176 431.05 13.4
      vertex 356.176 431.05 26.4
    endloop
  endfacet
  facet normal 0.83123 0.555929 0
    outer loop
      vertex 356.176 431.05 13.4
      vertex 356.489 430.582 26.4
      vertex 356.489 430.582 13.4
    endloop
  endfacet
  facet normal 0.947432 -0.319958 0
    outer loop
      vertex 355.747 434.313 26.4
      vertex 355.927 434.846 13.4
      vertex 355.927 434.846 26.4
    endloop
  endfacet
  facet normal 0.947432 -0.319958 0
    outer loop
      vertex 355.927 434.846 13.4
      vertex 355.747 434.313 26.4
      vertex 355.747 434.313 13.4
    endloop
  endfacet
  facet normal 0.319958 0.947432 -0
    outer loop
      vertex 358.787 429.047 13.4
      vertex 358.254 429.227 26.4
      vertex 358.787 429.047 26.4
    endloop
  endfacet
  facet normal 0.319958 0.947432 0
    outer loop
      vertex 358.254 429.227 26.4
      vertex 358.787 429.047 13.4
      vertex 358.254 429.227 13.4
    endloop
  endfacet
  facet normal 0.947432 0.319958 0
    outer loop
      vertex 355.927 431.554 26.4
      vertex 355.747 432.087 13.4
      vertex 355.747 432.087 26.4
    endloop
  endfacet
  facet normal 0.947432 0.319958 0
    outer loop
      vertex 355.747 432.087 13.4
      vertex 355.927 431.554 26.4
      vertex 355.927 431.554 13.4
    endloop
  endfacet
  facet normal -0.83123 0.555929 0
    outer loop
      vertex 363.311 430.582 13.4
      vertex 363.624 431.05 26.4
      vertex 363.624 431.05 13.4
    endloop
  endfacet
  facet normal -0.83123 0.555929 0
    outer loop
      vertex 363.624 431.05 26.4
      vertex 363.311 430.582 13.4
      vertex 363.311 430.582 26.4
    endloop
  endfacet
  facet normal -0.896552 0.442939 0
    outer loop
      vertex 363.624 431.05 13.4
      vertex 363.873 431.554 26.4
      vertex 363.873 431.554 13.4
    endloop
  endfacet
  facet normal -0.896552 0.442939 0
    outer loop
      vertex 363.873 431.554 26.4
      vertex 363.624 431.05 13.4
      vertex 363.624 431.05 26.4
    endloop
  endfacet
  facet normal -0.752687 0.658379 0
    outer loop
      vertex 362.941 430.159 13.4
      vertex 363.311 430.582 26.4
      vertex 363.311 430.582 13.4
    endloop
  endfacet
  facet normal -0.752687 0.658379 0
    outer loop
      vertex 363.311 430.582 26.4
      vertex 362.941 430.159 13.4
      vertex 362.941 430.159 26.4
    endloop
  endfacet
  facet normal 0.896552 0.442939 0
    outer loop
      vertex 356.176 431.05 26.4
      vertex 355.927 431.554 13.4
      vertex 355.927 431.554 26.4
    endloop
  endfacet
  facet normal 0.896552 0.442939 0
    outer loop
      vertex 355.927 431.554 13.4
      vertex 356.176 431.05 26.4
      vertex 356.176 431.05 13.4
    endloop
  endfacet
  facet normal 0.195433 0.980717 -0
    outer loop
      vertex 359.339 428.937 13.4
      vertex 358.787 429.047 26.4
      vertex 359.339 428.937 26.4
    endloop
  endfacet
  facet normal 0.195433 0.980717 0
    outer loop
      vertex 358.787 429.047 26.4
      vertex 359.339 428.937 13.4
      vertex 358.787 429.047 13.4
    endloop
  endfacet
  facet normal 0.195433 -0.980717 0
    outer loop
      vertex 358.787 437.353 13.4
      vertex 359.339 437.463 26.4
      vertex 358.787 437.353 26.4
    endloop
  endfacet
  facet normal 0.195433 -0.980717 0
    outer loop
      vertex 359.339 437.463 26.4
      vertex 358.787 437.353 13.4
      vertex 359.339 437.463 13.4
    endloop
  endfacet
  facet normal 0.997832 -0.0658107 0
    outer loop
      vertex 355.6 433.2 26.4
      vertex 355.637 433.761 13.4
      vertex 355.637 433.761 26.4
    endloop
  endfacet
  facet normal 0.997832 -0.0658107 0
    outer loop
      vertex 355.637 433.761 13.4
      vertex 355.6 433.2 26.4
      vertex 355.6 433.2 13.4
    endloop
  endfacet
  facet normal 0.658379 0.752687 -0
    outer loop
      vertex 357.282 429.789 13.4
      vertex 356.859 430.159 26.4
      vertex 357.282 429.789 26.4
    endloop
  endfacet
  facet normal 0.658379 0.752687 0
    outer loop
      vertex 356.859 430.159 26.4
      vertex 357.282 429.789 13.4
      vertex 356.859 430.159 13.4
    endloop
  endfacet
  facet normal 0.0658107 0.997832 -0
    outer loop
      vertex 359.9 428.9 13.4
      vertex 359.339 428.937 26.4
      vertex 359.9 428.9 26.4
    endloop
  endfacet
  facet normal 0.0658107 0.997832 0
    outer loop
      vertex 359.339 428.937 26.4
      vertex 359.9 428.9 13.4
      vertex 359.339 428.937 13.4
    endloop
  endfacet
  facet normal 0.83123 -0.555929 0
    outer loop
      vertex 356.176 435.35 26.4
      vertex 356.489 435.818 13.4
      vertex 356.489 435.818 26.4
    endloop
  endfacet
  facet normal 0.83123 -0.555929 0
    outer loop
      vertex 356.489 435.818 13.4
      vertex 356.176 435.35 26.4
      vertex 356.176 435.35 13.4
    endloop
  endfacet
  facet normal 0.442939 0.896552 -0
    outer loop
      vertex 358.254 429.227 13.4
      vertex 357.75 429.476 26.4
      vertex 358.254 429.227 26.4
    endloop
  endfacet
  facet normal 0.442939 0.896552 0
    outer loop
      vertex 357.75 429.476 26.4
      vertex 358.254 429.227 13.4
      vertex 357.75 429.476 13.4
    endloop
  endfacet
  facet normal 0 0 -1
    outer loop
      vertex 364.163 432.639 26.4
      vertex 364.163 433.761 26.4
      vertex 364.2 433.2 26.4
    endloop
  endfacet
  facet normal 0 0 -1
    outer loop
      vertex 364.053 432.087 26.4
      vertex 364.163 433.761 26.4
      vertex 364.163 432.639 26.4
    endloop
  endfacet
  facet normal 0 0 -1
    outer loop
      vertex 364.053 432.087 26.4
      vertex 364.053 434.313 26.4
      vertex 364.163 433.761 26.4
    endloop
  endfacet
  facet normal 0 0 -1
    outer loop
      vertex 363.873 431.554 26.4
      vertex 364.053 434.313 26.4
      vertex 364.053 432.087 26.4
    endloop
  endfacet
  facet normal 0 0 -1
    outer loop
      vertex 363.873 431.554 26.4
      vertex 363.873 434.846 26.4
      vertex 364.053 434.313 26.4
    endloop
  endfacet
  facet normal 0 0 -1
    outer loop
      vertex 363.624 431.05 26.4
      vertex 363.873 434.846 26.4
      vertex 363.873 431.554 26.4
    endloop
  endfacet
  facet normal 0 0 -1
    outer loop
      vertex 363.624 431.05 26.4
      vertex 363.624 435.35 26.4
      vertex 363.873 434.846 26.4
    endloop
  endfacet
  facet normal 0 0 -1
    outer loop
      vertex 363.311 430.582 26.4
      vertex 363.624 435.35 26.4
      vertex 363.624 431.05 26.4
    endloop
  endfacet
  facet normal 0 0 -1
    outer loop
      vertex 363.311 430.582 26.4
      vertex 363.311 435.818 26.4
      vertex 363.624 435.35 26.4
    endloop
  endfacet
  facet normal 0 0 -1
    outer loop
      vertex 362.941 430.159 26.4
      vertex 363.311 435.818 26.4
      vertex 363.311 430.582 26.4
    endloop
  endfacet
  facet normal 0 0 -1
    outer loop
      vertex 362.941 430.159 26.4
      vertex 362.941 436.241 26.4
      vertex 363.311 435.818 26.4
    endloop
  endfacet
  facet normal 0 0 -1
    outer loop
      vertex 362.518 429.789 26.4
      vertex 362.941 436.241 26.4
      vertex 362.941 430.159 26.4
    endloop
  endfacet
  facet normal 0 0 -1
    outer loop
      vertex 362.518 429.789 26.4
      vertex 362.518 436.611 26.4
      vertex 362.941 436.241 26.4
    endloop
  endfacet
  facet normal 0 0 -1
    outer loop
      vertex 362.05 429.476 26.4
      vertex 362.518 436.611 26.4
      vertex 362.518 429.789 26.4
    endloop
  endfacet
  facet normal 0 0 -1
    outer loop
      vertex 362.05 429.476 26.4
      vertex 362.05 436.924 26.4
      vertex 362.518 436.611 26.4
    endloop
  endfacet
  facet normal 0 0 -1
    outer loop
      vertex 361.546 429.227 26.4
      vertex 362.05 436.924 26.4
      vertex 362.05 429.476 26.4
    endloop
  endfacet
  facet normal 0 0 -1
    outer loop
      vertex 361.546 429.227 26.4
      vertex 361.546 437.173 26.4
      vertex 362.05 436.924 26.4
    endloop
  endfacet
  facet normal 0 0 -1
    outer loop
      vertex 361.013 429.047 26.4
      vertex 361.546 437.173 26.4
      vertex 361.546 429.227 26.4
    endloop
  endfacet
  facet normal 0 0 -1
    outer loop
      vertex 361.013 429.047 26.4
      vertex 361.013 437.353 26.4
      vertex 361.546 437.173 26.4
    endloop
  endfacet
  facet normal 0 0 -1
    outer loop
      vertex 360.461 428.937 26.4
      vertex 361.013 437.353 26.4
      vertex 361.013 429.047 26.4
    endloop
  endfacet
  facet normal 0 0 -1
    outer loop
      vertex 360.461 428.937 26.4
      vertex 360.461 437.463 26.4
      vertex 361.013 437.353 26.4
    endloop
  endfacet
  facet normal 0 0 -1
    outer loop
      vertex 359.9 428.9 26.4
      vertex 360.461 437.463 26.4
      vertex 360.461 428.937 26.4
    endloop
  endfacet
  facet normal 0 0 -1
    outer loop
      vertex 359.9 428.9 26.4
      vertex 359.9 437.5 26.4
      vertex 360.461 437.463 26.4
    endloop
  endfacet
  facet normal 0 0 -1
    outer loop
      vertex 359.339 428.937 26.4
      vertex 359.9 437.5 26.4
      vertex 359.9 428.9 26.4
    endloop
  endfacet
  facet normal 0 0 -1
    outer loop
      vertex 359.339 428.937 26.4
      vertex 359.339 437.463 26.4
      vertex 359.9 437.5 26.4
    endloop
  endfacet
  facet normal 0 0 -1
    outer loop
      vertex 358.787 429.047 26.4
      vertex 359.339 437.463 26.4
      vertex 359.339 428.937 26.4
    endloop
  endfacet
  facet normal 0 0 -1
    outer loop
      vertex 358.787 429.047 26.4
      vertex 358.787 437.353 26.4
      vertex 359.339 437.463 26.4
    endloop
  endfacet
  facet normal 0 0 -1
    outer loop
      vertex 358.254 429.227 26.4
      vertex 358.787 437.353 26.4
      vertex 358.787 429.047 26.4
    endloop
  endfacet
  facet normal 0 0 -1
    outer loop
      vertex 358.254 429.227 26.4
      vertex 358.254 437.173 26.4
      vertex 358.787 437.353 26.4
    endloop
  endfacet
  facet normal 0 0 -1
    outer loop
      vertex 357.75 429.476 26.4
      vertex 358.254 437.173 26.4
      vertex 358.254 429.227 26.4
    endloop
  endfacet
  facet normal 0 0 -1
    outer loop
      vertex 357.75 429.476 26.4
      vertex 357.75 436.924 26.4
      vertex 358.254 437.173 26.4
    endloop
  endfacet
  facet normal 0 0 -1
    outer loop
      vertex 357.282 429.789 26.4
      vertex 357.75 436.924 26.4
      vertex 357.75 429.476 26.4
    endloop
  endfacet
  facet normal 0 0 -1
    outer loop
      vertex 357.282 429.789 26.4
      vertex 357.282 436.611 26.4
      vertex 357.75 436.924 26.4
    endloop
  endfacet
  facet normal 0 0 -1
    outer loop
      vertex 356.859 430.159 26.4
      vertex 357.282 436.611 26.4
      vertex 357.282 429.789 26.4
    endloop
  endfacet
  facet normal 0 0 -1
    outer loop
      vertex 356.859 430.159 26.4
      vertex 356.859 436.241 26.4
      vertex 357.282 436.611 26.4
    endloop
  endfacet
  facet normal 0 0 -1
    outer loop
      vertex 356.489 430.582 26.4
      vertex 356.859 436.241 26.4
      vertex 356.859 430.159 26.4
    endloop
  endfacet
  facet normal 0 0 -1
    outer loop
      vertex 356.489 430.582 26.4
      vertex 356.489 435.818 26.4
      vertex 356.859 436.241 26.4
    endloop
  endfacet
  facet normal 0 0 -1
    outer loop
      vertex 356.176 431.05 26.4
      vertex 356.489 435.818 26.4
      vertex 356.489 430.582 26.4
    endloop
  endfacet
  facet normal 0 0 -1
    outer loop
      vertex 356.176 431.05 26.4
      vertex 356.176 435.35 26.4
      vertex 356.489 435.818 26.4
    endloop
  endfacet
  facet normal 0 0 -1
    outer loop
      vertex 355.927 431.554 26.4
      vertex 356.176 435.35 26.4
      vertex 356.176 431.05 26.4
    endloop
  endfacet
  facet normal 0 0 -1
    outer loop
      vertex 355.927 431.554 26.4
      vertex 355.927 434.846 26.4
      vertex 356.176 435.35 26.4
    endloop
  endfacet
  facet normal 0 0 -1
    outer loop
      vertex 355.747 432.087 26.4
      vertex 355.927 434.846 26.4
      vertex 355.927 431.554 26.4
    endloop
  endfacet
  facet normal 0 0 -1
    outer loop
      vertex 355.747 432.087 26.4
      vertex 355.747 434.313 26.4
      vertex 355.927 434.846 26.4
    endloop
  endfacet
  facet normal 0 0 -1
    outer loop
      vertex 355.637 432.639 26.4
      vertex 355.747 434.313 26.4
      vertex 355.747 432.087 26.4
    endloop
  endfacet
  facet normal 0 0 -1
    outer loop
      vertex 355.637 432.639 26.4
      vertex 355.637 433.761 26.4
      vertex 355.747 434.313 26.4
    endloop
  endfacet
  facet normal 0 -0 -1
    outer loop
      vertex 355.637 433.761 26.4
      vertex 355.637 432.639 26.4
      vertex 355.6 433.2 26.4
    endloop
  endfacet
endsolid OpenSCAD_Model
