solid OpenSCAD_Model
  facet normal 0 1 0
    outer loop
      vertex 344.45 241.4 200.617
      vertex 347.8 241.4 352.533
      vertex 347.8 241.4 200.617
    endloop
  endfacet
  facet normal 0 1 0
    outer loop
      vertex 347.8 241.4 352.533
      vertex 344.45 241.4 200.617
      vertex 341.8 241.4 352.533
    endloop
  endfacet
  facet normal 0 1 0
    outer loop
      vertex 341.8 241.4 186.267
      vertex 344.45 241.4 200.617
      vertex 344.45 241.4 200.597
    endloop
  endfacet
  facet normal 0 1 0
    outer loop
      vertex 344.45 241.4 200.617
      vertex 341.8 241.4 186.267
      vertex 341.8 241.4 352.533
    endloop
  endfacet
  facet normal 0 1 0
    outer loop
      vertex 341.8 241.4 186.267
      vertex 344.45 241.4 200.597
      vertex 347.45 241.4 186.267
    endloop
  endfacet
  facet normal 0 1 0
    outer loop
      vertex 361.8 241.4 352.533
      vertex 359.15 241.4 200.617
      vertex 355.8 241.4 352.533
    endloop
  endfacet
  facet normal 0 1 -0
    outer loop
      vertex 361.8 241.4 186.267
      vertex 359.15 241.4 200.617
      vertex 361.8 241.4 352.533
    endloop
  endfacet
  facet normal 0 1 0
    outer loop
      vertex 359.15 241.4 200.617
      vertex 361.8 241.4 186.267
      vertex 359.15 241.4 200.597
    endloop
  endfacet
  facet normal 0 1 0
    outer loop
      vertex 359.15 241.4 200.597
      vertex 361.8 241.4 186.267
      vertex 356.15 241.4 186.267
    endloop
  endfacet
  facet normal 0 1 0
    outer loop
      vertex 355.8 241.4 352.533
      vertex 359.15 241.4 200.617
      vertex 355.8 241.4 200.617
    endloop
  endfacet
  facet normal 1 -0 0
    outer loop
      vertex 361.8 20 352.533
      vertex 361.8 241.4 186.267
      vertex 361.8 241.4 352.533
    endloop
  endfacet
  facet normal 1 0 0
    outer loop
      vertex 361.8 241.4 186.267
      vertex 361.8 20 352.533
      vertex 361.8 20 186.267
    endloop
  endfacet
  facet normal -1 0 0
    outer loop
      vertex 341.8 20 186.267
      vertex 341.8 241.4 352.533
      vertex 341.8 241.4 186.267
    endloop
  endfacet
  facet normal -1 -0 0
    outer loop
      vertex 341.8 241.4 352.533
      vertex 341.8 20 186.267
      vertex 341.8 20 352.533
    endloop
  endfacet
  facet normal 0 -1 0
    outer loop
      vertex 344.8 20 366.513
      vertex 358.8 20 366.533
      vertex 344.8 20 366.533
    endloop
  endfacet
  facet normal 0 -1 0
    outer loop
      vertex 344.8 20 366.513
      vertex 358.8 20 366.513
      vertex 358.8 20 366.533
    endloop
  endfacet
  facet normal 0 -1 0
    outer loop
      vertex 347.8 20 352.533
      vertex 358.8 20 366.513
      vertex 344.8 20 366.513
    endloop
  endfacet
  facet normal 0 -1 0
    outer loop
      vertex 358.8 20 366.513
      vertex 347.8 20 352.533
      vertex 355.8 20 352.533
    endloop
  endfacet
  facet normal 0 -1 0
    outer loop
      vertex 359.15 20 200.617
      vertex 356.546 20 352.533
      vertex 356.546 20 200.617
    endloop
  endfacet
  facet normal 0 -1 0
    outer loop
      vertex 356.546 20 352.533
      vertex 359.15 20 200.617
      vertex 361.8 20 352.533
    endloop
  endfacet
  facet normal 0 -1 0
    outer loop
      vertex 361.8 20 186.267
      vertex 359.15 20 200.617
      vertex 359.15 20 200.597
    endloop
  endfacet
  facet normal 0 -1 0
    outer loop
      vertex 361.8 20 186.267
      vertex 356.546 20 188.16
      vertex 356.546 20 186.267
    endloop
  endfacet
  facet normal 0 -1 0
    outer loop
      vertex 359.15 20 200.617
      vertex 361.8 20 186.267
      vertex 361.8 20 352.533
    endloop
  endfacet
  facet normal 0 -1 0
    outer loop
      vertex 356.546 20 188.16
      vertex 361.8 20 186.267
      vertex 359.15 20 200.597
    endloop
  endfacet
  facet normal 0 -1 0
    outer loop
      vertex 341.8 20 352.533
      vertex 344.45 20 200.617
      vertex 347.054 20 352.533
    endloop
  endfacet
  facet normal 0 -1 0
    outer loop
      vertex 341.8 20 186.267
      vertex 344.45 20 200.617
      vertex 341.8 20 352.533
    endloop
  endfacet
  facet normal 0 -1 -0
    outer loop
      vertex 344.45 20 200.617
      vertex 341.8 20 186.267
      vertex 344.45 20 200.597
    endloop
  endfacet
  facet normal 0 -1 0
    outer loop
      vertex 341.8 20 186.267
      vertex 347.054 20 188.16
      vertex 344.45 20 200.597
    endloop
  endfacet
  facet normal 0 -1 -0
    outer loop
      vertex 347.054 20 188.16
      vertex 341.8 20 186.267
      vertex 347.054 20 186.267
    endloop
  endfacet
  facet normal 0 -1 -0
    outer loop
      vertex 347.054 20 352.533
      vertex 344.45 20 200.617
      vertex 347.054 20 200.617
    endloop
  endfacet
  facet normal 0 0 1
    outer loop
      vertex 347.8 241.4 352.533
      vertex 347.054 20 352.533
      vertex 347.8 20 352.533
    endloop
  endfacet
  facet normal -0 0 1
    outer loop
      vertex 341.8 241.4 352.533
      vertex 347.054 20 352.533
      vertex 347.8 241.4 352.533
    endloop
  endfacet
  facet normal 0 0 1
    outer loop
      vertex 347.054 20 352.533
      vertex 341.8 241.4 352.533
      vertex 341.8 20 352.533
    endloop
  endfacet
  facet normal 0 0 1
    outer loop
      vertex 361.8 241.4 352.533
      vertex 356.546 20 352.533
      vertex 361.8 20 352.533
    endloop
  endfacet
  facet normal 0 -0 1
    outer loop
      vertex 356.546 20 352.533
      vertex 361.8 241.4 352.533
      vertex 355.8 241.4 352.533
    endloop
  endfacet
  facet normal -0 0 1
    outer loop
      vertex 355.8 20 352.533
      vertex 358.8 9.02 352.533
      vertex 356.546 20 352.533
    endloop
  endfacet
  facet normal 0 0 1
    outer loop
      vertex 355.8 20 352.533
      vertex 356.546 20 352.533
      vertex 355.8 241.4 352.533
    endloop
  endfacet
  facet normal -0 0 1
    outer loop
      vertex 347.8 20 352.533
      vertex 358.8 9.02 352.533
      vertex 355.8 20 352.533
    endloop
  endfacet
  facet normal 0 0 1
    outer loop
      vertex 344.8 9.02 352.533
      vertex 358.8 9.02 352.533
      vertex 347.8 20 352.533
    endloop
  endfacet
  facet normal 0 0 1
    outer loop
      vertex 344.8 9.02 352.533
      vertex 347.8 20 352.533
      vertex 347.054 20 352.533
    endloop
  endfacet
  facet normal 0 0 1
    outer loop
      vertex 358.8 9.02 352.533
      vertex 344.8 9.02 352.533
      vertex 358.8 9 352.533
    endloop
  endfacet
  facet normal 0 0 1
    outer loop
      vertex 358.8 9 352.533
      vertex 344.8 9.02 352.533
      vertex 344.8 9 352.533
    endloop
  endfacet
  facet normal 0 0 1
    outer loop
      vertex 344.8 255.38 352.533
      vertex 358.8 255.38 352.533
      vertex 358.8 255.4 352.533
    endloop
  endfacet
  facet normal 0 0 1
    outer loop
      vertex 358.8 255.38 352.533
      vertex 347.8 241.4 352.533
      vertex 355.8 241.4 352.533
    endloop
  endfacet
  facet normal 0 0 1
    outer loop
      vertex 344.8 255.38 352.533
      vertex 358.8 255.4 352.533
      vertex 344.8 255.4 352.533
    endloop
  endfacet
  facet normal 0 0 1
    outer loop
      vertex 358.8 255.38 352.533
      vertex 344.8 255.38 352.533
      vertex 347.8 241.4 352.533
    endloop
  endfacet
  facet normal 0 0 -1
    outer loop
      vertex 344.8 9.02 186.267
      vertex 358.8 9.02 186.267
      vertex 358.8 9 186.267
    endloop
  endfacet
  facet normal 0 0 -1
    outer loop
      vertex 358.8 9.02 186.267
      vertex 347.054 20 186.267
      vertex 356.546 20 186.267
    endloop
  endfacet
  facet normal 0 0 -1
    outer loop
      vertex 356.546 20 186.267
      vertex 347.054 20 186.267
      vertex 356.15 21.2 186.267
    endloop
  endfacet
  facet normal 0 0 -1
    outer loop
      vertex 341.8 20 186.267
      vertex 347.45 21.2 186.267
      vertex 347.054 20 186.267
    endloop
  endfacet
  facet normal -0 0 -1
    outer loop
      vertex 356.15 21.2 186.267
      vertex 347.054 20 186.267
      vertex 347.45 21.2 186.267
    endloop
  endfacet
  facet normal 0 0 -1
    outer loop
      vertex 344.8 9.02 186.267
      vertex 358.8 9 186.267
      vertex 344.8 9 186.267
    endloop
  endfacet
  facet normal 0 0 -1
    outer loop
      vertex 358.8 9.02 186.267
      vertex 344.8 9.02 186.267
      vertex 347.054 20 186.267
    endloop
  endfacet
  facet normal 0 0 -1
    outer loop
      vertex 356.15 21.2 186.267
      vertex 361.8 20 186.267
      vertex 356.546 20 186.267
    endloop
  endfacet
  facet normal 0 0 -1
    outer loop
      vertex 361.8 20 186.267
      vertex 356.15 21.2 186.267
      vertex 361.8 241.4 186.267
    endloop
  endfacet
  facet normal -0 0 -1
    outer loop
      vertex 361.8 241.4 186.267
      vertex 356.15 21.2 186.267
      vertex 356.15 241.4 186.267
    endloop
  endfacet
  facet normal 0 0 -1
    outer loop
      vertex 341.8 241.4 186.267
      vertex 347.45 21.2 186.267
      vertex 341.8 20 186.267
    endloop
  endfacet
  facet normal 0 0 -1
    outer loop
      vertex 347.45 21.2 186.267
      vertex 341.8 241.4 186.267
      vertex 347.45 241.4 186.267
    endloop
  endfacet
  facet normal 0 0 -1
    outer loop
      vertex 347.725 241.75 186.267
      vertex 358.8 255.38 186.267
      vertex 355.875 241.75 186.267
    endloop
  endfacet
  facet normal 0 0 -1
    outer loop
      vertex 344.8 255.38 186.267
      vertex 358.8 255.38 186.267
      vertex 347.725 241.75 186.267
    endloop
  endfacet
  facet normal 0 0 -1
    outer loop
      vertex 358.8 255.38 186.267
      vertex 344.8 255.38 186.267
      vertex 358.8 255.4 186.267
    endloop
  endfacet
  facet normal -0 0 -1
    outer loop
      vertex 358.8 255.4 186.267
      vertex 344.8 255.38 186.267
      vertex 344.8 255.4 186.267
    endloop
  endfacet
  facet normal 0 1 -0
    outer loop
      vertex 358.8 255.4 186.267
      vertex 344.8 255.4 352.533
      vertex 358.8 255.4 352.533
    endloop
  endfacet
  facet normal 0 1 0
    outer loop
      vertex 344.8 255.4 352.533
      vertex 358.8 255.4 186.267
      vertex 344.8 255.4 186.267
    endloop
  endfacet
  facet normal -0.977739 -0.209823 -0
    outer loop
      vertex 347.725 241.75 200.617
      vertex 344.8 255.38 186.267
      vertex 347.725 241.75 186.267
    endloop
  endfacet
  facet normal -0.977739 -0.209823 0
    outer loop
      vertex 344.8 255.38 186.267
      vertex 347.725 241.75 200.617
      vertex 344.8 255.38 352.533
    endloop
  endfacet
  facet normal -0.977802 -0.209529 -0
    outer loop
      vertex 347.8 241.4 352.533
      vertex 347.725 241.75 200.617
      vertex 347.8 241.4 200.617
    endloop
  endfacet
  facet normal -0.977741 -0.209816 -6.90565e-07
    outer loop
      vertex 347.725 241.75 200.617
      vertex 347.8 241.4 352.533
      vertex 344.8 255.38 352.533
    endloop
  endfacet
  facet normal -1 0 0
    outer loop
      vertex 344.8 255.38 186.267
      vertex 344.8 255.4 352.533
      vertex 344.8 255.4 186.267
    endloop
  endfacet
  facet normal -1 -0 0
    outer loop
      vertex 344.8 255.4 352.533
      vertex 344.8 255.38 186.267
      vertex 344.8 255.38 352.533
    endloop
  endfacet
  facet normal 0.977739 -0.209823 0
    outer loop
      vertex 358.8 255.38 352.533
      vertex 355.875 241.75 200.617
      vertex 358.8 255.38 186.267
    endloop
  endfacet
  facet normal 0.977741 -0.209816 -6.90565e-07
    outer loop
      vertex 355.8 241.4 352.533
      vertex 355.875 241.75 200.617
      vertex 358.8 255.38 352.533
    endloop
  endfacet
  facet normal 0.977802 -0.209529 0
    outer loop
      vertex 355.875 241.75 200.617
      vertex 355.8 241.4 352.533
      vertex 355.8 241.4 200.617
    endloop
  endfacet
  facet normal 0.977739 -0.209823 0
    outer loop
      vertex 358.8 255.38 186.267
      vertex 355.875 241.75 200.617
      vertex 355.875 241.75 186.267
    endloop
  endfacet
  facet normal 1 -0 0
    outer loop
      vertex 358.8 255.38 352.533
      vertex 358.8 255.4 186.267
      vertex 358.8 255.4 352.533
    endloop
  endfacet
  facet normal 1 0 0
    outer loop
      vertex 358.8 255.4 186.267
      vertex 358.8 255.38 352.533
      vertex 358.8 255.38 186.267
    endloop
  endfacet
  facet normal 0 1 -0
    outer loop
      vertex 358.8 241.4 366.513
      vertex 344.8 241.4 366.533
      vertex 358.8 241.4 366.533
    endloop
  endfacet
  facet normal 0 1 0
    outer loop
      vertex 358.8 241.4 366.513
      vertex 344.8 241.4 366.513
      vertex 344.8 241.4 366.533
    endloop
  endfacet
  facet normal 0 1 -0
    outer loop
      vertex 355.8 241.4 352.533
      vertex 344.8 241.4 366.513
      vertex 358.8 241.4 366.513
    endloop
  endfacet
  facet normal 0 1 0
    outer loop
      vertex 344.8 241.4 366.513
      vertex 355.8 241.4 352.533
      vertex 347.8 241.4 352.533
    endloop
  endfacet
  facet normal 0.977741 0 -0.209816
    outer loop
      vertex 358.8 20 366.513
      vertex 355.8 241.4 352.533
      vertex 358.8 241.4 366.513
    endloop
  endfacet
  facet normal 0.977741 0 -0.209816
    outer loop
      vertex 355.8 241.4 352.533
      vertex 358.8 20 366.513
      vertex 355.8 20 352.533
    endloop
  endfacet
  facet normal -0 0 1
    outer loop
      vertex 344.8 241.4 366.533
      vertex 358.8 20 366.533
      vertex 358.8 241.4 366.533
    endloop
  endfacet
  facet normal 0 0 1
    outer loop
      vertex 358.8 20 366.533
      vertex 344.8 241.4 366.533
      vertex 344.8 20 366.533
    endloop
  endfacet
  facet normal 1 -0 0
    outer loop
      vertex 358.8 20 366.533
      vertex 358.8 241.4 366.513
      vertex 358.8 241.4 366.533
    endloop
  endfacet
  facet normal 1 0 0
    outer loop
      vertex 358.8 241.4 366.513
      vertex 358.8 20 366.533
      vertex 358.8 20 366.513
    endloop
  endfacet
  facet normal -0.977741 0 -0.209816
    outer loop
      vertex 347.8 20 352.533
      vertex 344.8 241.4 366.513
      vertex 347.8 241.4 352.533
    endloop
  endfacet
  facet normal -0.977741 -0 -0.209816
    outer loop
      vertex 344.8 241.4 366.513
      vertex 347.8 20 352.533
      vertex 344.8 20 366.513
    endloop
  endfacet
  facet normal -1 0 0
    outer loop
      vertex 344.8 20 366.513
      vertex 344.8 241.4 366.533
      vertex 344.8 241.4 366.513
    endloop
  endfacet
  facet normal -1 -0 0
    outer loop
      vertex 344.8 241.4 366.533
      vertex 344.8 20 366.513
      vertex 344.8 20 366.533
    endloop
  endfacet
  facet normal -0.978752 0 0.205046
    outer loop
      vertex 356.3 21.2 186.983
      vertex 356.15 241.4 186.267
      vertex 356.15 21.2 186.267
    endloop
  endfacet
  facet normal -0.978781 -4.65279e-07 0.204909
    outer loop
      vertex 356.15 241.4 186.267
      vertex 356.3 21.2 186.983
      vertex 359.15 241.4 200.597
    endloop
  endfacet
  facet normal -0.978776 0.000354538 0.204932
    outer loop
      vertex 359.15 20 200.597
      vertex 356.3 21.2 186.983
      vertex 356.546 20 188.16
    endloop
  endfacet
  facet normal -0.978783 0 0.204902
    outer loop
      vertex 356.3 21.2 186.983
      vertex 359.15 20 200.597
      vertex 359.15 241.4 200.597
    endloop
  endfacet
  facet normal 1 -0 0
    outer loop
      vertex 344.45 20 200.617
      vertex 344.45 241.4 200.597
      vertex 344.45 241.4 200.617
    endloop
  endfacet
  facet normal 1 0 0
    outer loop
      vertex 344.45 241.4 200.597
      vertex 344.45 20 200.617
      vertex 344.45 20 200.597
    endloop
  endfacet
  facet normal 0 0 -1
    outer loop
      vertex 356.3 21.2 200.617
      vertex 359.15 20 200.617
      vertex 356.546 20 200.617
    endloop
  endfacet
  facet normal 0 0 -1
    outer loop
      vertex 359.15 20 200.617
      vertex 356.3 21.2 200.617
      vertex 359.15 241.4 200.617
    endloop
  endfacet
  facet normal 0 0 -1
    outer loop
      vertex 356.3 21.2 200.617
      vertex 355.8 241.4 200.617
      vertex 359.15 241.4 200.617
    endloop
  endfacet
  facet normal 0 0 -1
    outer loop
      vertex 356.3 21.2 200.617
      vertex 347.8 241.4 200.617
      vertex 355.8 241.4 200.617
    endloop
  endfacet
  facet normal 0 0 -1
    outer loop
      vertex 347.3 21.2 200.617
      vertex 347.8 241.4 200.617
      vertex 356.3 21.2 200.617
    endloop
  endfacet
  facet normal 0 0 -1
    outer loop
      vertex 344.45 20 200.617
      vertex 347.3 21.2 200.617
      vertex 347.054 20 200.617
    endloop
  endfacet
  facet normal 0 0 -1
    outer loop
      vertex 344.45 241.4 200.617
      vertex 347.3 21.2 200.617
      vertex 344.45 20 200.617
    endloop
  endfacet
  facet normal 0 0 -1
    outer loop
      vertex 347.3 21.2 200.617
      vertex 344.45 241.4 200.617
      vertex 347.8 241.4 200.617
    endloop
  endfacet
  facet normal 0 0 -1
    outer loop
      vertex 347.8 241.4 200.617
      vertex 355.875 241.75 200.617
      vertex 355.8 241.4 200.617
    endloop
  endfacet
  facet normal -0 0 -1
    outer loop
      vertex 355.875 241.75 200.617
      vertex 347.8 241.4 200.617
      vertex 347.725 241.75 200.617
    endloop
  endfacet
  facet normal -1 0 0
    outer loop
      vertex 359.15 20 200.597
      vertex 359.15 241.4 200.617
      vertex 359.15 241.4 200.597
    endloop
  endfacet
  facet normal -1 -0 0
    outer loop
      vertex 359.15 241.4 200.617
      vertex 359.15 20 200.597
      vertex 359.15 20 200.617
    endloop
  endfacet
  facet normal 0.978781 -4.65279e-07 0.204909
    outer loop
      vertex 344.45 241.4 200.597
      vertex 347.3 21.2 186.983
      vertex 347.45 241.4 186.267
    endloop
  endfacet
  facet normal 0.978783 -0 0.204902
    outer loop
      vertex 344.45 20 200.597
      vertex 347.3 21.2 186.983
      vertex 344.45 241.4 200.597
    endloop
  endfacet
  facet normal 0.978776 0.000354538 0.204932
    outer loop
      vertex 347.3 21.2 186.983
      vertex 344.45 20 200.597
      vertex 347.054 20 188.16
    endloop
  endfacet
  facet normal 0.978752 0 0.205046
    outer loop
      vertex 347.45 241.4 186.267
      vertex 347.3 21.2 186.983
      vertex 347.45 21.2 186.267
    endloop
  endfacet
  facet normal 0 -1 0
    outer loop
      vertex 347.725 241.75 186.267
      vertex 355.875 241.75 200.617
      vertex 347.725 241.75 200.617
    endloop
  endfacet
  facet normal 0 -1 -0
    outer loop
      vertex 355.875 241.75 200.617
      vertex 347.725 241.75 186.267
      vertex 355.875 241.75 186.267
    endloop
  endfacet
  facet normal 0 1 -0
    outer loop
      vertex 356.3 21.2 186.983
      vertex 347.3 21.2 200.617
      vertex 356.3 21.2 200.617
    endloop
  endfacet
  facet normal 0 1 0
    outer loop
      vertex 356.3 21.2 186.983
      vertex 347.3 21.2 186.983
      vertex 347.3 21.2 200.617
    endloop
  endfacet
  facet normal 0 1 -0
    outer loop
      vertex 356.15 21.2 186.267
      vertex 347.3 21.2 186.983
      vertex 356.3 21.2 186.983
    endloop
  endfacet
  facet normal 0 1 0
    outer loop
      vertex 347.3 21.2 186.983
      vertex 356.15 21.2 186.267
      vertex 347.45 21.2 186.267
    endloop
  endfacet
  facet normal 0.979467 0.201607 0
    outer loop
      vertex 356.793 18.8 269.4
      vertex 356.546 20 200.617
      vertex 356.546 20 352.533
    endloop
  endfacet
  facet normal 0.981789 0.189974 -0.000211284
    outer loop
      vertex 356.8 18.7632 268.839
      vertex 356.546 20 200.617
      vertex 356.793 18.8 269.4
    endloop
  endfacet
  facet normal 0.97879 0.204864 6.98257e-05
    outer loop
      vertex 356.823 18.6535 268.287
      vertex 356.546 20 200.617
      vertex 356.8 18.7632 268.839
    endloop
  endfacet
  facet normal 0.981874 0.189535 0.000181407
    outer loop
      vertex 356.546 20 352.533
      vertex 356.8 18.7632 269.961
      vertex 356.793 18.8 269.4
    endloop
  endfacet
  facet normal 0.978779 0.204919 -5.85407e-05
    outer loop
      vertex 356.546 20 352.533
      vertex 356.823 18.6535 270.513
      vertex 356.8 18.7632 269.961
    endloop
  endfacet
  facet normal 0.979686 0.200537 1.64532e-05
    outer loop
      vertex 356.546 20 352.533
      vertex 356.86 18.4727 271.046
      vertex 356.823 18.6535 270.513
    endloop
  endfacet
  facet normal 0.979626 0.200829 1.07488e-05
    outer loop
      vertex 356.546 20 352.533
      vertex 356.911 18.2239 271.55
      vertex 356.86 18.4727 271.046
    endloop
  endfacet
  facet normal 0.979662 0.200657 1.46958e-05
    outer loop
      vertex 356.546 20 352.533
      vertex 356.975 17.9114 272.018
      vertex 356.911 18.2239 271.55
    endloop
  endfacet
  facet normal 0.979632 0.2008 1.0823e-05
    outer loop
      vertex 356.546 20 352.533
      vertex 357.051 17.5406 272.441
      vertex 356.975 17.9114 272.018
    endloop
  endfacet
  facet normal 0.97949 0.201493 -1.13576e-05
    outer loop
      vertex 356.546 20 352.533
      vertex 357.138 17.1177 272.811
      vertex 357.051 17.5406 272.441
    endloop
  endfacet
  facet normal 0.979577 0.201071 4.55568e-06
    outer loop
      vertex 356.546 20 352.533
      vertex 357.234 16.65 273.124
      vertex 357.138 17.1177 272.811
    endloop
  endfacet
  facet normal 0.979784 0.200059 4.9018e-05
    outer loop
      vertex 356.546 20 352.533
      vertex 357.337 16.1455 273.373
      vertex 357.234 16.65 273.124
    endloop
  endfacet
  facet normal 0.979335 0.202245 -6.1894e-05
    outer loop
      vertex 356.546 20 352.533
      vertex 357.447 15.6129 273.553
      vertex 357.337 16.1455 273.373
    endloop
  endfacet
  facet normal 0.979654 0.200696 2.77852e-05
    outer loop
      vertex 356.546 20 352.533
      vertex 357.56 15.0613 273.663
      vertex 357.447 15.6129 273.553
    endloop
  endfacet
  facet normal 0.97965 0.200714 2.66155e-05
    outer loop
      vertex 356.546 20 352.533
      vertex 357.675 14.5 273.7
      vertex 357.56 15.0613 273.663
    endloop
  endfacet
  facet normal 0.979573 0.201089 -6.56379e-07
    outer loop
      vertex 358.8 9.02 352.533
      vertex 357.675 14.5 273.7
      vertex 356.546 20 352.533
    endloop
  endfacet
  facet normal 0.97965 0.200714 -2.78236e-05
    outer loop
      vertex 357.675 14.5 273.7
      vertex 358.8 9.02 352.533
      vertex 357.79 13.9387 273.663
    endloop
  endfacet
  facet normal 0.979307 0.202379 8.03932e-05
    outer loop
      vertex 357.79 13.9387 273.663
      vertex 358.8 9.02 352.533
      vertex 357.904 13.3871 273.553
    endloop
  endfacet
  facet normal 0.979692 0.200509 -2.73371e-05
    outer loop
      vertex 357.904 13.3871 273.553
      vertex 358.8 9.02 352.533
      vertex 358.013 12.8545 273.373
    endloop
  endfacet
  facet normal 0.97941 0.20188 4.18317e-05
    outer loop
      vertex 358.013 12.8545 273.373
      vertex 358.8 9.02 352.533
      vertex 358.117 12.35 273.124
    endloop
  endfacet
  facet normal 0.979978 0.199108 -7.9285e-05
    outer loop
      vertex 358.117 12.35 273.124
      vertex 358.8 9.02 352.533
      vertex 358.212 11.8823 272.811
    endloop
  endfacet
  facet normal 0.97949 0.201494 9.99672e-06
    outer loop
      vertex 358.212 11.8823 272.811
      vertex 358.8 9.02 352.533
      vertex 358.299 11.4594 272.441
    endloop
  endfacet
  facet normal 0.979632 0.200801 -1.19991e-05
    outer loop
      vertex 358.299 11.4594 272.441
      vertex 358.8 9.02 352.533
      vertex 358.375 11.0886 272.018
    endloop
  endfacet
  facet normal 0.979064 0.203553 6.16949e-05
    outer loop
      vertex 358.375 11.0886 272.018
      vertex 358.8 9.02 352.533
      vertex 358.44 10.7761 271.55
    endloop
  endfacet
  facet normal 0.97963 0.200809 -3.21364e-07
    outer loop
      vertex 358.44 10.7761 271.55
      vertex 358.8 9.02 352.533
      vertex 358.491 10.5273 271.046
    endloop
  endfacet
  facet normal 0.979692 0.200508 -6.12298e-06
    outer loop
      vertex 358.491 10.5273 271.046
      vertex 358.8 9.02 352.533
      vertex 358.528 10.3465 270.513
    endloop
  endfacet
  facet normal 0.977618 0.210386 0.000140393
    outer loop
      vertex 358.55 10.2368 269.961
      vertex 358.8 9.02 352.533
      vertex 358.558 10.2 269.4
    endloop
  endfacet
  facet normal 0.980413 0.196951 -6.60406e-05
    outer loop
      vertex 358.528 10.3465 270.513
      vertex 358.8 9.02 352.533
      vertex 358.55 10.2368 269.961
    endloop
  endfacet
  facet normal 0.979627 0.200824 -0
    outer loop
      vertex 356.546 20 188.16
      vertex 356.3 21.2 200.617
      vertex 356.546 20 200.617
    endloop
  endfacet
  facet normal 0.979627 0.200824 0
    outer loop
      vertex 356.3 21.2 200.617
      vertex 356.546 20 188.16
      vertex 356.3 21.2 186.983
    endloop
  endfacet
  facet normal 0.979684 0.200547 -1.97489e-05
    outer loop
      vertex 356.86 18.4727 267.754
      vertex 356.546 20 200.617
      vertex 356.823 18.6535 268.287
    endloop
  endfacet
  facet normal 0.979625 0.200834 -1.29451e-05
    outer loop
      vertex 356.911 18.2239 267.25
      vertex 356.546 20 200.617
      vertex 356.86 18.4727 267.754
    endloop
  endfacet
  facet normal 0.979661 0.200661 -1.77392e-05
    outer loop
      vertex 356.975 17.9114 266.782
      vertex 356.546 20 200.617
      vertex 356.911 18.2239 267.25
    endloop
  endfacet
  facet normal 0.979632 0.200802 -1.30888e-05
    outer loop
      vertex 357.051 17.5406 266.359
      vertex 356.546 20 200.617
      vertex 356.975 17.9114 266.782
    endloop
  endfacet
  facet normal 0.97949 0.201491 1.37582e-05
    outer loop
      vertex 357.138 17.1177 265.989
      vertex 356.546 20 200.617
      vertex 357.051 17.5406 266.359
    endloop
  endfacet
  facet normal 0.979577 0.201071 -5.52704e-06
    outer loop
      vertex 357.234 16.65 265.676
      vertex 356.546 20 200.617
      vertex 357.138 17.1177 265.989
    endloop
  endfacet
  facet normal 0.979783 0.200064 -5.95618e-05
    outer loop
      vertex 357.337 16.1455 265.427
      vertex 356.546 20 200.617
      vertex 357.234 16.65 265.676
    endloop
  endfacet
  facet normal 0.979336 0.202241 7.53284e-05
    outer loop
      vertex 357.447 15.6129 265.247
      vertex 356.546 20 200.617
      vertex 357.337 16.1455 265.427
    endloop
  endfacet
  facet normal 0.979653 0.200697 -3.3872e-05
    outer loop
      vertex 357.56 15.0613 265.137
      vertex 356.546 20 200.617
      vertex 357.447 15.6129 265.247
    endloop
  endfacet
  facet normal 0.97965 0.200714 -3.25053e-05
    outer loop
      vertex 357.675 14.5 265.1
      vertex 356.546 20 200.617
      vertex 357.56 15.0613 265.137
    endloop
  endfacet
  facet normal 0.979651 0.20071 -3.2873e-05
    outer loop
      vertex 357.79 13.9387 265.137
      vertex 356.546 20 200.617
      vertex 357.675 14.5 265.1
    endloop
  endfacet
  facet normal 0.979299 0.20242 0.00013454
    outer loop
      vertex 357.904 13.3871 265.247
      vertex 356.546 20 200.617
      vertex 357.79 13.9387 265.137
    endloop
  endfacet
  facet normal 0.979573 0.201089 0
    outer loop
      vertex 356.546 20 200.617
      vertex 358.8 9.02 186.267
      vertex 356.546 20 188.16
    endloop
  endfacet
  facet normal 0.979698 0.200477 -7.26616e-05
    outer loop
      vertex 358.013 12.8545 265.427
      vertex 356.546 20 200.617
      vertex 357.904 13.3871 265.247
    endloop
  endfacet
  facet normal 0.979397 0.201945 9.59997e-05
    outer loop
      vertex 358.117 12.35 265.676
      vertex 356.546 20 200.617
      vertex 358.013 12.8545 265.427
    endloop
  endfacet
  facet normal 0.980024 0.198877 -0.000279905
    outer loop
      vertex 358.212 11.8823 265.989
      vertex 356.546 20 200.617
      vertex 358.117 12.35 265.676
    endloop
  endfacet
  facet normal 0.979476 0.201559 6.71142e-05
    outer loop
      vertex 358.299 11.4594 266.359
      vertex 356.546 20 200.617
      vertex 358.212 11.8823 265.989
    endloop
  endfacet
  facet normal 0.979574 0.201085 2.98418e-06
    outer loop
      vertex 356.546 20 200.617
      vertex 358.299 11.4594 266.359
      vertex 358.8 9.02 186.267
    endloop
  endfacet
  facet normal 0.979632 0.200801 1.19991e-05
    outer loop
      vertex 358.8 9.02 186.267
      vertex 358.299 11.4594 266.359
      vertex 358.375 11.0886 266.782
    endloop
  endfacet
  facet normal 0.979064 0.203553 -6.16949e-05
    outer loop
      vertex 358.8 9.02 186.267
      vertex 358.375 11.0886 266.782
      vertex 358.44 10.7761 267.25
    endloop
  endfacet
  facet normal 0.97963 0.200809 3.21364e-07
    outer loop
      vertex 358.8 9.02 186.267
      vertex 358.44 10.7761 267.25
      vertex 358.491 10.5273 267.754
    endloop
  endfacet
  facet normal 0.979692 0.200508 6.12298e-06
    outer loop
      vertex 358.8 9.02 186.267
      vertex 358.491 10.5273 267.754
      vertex 358.528 10.3465 268.287
    endloop
  endfacet
  facet normal 0.980413 0.196951 6.60406e-05
    outer loop
      vertex 358.8 9.02 186.267
      vertex 358.528 10.3465 268.287
      vertex 358.55 10.2368 268.839
    endloop
  endfacet
  facet normal 0.979573 0.201089 0
    outer loop
      vertex 356.546 20 188.16
      vertex 358.8 9.02 186.267
      vertex 356.546 20 186.267
    endloop
  endfacet
  facet normal 0.977618 0.210386 -0.000140393
    outer loop
      vertex 358.558 10.2 269.4
      vertex 358.8 9.02 186.267
      vertex 358.55 10.2368 268.839
    endloop
  endfacet
  facet normal 0.979611 0.200903 -0
    outer loop
      vertex 358.8 9.02 186.267
      vertex 358.558 10.2 269.4
      vertex 358.8 9.02 352.533
    endloop
  endfacet
  facet normal -1 0 0
    outer loop
      vertex 344.8 9 186.267
      vertex 344.8 9.02 352.533
      vertex 344.8 9.02 186.267
    endloop
  endfacet
  facet normal -1 -0 0
    outer loop
      vertex 344.8 9.02 352.533
      vertex 344.8 9 186.267
      vertex 344.8 9 352.533
    endloop
  endfacet
  facet normal 0 -1 0
    outer loop
      vertex 344.8 9 186.267
      vertex 358.8 9 352.533
      vertex 344.8 9 352.533
    endloop
  endfacet
  facet normal 0 -1 -0
    outer loop
      vertex 358.8 9 352.533
      vertex 344.8 9 186.267
      vertex 358.8 9 186.267
    endloop
  endfacet
  facet normal 1 -0 0
    outer loop
      vertex 358.8 9 352.533
      vertex 358.8 9.02 186.267
      vertex 358.8 9.02 352.533
    endloop
  endfacet
  facet normal 1 0 0
    outer loop
      vertex 358.8 9.02 186.267
      vertex 358.8 9 352.533
      vertex 358.8 9 186.267
    endloop
  endfacet
  facet normal -0.979573 0.201089 0
    outer loop
      vertex 344.8 9.02 186.267
      vertex 347.054 20 188.16
      vertex 347.054 20 186.267
    endloop
  endfacet
  facet normal -0.979573 0.201089 0
    outer loop
      vertex 347.054 20 188.16
      vertex 344.8 9.02 186.267
      vertex 347.054 20 200.617
    endloop
  endfacet
  facet normal -0.979467 0.201607 0
    outer loop
      vertex 347.054 20 200.617
      vertex 346.807 18.8 269.4
      vertex 347.054 20 352.533
    endloop
  endfacet
  facet normal -0.981789 0.189974 -0.000211284
    outer loop
      vertex 347.054 20 200.617
      vertex 346.8 18.7632 268.839
      vertex 346.807 18.8 269.4
    endloop
  endfacet
  facet normal -0.97879 0.204864 6.98257e-05
    outer loop
      vertex 347.054 20 200.617
      vertex 346.777 18.6535 268.287
      vertex 346.8 18.7632 268.839
    endloop
  endfacet
  facet normal -0.979684 0.200547 -1.97489e-05
    outer loop
      vertex 347.054 20 200.617
      vertex 346.74 18.4727 267.754
      vertex 346.777 18.6535 268.287
    endloop
  endfacet
  facet normal -0.979625 0.200834 -1.29451e-05
    outer loop
      vertex 347.054 20 200.617
      vertex 346.689 18.2239 267.25
      vertex 346.74 18.4727 267.754
    endloop
  endfacet
  facet normal -0.979661 0.200661 -1.77392e-05
    outer loop
      vertex 347.054 20 200.617
      vertex 346.625 17.9114 266.782
      vertex 346.689 18.2239 267.25
    endloop
  endfacet
  facet normal -0.979632 0.200802 -1.30888e-05
    outer loop
      vertex 347.054 20 200.617
      vertex 346.549 17.5406 266.359
      vertex 346.625 17.9114 266.782
    endloop
  endfacet
  facet normal -0.97949 0.201491 1.37582e-05
    outer loop
      vertex 347.054 20 200.617
      vertex 346.462 17.1177 265.989
      vertex 346.549 17.5406 266.359
    endloop
  endfacet
  facet normal -0.979577 0.201071 -5.52704e-06
    outer loop
      vertex 347.054 20 200.617
      vertex 346.366 16.65 265.676
      vertex 346.462 17.1177 265.989
    endloop
  endfacet
  facet normal -0.979783 0.200064 -5.95618e-05
    outer loop
      vertex 347.054 20 200.617
      vertex 346.263 16.1455 265.427
      vertex 346.366 16.65 265.676
    endloop
  endfacet
  facet normal -0.979336 0.202241 7.53284e-05
    outer loop
      vertex 347.054 20 200.617
      vertex 346.153 15.6129 265.247
      vertex 346.263 16.1455 265.427
    endloop
  endfacet
  facet normal -0.979653 0.200697 -3.3872e-05
    outer loop
      vertex 347.054 20 200.617
      vertex 346.04 15.0613 265.137
      vertex 346.153 15.6129 265.247
    endloop
  endfacet
  facet normal -0.97965 0.200714 -3.25053e-05
    outer loop
      vertex 347.054 20 200.617
      vertex 345.925 14.5 265.1
      vertex 346.04 15.0613 265.137
    endloop
  endfacet
  facet normal -0.979574 0.201085 2.98418e-06
    outer loop
      vertex 345.301 11.4594 266.359
      vertex 347.054 20 200.617
      vertex 344.8 9.02 186.267
    endloop
  endfacet
  facet normal -0.979651 0.20071 -3.2873e-05
    outer loop
      vertex 347.054 20 200.617
      vertex 345.81 13.9387 265.137
      vertex 345.925 14.5 265.1
    endloop
  endfacet
  facet normal -0.979299 0.20242 0.00013454
    outer loop
      vertex 347.054 20 200.617
      vertex 345.696 13.3871 265.247
      vertex 345.81 13.9387 265.137
    endloop
  endfacet
  facet normal -0.979698 0.200477 -7.26616e-05
    outer loop
      vertex 347.054 20 200.617
      vertex 345.587 12.8545 265.427
      vertex 345.696 13.3871 265.247
    endloop
  endfacet
  facet normal -0.979397 0.201945 9.59997e-05
    outer loop
      vertex 347.054 20 200.617
      vertex 345.483 12.35 265.676
      vertex 345.587 12.8545 265.427
    endloop
  endfacet
  facet normal -0.980024 0.198877 -0.000279905
    outer loop
      vertex 347.054 20 200.617
      vertex 345.388 11.8823 265.989
      vertex 345.483 12.35 265.676
    endloop
  endfacet
  facet normal -0.979476 0.201559 6.71142e-05
    outer loop
      vertex 347.054 20 200.617
      vertex 345.301 11.4594 266.359
      vertex 345.388 11.8823 265.989
    endloop
  endfacet
  facet normal -0.979632 0.200801 1.19991e-05
    outer loop
      vertex 345.301 11.4594 266.359
      vertex 344.8 9.02 186.267
      vertex 345.225 11.0886 266.782
    endloop
  endfacet
  facet normal -0.979064 0.203553 -6.16949e-05
    outer loop
      vertex 345.225 11.0886 266.782
      vertex 344.8 9.02 186.267
      vertex 345.16 10.7761 267.25
    endloop
  endfacet
  facet normal -0.97963 0.200809 3.21364e-07
    outer loop
      vertex 345.16 10.7761 267.25
      vertex 344.8 9.02 186.267
      vertex 345.109 10.5273 267.754
    endloop
  endfacet
  facet normal -0.979692 0.200508 6.12298e-06
    outer loop
      vertex 345.109 10.5273 267.754
      vertex 344.8 9.02 186.267
      vertex 345.072 10.3465 268.287
    endloop
  endfacet
  facet normal -0.977618 0.210386 -0.000140393
    outer loop
      vertex 345.05 10.2368 268.839
      vertex 344.8 9.02 186.267
      vertex 345.042 10.2 269.4
    endloop
  endfacet
  facet normal -0.980413 0.196951 6.60406e-05
    outer loop
      vertex 345.072 10.3465 268.287
      vertex 344.8 9.02 186.267
      vertex 345.05 10.2368 268.839
    endloop
  endfacet
  facet normal -0.979627 0.200824 0
    outer loop
      vertex 347.054 20 188.16
      vertex 347.3 21.2 200.617
      vertex 347.3 21.2 186.983
    endloop
  endfacet
  facet normal -0.979627 0.200824 0
    outer loop
      vertex 347.3 21.2 200.617
      vertex 347.054 20 188.16
      vertex 347.054 20 200.617
    endloop
  endfacet
  facet normal -0.981874 0.189535 0.000181407
    outer loop
      vertex 346.8 18.7632 269.961
      vertex 347.054 20 352.533
      vertex 346.807 18.8 269.4
    endloop
  endfacet
  facet normal -0.978779 0.204919 -5.85407e-05
    outer loop
      vertex 346.777 18.6535 270.513
      vertex 347.054 20 352.533
      vertex 346.8 18.7632 269.961
    endloop
  endfacet
  facet normal -0.979686 0.200537 1.64532e-05
    outer loop
      vertex 346.74 18.4727 271.046
      vertex 347.054 20 352.533
      vertex 346.777 18.6535 270.513
    endloop
  endfacet
  facet normal -0.979626 0.200829 1.07488e-05
    outer loop
      vertex 346.689 18.2239 271.55
      vertex 347.054 20 352.533
      vertex 346.74 18.4727 271.046
    endloop
  endfacet
  facet normal -0.979662 0.200657 1.46958e-05
    outer loop
      vertex 346.625 17.9114 272.018
      vertex 347.054 20 352.533
      vertex 346.689 18.2239 271.55
    endloop
  endfacet
  facet normal -0.979632 0.2008 1.0823e-05
    outer loop
      vertex 346.549 17.5406 272.441
      vertex 347.054 20 352.533
      vertex 346.625 17.9114 272.018
    endloop
  endfacet
  facet normal -0.97949 0.201493 -1.13576e-05
    outer loop
      vertex 346.462 17.1177 272.811
      vertex 347.054 20 352.533
      vertex 346.549 17.5406 272.441
    endloop
  endfacet
  facet normal -0.979577 0.201071 4.55568e-06
    outer loop
      vertex 346.366 16.65 273.124
      vertex 347.054 20 352.533
      vertex 346.462 17.1177 272.811
    endloop
  endfacet
  facet normal -0.979784 0.200059 4.9018e-05
    outer loop
      vertex 346.263 16.1455 273.373
      vertex 347.054 20 352.533
      vertex 346.366 16.65 273.124
    endloop
  endfacet
  facet normal -0.979335 0.202245 -6.1894e-05
    outer loop
      vertex 346.153 15.6129 273.553
      vertex 347.054 20 352.533
      vertex 346.263 16.1455 273.373
    endloop
  endfacet
  facet normal -0.979654 0.200696 2.77852e-05
    outer loop
      vertex 346.04 15.0613 273.663
      vertex 347.054 20 352.533
      vertex 346.153 15.6129 273.553
    endloop
  endfacet
  facet normal -0.97965 0.200714 2.66155e-05
    outer loop
      vertex 345.925 14.5 273.7
      vertex 347.054 20 352.533
      vertex 346.04 15.0613 273.663
    endloop
  endfacet
  facet normal -0.97965 0.200714 -2.78236e-05
    outer loop
      vertex 344.8 9.02 352.533
      vertex 345.925 14.5 273.7
      vertex 345.81 13.9387 273.663
    endloop
  endfacet
  facet normal -0.979307 0.202379 8.03932e-05
    outer loop
      vertex 344.8 9.02 352.533
      vertex 345.81 13.9387 273.663
      vertex 345.696 13.3871 273.553
    endloop
  endfacet
  facet normal -0.979692 0.200509 -2.73371e-05
    outer loop
      vertex 344.8 9.02 352.533
      vertex 345.696 13.3871 273.553
      vertex 345.587 12.8545 273.373
    endloop
  endfacet
  facet normal -0.97941 0.20188 4.18317e-05
    outer loop
      vertex 344.8 9.02 352.533
      vertex 345.587 12.8545 273.373
      vertex 345.483 12.35 273.124
    endloop
  endfacet
  facet normal -0.979978 0.199108 -7.9285e-05
    outer loop
      vertex 344.8 9.02 352.533
      vertex 345.483 12.35 273.124
      vertex 345.388 11.8823 272.811
    endloop
  endfacet
  facet normal -0.97949 0.201494 9.99672e-06
    outer loop
      vertex 344.8 9.02 352.533
      vertex 345.388 11.8823 272.811
      vertex 345.301 11.4594 272.441
    endloop
  endfacet
  facet normal -0.979632 0.200801 -1.19991e-05
    outer loop
      vertex 344.8 9.02 352.533
      vertex 345.301 11.4594 272.441
      vertex 345.225 11.0886 272.018
    endloop
  endfacet
  facet normal -0.979064 0.203553 6.16949e-05
    outer loop
      vertex 344.8 9.02 352.533
      vertex 345.225 11.0886 272.018
      vertex 345.16 10.7761 271.55
    endloop
  endfacet
  facet normal -0.97963 0.200809 -3.21364e-07
    outer loop
      vertex 344.8 9.02 352.533
      vertex 345.16 10.7761 271.55
      vertex 345.109 10.5273 271.046
    endloop
  endfacet
  facet normal -0.979692 0.200508 -6.12298e-06
    outer loop
      vertex 344.8 9.02 352.533
      vertex 345.109 10.5273 271.046
      vertex 345.072 10.3465 270.513
    endloop
  endfacet
  facet normal -0.980413 0.196951 -6.60406e-05
    outer loop
      vertex 344.8 9.02 352.533
      vertex 345.072 10.3465 270.513
      vertex 345.05 10.2368 269.961
    endloop
  endfacet
  facet normal -0.979573 0.201089 -6.56379e-07
    outer loop
      vertex 345.925 14.5 273.7
      vertex 344.8 9.02 352.533
      vertex 347.054 20 352.533
    endloop
  endfacet
  facet normal -0.977618 0.210386 0.000140393
    outer loop
      vertex 345.042 10.2 269.4
      vertex 344.8 9.02 352.533
      vertex 345.05 10.2368 269.961
    endloop
  endfacet
  facet normal -0.979611 0.200903 0
    outer loop
      vertex 344.8 9.02 352.533
      vertex 345.042 10.2 269.4
      vertex 344.8 9.02 186.267
    endloop
  endfacet
  facet normal 0 -0.947 0.321234
    outer loop
      vertex 346.74 18.4727 267.754
      vertex 356.823 18.6535 268.287
      vertex 346.777 18.6535 268.287
    endloop
  endfacet
  facet normal 0 -0.947 0.321234
    outer loop
      vertex 356.823 18.6535 268.287
      vertex 346.74 18.4727 267.754
      vertex 356.86 18.4727 267.754
    endloop
  endfacet
  facet normal 0 0.896693 -0.442653
    outer loop
      vertex 358.491 10.5273 271.046
      vertex 345.16 10.7761 271.55
      vertex 358.44 10.7761 271.55
    endloop
  endfacet
  facet normal 0 0.896693 -0.442653
    outer loop
      vertex 345.16 10.7761 271.55
      vertex 358.491 10.5273 271.046
      vertex 345.109 10.5273 271.046
    endloop
  endfacet
  facet normal -0 0.0657757 0.997834
    outer loop
      vertex 345.925 14.5 265.1
      vertex 357.79 13.9387 265.137
      vertex 357.675 14.5 265.1
    endloop
  endfacet
  facet normal 0 0.0657757 0.997834
    outer loop
      vertex 357.79 13.9387 265.137
      vertex 345.925 14.5 265.1
      vertex 345.81 13.9387 265.137
    endloop
  endfacet
  facet normal 0 -0.0657757 0.997834
    outer loop
      vertex 346.04 15.0613 265.137
      vertex 357.675 14.5 265.1
      vertex 357.56 15.0613 265.137
    endloop
  endfacet
  facet normal 0 -0.0657757 0.997834
    outer loop
      vertex 357.675 14.5 265.1
      vertex 346.04 15.0613 265.137
      vertex 345.925 14.5 265.1
    endloop
  endfacet
  facet normal 0 -0.896693 0.442653
    outer loop
      vertex 346.689 18.2239 267.25
      vertex 356.86 18.4727 267.754
      vertex 346.74 18.4727 267.754
    endloop
  endfacet
  facet normal 0 -0.896693 0.442653
    outer loop
      vertex 356.86 18.4727 267.754
      vertex 346.689 18.2239 267.25
      vertex 356.911 18.2239 267.25
    endloop
  endfacet
  facet normal 0 -0.320174 -0.947359
    outer loop
      vertex 357.447 15.6129 273.553
      vertex 346.263 16.1455 273.373
      vertex 357.337 16.1455 273.373
    endloop
  endfacet
  facet normal 0 -0.320174 -0.947359
    outer loop
      vertex 346.263 16.1455 273.373
      vertex 357.447 15.6129 273.553
      vertex 346.153 15.6129 273.553
    endloop
  endfacet
  facet normal 0 0.947 0.321234
    outer loop
      vertex 358.491 10.5273 267.754
      vertex 345.072 10.3465 268.287
      vertex 358.528 10.3465 268.287
    endloop
  endfacet
  facet normal 0 0.947 0.321234
    outer loop
      vertex 345.072 10.3465 268.287
      vertex 358.491 10.5273 267.754
      vertex 345.109 10.5273 267.754
    endloop
  endfacet
  facet normal 0 -0.751982 0.659184
    outer loop
      vertex 346.549 17.5406 266.359
      vertex 356.975 17.9114 266.782
      vertex 346.625 17.9114 266.782
    endloop
  endfacet
  facet normal 0 -0.751982 0.659184
    outer loop
      vertex 356.975 17.9114 266.782
      vertex 346.549 17.5406 266.359
      vertex 357.051 17.5406 266.359
    endloop
  endfacet
  facet normal 0 -0.83164 0.555315
    outer loop
      vertex 346.625 17.9114 266.782
      vertex 356.911 18.2239 267.25
      vertex 346.689 18.2239 267.25
    endloop
  endfacet
  facet normal 0 -0.83164 0.555315
    outer loop
      vertex 356.911 18.2239 267.25
      vertex 346.625 17.9114 266.782
      vertex 356.975 17.9114 266.782
    endloop
  endfacet
  facet normal -0 0.320174 0.947359
    outer loop
      vertex 345.696 13.3871 265.247
      vertex 358.013 12.8545 265.427
      vertex 357.904 13.3871 265.247
    endloop
  endfacet
  facet normal 0 0.320174 0.947359
    outer loop
      vertex 358.013 12.8545 265.427
      vertex 345.696 13.3871 265.247
      vertex 345.587 12.8545 265.427
    endloop
  endfacet
  facet normal -0 0.556176 0.831065
    outer loop
      vertex 345.483 12.35 265.676
      vertex 358.212 11.8823 265.989
      vertex 358.117 12.35 265.676
    endloop
  endfacet
  facet normal 0 0.556176 0.831065
    outer loop
      vertex 358.212 11.8823 265.989
      vertex 345.483 12.35 265.676
      vertex 345.388 11.8823 265.989
    endloop
  endfacet
  facet normal 0 0.658467 -0.75261
    outer loop
      vertex 358.299 11.4594 272.441
      vertex 345.388 11.8823 272.811
      vertex 358.212 11.8823 272.811
    endloop
  endfacet
  facet normal 0 0.658467 -0.75261
    outer loop
      vertex 345.388 11.8823 272.811
      vertex 358.299 11.4594 272.441
      vertex 345.301 11.4594 272.441
    endloop
  endfacet
  facet normal 0 -0.83164 -0.555315
    outer loop
      vertex 346.689 18.2239 271.55
      vertex 356.975 17.9114 272.018
      vertex 346.625 17.9114 272.018
    endloop
  endfacet
  facet normal 0 -0.83164 -0.555315
    outer loop
      vertex 356.975 17.9114 272.018
      vertex 346.689 18.2239 271.55
      vertex 356.911 18.2239 271.55
    endloop
  endfacet
  facet normal 0 0.997855 0.0654565
    outer loop
      vertex 358.55 10.2368 268.839
      vertex 345.042 10.2 269.4
      vertex 358.558 10.2 269.4
    endloop
  endfacet
  facet normal 0 0.997855 0.0654565
    outer loop
      vertex 345.042 10.2 269.4
      vertex 358.55 10.2368 268.839
      vertex 345.05 10.2368 268.839
    endloop
  endfacet
  facet normal 0 0.980819 -0.19492
    outer loop
      vertex 358.55 10.2368 269.961
      vertex 345.072 10.3465 270.513
      vertex 358.528 10.3465 270.513
    endloop
  endfacet
  facet normal 0 0.980819 -0.19492
    outer loop
      vertex 345.072 10.3465 270.513
      vertex 358.55 10.2368 269.961
      vertex 345.05 10.2368 269.961
    endloop
  endfacet
  facet normal 0 -0.195569 0.98069
    outer loop
      vertex 346.153 15.6129 265.247
      vertex 357.56 15.0613 265.137
      vertex 357.447 15.6129 265.247
    endloop
  endfacet
  facet normal 0 -0.195569 0.98069
    outer loop
      vertex 357.56 15.0613 265.137
      vertex 346.153 15.6129 265.247
      vertex 346.04 15.0613 265.137
    endloop
  endfacet
  facet normal 0 -0.442586 0.896726
    outer loop
      vertex 346.366 16.65 265.676
      vertex 357.337 16.1455 265.427
      vertex 357.234 16.65 265.676
    endloop
  endfacet
  facet normal 0 -0.442586 0.896726
    outer loop
      vertex 357.337 16.1455 265.427
      vertex 346.366 16.65 265.676
      vertex 346.263 16.1455 265.427
    endloop
  endfacet
  facet normal 0 -0.980819 0.19492
    outer loop
      vertex 346.777 18.6535 268.287
      vertex 356.8 18.7632 268.839
      vertex 346.8 18.7632 268.839
    endloop
  endfacet
  facet normal 0 -0.980819 0.19492
    outer loop
      vertex 356.8 18.7632 268.839
      vertex 346.777 18.6535 268.287
      vertex 356.823 18.6535 268.287
    endloop
  endfacet
  facet normal 0 0.896693 0.442653
    outer loop
      vertex 358.44 10.7761 267.25
      vertex 345.109 10.5273 267.754
      vertex 358.491 10.5273 267.754
    endloop
  endfacet
  facet normal 0 0.896693 0.442653
    outer loop
      vertex 345.109 10.5273 267.754
      vertex 358.44 10.7761 267.25
      vertex 345.16 10.7761 267.25
    endloop
  endfacet
  facet normal 0 -0.556176 0.831065
    outer loop
      vertex 346.462 17.1177 265.989
      vertex 357.234 16.65 265.676
      vertex 357.138 17.1177 265.989
    endloop
  endfacet
  facet normal 0 -0.556176 0.831065
    outer loop
      vertex 357.234 16.65 265.676
      vertex 346.462 17.1177 265.989
      vertex 346.366 16.65 265.676
    endloop
  endfacet
  facet normal 0 -0.751982 -0.659184
    outer loop
      vertex 346.625 17.9114 272.018
      vertex 357.051 17.5406 272.441
      vertex 346.549 17.5406 272.441
    endloop
  endfacet
  facet normal 0 -0.751982 -0.659184
    outer loop
      vertex 357.051 17.5406 272.441
      vertex 346.625 17.9114 272.018
      vertex 356.975 17.9114 272.018
    endloop
  endfacet
  facet normal 0 0.195569 -0.98069
    outer loop
      vertex 357.904 13.3871 273.553
      vertex 345.81 13.9387 273.663
      vertex 357.79 13.9387 273.663
    endloop
  endfacet
  facet normal 0 0.195569 -0.98069
    outer loop
      vertex 345.81 13.9387 273.663
      vertex 357.904 13.3871 273.553
      vertex 345.696 13.3871 273.553
    endloop
  endfacet
  facet normal 0 0.980819 0.19492
    outer loop
      vertex 358.528 10.3465 268.287
      vertex 345.05 10.2368 268.839
      vertex 358.55 10.2368 268.839
    endloop
  endfacet
  facet normal 0 0.980819 0.19492
    outer loop
      vertex 345.05 10.2368 268.839
      vertex 358.528 10.3465 268.287
      vertex 345.072 10.3465 268.287
    endloop
  endfacet
  facet normal 0 -0.896693 -0.442653
    outer loop
      vertex 346.74 18.4727 271.046
      vertex 356.911 18.2239 271.55
      vertex 346.689 18.2239 271.55
    endloop
  endfacet
  facet normal 0 -0.896693 -0.442653
    outer loop
      vertex 356.911 18.2239 271.55
      vertex 346.74 18.4727 271.046
      vertex 356.86 18.4727 271.046
    endloop
  endfacet
  facet normal 0 0.751982 0.659184
    outer loop
      vertex 358.299 11.4594 266.359
      vertex 345.225 11.0886 266.782
      vertex 358.375 11.0886 266.782
    endloop
  endfacet
  facet normal 0 0.751982 0.659184
    outer loop
      vertex 345.225 11.0886 266.782
      vertex 358.299 11.4594 266.359
      vertex 345.301 11.4594 266.359
    endloop
  endfacet
  facet normal 0 0.997855 -0.0654565
    outer loop
      vertex 358.558 10.2 269.4
      vertex 345.05 10.2368 269.961
      vertex 358.55 10.2368 269.961
    endloop
  endfacet
  facet normal 0 0.997855 -0.0654565
    outer loop
      vertex 345.05 10.2368 269.961
      vertex 358.558 10.2 269.4
      vertex 345.042 10.2 269.4
    endloop
  endfacet
  facet normal 0 -0.556176 -0.831065
    outer loop
      vertex 357.234 16.65 273.124
      vertex 346.462 17.1177 272.811
      vertex 357.138 17.1177 272.811
    endloop
  endfacet
  facet normal 0 -0.556176 -0.831065
    outer loop
      vertex 346.462 17.1177 272.811
      vertex 357.234 16.65 273.124
      vertex 346.366 16.65 273.124
    endloop
  endfacet
  facet normal 0 -0.980819 -0.19492
    outer loop
      vertex 346.8 18.7632 269.961
      vertex 356.823 18.6535 270.513
      vertex 346.777 18.6535 270.513
    endloop
  endfacet
  facet normal 0 -0.980819 -0.19492
    outer loop
      vertex 356.823 18.6535 270.513
      vertex 346.8 18.7632 269.961
      vertex 356.8 18.7632 269.961
    endloop
  endfacet
  facet normal 0 -0.997855 -0.0654565
    outer loop
      vertex 346.807 18.8 269.4
      vertex 356.8 18.7632 269.961
      vertex 346.8 18.7632 269.961
    endloop
  endfacet
  facet normal 0 -0.997855 -0.0654565
    outer loop
      vertex 356.8 18.7632 269.961
      vertex 346.807 18.8 269.4
      vertex 356.793 18.8 269.4
    endloop
  endfacet
  facet normal 0 -0.658467 0.75261
    outer loop
      vertex 346.549 17.5406 266.359
      vertex 357.138 17.1177 265.989
      vertex 357.051 17.5406 266.359
    endloop
  endfacet
  facet normal 0 -0.658467 0.75261
    outer loop
      vertex 357.138 17.1177 265.989
      vertex 346.549 17.5406 266.359
      vertex 346.462 17.1177 265.989
    endloop
  endfacet
  facet normal -0 0.195569 0.98069
    outer loop
      vertex 345.81 13.9387 265.137
      vertex 357.904 13.3871 265.247
      vertex 357.79 13.9387 265.137
    endloop
  endfacet
  facet normal 0 0.195569 0.98069
    outer loop
      vertex 357.904 13.3871 265.247
      vertex 345.81 13.9387 265.137
      vertex 345.696 13.3871 265.247
    endloop
  endfacet
  facet normal 0 0.442586 -0.896726
    outer loop
      vertex 358.117 12.35 273.124
      vertex 345.587 12.8545 273.373
      vertex 358.013 12.8545 273.373
    endloop
  endfacet
  facet normal 0 0.442586 -0.896726
    outer loop
      vertex 345.587 12.8545 273.373
      vertex 358.117 12.35 273.124
      vertex 345.483 12.35 273.124
    endloop
  endfacet
  facet normal 0 -0.442586 -0.896726
    outer loop
      vertex 357.337 16.1455 273.373
      vertex 346.366 16.65 273.124
      vertex 357.234 16.65 273.124
    endloop
  endfacet
  facet normal 0 -0.442586 -0.896726
    outer loop
      vertex 346.366 16.65 273.124
      vertex 357.337 16.1455 273.373
      vertex 346.263 16.1455 273.373
    endloop
  endfacet
  facet normal 0 0.751982 -0.659184
    outer loop
      vertex 358.375 11.0886 272.018
      vertex 345.301 11.4594 272.441
      vertex 358.299 11.4594 272.441
    endloop
  endfacet
  facet normal 0 0.751982 -0.659184
    outer loop
      vertex 345.301 11.4594 272.441
      vertex 358.375 11.0886 272.018
      vertex 345.225 11.0886 272.018
    endloop
  endfacet
  facet normal 0 0.0657757 -0.997834
    outer loop
      vertex 357.79 13.9387 273.663
      vertex 345.925 14.5 273.7
      vertex 357.675 14.5 273.7
    endloop
  endfacet
  facet normal 0 0.0657757 -0.997834
    outer loop
      vertex 345.925 14.5 273.7
      vertex 357.79 13.9387 273.663
      vertex 345.81 13.9387 273.663
    endloop
  endfacet
  facet normal 0 0.83164 0.555315
    outer loop
      vertex 358.375 11.0886 266.782
      vertex 345.16 10.7761 267.25
      vertex 358.44 10.7761 267.25
    endloop
  endfacet
  facet normal 0 0.83164 0.555315
    outer loop
      vertex 345.16 10.7761 267.25
      vertex 358.375 11.0886 266.782
      vertex 345.225 11.0886 266.782
    endloop
  endfacet
  facet normal -0 0.442586 0.896726
    outer loop
      vertex 345.587 12.8545 265.427
      vertex 358.117 12.35 265.676
      vertex 358.013 12.8545 265.427
    endloop
  endfacet
  facet normal 0 0.442586 0.896726
    outer loop
      vertex 358.117 12.35 265.676
      vertex 345.587 12.8545 265.427
      vertex 345.483 12.35 265.676
    endloop
  endfacet
  facet normal 0 -0.320174 0.947359
    outer loop
      vertex 346.263 16.1455 265.427
      vertex 357.447 15.6129 265.247
      vertex 357.337 16.1455 265.427
    endloop
  endfacet
  facet normal 0 -0.320174 0.947359
    outer loop
      vertex 357.447 15.6129 265.247
      vertex 346.263 16.1455 265.427
      vertex 346.153 15.6129 265.247
    endloop
  endfacet
  facet normal 0 -0.947 -0.321234
    outer loop
      vertex 346.777 18.6535 270.513
      vertex 356.86 18.4727 271.046
      vertex 346.74 18.4727 271.046
    endloop
  endfacet
  facet normal 0 -0.947 -0.321234
    outer loop
      vertex 356.86 18.4727 271.046
      vertex 346.777 18.6535 270.513
      vertex 356.823 18.6535 270.513
    endloop
  endfacet
  facet normal 0 0.320174 -0.947359
    outer loop
      vertex 358.013 12.8545 273.373
      vertex 345.696 13.3871 273.553
      vertex 357.904 13.3871 273.553
    endloop
  endfacet
  facet normal 0 0.320174 -0.947359
    outer loop
      vertex 345.696 13.3871 273.553
      vertex 358.013 12.8545 273.373
      vertex 345.587 12.8545 273.373
    endloop
  endfacet
  facet normal 0 -0.0657757 -0.997834
    outer loop
      vertex 357.675 14.5 273.7
      vertex 346.04 15.0613 273.663
      vertex 357.56 15.0613 273.663
    endloop
  endfacet
  facet normal 0 -0.0657757 -0.997834
    outer loop
      vertex 346.04 15.0613 273.663
      vertex 357.675 14.5 273.7
      vertex 345.925 14.5 273.7
    endloop
  endfacet
  facet normal 0 0.947 -0.321234
    outer loop
      vertex 358.528 10.3465 270.513
      vertex 345.109 10.5273 271.046
      vertex 358.491 10.5273 271.046
    endloop
  endfacet
  facet normal 0 0.947 -0.321234
    outer loop
      vertex 345.109 10.5273 271.046
      vertex 358.528 10.3465 270.513
      vertex 345.072 10.3465 270.513
    endloop
  endfacet
  facet normal 0 -0.658467 -0.75261
    outer loop
      vertex 357.138 17.1177 272.811
      vertex 346.549 17.5406 272.441
      vertex 357.051 17.5406 272.441
    endloop
  endfacet
  facet normal 0 -0.658467 -0.75261
    outer loop
      vertex 346.549 17.5406 272.441
      vertex 357.138 17.1177 272.811
      vertex 346.462 17.1177 272.811
    endloop
  endfacet
  facet normal 0 -0.195569 -0.98069
    outer loop
      vertex 357.56 15.0613 273.663
      vertex 346.153 15.6129 273.553
      vertex 357.447 15.6129 273.553
    endloop
  endfacet
  facet normal 0 -0.195569 -0.98069
    outer loop
      vertex 346.153 15.6129 273.553
      vertex 357.56 15.0613 273.663
      vertex 346.04 15.0613 273.663
    endloop
  endfacet
  facet normal 0 -0.997855 0.0654565
    outer loop
      vertex 346.8 18.7632 268.839
      vertex 356.793 18.8 269.4
      vertex 346.807 18.8 269.4
    endloop
  endfacet
  facet normal 0 -0.997855 0.0654565
    outer loop
      vertex 356.793 18.8 269.4
      vertex 346.8 18.7632 268.839
      vertex 356.8 18.7632 268.839
    endloop
  endfacet
  facet normal -0 0.658467 0.75261
    outer loop
      vertex 345.388 11.8823 265.989
      vertex 358.299 11.4594 266.359
      vertex 358.212 11.8823 265.989
    endloop
  endfacet
  facet normal 0 0.658467 0.75261
    outer loop
      vertex 358.299 11.4594 266.359
      vertex 345.388 11.8823 265.989
      vertex 345.301 11.4594 266.359
    endloop
  endfacet
  facet normal 0 0.83164 -0.555315
    outer loop
      vertex 358.44 10.7761 271.55
      vertex 345.225 11.0886 272.018
      vertex 358.375 11.0886 272.018
    endloop
  endfacet
  facet normal 0 0.83164 -0.555315
    outer loop
      vertex 345.225 11.0886 272.018
      vertex 358.44 10.7761 271.55
      vertex 345.16 10.7761 271.55
    endloop
  endfacet
  facet normal 0 0.556176 -0.831065
    outer loop
      vertex 358.212 11.8823 272.811
      vertex 345.483 12.35 273.124
      vertex 358.117 12.35 273.124
    endloop
  endfacet
  facet normal 0 0.556176 -0.831065
    outer loop
      vertex 345.483 12.35 273.124
      vertex 358.212 11.8823 272.811
      vertex 345.388 11.8823 272.811
    endloop
  endfacet
endsolid OpenSCAD_Model
