solid OpenSCAD_Model
  facet normal 0 1 0
    outer loop
      vertex 347.054 241.4 20
      vertex 347.8 241.4 186.267
      vertex 347.8 241.4 20
    endloop
  endfacet
  facet normal 0 1 0
    outer loop
      vertex 347.8 241.4 186.267
      vertex 347.054 241.4 20
      vertex 341.8 241.4 186.267
    endloop
  endfacet
  facet normal 0 1 0
    outer loop
      vertex 341.8 241.4 186.267
      vertex 347.054 241.4 20
      vertex 341.8 241.4 20
    endloop
  endfacet
  facet normal 0 1 -0
    outer loop
      vertex 361.8 241.4 20
      vertex 355.8 241.4 186.267
      vertex 361.8 241.4 186.267
    endloop
  endfacet
  facet normal 0 1 -0
    outer loop
      vertex 356.546 241.4 20
      vertex 355.8 241.4 186.267
      vertex 361.8 241.4 20
    endloop
  endfacet
  facet normal 0 1 0
    outer loop
      vertex 356.546 241.4 20
      vertex 355.8 241.4 20
      vertex 355.8 241.4 186.267
    endloop
  endfacet
  facet normal 0 1 0
    outer loop
      vertex 358.8 241.4 9.02
      vertex 355.8 241.4 20
      vertex 356.546 241.4 20
    endloop
  endfacet
  facet normal 0 1 0
    outer loop
      vertex 355.8 241.4 20
      vertex 358.8 241.4 9.02
      vertex 347.8 241.4 20
    endloop
  endfacet
  facet normal 0 1 0
    outer loop
      vertex 344.8 241.4 9.02
      vertex 347.8 241.4 20
      vertex 358.8 241.4 9.02
    endloop
  endfacet
  facet normal 0 1 0
    outer loop
      vertex 347.8 241.4 20
      vertex 344.8 241.4 9.02
      vertex 347.054 241.4 20
    endloop
  endfacet
  facet normal 0 1 -0
    outer loop
      vertex 358.8 241.4 9
      vertex 344.8 241.4 9.02
      vertex 358.8 241.4 9.02
    endloop
  endfacet
  facet normal 0 1 0
    outer loop
      vertex 344.8 241.4 9.02
      vertex 358.8 241.4 9
      vertex 344.8 241.4 9
    endloop
  endfacet
  facet normal 1 -0 0
    outer loop
      vertex 361.8 20 186.267
      vertex 361.8 241.4 20
      vertex 361.8 241.4 186.267
    endloop
  endfacet
  facet normal 1 0 0
    outer loop
      vertex 361.8 241.4 20
      vertex 361.8 20 186.267
      vertex 361.8 20 20
    endloop
  endfacet
  facet normal -1 0 0
    outer loop
      vertex 341.8 20 20
      vertex 341.8 241.4 186.267
      vertex 341.8 241.4 20
    endloop
  endfacet
  facet normal -1 -0 0
    outer loop
      vertex 341.8 241.4 186.267
      vertex 341.8 20 20
      vertex 341.8 20 186.267
    endloop
  endfacet
  facet normal 0 -1 0
    outer loop
      vertex 341.8 20 20
      vertex 347.054 20 186.267
      vertex 341.8 20 186.267
    endloop
  endfacet
  facet normal 0 -1 -0
    outer loop
      vertex 347.054 20 186.267
      vertex 341.8 20 20
      vertex 347.054 20 20
    endloop
  endfacet
  facet normal 0 -1 0
    outer loop
      vertex 356.546 20 20
      vertex 361.8 20 186.267
      vertex 356.546 20 186.267
    endloop
  endfacet
  facet normal 0 -1 -0
    outer loop
      vertex 361.8 20 186.267
      vertex 356.546 20 20
      vertex 361.8 20 20
    endloop
  endfacet
  facet normal 0 -1 0
    outer loop
      vertex 344.8 20 200.247
      vertex 358.8 20 200.267
      vertex 344.8 20 200.267
    endloop
  endfacet
  facet normal 0 -1 0
    outer loop
      vertex 344.8 20 200.247
      vertex 358.8 20 200.247
      vertex 358.8 20 200.267
    endloop
  endfacet
  facet normal 0 -1 0
    outer loop
      vertex 347.8 20 186.267
      vertex 358.8 20 200.247
      vertex 344.8 20 200.247
    endloop
  endfacet
  facet normal 0 -1 0
    outer loop
      vertex 358.8 20 200.247
      vertex 347.8 20 186.267
      vertex 355.8 20 186.267
    endloop
  endfacet
  facet normal 0 0 1
    outer loop
      vertex 347.8 241.4 186.267
      vertex 347.054 20 186.267
      vertex 347.8 20 186.267
    endloop
  endfacet
  facet normal -0 0 1
    outer loop
      vertex 341.8 241.4 186.267
      vertex 347.054 20 186.267
      vertex 347.8 241.4 186.267
    endloop
  endfacet
  facet normal 0 0 1
    outer loop
      vertex 347.054 20 186.267
      vertex 341.8 241.4 186.267
      vertex 341.8 20 186.267
    endloop
  endfacet
  facet normal 0 0 1
    outer loop
      vertex 361.8 241.4 186.267
      vertex 356.546 20 186.267
      vertex 361.8 20 186.267
    endloop
  endfacet
  facet normal 0 -0 1
    outer loop
      vertex 356.546 20 186.267
      vertex 361.8 241.4 186.267
      vertex 355.8 241.4 186.267
    endloop
  endfacet
  facet normal -0 0 1
    outer loop
      vertex 355.8 20 186.267
      vertex 358.8 9.02 186.267
      vertex 356.546 20 186.267
    endloop
  endfacet
  facet normal 0 0 1
    outer loop
      vertex 355.8 20 186.267
      vertex 356.546 20 186.267
      vertex 355.8 241.4 186.267
    endloop
  endfacet
  facet normal -0 0 1
    outer loop
      vertex 347.8 20 186.267
      vertex 358.8 9.02 186.267
      vertex 355.8 20 186.267
    endloop
  endfacet
  facet normal 0 0 1
    outer loop
      vertex 344.8 9.02 186.267
      vertex 358.8 9.02 186.267
      vertex 347.8 20 186.267
    endloop
  endfacet
  facet normal 0 0 1
    outer loop
      vertex 344.8 9.02 186.267
      vertex 347.8 20 186.267
      vertex 347.054 20 186.267
    endloop
  endfacet
  facet normal 0 0 1
    outer loop
      vertex 358.8 9.02 186.267
      vertex 344.8 9.02 186.267
      vertex 358.8 9 186.267
    endloop
  endfacet
  facet normal 0 0 1
    outer loop
      vertex 358.8 9 186.267
      vertex 344.8 9.02 186.267
      vertex 344.8 9 186.267
    endloop
  endfacet
  facet normal 0 0 1
    outer loop
      vertex 344.8 255.38 186.267
      vertex 358.8 255.38 186.267
      vertex 358.8 255.4 186.267
    endloop
  endfacet
  facet normal 0 0 1
    outer loop
      vertex 358.8 255.38 186.267
      vertex 347.8 241.4 186.267
      vertex 355.8 241.4 186.267
    endloop
  endfacet
  facet normal 0 0 1
    outer loop
      vertex 344.8 255.38 186.267
      vertex 358.8 255.4 186.267
      vertex 344.8 255.4 186.267
    endloop
  endfacet
  facet normal 0 0 1
    outer loop
      vertex 358.8 255.38 186.267
      vertex 344.8 255.38 186.267
      vertex 347.8 241.4 186.267
    endloop
  endfacet
  facet normal 0 0 -1
    outer loop
      vertex 341.8 20 20
      vertex 347.054 241.4 20
      vertex 347.054 20 20
    endloop
  endfacet
  facet normal -0 0 -1
    outer loop
      vertex 347.054 241.4 20
      vertex 341.8 20 20
      vertex 341.8 241.4 20
    endloop
  endfacet
  facet normal 0 0 -1
    outer loop
      vertex 356.546 20 20
      vertex 361.8 241.4 20
      vertex 361.8 20 20
    endloop
  endfacet
  facet normal -0 0 -1
    outer loop
      vertex 361.8 241.4 20
      vertex 356.546 20 20
      vertex 356.546 241.4 20
    endloop
  endfacet
  facet normal 0 0 -1
    outer loop
      vertex 347.8 241.4 20
      vertex 358.8 255.38 20
      vertex 355.8 241.4 20
    endloop
  endfacet
  facet normal 0 0 -1
    outer loop
      vertex 344.8 255.38 20
      vertex 358.8 255.38 20
      vertex 347.8 241.4 20
    endloop
  endfacet
  facet normal 0 0 -1
    outer loop
      vertex 358.8 255.38 20
      vertex 344.8 255.38 20
      vertex 358.8 255.4 20
    endloop
  endfacet
  facet normal -0 0 -1
    outer loop
      vertex 358.8 255.4 20
      vertex 344.8 255.38 20
      vertex 344.8 255.4 20
    endloop
  endfacet
  facet normal 0 1 -0
    outer loop
      vertex 358.8 255.4 20
      vertex 344.8 255.4 186.267
      vertex 358.8 255.4 186.267
    endloop
  endfacet
  facet normal 0 1 0
    outer loop
      vertex 344.8 255.4 186.267
      vertex 358.8 255.4 20
      vertex 344.8 255.4 20
    endloop
  endfacet
  facet normal -0.977741 -0.209816 0
    outer loop
      vertex 347.8 241.4 20
      vertex 344.8 255.38 186.267
      vertex 344.8 255.38 20
    endloop
  endfacet
  facet normal -0.977741 -0.209816 0
    outer loop
      vertex 344.8 255.38 186.267
      vertex 347.8 241.4 20
      vertex 347.8 241.4 186.267
    endloop
  endfacet
  facet normal -1 0 0
    outer loop
      vertex 344.8 255.38 20
      vertex 344.8 255.4 186.267
      vertex 344.8 255.4 20
    endloop
  endfacet
  facet normal -1 -0 0
    outer loop
      vertex 344.8 255.4 186.267
      vertex 344.8 255.38 20
      vertex 344.8 255.38 186.267
    endloop
  endfacet
  facet normal 0.977741 -0.209816 0
    outer loop
      vertex 355.8 241.4 186.267
      vertex 358.8 255.38 20
      vertex 358.8 255.38 186.267
    endloop
  endfacet
  facet normal 0.977741 -0.209816 0
    outer loop
      vertex 358.8 255.38 20
      vertex 355.8 241.4 186.267
      vertex 355.8 241.4 20
    endloop
  endfacet
  facet normal 1 -0 0
    outer loop
      vertex 358.8 255.38 186.267
      vertex 358.8 255.4 20
      vertex 358.8 255.4 186.267
    endloop
  endfacet
  facet normal 1 0 0
    outer loop
      vertex 358.8 255.4 20
      vertex 358.8 255.38 186.267
      vertex 358.8 255.38 20
    endloop
  endfacet
  facet normal 0 1 -0
    outer loop
      vertex 358.8 241.4 200.247
      vertex 344.8 241.4 200.267
      vertex 358.8 241.4 200.267
    endloop
  endfacet
  facet normal 0 1 0
    outer loop
      vertex 358.8 241.4 200.247
      vertex 344.8 241.4 200.247
      vertex 344.8 241.4 200.267
    endloop
  endfacet
  facet normal 0 1 -0
    outer loop
      vertex 355.8 241.4 186.267
      vertex 344.8 241.4 200.247
      vertex 358.8 241.4 200.247
    endloop
  endfacet
  facet normal 0 1 0
    outer loop
      vertex 344.8 241.4 200.247
      vertex 355.8 241.4 186.267
      vertex 347.8 241.4 186.267
    endloop
  endfacet
  facet normal 0.977741 0 -0.209816
    outer loop
      vertex 358.8 20 200.247
      vertex 355.8 241.4 186.267
      vertex 358.8 241.4 200.247
    endloop
  endfacet
  facet normal 0.977741 0 -0.209816
    outer loop
      vertex 355.8 241.4 186.267
      vertex 358.8 20 200.247
      vertex 355.8 20 186.267
    endloop
  endfacet
  facet normal -0 0 1
    outer loop
      vertex 344.8 241.4 200.267
      vertex 358.8 20 200.267
      vertex 358.8 241.4 200.267
    endloop
  endfacet
  facet normal 0 0 1
    outer loop
      vertex 358.8 20 200.267
      vertex 344.8 241.4 200.267
      vertex 344.8 20 200.267
    endloop
  endfacet
  facet normal 1 -0 0
    outer loop
      vertex 358.8 20 200.267
      vertex 358.8 241.4 200.247
      vertex 358.8 241.4 200.267
    endloop
  endfacet
  facet normal 1 0 0
    outer loop
      vertex 358.8 241.4 200.247
      vertex 358.8 20 200.267
      vertex 358.8 20 200.247
    endloop
  endfacet
  facet normal -0.977741 0 -0.209816
    outer loop
      vertex 347.8 20 186.267
      vertex 344.8 241.4 200.247
      vertex 347.8 241.4 186.267
    endloop
  endfacet
  facet normal -0.977741 -0 -0.209816
    outer loop
      vertex 344.8 241.4 200.247
      vertex 347.8 20 186.267
      vertex 344.8 20 200.247
    endloop
  endfacet
  facet normal -1 0 0
    outer loop
      vertex 344.8 20 200.247
      vertex 344.8 241.4 200.267
      vertex 344.8 241.4 200.247
    endloop
  endfacet
  facet normal -1 -0 0
    outer loop
      vertex 344.8 241.4 200.267
      vertex 344.8 20 200.247
      vertex 344.8 20 200.267
    endloop
  endfacet
  facet normal 0 -1 0
    outer loop
      vertex 344.8 20 9.02
      vertex 356.546 20 20
      vertex 347.054 20 20
    endloop
  endfacet
  facet normal 0 -1 0
    outer loop
      vertex 344.8 20 9.02
      vertex 358.8 20 9.02
      vertex 356.546 20 20
    endloop
  endfacet
  facet normal 0 -1 0
    outer loop
      vertex 344.8 20 9
      vertex 358.8 20 9.02
      vertex 344.8 20 9.02
    endloop
  endfacet
  facet normal 0 -1 -0
    outer loop
      vertex 358.8 20 9.02
      vertex 344.8 20 9
      vertex 358.8 20 9
    endloop
  endfacet
  facet normal 0 0 -1
    outer loop
      vertex 344.8 20 9
      vertex 358.8 241.4 9
      vertex 358.8 20 9
    endloop
  endfacet
  facet normal -0 0 -1
    outer loop
      vertex 358.8 241.4 9
      vertex 344.8 20 9
      vertex 344.8 241.4 9
    endloop
  endfacet
  facet normal -0.979573 0 0.201089
    outer loop
      vertex 344.8 20 9.02
      vertex 347.054 241.4 20
      vertex 344.8 241.4 9.02
    endloop
  endfacet
  facet normal -0.979573 0 0.201089
    outer loop
      vertex 347.054 241.4 20
      vertex 344.8 20 9.02
      vertex 347.054 20 20
    endloop
  endfacet
  facet normal 1 -0 0
    outer loop
      vertex 358.8 20 9.02
      vertex 358.8 241.4 9
      vertex 358.8 241.4 9.02
    endloop
  endfacet
  facet normal 1 0 0
    outer loop
      vertex 358.8 241.4 9
      vertex 358.8 20 9.02
      vertex 358.8 20 9
    endloop
  endfacet
  facet normal -1 0 0
    outer loop
      vertex 344.8 20 9
      vertex 344.8 241.4 9.02
      vertex 344.8 241.4 9
    endloop
  endfacet
  facet normal -1 -0 0
    outer loop
      vertex 344.8 241.4 9.02
      vertex 344.8 20 9
      vertex 344.8 20 9.02
    endloop
  endfacet
  facet normal 0.979573 -0 0.201089
    outer loop
      vertex 356.546 20 20
      vertex 358.8 241.4 9.02
      vertex 356.546 241.4 20
    endloop
  endfacet
  facet normal 0.979573 0 0.201089
    outer loop
      vertex 358.8 241.4 9.02
      vertex 356.546 20 20
      vertex 358.8 20 9.02
    endloop
  endfacet
  facet normal 0 0 -1
    outer loop
      vertex 344.8 9.02 20
      vertex 358.8 9.02 20
      vertex 358.8 9 20
    endloop
  endfacet
  facet normal 0 0 -1
    outer loop
      vertex 358.8 9.02 20
      vertex 347.054 20 20
      vertex 356.546 20 20
    endloop
  endfacet
  facet normal 0 0 -1
    outer loop
      vertex 344.8 9.02 20
      vertex 358.8 9 20
      vertex 344.8 9 20
    endloop
  endfacet
  facet normal 0 0 -1
    outer loop
      vertex 358.8 9.02 20
      vertex 344.8 9.02 20
      vertex 347.054 20 20
    endloop
  endfacet
  facet normal 0.979573 0.201089 0
    outer loop
      vertex 358.8 9.02 186.267
      vertex 356.546 20 20
      vertex 356.546 20 186.267
    endloop
  endfacet
  facet normal 0.979573 0.201089 0
    outer loop
      vertex 356.546 20 20
      vertex 358.8 9.02 186.267
      vertex 358.8 9.02 20
    endloop
  endfacet
  facet normal -1 0 0
    outer loop
      vertex 344.8 9 20
      vertex 344.8 9.02 186.267
      vertex 344.8 9.02 20
    endloop
  endfacet
  facet normal -1 -0 0
    outer loop
      vertex 344.8 9.02 186.267
      vertex 344.8 9 20
      vertex 344.8 9 186.267
    endloop
  endfacet
  facet normal 0 -1 0
    outer loop
      vertex 344.8 9 20
      vertex 358.8 9 186.267
      vertex 344.8 9 186.267
    endloop
  endfacet
  facet normal 0 -1 -0
    outer loop
      vertex 358.8 9 186.267
      vertex 344.8 9 20
      vertex 358.8 9 20
    endloop
  endfacet
  facet normal 1 -0 0
    outer loop
      vertex 358.8 9 186.267
      vertex 358.8 9.02 20
      vertex 358.8 9.02 186.267
    endloop
  endfacet
  facet normal 1 0 0
    outer loop
      vertex 358.8 9.02 20
      vertex 358.8 9 186.267
      vertex 358.8 9 20
    endloop
  endfacet
  facet normal -0.979573 0.201089 0
    outer loop
      vertex 344.8 9.02 20
      vertex 347.054 20 186.267
      vertex 347.054 20 20
    endloop
  endfacet
  facet normal -0.979573 0.201089 0
    outer loop
      vertex 347.054 20 186.267
      vertex 344.8 9.02 20
      vertex 344.8 9.02 186.267
    endloop
  endfacet
endsolid OpenSCAD_Model
