solid OpenSCAD_Model
  facet normal 1 0 0
    outer loop
      vertex 186.3 174.417 527.55
      vertex 186.3 312.133 531.4
      vertex 186.3 174.417 531.4
    endloop
  endfacet
  facet normal 1 0 0
    outer loop
      vertex 186.3 312.133 531.4
      vertex 186.3 174.417 527.55
      vertex 186.3 312.133 524.2
    endloop
  endfacet
  facet normal 1 0 0
    outer loop
      vertex 186.3 156.067 524.2
      vertex 186.3 174.417 527.55
      vertex 186.3 174.397 527.55
    endloop
  endfacet
  facet normal 1 0 0
    outer loop
      vertex 186.3 174.417 527.55
      vertex 186.3 156.067 524.2
      vertex 186.3 312.133 524.2
    endloop
  endfacet
  facet normal 1 0 0
    outer loop
      vertex 186.3 156.067 524.2
      vertex 186.3 174.397 527.55
      vertex 186.3 156.067 531.05
    endloop
  endfacet
  facet normal 1 0 0
    outer loop
      vertex 186.3 312.133 549.6
      vertex 186.3 174.417 546.25
      vertex 186.3 312.133 542.4
    endloop
  endfacet
  facet normal 1 -0 0
    outer loop
      vertex 186.3 156.067 549.6
      vertex 186.3 174.417 546.25
      vertex 186.3 312.133 549.6
    endloop
  endfacet
  facet normal 1 0 0
    outer loop
      vertex 186.3 174.417 546.25
      vertex 186.3 156.067 549.6
      vertex 186.3 174.397 546.25
    endloop
  endfacet
  facet normal 1 0 0
    outer loop
      vertex 186.3 174.397 546.25
      vertex 186.3 156.067 549.6
      vertex 186.3 156.067 542.75
    endloop
  endfacet
  facet normal 1 0 0
    outer loop
      vertex 186.3 312.133 542.4
      vertex 186.3 174.417 546.25
      vertex 186.3 174.417 542.4
    endloop
  endfacet
  facet normal -0 0 1
    outer loop
      vertex 0 312.133 549.6
      vertex 186.3 156.067 549.6
      vertex 186.3 312.133 549.6
    endloop
  endfacet
  facet normal 0 0 1
    outer loop
      vertex 186.3 156.067 549.6
      vertex 0 312.133 549.6
      vertex 0 156.067 549.6
    endloop
  endfacet
  facet normal 0 0 -1
    outer loop
      vertex 18.6 156.067 524.2
      vertex 186.3 312.133 524.2
      vertex 186.3 156.067 524.2
    endloop
  endfacet
  facet normal -0 0 -1
    outer loop
      vertex 186.3 312.133 524.2
      vertex 18.6 156.067 524.2
      vertex 18.6 312.133 524.2
    endloop
  endfacet
  facet normal 0 0 -1
    outer loop
      vertex 0 156.067 524.2
      vertex 6.8 312.133 524.2
      vertex 6.8 156.067 524.2
    endloop
  endfacet
  facet normal -0 0 -1
    outer loop
      vertex 6.8 312.133 524.2
      vertex 0 156.067 524.2
      vertex 0 312.133 524.2
    endloop
  endfacet
  facet normal -1 0 0
    outer loop
      vertex 0 174.417 527.55
      vertex 0 312.133 531.4
      vertex 0 312.133 524.2
    endloop
  endfacet
  facet normal -1 -0 0
    outer loop
      vertex 0 312.133 531.4
      vertex 0 174.417 527.55
      vertex 0 312.133 542.4
    endloop
  endfacet
  facet normal -1 0 0
    outer loop
      vertex 0 174.417 546.25
      vertex 0 312.133 542.4
      vertex 0 174.417 527.55
    endloop
  endfacet
  facet normal -1 0 0
    outer loop
      vertex 0 156.067 524.2
      vertex 0 174.417 527.55
      vertex 0 312.133 524.2
    endloop
  endfacet
  facet normal -1 -0 0
    outer loop
      vertex 0 174.417 527.55
      vertex 0 156.067 524.2
      vertex 0 174.397 527.55
    endloop
  endfacet
  facet normal -1 -0 0
    outer loop
      vertex 0 174.397 527.55
      vertex 0 156.067 524.2
      vertex 0 156.067 531.05
    endloop
  endfacet
  facet normal -1 0 0
    outer loop
      vertex 0 330.113 527.9
      vertex 0 330.133 545.9
      vertex 0 330.133 527.9
    endloop
  endfacet
  facet normal -1 0 0
    outer loop
      vertex 0 330.113 527.9
      vertex 0 330.113 545.9
      vertex 0 330.133 545.9
    endloop
  endfacet
  facet normal -1 0 0
    outer loop
      vertex 0 312.133 531.4
      vertex 0 330.113 545.9
      vertex 0 330.113 527.9
    endloop
  endfacet
  facet normal -1 0 0
    outer loop
      vertex 0 330.113 545.9
      vertex 0 312.133 531.4
      vertex 0 312.133 542.4
    endloop
  endfacet
  facet normal -1 0 0
    outer loop
      vertex 0 312.133 542.4
      vertex 0 174.417 546.25
      vertex 0 312.133 549.6
    endloop
  endfacet
  facet normal -1 0 0
    outer loop
      vertex 0 156.067 549.6
      vertex 0 174.417 546.25
      vertex 0 174.397 546.25
    endloop
  endfacet
  facet normal -1 0 0
    outer loop
      vertex 0 174.417 546.25
      vertex 0 156.067 549.6
      vertex 0 312.133 549.6
    endloop
  endfacet
  facet normal -1 0 0
    outer loop
      vertex 0 156.067 549.6
      vertex 0 174.397 546.25
      vertex 0 156.067 542.75
    endloop
  endfacet
  facet normal 0 1 0
    outer loop
      vertex 0 312.133 524.2
      vertex 5.05525 312.133 531.4
      vertex 6.8 312.133 524.2
    endloop
  endfacet
  facet normal 0 1 0
    outer loop
      vertex 5.05525 312.133 531.4
      vertex 0 312.133 524.2
      vertex 0 312.133 531.4
    endloop
  endfacet
  facet normal 0 1 -0
    outer loop
      vertex 186.3 312.133 524.2
      vertex 20.3447 312.133 531.4
      vertex 186.3 312.133 531.4
    endloop
  endfacet
  facet normal 0 1 0
    outer loop
      vertex 20.3447 312.133 531.4
      vertex 186.3 312.133 524.2
      vertex 18.6 312.133 524.2
    endloop
  endfacet
  facet normal 0 1 -0
    outer loop
      vertex 186.3 312.133 542.4
      vertex 0 312.133 549.6
      vertex 186.3 312.133 549.6
    endloop
  endfacet
  facet normal 0 1 0
    outer loop
      vertex 0 312.133 549.6
      vertex 186.3 312.133 542.4
      vertex 0 312.133 542.4
    endloop
  endfacet
  facet normal 0 1 0
    outer loop
      vertex 204.28 312.133 527.9
      vertex 204.28 312.133 545.9
      vertex 204.3 312.133 545.9
    endloop
  endfacet
  facet normal 0 1 0
    outer loop
      vertex 204.28 312.133 545.9
      vertex 186.3 312.133 531.4
      vertex 186.3 312.133 542.4
    endloop
  endfacet
  facet normal 0 1 0
    outer loop
      vertex 204.28 312.133 527.9
      vertex 204.3 312.133 545.9
      vertex 204.3 312.133 527.9
    endloop
  endfacet
  facet normal 0 1 0
    outer loop
      vertex 204.28 312.133 545.9
      vertex 204.28 312.133 527.9
      vertex 186.3 312.133 531.4
    endloop
  endfacet
  facet normal 0 -1 0
    outer loop
      vertex 0 156.067 542.75
      vertex 186.3 156.067 549.6
      vertex 0 156.067 549.6
    endloop
  endfacet
  facet normal 0 -1 -0
    outer loop
      vertex 186.3 156.067 549.6
      vertex 0 156.067 542.75
      vertex 186.3 156.067 542.75
    endloop
  endfacet
  facet normal 0 -1 0
    outer loop
      vertex 186.3 156.067 524.2
      vertex 20.2599 156.067 531.05
      vertex 18.6 156.067 524.2
    endloop
  endfacet
  facet normal 0 -1 0
    outer loop
      vertex 20.2599 156.067 531.05
      vertex 186.3 156.067 524.2
      vertex 186.3 156.067 531.05
    endloop
  endfacet
  facet normal 0 -1 0
    outer loop
      vertex 0 156.067 524.2
      vertex 5.14006 156.067 531.05
      vertex 0 156.067 531.05
    endloop
  endfacet
  facet normal 0 -1 -0
    outer loop
      vertex 5.14006 156.067 531.05
      vertex 0 156.067 524.2
      vertex 6.8 156.067 524.2
    endloop
  endfacet
  facet normal 0 -1 0
    outer loop
      vertex 186.65 156.067 531.332
      vertex 204.28 156.067 545.9
      vertex 186.65 156.067 542.468
    endloop
  endfacet
  facet normal 0 -1 0
    outer loop
      vertex 204.28 156.067 527.9
      vertex 204.28 156.067 545.9
      vertex 186.65 156.067 531.332
    endloop
  endfacet
  facet normal 0 -1 0
    outer loop
      vertex 204.28 156.067 545.9
      vertex 204.28 156.067 527.9
      vertex 204.3 156.067 545.9
    endloop
  endfacet
  facet normal 0 -1 -0
    outer loop
      vertex 204.3 156.067 545.9
      vertex 204.28 156.067 527.9
      vertex 204.3 156.067 527.9
    endloop
  endfacet
  facet normal 1 -0 0
    outer loop
      vertex 204.3 156.067 545.9
      vertex 204.3 312.133 527.9
      vertex 204.3 312.133 545.9
    endloop
  endfacet
  facet normal 1 0 0
    outer loop
      vertex 204.3 312.133 527.9
      vertex 204.3 156.067 545.9
      vertex 204.3 156.067 527.9
    endloop
  endfacet
  facet normal -0.191081 -0 -0.981574
    outer loop
      vertex 186.65 174.417 531.332
      vertex 204.28 156.067 527.9
      vertex 186.65 156.067 531.332
    endloop
  endfacet
  facet normal -0.191081 0 -0.981574
    outer loop
      vertex 204.28 156.067 527.9
      vertex 186.65 174.417 531.332
      vertex 204.28 312.133 527.9
    endloop
  endfacet
  facet normal -0.19072 -0 -0.981645
    outer loop
      vertex 186.3 312.133 531.4
      vertex 186.65 174.417 531.332
      vertex 186.3 174.417 531.4
    endloop
  endfacet
  facet normal -0.191074 -9.35539e-07 -0.981576
    outer loop
      vertex 186.65 174.417 531.332
      vertex 186.3 312.133 531.4
      vertex 204.28 312.133 527.9
    endloop
  endfacet
  facet normal 0 0 -1
    outer loop
      vertex 204.28 156.067 527.9
      vertex 204.3 312.133 527.9
      vertex 204.3 156.067 527.9
    endloop
  endfacet
  facet normal -0 0 -1
    outer loop
      vertex 204.3 312.133 527.9
      vertex 204.28 156.067 527.9
      vertex 204.28 312.133 527.9
    endloop
  endfacet
  facet normal -0.191081 0 0.981574
    outer loop
      vertex 204.28 312.133 545.9
      vertex 186.65 174.417 542.468
      vertex 204.28 156.067 545.9
    endloop
  endfacet
  facet normal -0.191074 -9.35539e-07 0.981576
    outer loop
      vertex 186.3 312.133 542.4
      vertex 186.65 174.417 542.468
      vertex 204.28 312.133 545.9
    endloop
  endfacet
  facet normal -0.19072 0 0.981645
    outer loop
      vertex 186.65 174.417 542.468
      vertex 186.3 312.133 542.4
      vertex 186.3 174.417 542.4
    endloop
  endfacet
  facet normal -0.191081 0 0.981574
    outer loop
      vertex 204.28 156.067 545.9
      vertex 186.65 174.417 542.468
      vertex 186.65 156.067 542.468
    endloop
  endfacet
  facet normal -0 0 1
    outer loop
      vertex 204.28 312.133 545.9
      vertex 204.3 156.067 545.9
      vertex 204.3 312.133 545.9
    endloop
  endfacet
  facet normal 0 0 1
    outer loop
      vertex 204.3 156.067 545.9
      vertex 204.28 312.133 545.9
      vertex 204.28 156.067 545.9
    endloop
  endfacet
  facet normal 1 -0 0
    outer loop
      vertex 186.3 330.113 545.9
      vertex 186.3 330.133 527.9
      vertex 186.3 330.133 545.9
    endloop
  endfacet
  facet normal 1 0 0
    outer loop
      vertex 186.3 330.113 545.9
      vertex 186.3 330.113 527.9
      vertex 186.3 330.133 527.9
    endloop
  endfacet
  facet normal 1 -0 0
    outer loop
      vertex 186.3 312.133 542.4
      vertex 186.3 330.113 527.9
      vertex 186.3 330.113 545.9
    endloop
  endfacet
  facet normal 1 0 0
    outer loop
      vertex 186.3 330.113 527.9
      vertex 186.3 312.133 542.4
      vertex 186.3 312.133 531.4
    endloop
  endfacet
  facet normal 0 -0.191074 0.981576
    outer loop
      vertex 0 330.113 545.9
      vertex 186.3 312.133 542.4
      vertex 186.3 330.113 545.9
    endloop
  endfacet
  facet normal 0 -0.191074 0.981576
    outer loop
      vertex 186.3 312.133 542.4
      vertex 0 330.113 545.9
      vertex 0 312.133 542.4
    endloop
  endfacet
  facet normal 0 1 0
    outer loop
      vertex 186.3 330.133 545.9
      vertex 21.6 330.133 536.6
      vertex 0 330.133 545.9
    endloop
  endfacet
  facet normal 0 1 0
    outer loop
      vertex 186.3 330.133 545.9
      vertex 21.6 330.133 536.58
      vertex 21.6 330.133 536.6
    endloop
  endfacet
  facet normal 0 1 -0
    outer loop
      vertex 186.3 330.133 527.9
      vertex 21.6 330.133 536.58
      vertex 186.3 330.133 545.9
    endloop
  endfacet
  facet normal 0 1 0
    outer loop
      vertex 21.6 330.133 536.58
      vertex 186.3 330.133 527.9
      vertex 19.4966 330.133 527.9
    endloop
  endfacet
  facet normal 0 1 -0
    outer loop
      vertex 3.8 330.133 536.6
      vertex 0 330.133 545.9
      vertex 21.6 330.133 536.6
    endloop
  endfacet
  facet normal 0 1 0
    outer loop
      vertex 0 330.133 527.9
      vertex 3.8 330.133 536.6
      vertex 3.8 330.133 536.58
    endloop
  endfacet
  facet normal 0 1 0
    outer loop
      vertex 0 330.133 527.9
      vertex 3.8 330.133 536.58
      vertex 5.90339 330.133 527.9
    endloop
  endfacet
  facet normal 0 1 0
    outer loop
      vertex 3.8 330.133 536.6
      vertex 0 330.133 527.9
      vertex 0 330.133 545.9
    endloop
  endfacet
  facet normal -0 0 1
    outer loop
      vertex 0 330.133 545.9
      vertex 186.3 330.113 545.9
      vertex 186.3 330.133 545.9
    endloop
  endfacet
  facet normal 0 0 1
    outer loop
      vertex 186.3 330.113 545.9
      vertex 0 330.133 545.9
      vertex 0 330.113 545.9
    endloop
  endfacet
  facet normal 0 -0.191074 -0.981576
    outer loop
      vertex 0 330.113 527.9
      vertex 5.05525 312.133 531.4
      vertex 0 312.133 531.4
    endloop
  endfacet
  facet normal 0 -0.191074 -0.981576
    outer loop
      vertex 5.05525 312.133 531.4
      vertex 0 330.113 527.9
      vertex 5.90339 330.113 527.9
    endloop
  endfacet
  facet normal 0 -0.191074 -0.981576
    outer loop
      vertex 20.3447 312.133 531.4
      vertex 186.3 330.113 527.9
      vertex 186.3 312.133 531.4
    endloop
  endfacet
  facet normal -0 -0.191074 -0.981576
    outer loop
      vertex 186.3 330.113 527.9
      vertex 20.3447 312.133 531.4
      vertex 19.4966 330.113 527.9
    endloop
  endfacet
  facet normal 0 0 -1
    outer loop
      vertex 0 330.113 527.9
      vertex 5.90339 330.133 527.9
      vertex 5.90339 330.113 527.9
    endloop
  endfacet
  facet normal -0 0 -1
    outer loop
      vertex 5.90339 330.133 527.9
      vertex 0 330.113 527.9
      vertex 0 330.133 527.9
    endloop
  endfacet
  facet normal 0 0 -1
    outer loop
      vertex 19.4966 330.113 527.9
      vertex 186.3 330.133 527.9
      vertex 186.3 330.113 527.9
    endloop
  endfacet
  facet normal -0 0 -1
    outer loop
      vertex 186.3 330.133 527.9
      vertex 19.4966 330.113 527.9
      vertex 19.4966 330.133 527.9
    endloop
  endfacet
  facet normal -1 0 0
    outer loop
      vertex 186.65 156.067 531.332
      vertex 186.65 174.417 542.468
      vertex 186.65 174.417 531.332
    endloop
  endfacet
  facet normal -1 -0 0
    outer loop
      vertex 186.65 174.417 542.468
      vertex 186.65 156.067 531.332
      vertex 186.65 156.067 542.468
    endloop
  endfacet
  facet normal 0 0.187555 -0.982254
    outer loop
      vertex 0 156.067 542.75
      vertex 186.3 174.397 546.25
      vertex 186.3 156.067 542.75
    endloop
  endfacet
  facet normal 0 0.187555 -0.982254
    outer loop
      vertex 186.3 174.397 546.25
      vertex 0 156.067 542.75
      vertex 0 174.397 546.25
    endloop
  endfacet
  facet normal 0 -1 0
    outer loop
      vertex 186.3 174.417 527.55
      vertex 21.6 174.417 536.58
      vertex 19.4118 174.417 527.55
    endloop
  endfacet
  facet normal 0 -1 0
    outer loop
      vertex 21.6 174.417 536.58
      vertex 186.3 174.417 527.55
      vertex 186.3 174.417 531.4
    endloop
  endfacet
  facet normal 0 -1 0
    outer loop
      vertex 21.6 174.417 536.6
      vertex 186.3 174.417 546.25
      vertex 0 174.417 546.25
    endloop
  endfacet
  facet normal 0 -1 0
    outer loop
      vertex 21.6 174.417 536.6
      vertex 0 174.417 546.25
      vertex 3.8 174.417 536.6
    endloop
  endfacet
  facet normal 0 -1 0
    outer loop
      vertex 0 174.417 527.55
      vertex 3.8 174.417 536.6
      vertex 0 174.417 546.25
    endloop
  endfacet
  facet normal 0 -1 -0
    outer loop
      vertex 3.8 174.417 536.6
      vertex 0 174.417 527.55
      vertex 3.8 174.417 536.58
    endloop
  endfacet
  facet normal 0 -1 -0
    outer loop
      vertex 3.8 174.417 536.58
      vertex 0 174.417 527.55
      vertex 5.98821 174.417 527.55
    endloop
  endfacet
  facet normal 0 -1 -0
    outer loop
      vertex 186.3 174.417 546.25
      vertex 21.6 174.417 536.6
      vertex 186.3 174.417 542.4
    endloop
  endfacet
  facet normal 0 -1 0
    outer loop
      vertex 21.6 174.417 536.58
      vertex 186.3 174.417 542.4
      vertex 21.6 174.417 536.6
    endloop
  endfacet
  facet normal 0 -1 0
    outer loop
      vertex 186.3 174.417 531.4
      vertex 186.3 174.417 542.4
      vertex 21.6 174.417 536.58
    endloop
  endfacet
  facet normal 0 -1 0
    outer loop
      vertex 186.3 174.417 531.4
      vertex 186.65 174.417 542.468
      vertex 186.3 174.417 542.4
    endloop
  endfacet
  facet normal 0 -1 -0
    outer loop
      vertex 186.65 174.417 542.468
      vertex 186.3 174.417 531.4
      vertex 186.65 174.417 531.332
    endloop
  endfacet
  facet normal 0 0 -1
    outer loop
      vertex 0 174.397 546.25
      vertex 186.3 174.417 546.25
      vertex 186.3 174.397 546.25
    endloop
  endfacet
  facet normal -0 0 -1
    outer loop
      vertex 186.3 174.417 546.25
      vertex 0 174.397 546.25
      vertex 0 174.417 546.25
    endloop
  endfacet
  facet normal -0 0.187555 0.982254
    outer loop
      vertex 0 174.397 527.55
      vertex 5.14006 156.067 531.05
      vertex 5.98821 174.397 527.55
    endloop
  endfacet
  facet normal 0 0.187555 0.982254
    outer loop
      vertex 5.14006 156.067 531.05
      vertex 0 174.397 527.55
      vertex 0 156.067 531.05
    endloop
  endfacet
  facet normal 0 0.187555 0.982254
    outer loop
      vertex 186.3 174.397 527.55
      vertex 20.2599 156.067 531.05
      vertex 186.3 156.067 531.05
    endloop
  endfacet
  facet normal 0 0.187555 0.982254
    outer loop
      vertex 20.2599 156.067 531.05
      vertex 186.3 174.397 527.55
      vertex 19.4118 174.397 527.55
    endloop
  endfacet
  facet normal -0 0 1
    outer loop
      vertex 0 174.417 527.55
      vertex 5.98821 174.397 527.55
      vertex 5.98821 174.417 527.55
    endloop
  endfacet
  facet normal 0 0 1
    outer loop
      vertex 5.98821 174.397 527.55
      vertex 0 174.417 527.55
      vertex 0 174.397 527.55
    endloop
  endfacet
  facet normal -0 0 1
    outer loop
      vertex 19.4118 174.417 527.55
      vertex 186.3 174.397 527.55
      vertex 186.3 174.417 527.55
    endloop
  endfacet
  facet normal 0 0 1
    outer loop
      vertex 186.3 174.397 527.55
      vertex 19.4118 174.417 527.55
      vertex 19.4118 174.397 527.55
    endloop
  endfacet
  facet normal 1 -0 0
    outer loop
      vertex 3.8 174.417 536.6
      vertex 3.8 330.133 536.58
      vertex 3.8 330.133 536.6
    endloop
  endfacet
  facet normal 1 0 0
    outer loop
      vertex 3.8 330.133 536.58
      vertex 3.8 174.417 536.6
      vertex 3.8 174.417 536.58
    endloop
  endfacet
  facet normal 0 0 -1
    outer loop
      vertex 3.8 174.417 536.6
      vertex 21.6 330.133 536.6
      vertex 21.6 174.417 536.6
    endloop
  endfacet
  facet normal -0 0 -1
    outer loop
      vertex 21.6 330.133 536.6
      vertex 3.8 174.417 536.6
      vertex 3.8 330.133 536.6
    endloop
  endfacet
  facet normal -1 0 0
    outer loop
      vertex 21.6 174.417 536.58
      vertex 21.6 330.133 536.6
      vertex 21.6 330.133 536.58
    endloop
  endfacet
  facet normal -1 -0 0
    outer loop
      vertex 21.6 330.133 536.6
      vertex 21.6 174.417 536.58
      vertex 21.6 174.417 536.6
    endloop
  endfacet
  facet normal -0.971873 -2.10732e-07 0.235504
    outer loop
      vertex 18.6 312.133 524.2
      vertex 19.4118 174.417 527.55
      vertex 20.3447 312.133 531.4
    endloop
  endfacet
  facet normal -0.971871 0 0.235512
    outer loop
      vertex 18.6 156.067 524.2
      vertex 19.4118 174.417 527.55
      vertex 18.6 312.133 524.2
    endloop
  endfacet
  facet normal -0.971871 0 0.235512
    outer loop
      vertex 19.4118 174.417 527.55
      vertex 18.6 156.067 524.2
      vertex 19.4118 174.397 527.55
    endloop
  endfacet
  facet normal -0.971873 1.27715e-06 0.235505
    outer loop
      vertex 19.4118 174.397 527.55
      vertex 18.6 156.067 524.2
      vertex 20.2599 156.067 531.05
    endloop
  endfacet
  facet normal -0.971872 0 0.235511
    outer loop
      vertex 19.4966 330.113 527.9
      vertex 21.6 330.133 536.58
      vertex 19.4966 330.133 527.9
    endloop
  endfacet
  facet normal -0.971872 2.44001e-06 0.235511
    outer loop
      vertex 20.3447 312.133 531.4
      vertex 21.6 330.133 536.58
      vertex 19.4966 330.113 527.9
    endloop
  endfacet
  facet normal -0.971872 -3.77471e-07 0.235509
    outer loop
      vertex 21.6 174.417 536.58
      vertex 20.3447 312.133 531.4
      vertex 19.4118 174.417 527.55
    endloop
  endfacet
  facet normal -0.97187 0 0.235519
    outer loop
      vertex 20.3447 312.133 531.4
      vertex 21.6 174.417 536.58
      vertex 21.6 330.133 536.58
    endloop
  endfacet
  facet normal 0.971872 0 0.23551
    outer loop
      vertex 3.8 330.133 536.58
      vertex 5.90339 330.113 527.9
      vertex 5.90339 330.133 527.9
    endloop
  endfacet
  facet normal 0.971872 6.10002e-08 0.23551
    outer loop
      vertex 3.8 330.133 536.58
      vertex 5.05525 312.133 531.4
      vertex 5.90339 330.113 527.9
    endloop
  endfacet
  facet normal 0.971872 -0 0.23551
    outer loop
      vertex 3.8 174.417 536.58
      vertex 5.05525 312.133 531.4
      vertex 3.8 330.133 536.58
    endloop
  endfacet
  facet normal 0.971872 1.58647e-08 0.23551
    outer loop
      vertex 5.98821 174.417 527.55
      vertex 5.05525 312.133 531.4
      vertex 3.8 174.417 536.58
    endloop
  endfacet
  facet normal 0.971872 2.40137e-08 0.23551
    outer loop
      vertex 5.05525 312.133 531.4
      vertex 5.98821 174.417 527.55
      vertex 6.8 312.133 524.2
    endloop
  endfacet
  facet normal 0.971872 0 0.235509
    outer loop
      vertex 6.8 156.067 524.2
      vertex 5.98821 174.417 527.55
      vertex 5.98821 174.397 527.55
    endloop
  endfacet
  facet normal 0.971872 0 0.235509
    outer loop
      vertex 5.98821 174.417 527.55
      vertex 6.8 156.067 524.2
      vertex 6.8 312.133 524.2
    endloop
  endfacet
  facet normal 0.971872 -2.9026e-07 0.235511
    outer loop
      vertex 6.8 156.067 524.2
      vertex 5.98821 174.397 527.55
      vertex 5.14006 156.067 531.05
    endloop
  endfacet
endsolid OpenSCAD_Model
